<?xml version="1.0" encoding="UTF-8" standalone="no"?>
<svg
   viewBox="0 0 500 500"
   version="1.1"
   id="svg174"
   sodipodi:docname="beginner.svg"
   inkscape:version="1.2.2 (b0a8486541, 2022-12-01)"
   xmlns:inkscape="http://www.inkscape.org/namespaces/inkscape"
   xmlns:sodipodi="http://sodipodi.sourceforge.net/DTD/sodipodi-0.dtd"
   xmlns="http://www.w3.org/2000/svg"
   xmlns:svg="http://www.w3.org/2000/svg">
  <defs
     id="defs178" />
  <sodipodi:namedview
     id="namedview176"
     pagecolor="#ffffff"
     bordercolor="#000000"
     borderopacity="0.25"
     inkscape:showpageshadow="2"
     inkscape:pageopacity="0.0"
     inkscape:pagecheckerboard="0"
     inkscape:deskcolor="#d1d1d1"
     showgrid="false"
     inkscape:zoom="2.9875065"
     inkscape:cx="256.06639"
     inkscape:cy="301.92403"
     inkscape:window-width="2822"
     inkscape:window-height="1718"
     inkscape:window-x="58"
     inkscape:window-y="48"
     inkscape:window-maximized="1"
     inkscape:current-layer="svg174" />
  <path
     id="path2"
     style="fill:#bbbbbf;fill-opacity:1;stroke-width:1.30649;opacity:0.4"
     d="m 336.8232,90.346327 c -36.36748,-0.448587 -72.90067,16.468333 -98.72612,49.180843 -19.649,24.82466 -33.65643,58.09888 -58.1368,74.35822 -25.28943,16.82052 -55.90777,11.56216 -83.578183,20.349 -34.674743,11.002 -64.158827,45.77898 -75.462771,89.15199 -6.954949,26.68591 -6.861216,56.02383 -0.516834,82.91028 H 462.55656 C 481.29639,358.97829 489.03423,301.73029 481.59606,251.94134 471.6791,185.57488 434.70559,125.95553 385.2941,101.86926 369.85301,94.342304 353.35386,90.550241 336.8232,90.346327 Z" />
  <g
     id="freepik--Desk--inject-6"
     transform="matrix(0.96023209,0,0,1.6186926,3.9928038,-250.73634)">
    <path
       d="m 490.35,406 c 0,0.15 -107.33,0.26 -239.7,0.26 -132.37,0 -239.72,-0.07 -239.72,-0.26 0,-0.19 107.3,-0.26 239.72,-0.26 132.42,0 239.7,0.16 239.7,0.26 z"
       style="fill:#263238"
       id="path5" />
  </g>
  <g
     id="freepik--character-1--inject-6"
     transform="matrix(1.5750894,0,0,1.6186926,-5.1817976,-250.73634)">
    <path
       d="m 212.48,366.78 c -3.71,-3.13 -6.58,-5.66 -9.84,-8.73 a 28.19,28.19 0 0 0 -17.93,-7.63 l -56.47,-2.83 h -10.1 c -5.73,0 -36.62,22.1 -40.84,26.7 l 28.19,25.58 3.51,-1.87 -0.41,8.68 82.23,-0.19 0.74,-12.1 15.27,9.82 20,-23.73 c 0,0 -8.11,-8.48 -14.35,-13.7 z"
       style="fill:#57ab27"
       id="path8" />
    <path
       d="m 192.15,355.07 a 34.12,34.12 0 0 0 -2.77,2.58 18.5,18.5 0 0 0 -4.12,8 24.33,24.33 0 0 0 -0.29,9.05 c 0.34,2.32 0.77,3.71 0.69,3.74 a 3.56,3.56 0 0 1 -0.38,-1 23,23 0 0 1 -0.68,-2.72 22.55,22.55 0 0 1 0.15,-9.23 17.65,17.65 0 0 1 4.36,-8.11 13.64,13.64 0 0 1 2.14,-1.83 3.47,3.47 0 0 1 0.9,-0.48 z"
       style="fill:#263238"
       id="path10" />
    <path
       d="m 153.68,397.17 a 5.37,5.37 0 0 1 -1.07,-0.39 c -0.68,-0.27 -1.65,-0.73 -2.81,-1.34 a 45.55,45.55 0 0 1 -15.43,-13.33 c -0.77,-1.06 -1.36,-1.95 -1.73,-2.59 a 4.68,4.68 0 0 1 -0.54,-1 c 0.08,0 1,1.31 2.56,3.37 a 54.48,54.48 0 0 0 7,7.36 53.72,53.72 0 0 0 8.31,5.87 c 2.27,1.29 3.75,1.97 3.71,2.05 z"
       style="fill:#263238"
       id="path12" />
    <path
       d="m 114.89,371.19 a 1.46,1.46 0 0 1 -0.66,0.25 4.38,4.38 0 0 1 -1.94,0 5,5 0 0 1 -2.49,-1.47 5.16,5.16 0 0 1 -1.31,-3.29 5.64,5.64 0 0 1 1,-3.4 6.11,6.11 0 0 1 2.17,-1.9 5.94,5.94 0 0 1 1.84,-0.59 c 0.45,-0.07 0.7,0 0.7,0 a 12.26,12.26 0 0 0 -2.36,0.93 6.1,6.1 0 0 0 -1.95,1.84 5.28,5.28 0 0 0 -0.86,3.11 4.7,4.7 0 0 0 3.38,4.42 6.83,6.83 0 0 0 2.48,0.1 z"
       style="fill:#fafafa"
       id="path14" />
    <path
       d="m 131.18,353.63 c 0,0 -0.09,0.27 -0.38,0.66 a 5.76,5.76 0 0 1 -1.55,1.37 6.9,6.9 0 0 1 -2.9,1 6.35,6.35 0 0 1 -6.44,-3.27 7,7 0 0 1 -0.89,-3 5.68,5.68 0 0 1 0.2,-2.06 c 0.14,-0.47 0.27,-0.7 0.3,-0.69 a 10.59,10.59 0 0 0 -0.14,2.71 7.17,7.17 0 0 0 1,2.75 6,6 0 0 0 6,3 7,7 0 0 0 2.77,-0.85 10.91,10.91 0 0 0 2.03,-1.62 z"
       style="fill:#fafafa"
       id="path16" />
    <path
       d="m 128.62,368.29 a 1.11,1.11 0 0 1 0.32,0 4,4 0 0 1 0.86,0.31 5.3,5.3 0 0 1 2.35,2.37 5,5 0 0 1 0.53,2.29 5.36,5.36 0 0 1 -0.73,2.6 5.65,5.65 0 0 1 -2.13,2.1 5.29,5.29 0 0 1 -3.15,0.62 6,6 0 0 1 -3,-1.17 5.51,5.51 0 0 1 -1.78,-2.4 6,6 0 0 1 0.28,-4.93 4,4 0 0 1 2.6,-2.07 2.32,2.32 0 0 1 0.92,0 c 0.2,0.05 0.3,0.09 0.3,0.11 a 3.9,3.9 0 0 0 -1.18,0.09 4,4 0 0 0 -2.32,2 5.79,5.79 0 0 0 -0.16,4.58 5,5 0 0 0 1.67,2.21 5.51,5.51 0 0 0 2.73,1.06 4.93,4.93 0 0 0 2.85,-0.54 5.31,5.31 0 0 0 1.95,-1.9 4.74,4.74 0 0 0 0.28,-4.49 5.36,5.36 0 0 0 -2.11,-2.36 c -0.7,-0.33 -1.09,-0.43 -1.08,-0.48 z"
       style="fill:#fafafa"
       id="path18" />
    <path
       d="m 128.5,402.16 c 0,-0.05 0.38,0.11 1.06,0.17 a 4.91,4.91 0 0 0 2.76,-0.6 4.72,4.72 0 0 0 2.42,-3.25 5.83,5.83 0 0 0 -1.32,-4.8 6.56,6.56 0 0 0 -4.54,-2.15 7.25,7.25 0 0 0 -4.1,0.9 5.66,5.66 0 0 0 -2.06,2 c -0.35,0.59 -0.44,1 -0.48,1 a 2.24,2.24 0 0 1 0.3,-1.06 5.44,5.44 0 0 1 2,-2.18 7.48,7.48 0 0 1 4.32,-1.06 7,7 0 0 1 4.91,2.3 6.2,6.2 0 0 1 1.39,5.22 5,5 0 0 1 -2.72,3.49 4.77,4.77 0 0 1 -3,0.47 2.7,2.7 0 0 1 -0.79,-0.23 c -0.07,-0.15 -0.15,-0.2 -0.15,-0.22 z"
       style="fill:#fafafa"
       id="path20" />
    <path
       d="m 149,391.65 c 0,0 0.25,-0.19 0.64,-0.56 a 4.44,4.44 0 0 0 1.17,-1.91 4.55,4.55 0 0 0 -0.2,-3.24 5.61,5.61 0 0 0 -2.9,-2.72 6.25,6.25 0 0 0 -4,-0.28 7.32,7.32 0 0 0 -2.95,1.57 9.9,9.9 0 0 0 -1.9,2.5 2.22,2.22 0 0 1 0.26,-0.83 5.92,5.92 0 0 1 1.39,-1.94 7.23,7.23 0 0 1 3.07,-1.76 6.55,6.55 0 0 1 4.34,0.26 6,6 0 0 1 3.13,3 4.74,4.74 0 0 1 0.11,3.54 4.22,4.22 0 0 1 -1.39,1.95 1.85,1.85 0 0 1 -0.77,0.42 z"
       style="fill:#fafafa"
       id="path22" />
    <path
       d="m 171.12,387.1 a 1.93,1.93 0 0 1 0.47,0.14 6.15,6.15 0 0 1 1.26,0.62 8.4,8.4 0 0 1 3.25,3.95 7.78,7.78 0 0 1 0.54,3.54 8.25,8.25 0 0 1 -1.4,3.88 8.52,8.52 0 0 1 -3.47,2.95 7.92,7.92 0 0 1 -4.85,0.51 c -3.33,-0.66 -6,-3.36 -6.38,-6.36 a 6,6 0 0 1 1.16,-3.95 30.66,30.66 0 0 1 2.15,-2.83 8.28,8.28 0 0 1 4.23,-2.87 4.49,4.49 0 0 1 1.4,-0.13 1,1 0 0 1 0.48,0.08 7.24,7.24 0 0 0 -1.83,0.25 8.28,8.28 0 0 0 -4,2.91 c -0.67,0.82 -1.38,1.78 -2.07,2.82 a 5.57,5.57 0 0 0 -1,3.67 c 0.32,2.74 2.87,5.28 6,5.9 a 7.44,7.44 0 0 0 4.54,-0.47 7.94,7.94 0 0 0 3.28,-2.76 7.77,7.77 0 0 0 1.37,-3.64 7.55,7.55 0 0 0 -0.45,-3.37 8.57,8.57 0 0 0 -3,-3.91 c -1.05,-0.68 -1.7,-0.88 -1.68,-0.93 z"
       style="fill:#fafafa"
       id="path24" />
    <path
       d="m 175.89,368.29 c 0,0 0.13,0 0.37,0 a 3.63,3.63 0 0 1 1,0.22 5.21,5.21 0 0 1 2.85,2.5 5.7,5.7 0 0 1 -0.33,5.55 6.66,6.66 0 0 1 -6.07,3 6.13,6.13 0 0 1 -3.44,-1.19 4.34,4.34 0 0 1 -1.66,-3 8.7,8.7 0 0 1 0.22,-3.05 6.91,6.91 0 0 1 1.07,-2.43 4.39,4.39 0 0 1 3.22,-1.95 3.1,3.1 0 0 1 1.05,0.08 c 0.23,0.07 0.34,0.12 0.33,0.14 a 5.13,5.13 0 0 0 -1.35,0 4.33,4.33 0 0 0 -2.95,1.95 8.16,8.16 0 0 0 -1.11,5.22 3.77,3.77 0 0 0 1.49,2.62 5.71,5.71 0 0 0 3.16,1.08 6.22,6.22 0 0 0 5.63,-2.75 5.34,5.34 0 0 0 0.41,-5.13 5.16,5.16 0 0 0 -2.59,-2.48 9.66,9.66 0 0 0 -1.3,-0.38 z"
       style="fill:#fafafa"
       id="path26" />
    <path
       d="m 187.33,360.47 a 7.56,7.56 0 0 1 -2.43,0.35 9.72,9.72 0 0 1 -5.74,-1.52 6.52,6.52 0 0 1 -2.21,-2.49 5.59,5.59 0 0 1 -0.57,-2.66 4.66,4.66 0 0 1 0.43,-1.78 c 0.2,-0.39 0.36,-0.56 0.39,-0.55 a 7.47,7.47 0 0 0 -0.45,2.33 5.63,5.63 0 0 0 0.63,2.44 6.4,6.4 0 0 0 2.08,2.28 10.15,10.15 0 0 0 5.44,1.58 c 1.49,0.04 2.42,-0.07 2.43,0.02 z"
       style="fill:#fafafa"
       id="path28" />
    <path
       d="m 196.33,364.34 a 3.85,3.85 0 0 1 1.24,0 6.66,6.66 0 0 1 3.25,1 4.2,4.2 0 0 1 1.53,1.86 4.78,4.78 0 0 1 0.25,2.75 5.88,5.88 0 0 1 -4.29,4.31 6,6 0 0 1 -3.26,0 5.5,5.5 0 0 1 -2.53,-1.69 5,5 0 0 1 -1,-4.88 4.83,4.83 0 0 1 2.15,-2.62 3.57,3.57 0 0 1 0.86,-0.35 c 0.21,-0.05 0.32,-0.06 0.33,0 0.01,0.06 -0.43,0.14 -1.08,0.57 a 4.82,4.82 0 0 0 -1.92,2.56 4.65,4.65 0 0 0 1,4.44 5,5 0 0 0 2.32,1.52 5.48,5.48 0 0 0 3,0 5.41,5.41 0 0 0 3.95,-3.9 4.43,4.43 0 0 0 -0.18,-2.49 3.9,3.9 0 0 0 -1.34,-1.72 7,7 0 0 0 -3.06,-1.12 8.81,8.81 0 0 1 -1.22,-0.24 z"
       style="fill:#fafafa"
       id="path30" />
    <path
       d="m 197.29,396.19 a 4.34,4.34 0 0 1 1,-0.21 14.37,14.37 0 0 0 2.69,-0.62 5.3,5.3 0 0 0 3,-2.45 4.82,4.82 0 0 0 -0.49,-4.58 5.71,5.71 0 0 0 -3.94,-2.58 5,5 0 0 0 -3.71,1.07 5.28,5.28 0 0 0 -1.62,2.14 c -0.23,0.6 -0.27,1 -0.32,1 a 2.2,2.2 0 0 1 0.13,-1 4.91,4.91 0 0 1 1.57,-2.36 5.24,5.24 0 0 1 4,-1.26 6.05,6.05 0 0 1 4.31,2.76 5.24,5.24 0 0 1 0.49,5.08 5.51,5.51 0 0 1 -3.32,2.59 11.75,11.75 0 0 1 -2.78,0.48 3.94,3.94 0 0 1 -1.01,-0.06 z"
       style="fill:#fafafa"
       id="path32" />
    <path
       d="m 219.75,385.79 a 2.66,2.66 0 0 1 -0.95,0.09 9.07,9.07 0 0 1 -2.57,-0.41 9.69,9.69 0 0 1 -3.4,-1.88 9.79,9.79 0 0 1 -2.73,-3.89 8.93,8.93 0 0 1 -0.53,-4.73 6.13,6.13 0 0 1 1.78,-3.46 4.9,4.9 0 0 1 2.29,-1.26 2.15,2.15 0 0 1 1,-0.06 7.51,7.51 0 0 1 -0.9,0.25 5.23,5.23 0 0 0 -2.09,1.33 5.91,5.91 0 0 0 -1.56,3.28 8.68,8.68 0 0 0 0.54,4.46 9.69,9.69 0 0 0 2.56,3.72 9.9,9.9 0 0 0 3.19,1.89 15.57,15.57 0 0 0 3.37,0.67 z"
       style="fill:#fafafa"
       id="path34" />
    <path
       d="m 96.42,363.77 a 3.57,3.57 0 0 1 0.48,0.9 13.57,13.57 0 0 1 0.85,2.65 14.12,14.12 0 0 1 0.28,4.14 12.1,12.1 0 0 1 -1.44,4.88 10.61,10.61 0 0 1 -3.51,3.7 9.82,9.82 0 0 1 -3.88,1.49 7.89,7.89 0 0 1 -2.8,0 3.2,3.2 0 0 1 -1,-0.31 12,12 0 0 0 3.71,0 10.48,10.48 0 0 0 7,-5.08 13.35,13.35 0 0 0 1.26,-8.7 c -0.37,-2.32 -1.05,-3.63 -0.95,-3.67 z"
       style="fill:#fafafa"
       id="path36" />
    <path
       d="m 106.18,385.58 c 0,0 0.26,-0.12 0.75,-0.26 a 7.65,7.65 0 0 0 1.94,-0.79 2.65,2.65 0 0 0 1.37,-2.43 3.19,3.19 0 0 0 -2.32,-2.5 5.63,5.63 0 0 0 -3.62,0.5 7.07,7.07 0 0 0 -2.51,1.76 2.8,2.8 0 0 0 -0.63,1.89 c 0,0.49 0.19,0.73 0.15,0.75 -0.04,0.02 -0.24,-0.2 -0.35,-0.72 a 2.83,2.83 0 0 1 0.54,-2.14 6.82,6.82 0 0 1 2.6,-2 5.86,5.86 0 0 1 4,-0.57 3.59,3.59 0 0 1 2.66,2.95 2.61,2.61 0 0 1 -0.49,1.76 3.48,3.48 0 0 1 -1.16,1 6.43,6.43 0 0 1 -2.09,0.68 2.62,2.62 0 0 1 -0.84,0.12 z"
       style="fill:#fafafa"
       id="path38" />
    <g
       style="opacity:0.3"
       id="g42">
      <path
         d="m 188.52,403.44 a 5.44,5.44 0 0 0 -3.23,-0.93 c -9.12,-0.54 -18.26,0.71 -27.4,0.91 -9.14,0.2 -18.62,-0.73 -26.57,-5.26 -2.5,-1.42 -4.91,-3 -7.48,-4.26 -4.49,-2.25 -10.84,-1.27 -14.57,1.59 l -0.64,11.19 c 25.47,0.2 52.89,-0.11 78.36,0.08 a 3,3 0 0 0 1.74,-0.36 c 0.92,-0.67 0.66,-2.23 -0.21,-2.96 z"
         id="path40" />
    </g>
    <path
       d="m 115.58,378.16 c -0.09,0 0.2,-1.3 0.47,-3.39 a 42.61,42.61 0 0 0 -1,-16.32 c -0.52,-2 -1,-3.28 -0.88,-3.31 a 2.87,2.87 0 0 1 0.41,0.83 c 0.23,0.55 0.52,1.36 0.83,2.38 a 36.46,36.46 0 0 1 1.45,8.18 35.66,35.66 0 0 1 -0.45,8.3 c -0.18,1 -0.37,1.88 -0.53,2.46 a 3.3,3.3 0 0 1 -0.3,0.87 z"
       style="fill:#263238"
       id="path44" />
    <path
       d="m 112.33,416.35 -33,32.38 h 76.27 c 0,0 4,-6.46 11.4,-5.92 7.4,0.54 40.59,9.74 50.59,8.1 L 208.84,415 c 0,0 -26.42,-7.66 -41.46,-4.75 a 21.7,21.7 0 0 0 -11,5.79 v 0 z"
       style="fill:#fafafa"
       id="path46" />
    <path
       d="m 112.33,416.35 h 0.46 1.38 l 5.37,-0.07 20.3,-0.21 14.39,-0.13 h 2 0.22 c -0.24,0.1 0,0 -0.1,0 l 0.19,-0.17 0.36,-0.35 0.77,-0.67 a 22,22 0 0 1 3.44,-2.35 21.35,21.35 0 0 1 8.32,-2.6 51.69,51.69 0 0 1 9.27,-0.27 97.62,97.62 0 0 1 9.73,1 167.64,167.64 0 0 1 20.51,4.33 h 0.13 V 415 c 2.73,11.15 5.69,23.27 8.77,35.89 l 0.07,0.29 h -0.28 a 24,24 0 0 1 -3.17,0.18 h -1.59 l -1.59,-0.12 c -1.06,-0.07 -2.13,-0.19 -3.19,-0.33 -1.06,-0.14 -2.14,-0.26 -3.21,-0.43 -4.28,-0.65 -8.6,-1.46 -12.94,-2.36 -6.59,-1.34 -13.06,-2.84 -19.43,-4.11 -3.17,-0.56 -6.39,-1.41 -9.42,-0.5 a 13.51,13.51 0 0 0 -7.27,5.4 l -0.09,0.12 h -0.13 l -76.31,-0.07 h -0.45 l 0.32,-0.31 24.28,-23.67 6.58,-6.39 1.72,-1.64 c 0.38,-0.37 0.59,-0.55 0.59,-0.55 l -0.57,0.6 -1.7,1.69 -6.53,6.47 -24.12,23.7 -0.12,-0.31 76.31,-0.07 -0.21,0.12 a 14,14 0 0 1 7.61,-5.6 12,12 0 0 1 4.85,-0.31 c 1.62,0.18 3.21,0.5 4.81,0.8 6.39,1.27 12.85,2.77 19.44,4.11 4.33,0.89 8.65,1.71 12.91,2.35 1.06,0.18 2.13,0.32 3.19,0.44 1.06,0.12 2.12,0.26 3.17,0.32 l 1.58,0.13 h 1.56 a 22.6,22.6 0 0 0 3.09,-0.16 l -0.21,0.31 c -3.07,-12.62 -6,-24.74 -8.73,-35.9 l 0.16,0.17 a 168.14,168.14 0 0 0 -20.43,-4.35 c -3.3,-0.48 -6.53,-0.84 -9.69,-1 a 51.85,51.85 0 0 0 -9.2,0.25 21,21 0 0 0 -8.19,2.53 21.83,21.83 0 0 0 -3.38,2.3 c -0.27,0.21 -0.51,0.44 -0.76,0.66 l -0.37,0.34 -0.18,0.17 c -0.06,0 0.11,0 -0.14,0.07 h -2.19 l -14.36,0.07 -20.29,0.07 h -6.84 z"
       style="fill:#263238"
       id="path48" />
    <path
       d="m 155.6,448.73 c -0.14,0 0,-7.36 0.23,-16.42 0.23,-9.06 0.61,-16.42 0.76,-16.41 0.15,0.01 0,7.35 -0.24,16.42 -0.24,9.07 -0.61,16.41 -0.75,16.41 z"
       style="fill:#263238"
       id="path50" />
    <path
       d="m 147.54,441.79 a 2.15,2.15 0 0 1 -0.52,0 l -1.5,0.05 -5.52,0.16 -18.14,0.05 -18.14,-0.08 -5.5,-0.07 h -1.49 a 3.36,3.36 0 0 1 -0.52,0 10.14,10.14 0 0 1 2,-0.14 c 1.3,0 3.18,-0.07 5.5,-0.1 4.64,-0.06 11.06,-0.08 18.14,-0.08 7.08,0 13.5,0 18.15,0.11 l 5.49,0.09 1.5,0.06 a 1.65,1.65 0 0 1 0.55,-0.05 z"
       style="fill:#263238"
       id="path52" />
    <path
       d="m 148.44,437.25 a 1.91,1.91 0 0 1 -0.49,0.05 h -1.42 -5.2 l -17.16,-0.18 -17.17,-0.29 -5.2,-0.14 -1.41,-0.05 a 3.57,3.57 0 0 1 -0.49,0 9.09,9.09 0 0 1 1.9,-0.11 c 1.23,0 3,0 5.2,0 4.4,0 10.46,0.06 17.17,0.16 6.71,0.1 12.76,0.22 17.15,0.34 l 5.2,0.16 1.42,0.07 a 1.61,1.61 0 0 1 0.5,-0.01 z"
       style="fill:#263238"
       id="path54" />
    <path
       d="m 210.93,442.34 a 2.06,2.06 0 0 1 -0.53,0 h -1.52 c -1.32,0 -3.23,-0.09 -5.58,-0.28 a 94.9,94.9 0 0 1 -18.11,-3.31 c -3.47,-1 -6.68,-2.19 -9.65,-3.07 A 29.88,29.88 0 0 0 167.48,434.27 17.59,17.59 0 0 0 162,435 c -1.25,0.4 -1.9,0.74 -1.92,0.7 -0.02,-0.04 0.15,-0.12 0.46,-0.28 a 11.2,11.2 0 0 1 1.4,-0.61 16.44,16.44 0 0 1 5.52,-0.89 29.36,29.36 0 0 1 8.19,1.32 c 3,0.86 6.22,2.07 9.67,3 a 104.08,104.08 0 0 0 18,3.45 c 2.33,0.23 4.23,0.35 5.55,0.43 l 1.51,0.09 a 2,2 0 0 1 0.55,0.13 z"
       style="fill:#263238"
       id="path56" />
    <path
       d="m 211,436.09 a 1.56,1.56 0 0 1 -0.53,0 c -0.34,0 -0.85,0 -1.51,0 -1.32,0 -3.23,-0.08 -5.58,-0.27 a 94.76,94.76 0 0 1 -18.11,-3.31 c -3.47,-1 -6.68,-2.19 -9.65,-3.07 a 30.32,30.32 0 0 0 -8.07,-1.42 17.47,17.47 0 0 0 -5.45,0.72 c -1.25,0.39 -1.9,0.74 -1.92,0.69 a 2.27,2.27 0 0 1 0.45,-0.27 11.05,11.05 0 0 1 1.4,-0.61 16.3,16.3 0 0 1 5.53,-0.89 28.75,28.75 0 0 1 8.14,1.34 c 3,0.86 6.21,2.07 9.66,3 a 105.07,105.07 0 0 0 18,3.44 c 2.34,0.24 4.24,0.36 5.55,0.44 l 1.52,0.09 a 2.41,2.41 0 0 1 0.57,0.12 z"
       style="fill:#263238"
       id="path58" />
    <path
       d="m 211,429.85 a 2,2 0 0 1 -0.53,0 c -0.35,0 -0.86,0 -1.52,0 -1.32,0 -3.22,-0.08 -5.57,-0.28 a 94.5,94.5 0 0 1 -18.11,-3.3 c -3.48,-1 -6.69,-2.2 -9.66,-3.07 a 29.48,29.48 0 0 0 -8.06,-1.42 17.24,17.24 0 0 0 -5.46,0.72 c -1.25,0.39 -1.89,0.73 -1.91,0.69 -0.02,-0.04 0.14,-0.11 0.45,-0.28 a 12.74,12.74 0 0 1 1.4,-0.61 16.7,16.7 0 0 1 5.52,-0.89 29.16,29.16 0 0 1 8.2,1.33 c 3,0.86 6.21,2.06 9.66,3 a 105.07,105.07 0 0 0 18,3.44 c 2.34,0.24 4.24,0.35 5.55,0.44 l 1.51,0.09 a 1.84,1.84 0 0 1 0.53,0.14 z"
       style="fill:#263238"
       id="path60" />
    <path
       d="m 198.81,419.42 c 0,0 -0.13,0.06 -0.38,0.11 a 10.19,10.19 0 0 1 -1.11,0.19 24.87,24.87 0 0 1 -4.12,0.18 c -3.51,-0.06 -8.25,-1 -13.4,-2.22 a 70.55,70.55 0 0 0 -7.33,-1.26 32,32 0 0 0 -6.05,-0.11 31.68,31.68 0 0 0 -5.47,1.08 c 0,0 0.11,-0.08 0.35,-0.18 0.24,-0.1 0.58,-0.26 1,-0.4 a 20,20 0 0 1 4,-0.87 29.82,29.82 0 0 1 6.13,0 62.72,62.72 0 0 1 7.39,1.22 c 5.17,1.17 9.85,2.21 13.3,2.36 a 31.83,31.83 0 0 0 4.09,0 12.72,12.72 0 0 1 1.6,-0.1 z"
       style="fill:#263238"
       id="path62" />
    <path
       d="m 249.59,402.26 c -2.81,-2.95 -23.89,-20.4 -23.89,-20.4 l -16.19,19.22 9.94,5.34 c -0.8,0.25 -14.83,6.31 -19,8.15 -2.28,-1.63 -7.23,-5 -9.06,-5.25 -2.42,-0.29 -9.26,0 -9.26,0 0,0 -3.27,3.84 -2.56,4.27 0,0 -4.27,3.13 -3.7,5.12 l 0.57,2 a 1.76,1.76 0 0 0 -2.14,1.93 c 0,2.34 -0.28,3.33 1,4 a 4.85,4.85 0 0 0 1.57,4.13 31.9,31.9 0 0 0 3.84,3.28 2.07,2.07 0 0 0 0.85,3.27 21.15,21.15 0 0 0 7.69,2 c 1.16,0 10.7,-3.2 14.22,-4.39 0,0 44.74,-12.43 47.62,-16.89 2.47,-3.83 2.47,-11.62 -1.5,-15.78 z"
       style="fill:#ffbe9d"
       id="path64" />
    <path
       d="m 241.62,400.85 a 21.64,21.64 0 0 0 -6.45,-0.39 26.94,26.94 0 0 0 -6.78,1.75 76.08,76.08 0 0 0 -7.82,3.69 149.55,149.55 0 0 1 -14.22,6.82 c -1.89,0.74 -3.44,1.26 -4.52,1.57 -0.54,0.17 -1,0.27 -1.26,0.34 a 1.37,1.37 0 0 1 -0.45,0.08 12.36,12.36 0 0 1 1.64,-0.61 c 1.07,-0.37 2.59,-1 4.45,-1.73 3.72,-1.53 8.68,-4.06 14.12,-6.93 a 71.09,71.09 0 0 1 7.89,-3.68 26.07,26.07 0 0 1 6.92,-1.67 16.06,16.06 0 0 1 4.79,0.27 9,9 0 0 1 1.26,0.33 1.22,1.22 0 0 1 0.43,0.16 z"
       style="fill:#eb996e"
       id="path66" />
    <path
       d="m 189.92,413.19 c 0,0.07 -0.57,-0.24 -1.5,-0.51 a 9.9,9.9 0 0 0 -3.72,-0.27 24.69,24.69 0 0 0 -3.73,0.78 5.39,5.39 0 0 1 -1.57,0.34 4.56,4.56 0 0 1 1.46,-0.69 15.72,15.72 0 0 1 3.78,-0.94 8.54,8.54 0 0 1 3.9,0.43 c 0.95,0.37 1.46,0.81 1.38,0.86 z"
       style="fill:#eb996e"
       id="path68" />
    <path
       d="m 184.32,420.85 a 11.82,11.82 0 0 1 -7.67,-0.24 c 0,-0.14 1.73,0.19 3.83,0.24 2.1,0.05 3.81,-0.16 3.84,0 z"
       style="fill:#eb996e"
       id="path70" />
    <path
       d="m 185.29,427.34 a 11.12,11.12 0 0 1 -10.24,-0.91 27.82,27.82 0 0 0 5.06,1.19 28.65,28.65 0 0 0 5.18,-0.28 z"
       style="fill:#eb996e"
       id="path72" />
    <path
       d="m 189,432.91 a 7.66,7.66 0 0 1 -4,1.4 7.81,7.81 0 0 1 -4.22,-0.42 c 0,-0.16 1.89,0.19 4.15,-0.1 2.26,-0.29 3.99,-1.02 4.07,-0.88 z"
       style="fill:#eb996e"
       id="path74" />
    <path
       d="m 110.14,396.13 25.66,35.52 7.77,3.13 -1.29,-8.78 -25,-35.26 a 4.49,4.49 0 0 0 -3.88,-1.93 h -0.11 a 4.55,4.55 0 0 0 -3.15,7.32 z"
       style="fill:#455a64"
       id="path76" />
    <path
       d="m 110.23,396.31 c -0.06,0 0.11,-0.55 0.59,-1.29 a 8.59,8.59 0 0 1 2.47,-2.4 8.73,8.73 0 0 1 3.22,-1.22 2.89,2.89 0 0 1 1.42,0 15.89,15.89 0 0 0 -4.36,1.65 15.35,15.35 0 0 0 -3.34,3.26 z"
       style="fill:#263238"
       id="path78" />
    <path
       d="m 135.8,431.65 c 0,0 -0.14,-0.09 -0.27,-0.33 a 2.19,2.19 0 0 1 -0.27,-1.13 1.16,1.16 0 0 1 0.1,-0.42 l 0.16,-0.36 a 6.78,6.78 0 0 1 0.41,-0.8 5.45,5.45 0 0 1 1.52,-1.42 16.37,16.37 0 0 1 1.75,-1 4.63,4.63 0 0 1 1.64,-0.44 c 1,-0.06 1.53,0.29 1.5,0.34 a 10.94,10.94 0 0 0 -1.46,0 4.78,4.78 0 0 0 -1.46,0.5 c -0.52,0.29 -1.11,0.63 -1.68,1 a 5.84,5.84 0 0 0 -1.41,1.26 c -0.16,0.24 -0.29,0.49 -0.42,0.72 l -0.19,0.35 a 0.94,0.94 0 0 0 -0.1,0.28 6.86,6.86 0 0 0 0.18,1.45 z"
       style="fill:#263238"
       id="path80" />
    <path
       d="m 137.15,428 c -0.12,0.09 -5.69,-7.56 -12.45,-17.06 -6.76,-9.5 -12.15,-17.29 -12,-17.38 0.15,-0.09 5.69,7.56 12.45,17.07 6.76,9.51 12.12,17.29 12,17.37 z"
       style="fill:#263238"
       id="path82" />
    <path
       d="m 140.2,425.38 c -0.12,0.08 -5.61,-7.37 -12.27,-16.63 -6.66,-9.26 -12,-16.85 -11.85,-16.93 0.15,-0.08 5.61,7.36 12.27,16.62 6.66,9.26 11.96,16.85 11.85,16.94 z"
       style="fill:#263238"
       id="path84" />
    <path
       d="m 143,430.88 a 2.48,2.48 0 0 0 -2.22,0.42 2.42,2.42 0 0 0 -0.82,2.05 l 3.61,1.43 z"
       style="fill:#263238"
       id="path86" />
    <path
       d="m 135.84,418.41 c 2.36,-1.43 0,-6.57 0,-6.57 0,0 -11.43,-6.72 -13.1,-7.07 -0.94,-0.2 -7.29,0.45 -12.7,1.06 l -18.5,-7.73 7,-4.5 -20.12,-18.72 c 0,0 -18,13.2 -23.4,18.59 -4.06,4.07 -3.33,12.07 -3.33,12.07 2.73,7.21 45,17 48,17.67 l 15.66,9.25 c 0,0 6.69,0.88 9.48,1.23 2.79,0.35 3.2,-3.56 3.2,-3.56 a 4.24,4.24 0 0 0 4.86,-4.44 3.44,3.44 0 0 0 4.88,-1.61 c 1.69,-3.37 -1.93,-5.67 -1.93,-5.67 z"
       style="fill:#ffbe9d"
       id="path88" />
    <path
       d="m 91.44,398.33 c -0.07,0.08 -1.11,-1 -3.06,-2.32 a 25.38,25.38 0 0 0 -3.59,-2.07 28.47,28.47 0 0 0 -4.76,-1.7 27.92,27.92 0 0 0 -5,-0.75 25.77,25.77 0 0 0 -4.14,0.12 c -2.35,0.26 -3.76,0.7 -3.79,0.61 a 3.39,3.39 0 0 1 1,-0.37 10.31,10.31 0 0 1 1.18,-0.31 c 0.47,-0.09 1,-0.23 1.59,-0.3 A 23.5,23.5 0 0 1 75,391 a 26.15,26.15 0 0 1 5.11,0.72 26.47,26.47 0 0 1 4.89,1.79 23,23 0 0 1 3.6,2.2 c 0.49,0.33 0.89,0.71 1.26,1 a 9.5,9.5 0 0 1 0.89,0.83 4.48,4.48 0 0 1 0.69,0.79 z"
       style="fill:#eb996e"
       id="path90" />
    <path
       d="m 133.35,425.72 a 31.38,31.38 0 0 0 -3.24,-2.26 31.75,31.75 0 0 0 -3.72,-1.36 7.93,7.93 0 0 1 7,3.62 z"
       style="fill:#eb996e"
       id="path92" />
    <path
       d="m 137.17,419.71 a 45.6,45.6 0 0 0 -4.83,-2.56 49.51,49.51 0 0 0 -5.27,-1.45 13.82,13.82 0 0 1 10.1,4 z"
       style="fill:#eb996e"
       id="path94" />
    <path
       d="m 128.15,429.69 c -0.1,0.12 -1.32,-0.9 -3,-1.79 -1.68,-0.89 -3.24,-1.34 -3.21,-1.49 a 9.36,9.36 0 0 1 6.25,3.28 z"
       style="fill:#eb996e"
       id="path96" />
    <path
       d="m 212,320.8 c 0.21,-3.86 3.53,-7.23 3.05,-11.06 -0.48,-3.83 -4.45,-6.1 -6.59,-9.31 -2.59,-3.9 -2.35,-8.94 -3.12,-13.55 a 29.36,29.36 0 0 0 -7.63,-15.07 20.72,20.72 0 0 1 2,-1.66 c 2.09,-1.56 4.38,-3.14 5.32,-5.57 a 7.6,7.6 0 0 0 -1.1,-7 9.17,9.17 0 0 0 -16.52,6.86 28.9,28.9 0 0 0 -6,-1.89 30.73,30.73 0 0 0 -4.88,-3.48 13.22,13.22 0 0 0 -15.53,2.62 c -1.07,4.46 -2.25,8.91 -3.35,13.38 l -38.94,25.39 c -3.86,-1.43 -8.27,0.77 -10.86,4 -2.59,3.23 -3.85,7.24 -5.45,11 -1.6,3.76 -3.85,7.64 -7.5,9.54 -2,1.05 -4.69,1.79 -5.21,4 a 4,4 0 0 0 1.8,3.92 11.6,11.6 0 0 0 4.27,1.55 l 15.35,3.38 a 21.66,21.66 0 0 1 6.94,-4.32 c -1.12,1.6 -0.36,4 1.13,5.23 a 11.86,11.86 0 0 0 5.41,2.12 l 33.72,7.17 c 6.84,1.45 14.33,2.82 20.52,-0.43 2.65,-1.39 4.85,-3.56 7.57,-4.79 3.35,-1.51 7.16,-1.49 10.82,-1.35 3.66,0.14 7.43,0.37 10.91,-0.78 3.48,-1.15 6.66,-4.07 6.92,-7.73 0.29,-4.2 -3.24,-7.97 -3.05,-12.17 z"
       style="fill:#263238"
       id="path98" />
    <path
       d="m 197,272 a 33.9,33.9 0 0 0 -4.29,-4.33 32.06,32.06 0 0 0 -5.29,-3 12,12 0 0 1 5.61,2.61 12.17,12.17 0 0 1 3.97,4.72 z"
       style="fill:#57ab27"
       id="path100" />
    <path
       d="m 198.22,254.43 c 0,0 0.24,0 0.56,0.29 a 3.18,3.18 0 0 1 1,1.42 5.16,5.16 0 0 1 0.21,2.56 15.09,15.09 0 0 1 -0.79,3 17.08,17.08 0 0 1 -2.79,4.85 6.26,6.26 0 0 1 -1.66,1.61 26.41,26.41 0 0 0 4,-6.64 c 0.73,-2 1.17,-3.95 0.72,-5.25 a 4.32,4.32 0 0 0 -1.25,-1.84 z"
       style="fill:#455a64"
       id="path102" />
    <path
       d="m 190.49,293.4 c 0,-0.16 0,-0.32 0,-0.48 -0.58,-16.42 -14.29,-29.57 -30.71,-29 -0.79,0 -1.61,0.07 -2.43,0.13 a 38.52,38.52 0 0 0 -3.85,0.49 c -14.19,2.6 -24.21,15.45 -24,29.88 0.15,11.75 0.46,27.4 1.12,32 1.1,7.72 0.94,10.48 0.94,10.48 l 0.43,18 a 19.82,19.82 0 0 0 19.34,19.35 v 0 a 19.82,19.82 0 0 0 20.3,-19.79 v -9.26 c 12.23,-1.58 17.87,-13.38 18.67,-27.49 0.39,-7.52 0.7,-8.09 0.19,-24.31 z"
       style="fill:#ffbe9d"
       id="path104" />
    <path
       d="m 130.26,304.53 c -0.33,-0.14 -13.14,-4 -12.82,9.12 0.32,13.12 13.41,10.07 13.43,9.7 0.02,-0.37 -0.61,-18.82 -0.61,-18.82 z"
       style="fill:#ffbe9d"
       id="path106" />
    <path
       d="m 126.74,318.48 c -0.06,0 -0.22,0.17 -0.61,0.35 a 2.27,2.27 0 0 1 -1.7,0.08 c -1.4,-0.47 -2.62,-2.64 -2.74,-5 a 7.58,7.58 0 0 1 0.56,-3.29 2.63,2.63 0 0 1 1.68,-1.79 1.17,1.17 0 0 1 1.36,0.59 c 0.18,0.36 0.11,0.63 0.18,0.65 0.07,0.02 0.27,-0.23 0.15,-0.77 a 1.48,1.48 0 0 0 -0.53,-0.81 1.78,1.78 0 0 0 -1.27,-0.3 3.23,3.23 0 0 0 -2.34,2.09 7.8,7.8 0 0 0 -0.7,3.67 c 0.15,2.64 1.56,5.08 3.47,5.58 a 2.43,2.43 0 0 0 2.08,-0.4 c 0.4,-0.33 0.46,-0.63 0.41,-0.65 z"
       style="fill:#eb996e"
       id="path108" />
    <path
       d="m 184,300.78 c -0.36,0.37 -2.51,-1.25 -5.58,-1.26 -3.07,-0.01 -5.33,1.5 -5.66,1.12 -0.16,-0.17 0.2,-0.83 1.19,-1.54 a 7.72,7.72 0 0 1 4.54,-1.36 7.46,7.46 0 0 1 4.43,1.47 c 0.98,0.73 1.3,1.4 1.08,1.57 z"
       style="fill:#263238"
       id="path110" />
    <path
       d="m 156.19,301.75 c -0.36,0.37 -2.51,-1.25 -5.58,-1.26 -3.07,-0.01 -5.33,1.5 -5.66,1.12 -0.16,-0.16 0.2,-0.83 1.19,-1.54 a 7.87,7.87 0 0 1 4.54,-1.36 7.53,7.53 0 0 1 4.43,1.47 c 0.94,0.73 1.26,1.41 1.08,1.57 z"
       style="fill:#263238"
       id="path112" />
    <path
       d="m 154.08,293.39 c -0.25,0.78 -2.82,0.8 -5.65,1.52 -2.83,0.72 -5.08,1.77 -5.76,1.21 -0.31,-0.28 -0.1,-1 0.73,-1.83 a 8.92,8.92 0 0 1 4.14,-2.16 9.91,9.91 0 0 1 4.84,0 c 1.2,0.36 1.81,0.87 1.7,1.26 z"
       style="fill:#263238"
       id="path114" />
    <path
       d="m 183.29,291.61 c -0.68,0.9 -3.63,1.49 -6.59,1.3 -2.96,-0.19 -4.82,-1.07 -4.14,-2 0.68,-0.93 3.63,-1.49 6.59,-1.3 2.96,0.19 4.85,1.09 4.14,2 z"
       style="fill:#263238"
       id="path116" />
    <path
       d="m 162.17,325 c 0.05,0.18 -0.37,0.51 -1.18,0.62 a 4.34,4.34 0 0 1 -4.69,-3.56 c -0.11,-0.81 0.09,-1.3 0.28,-1.3 0.39,0 0.71,1.73 2.23,2.87 1.52,1.14 3.27,1.02 3.36,1.37 z"
       style="fill:#263238"
       id="path118" />
    <path
       d="m 171.58,345.2 c 0,0 -15.7,0.25 -19.41,-2.46 0,0 2.78,7.61 19.41,6.8 z"
       style="fill:#eb996e"
       id="path120" />
    <path
       d="m 166.22,307.91 c 0.19,-0.05 0.55,0.62 1,1.76 0.22,0.56 0.46,1.25 0.7,2 q 0.16,0.58 0.36,1.2 a 5.48,5.48 0 0 1 0.31,1.47 2.32,2.32 0 0 1 -0.61,1.75 2.64,2.64 0 0 1 -1.49,0.74 3.08,3.08 0 0 1 -1.4,-0.12 3.62,3.62 0 0 1 -1,-0.54 c -1,-0.84 -1.37,-1.54 -1.26,-1.66 0.11,-0.12 0.79,0.32 1.78,0.8 a 2.37,2.37 0 0 0 1.64,0.23 1.34,1.34 0 0 0 0.71,-0.4 1,1 0 0 0 0.21,-0.74 5.18,5.18 0 0 0 -0.23,-1.15 c -0.1,-0.42 -0.19,-0.83 -0.29,-1.23 -0.17,-0.78 -0.3,-1.5 -0.4,-2.1 -0.2,-1.19 -0.25,-1.92 -0.03,-2.01 z"
       style="fill:#263238"
       id="path122" />
    <path
       d="m 145.48,315.41 c -0.12,0 -0.17,-0.33 -0.1,-0.69 0.07,-0.36 0.23,-0.61 0.36,-0.59 0.13,0.02 0.18,0.33 0.1,0.69 -0.08,0.36 -0.23,0.61 -0.36,0.59 z"
       style="fill:#eb996e"
       id="path124" />
    <path
       d="m 151,314.26 c -0.12,0 -0.28,-0.09 -0.35,-0.3 -0.07,-0.21 0,-0.42 0.1,-0.46 0.1,-0.04 0.28,0.09 0.35,0.3 0.07,0.21 -0.01,0.42 -0.1,0.46 z"
       style="fill:#eb996e"
       id="path126" />
    <path
       d="m 148.19,317.57 c -0.13,0 -0.27,-0.26 -0.3,-0.61 -0.03,-0.35 0,-0.65 0.17,-0.66 0.17,-0.01 0.26,0.26 0.3,0.61 0.04,0.35 -0.04,0.65 -0.17,0.66 z"
       style="fill:#eb996e"
       id="path128" />
    <path
       d="m 141.27,316.94 c -0.12,0 -0.14,-0.36 0,-0.71 0.14,-0.35 0.29,-0.61 0.42,-0.57 0.13,0.04 0.14,0.36 0,0.71 -0.14,0.35 -0.29,0.63 -0.42,0.57 z"
       style="fill:#eb996e"
       id="path130" />
    <path
       d="m 177.74,314.13 c -0.13,0 -0.26,-0.23 -0.29,-0.54 -0.03,-0.31 0,-0.59 0.17,-0.6 0.17,-0.01 0.26,0.23 0.3,0.54 0.04,0.31 -0.05,0.59 -0.18,0.6 z"
       style="fill:#eb996e"
       id="path132" />
    <path
       d="m 182.87,314 c -0.13,0 -0.24,-0.28 -0.24,-0.63 0,-0.35 0.11,-0.64 0.24,-0.64 0.13,0 0.24,0.28 0.24,0.64 0,0.36 -0.11,0.63 -0.24,0.63 z"
       style="fill:#eb996e"
       id="path134" />
    <path
       d="m 187.11,313.74 c -0.13,0 -0.29,-0.24 -0.36,-0.59 -0.07,-0.35 0,-0.66 0.11,-0.68 0.11,-0.02 0.28,0.24 0.36,0.59 0.08,0.35 0.02,0.66 -0.11,0.68 z"
       style="fill:#eb996e"
       id="path136" />
    <path
       d="m 180.45,318.34 c -0.13,0 -0.15,-0.35 0,-0.7 0.15,-0.35 0.29,-0.61 0.42,-0.57 0.13,0.04 0.14,0.35 0,0.7 -0.14,0.35 -0.3,0.61 -0.42,0.57 z"
       style="fill:#eb996e"
       id="path138" />
    <path
       d="m 185.27,317.71 c -0.13,0 -0.26,-0.2 -0.3,-0.48 -0.04,-0.28 0,-0.53 0.17,-0.54 0.17,-0.01 0.27,0.2 0.3,0.48 0.03,0.28 -0.04,0.52 -0.17,0.54 z"
       style="fill:#eb996e"
       id="path140" />
    <path
       d="m 201.26,336.26 a 9,9 0 0 0 3.12,-2 10.21,10.21 0 0 0 2.3,-3.7 12.65,12.65 0 0 0 0.73,-5.71 22,22 0 0 0 -1.93,-6.76 c -1,-2.34 -2.39,-4.71 -3.73,-7.28 a 30.48,30.48 0 0 1 -3.19,-8.5 16.32,16.32 0 0 1 -0.13,-4.84 c 0.2,-1.63 0.56,-3.25 0.9,-4.87 a 26.07,26.07 0 0 0 0.66,-4.83 10.43,10.43 0 0 0 -0.86,-4.55 15.93,15.93 0 0 0 -5.94,-6.48 c -2.38,-1.58 -4.85,-2.8 -7.06,-4.11 -2.21,-1.31 -4.25,-2.55 -6.08,-3.74 -3.66,-2.39 -6.51,-4.48 -8.44,-6 -1,-0.74 -1.7,-1.34 -2.2,-1.75 l -0.55,-0.47 c -0.13,-0.11 -0.19,-0.17 -0.18,-0.17 0.01,0 0.08,0 0.21,0.13 l 0.59,0.43 2.26,1.67 c 2,1.44 4.84,3.49 8.51,5.83 1.83,1.17 3.87,2.41 6.1,3.68 2.23,1.27 4.68,2.49 7.11,4.09 a 16.33,16.33 0 0 1 6.14,6.67 11.06,11.06 0 0 1 0.91,4.77 26.57,26.57 0 0 1 -0.67,4.93 c -0.34,1.63 -0.7,3.23 -0.89,4.82 a 15.65,15.65 0 0 0 0.11,4.69 30,30 0 0 0 3.12,8.37 c 1.31,2.56 2.68,4.95 3.69,7.32 a 22.17,22.17 0 0 1 1.91,6.91 13,13 0 0 1 -0.82,5.85 10.49,10.49 0 0 1 -2.43,3.74 8.28,8.28 0 0 1 -2.34,1.58 5.86,5.86 0 0 1 -0.69,0.24 z"
       style="fill:#455a64"
       id="path142" />
    <path
       d="m 191.69,285.83 a 37.79,37.79 0 0 0 -15.78,-20.41 l -9.24,-6.13 a 20.69,20.69 0 0 0 -35.79,3.12 c -0.7,1.52 -1.24,3.16 -1.95,4.68 A 13.54,13.54 0 0 0 127,257.45 c -2.43,-3.59 -7.18,-5.65 -11.33,-4.42 a 10.07,10.07 0 0 0 -6.83,9.69 11.65,11.65 0 0 0 6.8,10 12.5,12.5 0 0 0 2.6,0.83 19.14,19.14 0 0 0 -6.09,1.65 10.05,10.05 0 0 0 -5.19,10 c 0.29,2.16 1.27,4.45 0.32,6.41 -0.74,1.51 -2.4,2.27 -3.76,3.26 a 11.77,11.77 0 0 0 -4.52,11.26 35.18,35.18 0 0 0 -5.24,9.36 c -3.21,8.42 3.11,8.81 5.08,10.64 l 11.59,-12 a 14.63,14.63 0 0 1 4.79,-1 58.65,58.65 0 0 1 7.23,0.22 24.17,24.17 0 0 0 8.38,-0.7 11.11,11.11 0 0 0 4.05,-2.21 12.28,12.28 0 0 0 2.88,-3.86 37,37 0 0 0 2.63,-9.6 c 0.64,-3.29 1.48,-6.54 3.28,-9.09 a 9.92,9.92 0 0 1 3.37,-3 14.56,14.56 0 0 1 4.17,-1.36 c 2.85,-0.53 5.67,-0.65 8.25,-1.32 a 11,11 0 0 0 6.18,-3.89 14.4,14.4 0 0 0 2.44,-5.53 28.72,28.72 0 0 0 0.62,-4.51 c 0,-0.53 0.06,-1 0.07,-1.43 a 61.46,61.46 0 0 0 21.05,20 c 0.64,0.37 1.65,0.63 2,0 a 1.39,1.39 0 0 0 -0.13,-1.02 z m -23.32,-17.58 a 30.6,30.6 0 0 1 -0.74,4.43 13.9,13.9 0 0 1 -2.45,5.31 10.39,10.39 0 0 1 -5.92,3.62 c -2.5,0.63 -5.3,0.73 -8.22,1.24 a 15.06,15.06 0 0 0 -4.38,1.42 10.59,10.59 0 0 0 -3.62,3.18 c -1.92,2.71 -2.77,6.05 -3.42,9.37 a 36.56,36.56 0 0 1 -2.56,9.43 11.58,11.58 0 0 1 -2.69,3.64 10.46,10.46 0 0 1 -3.8,2.1 23.8,23.8 0 0 1 -8.14,0.73 60.34,60.34 0 0 0 -7.29,-0.13 15.69,15.69 0 0 0 -4,0.78 l 0.75,-0.6 a 22.56,22.56 0 0 1 14.94,-4.59 5.9,5.9 0 0 0 3.45,-1 v 0 c 4,-1.09 6.84,-6.29 8.44,-10.45 1.37,-3.56 1.13,-7.81 3.42,-10.84 1.67,-2.2 4.38,-3.29 7,-3.88 2.62,-0.59 5.41,-0.78 8,-1.63 a 17,17 0 0 0 11,-12.18 7.47,7.47 0 0 0 0.19,-2 c 0.06,0.09 0.13,0.18 0.18,0.27 -0.03,0.53 -0.08,1.13 -0.14,1.78 z"
       style="fill:#263238"
       id="path144" />
    <path
       d="m 98.76,325.91 a 2.08,2.08 0 0 1 -0.18,-0.22 c -0.11,-0.15 -0.29,-0.37 -0.48,-0.68 a 14.13,14.13 0 0 1 -1.46,-2.86 16.33,16.33 0 0 1 -1,-5 15.06,15.06 0 0 1 1.24,-6.61 15.92,15.92 0 0 1 5.05,-6.37 c 2.36,-1.84 5.47,-2.78 8.66,-3.48 3.19,-0.7 6.67,-1.32 9.57,-3.34 a 11.35,11.35 0 0 0 3.45,-4 27,27 0 0 0 2,-5.16 c 1.11,-3.59 1.88,-7.33 4,-10.35 a 11.06,11.06 0 0 1 4,-3.53 15.71,15.71 0 0 1 4.89,-1.43 c 3.29,-0.44 6.42,-0.33 9.3,-0.73 a 22.2,22.2 0 0 0 7.61,-2.47 23.21,23.21 0 0 0 10.11,-10.57 c 0.15,-0.3 0.26,-0.55 0.36,-0.75 a 2.67,2.67 0 0 1 0.13,-0.25 17.44,17.44 0 0 1 -1.88,3.89 23.73,23.73 0 0 1 -8.54,8 22.72,22.72 0 0 1 -7.73,2.57 c -2.92,0.42 -6.07,0.33 -9.29,0.78 a 15,15 0 0 0 -4.74,1.4 10.74,10.74 0 0 0 -3.8,3.37 c -2,2.9 -2.79,6.6 -3.9,10.21 a 28.23,28.23 0 0 1 -2.08,5.26 11.84,11.84 0 0 1 -3.62,4.16 c -3,2.11 -6.59,2.67 -9.75,3.4 -3.16,0.73 -6.21,1.58 -8.52,3.35 a 15.8,15.8 0 0 0 -5,6.18 15,15 0 0 0 -1.28,6.45 15.93,15.93 0 0 0 0.91,4.92 20.06,20.06 0 0 0 1.97,3.86 z"
       style="fill:#455a64"
       id="path146" />
    <path
       d="m 174.83,306.07 a 2.64,2.64 0 0 0 2.32,2.85 2.52,2.52 0 0 0 2.89,-2.15 2.64,2.64 0 0 0 -2.31,-2.85 2.53,2.53 0 0 0 -2.9,2.15 z"
       style="fill:#263238"
       id="path148" />
    <path
       d="m 148,306.07 a 2.64,2.64 0 0 0 2.32,2.85 2.52,2.52 0 0 0 2.89,-2.15 2.64,2.64 0 0 0 -2.31,-2.85 2.53,2.53 0 0 0 -2.9,2.15 z"
       style="fill:#263238"
       id="path150" />
    <path
       d="m 129.4,265 a 5.4,5.4 0 0 1 -0.63,2.21 11.07,11.07 0 0 1 -3.5,4.3 11.22,11.22 0 0 1 -5.15,2.07 5.58,5.58 0 0 1 -2.3,-0.05 c 0,-0.09 0.88,-0.06 2.24,-0.32 a 12.33,12.33 0 0 0 4.9,-2.11 12.48,12.48 0 0 0 3.48,-4.05 c 0.65,-1.25 0.88,-2.05 0.96,-2.05 z"
       style="fill:#57ab27"
       id="path152" />
    <path
       d="m 126.38,270.21 a 3,3 0 0 1 -0.92,0 11.84,11.84 0 0 1 -2.43,-0.59 13.46,13.46 0 0 1 -9,-12.72 11.4,11.4 0 0 1 0.25,-2.48 2.82,2.82 0 0 1 0.27,-0.88 c 0.1,0 -0.24,1.29 -0.15,3.35 a 13.83,13.83 0 0 0 8.78,12.39 c 1.9,0.72 3.21,0.83 3.2,0.93 z"
       style="fill:#455a64"
       id="path154" />
    <path
       d="m 165.29,258.65 c 0,0 -0.39,-0.49 -1.23,-1.18 a 9,9 0 0 0 -4.17,-1.82 11.8,11.8 0 0 0 -6.67,0.87 27,27 0 0 0 -7,4.62 c -2.27,2 -4.37,3.95 -6.53,5.47 a 18,18 0 0 1 -6.28,3 11.4,11.4 0 0 1 -4.7,0.21 7.45,7.45 0 0 1 -1.24,-0.33 c -0.28,-0.1 -0.42,-0.16 -0.41,-0.18 0.01,-0.02 0.59,0.16 1.68,0.31 a 12.06,12.06 0 0 0 4.57,-0.36 18.13,18.13 0 0 0 6.1,-3 c 2.11,-1.52 4.18,-3.5 6.47,-5.48 a 26.84,26.84 0 0 1 7.15,-4.67 12,12 0 0 1 6.91,-0.78 8.76,8.76 0 0 1 4.24,2 5.61,5.61 0 0 1 0.87,0.95 c 0.18,0.22 0.26,0.35 0.24,0.37 z"
       style="fill:#455a64"
       id="path156" />
    <path
       d="m 168.05,259.52 a 10.18,10.18 0 0 1 0.4,0.94 17.15,17.15 0 0 0 1.38,2.55 27.51,27.51 0 0 0 7.68,7.38 c 1.86,1.29 4,2.59 6.21,4.07 a 36.31,36.31 0 0 1 6.65,5.41 17,17 0 0 1 4.47,8.31 c 0.62,3.31 -0.18,6.77 -1.24,10.06 -0.53,1.66 -1.14,3.26 -1.52,4.88 a 9.69,9.69 0 0 0 -0.07,4.81 13.28,13.28 0 0 0 2.21,4.15 c 0.92,1.26 1.9,2.46 2.71,3.74 a 13.38,13.38 0 0 1 2,8.28 18.54,18.54 0 0 1 -2,7.18 33.9,33.9 0 0 1 -6.58,8.52 c -0.91,0.89 -1.64,1.56 -2.14,2 l -0.57,0.51 q -0.19,0.17 -0.21,0.15 a 1.73,1.73 0 0 1 0.17,-0.19 l 0.54,-0.54 2.06,-2.07 a 35.24,35.24 0 0 0 6.4,-8.54 18.39,18.39 0 0 0 1.93,-7.05 13,13 0 0 0 -2,-8 c -0.8,-1.25 -1.78,-2.43 -2.72,-3.71 a 13.76,13.76 0 0 1 -2.29,-4.3 10.2,10.2 0 0 1 0.06,-5.06 c 0.39,-1.68 1,-3.28 1.52,-4.93 1.06,-3.26 1.83,-6.63 1.24,-9.81 a 16.61,16.61 0 0 0 -4.33,-8.08 35.71,35.71 0 0 0 -6.53,-5.37 c -2.21,-1.49 -4.32,-2.81 -6.18,-4.13 a 26.91,26.91 0 0 1 -7.64,-7.57 15.27,15.27 0 0 1 -1.31,-2.62 c -0.12,-0.32 -0.18,-0.57 -0.24,-0.73 a 0.8,0.8 0 0 1 -0.06,-0.24 z"
       style="fill:#455a64"
       id="path158" />
  </g>
  <g
     id="freepik--Pencil--inject-6"
     transform="matrix(1.5750894,0,0,1.6186926,-5.1817976,-250.73634)">
    <path
       d="m 241.84,449.18 39.21,4.57 6.82,-3.26 -6.62,-4.49 -38.65,-4.85 a 4,4 0 0 0 -3.64,1.4 l -0.06,0.08 a 4.1,4.1 0 0 0 2.94,6.55 z"
       style="fill:#57ab27"
       id="path161" />
    <path
       d="m 242,449.23 c -0.06,0 -0.31,-0.41 -0.52,-1.18 a 7.64,7.64 0 0 1 -0.09,-3.11 7.45,7.45 0 0 1 1.15,-2.88 c 0.46,-0.66 0.85,-1 0.89,-0.93 a 15.26,15.26 0 0 0 -1.53,3.9 14.9,14.9 0 0 0 0.1,4.2 z"
       style="fill:#263238"
       id="path163" />
    <path
       d="m 281.05,453.75 c 0,0 -0.59,0.11 -1.31,-0.52 a 1.29,1.29 0 0 1 -0.22,-0.32 l -0.14,-0.33 a 6.06,6.06 0 0 1 -0.28,-0.76 4.75,4.75 0 0 1 0,-1.88 11.87,11.87 0 0 1 0.4,-1.79 4,4 0 0 1 0.71,-1.36 c 0.56,-0.7 1.13,-0.84 1.15,-0.79 0.02,0.05 -0.42,0.33 -0.86,1 a 4.61,4.61 0 0 0 -0.54,1.28 c -0.13,0.52 -0.26,1.12 -0.35,1.73 a 5.35,5.35 0 0 0 0,1.69 c 0.06,0.25 0.14,0.49 0.22,0.72 l 0.12,0.34 a 0.72,0.72 0 0 0 0.12,0.23 c 0.45,0.56 1.03,0.67 0.98,0.76 z"
       style="fill:#263238"
       id="path165" />
    <path
       d="m 279.46,450.63 c 0,0.14 -8.5,-0.79 -18.93,-2.09 -10.43,-1.3 -18.88,-2.46 -18.86,-2.61 0.02,-0.15 8.49,0.8 18.92,2.09 10.43,1.29 18.88,2.47 18.87,2.61 z"
       style="fill:#263238"
       id="path167" />
    <path
       d="m 279.56,447 c 0,0.14 -8.31,-0.73 -18.52,-1.95 -10.21,-1.22 -18.47,-2.32 -18.46,-2.46 0.01,-0.14 8.31,0.73 18.53,1.95 10.22,1.22 18.47,2.33 18.45,2.46 z"
       style="fill:#263238"
       id="path169" />
    <path
       d="m 284.92,448.49 a 2.29,2.29 0 0 0 -1.07,1.73 2.2,2.2 0 0 0 0.87,1.8 l 3.15,-1.53 z"
       style="fill:#263238"
       id="path171" />
  </g>
</svg>
