<?xml version="1.0" encoding="UTF-8" standalone="no"?>
<svg
   viewBox="0 0 500 500"
   version="1.1"
   id="svg121"
   sodipodi:docname="browser.svg"
   inkscape:version="1.2.2 (b0a8486541, 2022-12-01)"
   xml:space="preserve"
   xmlns:inkscape="http://www.inkscape.org/namespaces/inkscape"
   xmlns:sodipodi="http://sodipodi.sourceforge.net/DTD/sodipodi-0.dtd"
   xmlns="http://www.w3.org/2000/svg"
   xmlns:svg="http://www.w3.org/2000/svg"><defs
     id="defs125"><rect
       x="53.225235"
       y="512.16541"
       width="711.71014"
       height="446.3363"
       id="rect50645" /><rect
       x="346.25385"
       y="385.4328"
       width="242.7775"
       height="201.16441"
       id="rect30843" /><rect
       x="96.856628"
       y="146.12955"
       width="721.29968"
       height="671.97717"
       id="rect3577" /><linearGradient
       id="linearGradient39043"
       inkscape:swatch="gradient"><stop
         style="stop-color:#2e12d8;stop-opacity:1;"
         offset="0"
         id="stop39039" /><stop
         style="stop-color:#2e12d8;stop-opacity:0;"
         offset="1"
         id="stop39041" /></linearGradient><linearGradient
       id="linearGradient30520"
       inkscape:swatch="gradient"><stop
         style="stop-color:#3da5d9;stop-opacity:1;"
         offset="0"
         id="stop30516" /><stop
         style="stop-color:#3da5d9;stop-opacity:0;"
         offset="1"
         id="stop30518" /></linearGradient><linearGradient
       id="98CE00"
       inkscape:swatch="solid"><stop
         style="stop-color:#00ff00;stop-opacity:1;"
         offset="0"
         id="stop22410" /></linearGradient></defs><sodipodi:namedview
     id="namedview123"
     pagecolor="#ffffff"
     bordercolor="#000000"
     borderopacity="0.25"
     inkscape:showpageshadow="2"
     inkscape:pageopacity="0.0"
     inkscape:pagecheckerboard="0"
     inkscape:deskcolor="#d1d1d1"
     showgrid="false"
     inkscape:zoom="1.4882952"
     inkscape:cx="355.44024"
     inkscape:cy="182.75944"
     inkscape:window-width="2822"
     inkscape:window-height="1718"
     inkscape:window-x="58"
     inkscape:window-y="48"
     inkscape:window-maximized="1"
     inkscape:current-layer="svg121" /><g
     id="freepik--background-simple--inject-8"
     style="fill:#b8bdff;fill-opacity:1"><path
       d="M464.86,303.39c-14.73,39.43-44.81,82.11-87.14,94.75-64,19.1-71.6,70.65-186.16,65.87A230.92,230.92,0,0,1,142,456.75,194.41,194.41,0,0,1,118.73,449C51.8,421.89,16.89,362.23,14,299.81c-3.82-82.11,53.46-121.24,90.69-144.15S186.79,44,299.44,47.77a224.06,224.06,0,0,1,50.92,7.44c37.91,10.26,76.44,32.95,98.84,66.12q2.52,3.75,4.82,7.64C484,179.82,484.93,249.63,464.86,303.39Z"
       style="fill:#b8bdff;fill-opacity:1"
       id="path2" /><path
       d="M464.86,303.39c-14.73,39.43-44.81,82.11-87.14,94.75-64,19.1-71.6,70.65-186.16,65.87A230.92,230.92,0,0,1,142,456.75,194.41,194.41,0,0,1,118.73,449C51.8,421.89,16.89,362.23,14,299.81c-3.82-82.11,53.46-121.24,90.69-144.15S186.79,44,299.44,47.77a224.06,224.06,0,0,1,50.92,7.44c37.91,10.26,76.44,32.95,98.84,66.12q2.52,3.75,4.82,7.64C484,179.82,484.93,249.63,464.86,303.39Z"
       style="fill:#b8bdff;opacity:0.7;fill-opacity:1"
       id="path4" /></g><g
     id="freepik--Device--inject-8"><ellipse
       cx="251.5"
       cy="436.5"
       rx="164.5"
       ry="5.5"
       style="fill:#263238;stroke:#263238;stroke-linecap:round;stroke-linejoin:round"
       id="ellipse7" /><rect
       x="83.27"
       y="129"
       width="336.21"
       height="252.16"
       rx="8.48"
       style="fill:#263238;stroke:#263238;stroke-linecap:round;stroke-linejoin:round"
       id="rect9" /><path
       d="M293.2,400.6V372.2H209.54v28.4a41.17,41.17,0,0,1-8.88,25.54L197,430.76H305.75l-3.67-4.62A41.17,41.17,0,0,1,293.2,400.6Z"
       style="fill:#fff;stroke:#263238;stroke-linecap:round;stroke-linejoin:round"
       id="path11" /><rect
       x="209.54"
       y="372.2"
       width="83.65"
       height="22.8"
       style="fill:#263238;stroke:#263238;stroke-linecap:round;stroke-linejoin:round"
       id="rect13" /><rect
       x="197"
       y="430.76"
       width="108.77"
       height="5.07"
       style="fill:#fff;stroke:#263238;stroke-linecap:round;stroke-linejoin:round"
       id="rect15" /><path
       d="M83.27,342H419.48a0,0,0,0,1,0,0v30.71a8.48,8.48,0,0,1-8.48,8.48H91.75a8.48,8.48,0,0,1-8.48-8.48V342A0,0,0,0,1,83.27,342Z"
       style="fill:#fff;stroke:#263238;stroke-linecap:round;stroke-linejoin:round"
       id="path17" /><rect
       x="100.18"
       y="144.69"
       width="302.39"
       height="178.15"
       style="fill:#e6e7f7;stroke:#263238;stroke-linecap:round;stroke-linejoin:round;fill-opacity:1"
       id="rect19" /><path
       d="M257.57,361.56a6.2,6.2,0,1,0-6.2,6.2A6.2,6.2,0,0,0,257.57,361.56Z"
       style="fill:#263238;stroke:#263238;stroke-linecap:round;stroke-linejoin:round"
       id="path59" /><path
       d="M384.38,169.6H120.9a7.56,7.56,0,0,1-7.57-7.56h0a7.57,7.57,0,0,1,7.57-7.56H384.38a7.57,7.57,0,0,1,7.56,7.56h0A7.56,7.56,0,0,1,384.38,169.6Z"
       style="fill:#fff;stroke:#263238;stroke-linecap:round;stroke-linejoin:round"
       id="path61" /><path
       d="M384.38,169.6H371.23V154.48h13.15a7.57,7.57,0,0,1,7.56,7.56h0A7.56,7.56,0,0,1,384.38,169.6Z"
       style="fill:#263238;stroke:#263238;stroke-linecap:round;stroke-linejoin:round"
       id="path63" /><path
       d="M381.45,156.4a4.34,4.34,0,1,0,.2,6.14A4.33,4.33,0,0,0,381.45,156.4ZM381,162a3.49,3.49,0,1,1-.16-4.93A3.5,3.5,0,0,1,381,162Z"
       style="fill:#fff"
       id="path65" /><path
       d="M384.71,164.11A.7.7,0,0,0,384,164l-1.57-1.47a.43.43,0,0,0-.6,0l-.14.15a.41.41,0,0,0,0,.59l1.55,1.46a.72.72,0,0,0,.19.77l2.66,2.61a.94.94,0,0,0,1.32,0h0a.94.94,0,0,0,0-1.33Z"
       style="fill:#fff"
       id="path67" /><g
       id="g75324"
       transform="matrix(0.76782183,-0.37979765,0.37979765,0.76782183,90.743564,471.78296)"><g
         id="g73882"><ellipse
           style="fill:#adadff;fill-opacity:1;stroke:none;stroke-width:37.7953;stroke-miterlimit:4;stroke-dasharray:none;stroke-opacity:1"
           id="path21717-2-2"
           cx="285.61734"
           cy="-210.28239"
           rx="15.874863"
           ry="23.735193" /><path
           id="path21330-7-0"
           style="fill:#adadff;fill-opacity:1;stroke:none;stroke-width:9.1537;stroke-miterlimit:4;stroke-dasharray:none;stroke-opacity:1"
           inkscape:transform-center-x="-4.4642546"
           inkscape:transform-center-y="-1.6099138"
           d="m 293.97138,-122.04078 a 22.399208,27.521076 62.822608 0 0 -9.86033,-0.58968 c 0.73405,0.66313 1.22451,1.18727 1.32194,1.49189 0.72389,2.2634 -8.02453,27.620569 -5.27014,27.823574 2.7544,0.203005 9.37882,-25.310584 11.40933,-27.370984 0.29249,-0.2968 1.17726,-0.77345 2.3992,-1.3548 z" /><path
           id="path20674-36-0"
           style="fill:#adadff;fill-opacity:1;stroke-width:16.6541"
           d="m 257.37076,-199.99989 c -0.23294,0.001 -0.46546,0.027 -0.69503,0.081 -2.87239,0.53938 -5.61139,1.77731 -8.26876,3.14309 -5.21048,2.76837 -9.88561,6.74826 -14.27148,11.0472 -3.67625,3.60829 -7.18001,7.46484 -10.50943,11.51998 -4.07957,5.11599 -7.52034,10.9666 -10.08259,17.32665 -0.85444,2.14565 -1.6348,4.34153 -2.24173,6.60302 -0.20867,1.19803 0.6055,2.53879 1.66554,2.52725 1.12356,0.11477 2.07501,-0.73653 3.02978,-1.30293 6.58305,-4.12718 12.32806,-9.82094 18.58388,-14.56423 3.04561,-2.28594 6.27568,-4.2067 9.58495,-5.89016 1.11898,-0.59448 2.23445,-1.20653 3.36,-1.7886 a 18.092415,54.883336 41.168691 0 0 14.66267,-23.5674 c -0.32324,-0.66394 -0.61897,-1.34631 -0.87281,-2.05323 -0.57005,-1.33574 -1.51389,-2.57595 -2.79157,-2.90302 -0.37615,-0.1155 -0.76517,-0.18099 -1.15342,-0.17867 z" /><path
           id="path20674-36-0-8"
           style="fill:#adadff;fill-opacity:1;stroke-width:16.6541"
           d="m 314.30699,-199.99989 c 0.23294,0.001 0.46546,0.027 0.69503,0.081 2.87239,0.53938 5.61139,1.77731 8.26876,3.14309 5.21048,2.76837 9.88561,6.74826 14.27148,11.0472 3.67625,3.60829 7.18001,7.46484 10.50943,11.51998 4.07957,5.11599 7.52034,10.9666 10.08259,17.32665 0.85444,2.14565 1.6348,4.34153 2.24173,6.60302 0.20867,1.19803 -0.6055,2.53879 -1.66554,2.52725 -1.12356,0.11477 -2.07501,-0.73653 -3.02978,-1.30293 -6.58305,-4.12718 -12.32806,-9.82094 -18.58388,-14.56423 -3.04561,-2.28594 -6.27568,-4.2067 -9.58495,-5.89016 -1.11898,-0.59448 -2.23445,-1.20653 -3.36,-1.7886 a 54.883336,18.092415 48.831309 0 1 -14.66267,-23.5674 c 0.32324,-0.66394 0.61897,-1.34631 0.87281,-2.05323 0.57005,-1.33574 1.51389,-2.57595 2.79157,-2.90302 0.37615,-0.1155 0.76517,-0.18099 1.15342,-0.17867 z" /><path
           id="path20674-36-0-4"
           style="fill:#adadff;fill-opacity:1;stroke-width:17.746"
           d="m 247.37799,-144.42022 c -0.20951,0.17361 -0.39781,0.36085 -0.55983,0.56171 -2.14126,2.4367 -3.57312,5.16821 -4.82342,7.9112 -2.37534,5.42933 -3.24555,11.14426 -3.58537,16.82433 -0.28072,4.76381 -0.19627,9.53956 0.21317,14.29784 0.62576,5.91335 2.4481,11.766572 5.49389,17.25478 1.03654,1.844122 2.18239,3.661561 3.54028,5.387231 0.82135,0.830402 2.68741,0.981859 3.63571,0.188335 1.11218,-0.769466 1.25443,-1.95584 1.63985,-2.984048 2.47035,-7.214502 2.86272,-14.690058 4.51797,-22.009028 0.82549,-3.55006 2.12552,-7.03117 3.69719,-10.43729 0.51016,-1.16595 1.00232,-2.33921 1.52888,-3.50304 a 50.237601,22.442298 89.059487 0 0 -6.61548,-24.17383 c -0.85183,-0.13435 -1.69432,-0.29952 -2.51968,-0.50963 -1.64118,-0.32988 -3.53968,-0.32837 -4.97013,0.43582 -0.43731,0.21415 -0.84411,0.46605 -1.19303,0.75561 z" /><path
           id="path20674-36-0-4-5"
           style="fill:#adadff;fill-opacity:1;stroke-width:17.746"
           d="m 325.4448,-144.42022 c 0.20951,0.17361 0.39781,0.36085 0.55983,0.56171 2.14126,2.4367 3.57312,5.16821 4.82342,7.9112 2.37534,5.42933 3.24555,11.14426 3.58537,16.82433 0.28072,4.76381 0.19627,9.53956 -0.21317,14.29784 -0.62576,5.913349 -2.4481,11.766571 -5.49389,17.254779 -1.03654,1.844122 -2.18239,3.661561 -3.54028,5.387231 -0.82135,0.830402 -2.68741,0.981859 -3.63571,0.188335 -1.11218,-0.769466 -1.25443,-1.95584 -1.63985,-2.984048 -2.47035,-7.214502 -2.86272,-14.690058 -4.51797,-22.009027 -0.82549,-3.55006 -2.12552,-7.03117 -3.69719,-10.43729 -0.51016,-1.16595 -1.00232,-2.33921 -1.52888,-3.50304 a 22.442298,50.237601 0.940513 0 1 6.61548,-24.17383 c 0.85183,-0.13435 1.69432,-0.29952 2.51968,-0.50963 1.64118,-0.32988 3.53968,-0.32837 4.97013,0.43582 0.43731,0.21415 0.84411,0.46605 1.19303,0.75561 z" /></g><g
         id="g74593"
         style="fill:#2c3fff;fill-opacity:0.260808"
         transform="translate(183.10242,-9.9091619)"><path
           id="path21717-2-2-0"
           style="fill:#2c3fff;fill-opacity:0.260808;stroke:none;stroke-width:142.848;stroke-miterlimit:4;stroke-dasharray:none;stroke-opacity:1"
           d="m 348.30664,-825.82617 a 59.999481,89.707817 0 0 0 -21.01562,68.10937 59.999481,89.707817 0 0 0 60,89.70703 59.999481,89.707817 0 0 0 59.9121,-86.16211 90,90 0 0 1 -10.66796,0.67383 90,90 0 0 1 -88.22852,-72.32812 z"
           transform="scale(0.26458333)" /><path
           id="path21330-7-0-6"
           style="fill:#2c3fff;fill-opacity:0.260808;stroke:none;stroke-width:34.5967;stroke-miterlimit:4;stroke-dasharray:none;stroke-opacity:1"
           inkscape:transform-center-x="-4.4642546"
           inkscape:transform-center-y="-1.6099138"
           d="m 395.94531,-427.13281 a 84.658424,104.01667 62.822608 0 0 -14.34765,0.69922 c 2.77436,2.50631 4.62785,4.48735 4.99609,5.63867 1.46798,4.58997 -7.36586,34.30247 -14.26563,60.98047 a 30,60 0 0 1 12.68946,7.8789 c 9.93607,-27.96873 20.30809,-62.60943 24.78125,-67.14843 1.10547,-1.12177 4.44805,-2.92387 9.0664,-5.1211 a 84.658424,104.01667 62.822608 0 0 -22.91992,-2.92773 z"
           transform="scale(0.26458333)" /><path
           id="path20674-36-0-0"
           style="fill:#2c3fff;fill-opacity:0.260808;stroke-width:62.9446"
           d="m 280.5332,-718.85352 c -0.8804,0.004 -1.75928,0.10255 -2.62695,0.30664 -0.16066,0.0302 -0.32003,0.0663 -0.48047,0.0977 a 38.042803,164.85213 42.818656 0 1 -60.58789,76.10352 38.042803,164.85213 42.818656 0 1 -102.23633,87.19531 c -3.11526,7.87609 -5.96278,15.9292 -8.1875,24.21875 -0.78867,4.52799 2.28847,9.5944 6.29492,9.55078 4.24653,0.43378 7.8426,-2.7831 11.45118,-4.92383 24.88082,-15.59879 46.59423,-37.11752 70.23828,-55.04492 11.51096,-8.63977 23.71908,-15.90099 36.22656,-22.26367 4.22922,-2.24685 8.44517,-4.55982 12.69922,-6.75977 a 68.380781,207.43308 41.168691 0 0 55.41797,-89.07226 c -1.2217,-2.50938 -2.33944,-5.0899 -3.29883,-7.76172 -2.15452,-5.04847 -5.72176,-9.73453 -10.55078,-10.9707 -1.42167,-0.43654 -2.89198,-0.68455 -4.35938,-0.67579 z"
           transform="scale(0.26458333)" /><path
           id="path20674-36-0-8-8"
           style="fill:#2c3fff;fill-opacity:0.260808;stroke-width:62.9446"
           d="m 495.72461,-718.85352 c -1.4674,-0.009 -2.93771,0.23925 -4.35938,0.67579 -4.82902,1.23617 -8.39626,5.92223 -10.55078,10.9707 -0.95939,2.67182 -2.07713,5.25234 -3.29883,7.76172 a 207.43308,68.380781 48.831309 0 0 55.41797,89.07226 c 4.25405,2.19995 8.47001,4.51292 12.69922,6.75977 12.50748,6.36268 24.7156,13.6239 36.22657,22.26367 23.64404,17.9274 45.35746,39.44613 70.23828,55.04492 3.60858,2.14073 7.20464,5.35761 11.45117,4.92383 4.00645,0.0436 7.08359,-5.02279 6.29492,-9.55078 -1.95731,-7.29314 -4.40744,-14.39706 -7.08594,-21.36524 a 164.85213,38.042803 47.181344 0 1 -97.84961,-84.62109 164.85213,38.042803 47.181344 0 1 -63.75,-81.03515 c -0.93229,-0.21463 -1.86692,-0.41729 -2.80664,-0.59376 -0.86766,-0.20409 -1.74655,-0.30286 -2.62695,-0.30664 z"
           transform="scale(0.26458333)" /><path
           id="path20674-36-0-4-3"
           style="fill:#2c3fff;fill-opacity:0.260808;stroke-width:67.0715"
           d="m 258.81445,-514.08008 c -4.09172,-0.0489 -8.162,0.63038 -11.54101,2.43555 -1.65283,0.80938 -3.18906,1.76107 -4.50782,2.85547 -0.79184,0.65616 -1.50482,1.36389 -2.11718,2.12304 -8.09295,9.20958 -13.50493,19.53319 -18.23047,29.9004 -8.97766,20.5203 -12.26642,42.1199 -13.55078,63.58789 -0.6729,11.41901 -0.78538,22.85624 -0.38672,34.2832 a 60,110 0 0 1 51.45508,103.80078 c 2.11831,-2.70707 2.70204,-6.04667 3.82226,-9.03516 9.33676,-27.26741 10.82011,-55.52134 17.07617,-83.18359 3.11997,-13.41755 8.03249,-26.57374 13.97266,-39.44727 1.92816,-4.40674 3.78915,-8.8415 5.7793,-13.24023 a 189.8744,84.821284 89.059487 0 0 -25.00391,-91.36523 c -3.21951,-0.50778 -6.40397,-1.13167 -9.52344,-1.92579 -2.32608,-0.46754 -4.7891,-0.75974 -7.24414,-0.78906 z"
           transform="scale(0.26458333)" /><path
           id="path20674-36-0-4-5-7"
           style="fill:#2c3fff;fill-opacity:0.260808;stroke-width:67.0715"
           d="m 521.77148,-514.08008 c -2.45503,0.0293 -4.91805,0.32152 -7.24414,0.78906 -3.11947,0.79412 -6.30392,1.41801 -9.52343,1.92579 A 84.821284,189.8744 0.940513 0 0 480,-420 c 1.99015,4.39873 3.85113,8.83349 5.7793,13.24023 5.94017,12.87353 10.85269,26.02972 13.97265,39.44727 6.25607,27.66225 7.73942,55.91618 17.07617,83.18359 1.45671,3.88614 1.99376,8.37108 6.19727,11.2793 1.59448,1.33424 3.87503,1.95775 6.18945,1.9668 a 60,110 0 0 1 -0.12695,-6.75391 60,110 0 0 1 43.13086,-105.52539 c 0.23596,-10.0065 0.0872,-20.01793 -0.50195,-30.01562 -1.28436,-21.46799 -4.57312,-43.06759 -13.55078,-63.58789 -4.72555,-10.36721 -10.13752,-20.69082 -18.23047,-29.9004 -0.61236,-0.75915 -1.32339,-1.46688 -2.11524,-2.12304 -1.31875,-1.0944 -2.85694,-2.04609 -4.50976,-2.85547 -3.37902,-1.80517 -7.44734,-2.48442 -11.53907,-2.43555 z"
           transform="scale(0.26458333)" /></g><g
         id="g65773"
         transform="translate(-79.10091,-326.91673)"><path
           id="rect55-6-2"
           style="fill:#654ef0;fill-opacity:1;stroke:none;stroke-width:11.3386;stroke-miterlimit:4;stroke-dasharray:none;stroke-opacity:1"
           d="m 323.03998,125.47866 c -1.662,0 -2.99982,1.33833 -2.99982,3.00033 v 84.00006 c 0,1.662 1.33782,2.99981 2.99982,2.99981 h 84.00005 c 1.66198,0 3.00032,-1.33781 3.00032,-2.99981 v -84.00006 c 0,-1.662 -1.33834,-3.00033 -3.00032,-3.00033 h -32.11846 a 10,10 0 0 1 -2.59469,5.91075 10,10 0 0 1 -14.12936,0.60823 10,10 0 0 1 -3.20135,-6.51898 z" /><rect
           style="fill:#e1efe6;fill-opacity:0.639613;stroke:none;stroke-width:8.88112;stroke-miterlimit:4;stroke-dasharray:none;stroke-opacity:1"
           id="rect55-6-9-1"
           width="70.493874"
           height="70.493881"
           x="329.79324"
           y="136.81938"
           ry="3.96875"
           rx="3.96875" /><path
           style="fill:#654ef0;fill-opacity:1;stroke:none"
           id="path18310-2-5"
           inkscape:flatsided="false"
           sodipodi:sides="6"
           sodipodi:cx="660"
           sodipodi:cy="-160"
           sodipodi:r1="32"
           sodipodi:r2="100"
           sodipodi:arg1="0.92729522"
           sodipodi:arg2="1.450894"
           inkscape:rounded="0.42"
           inkscape:randomized="0.089"
           transform="matrix(0,-0.4859789,-0.42388655,0,296.28661,492.34108)"
           inkscape:transform-center-x="-3.858154"
           inkscape:transform-center-y="0.22799556"
           sodipodi:type="star"
           d="m 678.09959,-132.94424 c -22.97618,19.81594 21.60964,69.690081 -9.31331,75.07911 -30.92295,5.389029 9.12695,-60.53686 -19.16697,-70.88339 -28.29392,-10.34654 -54.82796,47.318869 -76.04495,23.58799 -21.21699,-23.73088 67.46919,-17.10983 61.06837,-47.83632 -6.40081,-30.72648 -72.32299,-11.42763 -61.19656,-39.48544 11.12643,-28.05782 45.30861,30.01418 67.14435,9.82683 21.83574,-20.18735 -18.91899,-76.78012 12.92893,-81.47599 31.84792,-4.69587 -13.18476,68.83176 15.55135,77.28027 28.73611,8.44851 61.12459,-66.01846 76.06327,-39.85028 14.93867,26.16818 -67.50009,33.2992 -61.0867,64.0986 6.4134,30.79941 75.33638,4.32296 64.81219,33.08857 -10.5242,28.76561 -47.7838,-23.24589 -70.75997,-3.42995 z" /><path
           id="rect55-6-1-6"
           style="fill:#3013e0;fill-opacity:0.280602;stroke:none;stroke-width:11.3386;stroke-miterlimit:4;stroke-dasharray:none;stroke-opacity:1"
           d="m 321.24297,126.00799 c -0.73008,0.5462 -1.20304,1.41544 -1.20304,2.4014 v 84.00007 c 0,1.662 1.33783,2.99982 2.99982,2.99982 h 84.00004 c 0.32683,0 0.64024,-0.0536 0.93431,-0.14934 a 81.068346,62.332459 41.271635 0 1 -50.48994,-20.79152 81.068346,62.332459 41.271635 0 1 -36.24119,-68.46043 z" /></g></g></g><g
     id="freepik--Character--inject-8"><ellipse
       cx="395.5"
       cy="467"
       rx="38.5"
       ry="7"
       style="fill:#263238;stroke:#263238;stroke-linecap:round;stroke-linejoin:round"
       id="ellipse70" /><path
       d="M348.06,350l1.83,2.75a33.24,33.24,0,0,0,.73,4.58c.37.91,1.29,2.38.92,3.48s-1.65,2.38-1.65.18a11.39,11.39,0,0,0-.18-2.75l-3.85-2Z"
       style="fill:#fff;stroke:#263238;stroke-linecap:round;stroke-linejoin:round"
       id="path72" /><path
       d="M341.86,358.93s.8,2.94,1.2,4.14,2,2.13,3.07,2.54,1.6.06,1.2-.61a10.18,10.18,0,0,0-2.13-1.8l-3.34-6.14Z"
       style="fill:#fff;stroke:#263238;stroke-linecap:round;stroke-linejoin:round"
       id="path74" /><path
       d="M366.72,302.28l-8.94-2.86-3.93,17.88s-5.72,12.87-6.44,18.23a120.29,120.29,0,0,1-2.72,12.72l-1.95,3.41-1.46,6.41L344,363.2a13.63,13.63,0,0,0,3.11.55c1.28,0,1.47-.36,1.28-.91s-1.1-.92-1.1-.92,2.2-.18,2.57-.92-2.2-1.65-2.2-1.65,2.2-.36,2-1.1-2.49-.59-2.49-.59a20,20,0,0,0,1.57-8c1.93-3.31,12.21-21.12,12.21-23.06C361,324.45,366.72,302.28,366.72,302.28Z"
       style="fill:#fff;stroke:#263238;stroke-linecap:round;stroke-linejoin:round"
       id="path76" /><path
       d="M347.05,361.88a9.82,9.82,0,0,1-1.82-.58,10.56,10.56,0,0,1-2-2.39"
       style="fill:none;stroke:#263238;stroke-linecap:round;stroke-linejoin:round"
       id="path78" /><polyline
       points="347.69 359.35 345.89 359.24 344.49 357.91"
       style="fill:none;stroke:#263238;stroke-linecap:round;stroke-linejoin:round"
       id="polyline80" /><polygon
       points="414.64 300.85 417.86 323.74 407.84 345.55 403.55 340.9 408.56 321.59 404.27 302.28 414.64 300.85"
       style="fill:#fff;stroke:#263238;stroke-linecap:round;stroke-linejoin:round"
       id="polygon82" /><polygon
       points="379.6 272.22 361.55 280.64 369.07 318.84 400.35 319.74 409.76 279.64 390.73 271.92 379.6 272.22"
       style="fill:#263238;stroke:#263238;stroke-linecap:round;stroke-linejoin:round"
       id="polygon84" /><path
       d="M376.27,260.75s-.43,2.42,2.38,6.36c.69,1,1.06.53,1.06.53L378.65,274a8.63,8.63,0,0,0,7.83,4.24c3.33,0,5-4.9,5-4.9-.23.08-.9-6.77-.9-6.77l-9-14.58-6.63,1.32s-2.94-.77-2.41,3.74S376.27,260.75,376.27,260.75Z"
       style="fill:#fff;stroke:#263238;stroke-linecap:round;stroke-linejoin:round"
       id="path86" /><path
       d="M398.49,248.41s-2.6-8.88-9-11.8-13.26,1.33-15.65,6.9,2.39,17.24,2.39,17.24,2.91,6.63,6.36,8.22,6.82-1.05,10-5.29S398.76,252.65,398.49,248.41Z"
       style="fill:#263238;stroke:#263238;stroke-linecap:round;stroke-linejoin:round"
       id="path88" /><ellipse
       cx="400.53"
       cy="246.96"
       rx="9.41"
       ry="8.75"
       style="fill:#263238;stroke:#263238;stroke-linecap:round;stroke-linejoin:round"
       id="ellipse90" /><path
       d="M362.21,365.51s3.18,31,3.18,39.78.8,23.34,1.33,30.23,2.38,17.24,2.38,17.24-1.32-.53-1.85,1.86-.8,2.91-3.18,3.71-4.25,2.39-3.19,3.71,6.9,1.86,11.14,2.92,4.78-.27,4.78-3.18v-8.49s2.91-45.08,2.91-46.68,1.06-39.51,1.06-39.51Z"
       style="fill:#fff;stroke:#263238;stroke-linecap:round;stroke-linejoin:round"
       id="path92" /><path
       d="M370.07,368.67l10.44,7.75c.15-5.39.26-9.32.26-9.32l-12-1Z"
       style="fill:#263238;stroke:#263238;stroke-linecap:round;stroke-linejoin:round"
       id="path94" /><path
       d="M372,465c4.25,1.06,4.78-.27,4.78-3.18v-8.49c-3.45-1.86-5,3.71-6.1,3.18s-1.6-3.71-1.6-3.71-1.32-.53-1.85,1.86-.8,2.91-3.18,3.71-4.25,2.39-3.19,3.71S367.78,463.9,372,465Z"
       style="fill:#fff;stroke:#263238;stroke-linecap:round;stroke-linejoin:round"
       id="path96" /><path
       d="M388.2,366.3s3.18,26,3.45,31.3,16.44,53.57,16.44,53.57,1.59,8,2.39,10.34,1.32,2.92,2.91,2.92,6.63,0,7.17-2.12-2.66-8.49-3.45-10.61-2.12-4.24-2.12-5.3-4-26.79-5.84-35.54-4.51-13.26-4.51-13.26L410,361.53Z"
       style="fill:#fff;stroke:#263238;stroke-linecap:round;stroke-linejoin:round"
       id="path98" /><path
       d="M409.24,366.33l-9.43-2.58L388.2,366.3s.53,4.32,1.17,9.79l19.7-8.6Z"
       style="fill:#263238;stroke:#263238;stroke-linecap:round;stroke-linejoin:round"
       id="path100" /><path
       d="M413.39,464.43c1.6,0,6.63,0,7.17-2.12s-2.66-8.49-3.45-10.61c-.67-1.79-1.72-3.58-2-4.73-6.76-2.38-7,4.2-7,4.2s1.59,8,2.39,10.34S411.8,464.43,413.39,464.43Z"
       style="fill:#fff;stroke:#263238;stroke-linecap:round;stroke-linejoin:round"
       id="path102" /><path
       d="M415.25,458.06c-3.39.28-4.49,1.94-4.76,3.5.79,2.34,1.32,2.87,2.9,2.87s6.63,0,7.17-2.12a3.68,3.68,0,0,0-5.31-4.25Z"
       style="fill:#fff;stroke:#263238;stroke-linecap:round;stroke-linejoin:round"
       id="path104" /><path
       d="M374.3,274.25s2.76,25.48,1.7,28.93-11.14,15.91-11.14,15.91l.27,8.23a28.08,28.08,0,0,0-5,12.46c-1.33,8-2.92,26.79-2.92,26.79s10.08,2.12,16.18,3.18,9,.26,9,.26l2.65-8.75,1.32,8.75a98,98,0,0,0,13.79,1.07c7.17,0,12.47-5.84,12.47-5.84S410,348,410,346.15s-6.1-22-6.1-22l.25-7.2a32.72,32.72,0,0,0-4.2-5.25c-3.18-3.45-5.87-12.48-5.87-12.48l2.28-25.42-2-1-3.18,25.89-11.67-.26-2.72-25.26Z"
       style="fill:#fff;stroke:#263238;stroke-linecap:round;stroke-linejoin:round"
       id="path106" /><line
       x1="375.89"
       y1="330.03"
       x2="399.91"
       y2="326.14"
       style="fill:#fff;stroke:#263238;stroke-linecap:round;stroke-linejoin:round"
       id="line108" /><line
       x1="373.94"
       y1="326.79"
       x2="381.3"
       y2="325.49"
       style="fill:#fff;stroke:#263238;stroke-linecap:round;stroke-linejoin:round"
       id="line110" /><line
       x1="385.02"
       y1="361.26"
       x2="385.02"
       y2="355.43"
       style="fill:#fff;stroke:#263238;stroke-linecap:round;stroke-linejoin:round"
       id="line112" /><line
       x1="379.98"
       y1="354.9"
       x2="389.79"
       y2="354.9"
       style="fill:#fff;stroke:#263238;stroke-linecap:round;stroke-linejoin:round"
       id="line114" /><polyline
       points="361.55 280.64 354.21 300.49 368.15 304.43"
       style="fill:#263238;stroke:#263238;stroke-linecap:round;stroke-linejoin:round"
       id="polyline116" /><polyline
       points="409.76 279.64 418.21 301.92 404.27 304.43"
       style="fill:#263238;stroke:#263238;stroke-linecap:round;stroke-linejoin:round"
       id="polyline118" /></g></svg>
