<?xml version="1.0" encoding="UTF-8" standalone="no"?>
<svg
   viewBox="0 0 695 400"
   version="1.1"
   id="svg576"
   sodipodi:docname="dds.svg"
   width="695"
   height="400"
   inkscape:version="1.2.2 (b0a8486541, 2022-12-01)"
   xmlns:inkscape="http://www.inkscape.org/namespaces/inkscape"
   xmlns:sodipodi="http://sodipodi.sourceforge.net/DTD/sodipodi-0.dtd"
   xmlns="http://www.w3.org/2000/svg"
   xmlns:svg="http://www.w3.org/2000/svg">
  <defs
     id="defs580" />
  <sodipodi:namedview
     id="namedview578"
     pagecolor="#ffffff"
     bordercolor="#000000"
     borderopacity="0.25"
     inkscape:showpageshadow="2"
     inkscape:pageopacity="0.0"
     inkscape:pagecheckerboard="0"
     inkscape:deskcolor="#d1d1d1"
     showgrid="false"
     inkscape:zoom="2.65417"
     inkscape:cx="354.91321"
     inkscape:cy="230.58055"
     inkscape:window-width="2822"
     inkscape:window-height="1718"
     inkscape:window-x="58"
     inkscape:window-y="48"
     inkscape:window-maximized="1"
     inkscape:current-layer="svg576" />
  <g
     id="freepik--background-simple--inject-246"
     transform="matrix(-1,0,0,1,717.7227,-51.85456)">
    <path
       d="m 709.9,297.25 c 7.47,-49.91 1,-100.42 -30.12,-143.52 C 644.11,104.4 587.61,69.54 527.55,59.65 A 207.71,207.71 0 0 0 495.18,56.86 235.06,235.06 0 0 0 419,69 c -41.45,14 -77.08,38.39 -109.3,67.5 -14.31,12.92 -28.28,29.5 -47.23,35.5 -19.67,6.28 -40.83,-1.8 -60,-6.74 C 166.54,156 113.8,136 78,155 31,180 17,235 35,278 c 18,43 73,46 79,79 6,33 35,82 98,77 63,-5 87,-59 127,-43 14.07,5.63 25.12,16 37.09,24.91 16.67,12.44 34.75,20.91 55.27,24.81 29.34,5.58 61.38,2.63 91,1.21 34,-1.64 70.58,-0.39 103.59,-12.27 35.44,-12.77 57.82,-40.75 69.83,-75.83 a 322.63,322.63 0 0 0 14.12,-56.58 z"
       style="fill:#0098a1"
       id="path2" />
    <path
       d="m 709.9,297.25 c 7.47,-49.91 1,-100.42 -30.12,-143.52 C 644.11,104.4 587.61,69.54 527.55,59.65 A 207.71,207.71 0 0 0 495.18,56.86 235.06,235.06 0 0 0 419,69 c -41.45,14 -77.08,38.39 -109.3,67.5 -14.31,12.92 -28.28,29.5 -47.23,35.5 -19.67,6.28 -40.83,-1.8 -60,-6.74 C 166.54,156 113.8,136 78,155 31,180 17,235 35,278 c 18,43 73,46 79,79 6,33 35,82 98,77 63,-5 87,-59 127,-43 14.07,5.63 25.12,16 37.09,24.91 16.67,12.44 34.75,20.91 55.27,24.81 29.34,5.58 61.38,2.63 91,1.21 34,-1.64 70.58,-0.39 103.59,-12.27 35.44,-12.77 57.82,-40.75 69.83,-75.83 a 322.63,322.63 0 0 0 14.12,-56.58 z"
       style="opacity:0.7;fill:#ffffff"
       id="path4" />
  </g>
  <g
     id="freepik--Data--inject-246"
     transform="translate(363.3827,-39.85456)">
    <polygon
       points="160.12,105.17 190.96,105.17 199.37,113.39 199.37,157.5 160.12,157.5 "
       style="fill:#ffffff;stroke:#263238;stroke-linecap:round;stroke-linejoin:round"
       id="polygon7" />
    <polygon
       points="192.02,112.53 192.02,114.67 199.37,113.4 "
       style="fill:#263238;stroke:#263238;stroke-linecap:round;stroke-linejoin:round"
       id="polygon9" />
    <polygon
       points="190.96,105.17 190.96,113.4 199.37,113.4 "
       style="fill:#ffffff;stroke:#263238;stroke-linecap:round;stroke-linejoin:round"
       id="polygon11" />
    <line
       x1="165.11"
       y1="116.54"
       x2="195.32001"
       y2="116.54"
       style="fill:none;stroke:#263238;stroke-linecap:round;stroke-linejoin:round"
       id="line13" />
    <line
       x1="165.11"
       y1="124.02"
       x2="195.32001"
       y2="124.02"
       style="fill:none;stroke:#263238;stroke-linecap:round;stroke-linejoin:round"
       id="line15" />
    <line
       x1="165.11"
       y1="131.49001"
       x2="195.32001"
       y2="131.49001"
       style="fill:none;stroke:#263238;stroke-linecap:round;stroke-linejoin:round"
       id="line17" />
    <line
       x1="165.11"
       y1="138.97"
       x2="195.32001"
       y2="138.97"
       style="fill:none;stroke:#263238;stroke-linecap:round;stroke-linejoin:round"
       id="line19" />
    <line
       x1="165.11"
       y1="146.44"
       x2="195.32001"
       y2="146.44"
       style="fill:none;stroke:#263238;stroke-linecap:round;stroke-linejoin:round"
       id="line21" />
    <line
       x1="88.529999"
       y1="220.74001"
       x2="102.59"
       y2="220.74001"
       style="fill:none;stroke:#263238;stroke-linecap:round;stroke-linejoin:round"
       id="line23" />
    <line
       x1="72.989998"
       y1="220.74001"
       x2="85.989998"
       y2="220.74001"
       style="fill:none;stroke:#263238;stroke-linecap:round;stroke-linejoin:round"
       id="line25" />
    <line
       x1="97.150002"
       y1="225.17999"
       x2="102.59"
       y2="225.17999"
       style="fill:none;stroke:#263238;stroke-linecap:round;stroke-linejoin:round"
       id="line27" />
    <line
       x1="72.989998"
       y1="225.17999"
       x2="94.610001"
       y2="225.17999"
       style="fill:none;stroke:#263238;stroke-linecap:round;stroke-linejoin:round"
       id="line29" />
    <line
       x1="100.45"
       y1="229.62"
       x2="102.59"
       y2="229.62"
       style="fill:none;stroke:#263238;stroke-linecap:round;stroke-linejoin:round"
       id="line31" />
    <line
       x1="88.779999"
       y1="229.62"
       x2="96.900002"
       y2="229.62"
       style="fill:none;stroke:#263238;stroke-linecap:round;stroke-linejoin:round"
       id="line33" />
    <line
       x1="72.989998"
       y1="229.62"
       x2="86.5"
       y2="229.62"
       style="fill:none;stroke:#263238;stroke-linecap:round;stroke-linejoin:round"
       id="line35" />
    <line
       x1="72.989998"
       y1="234.06"
       x2="102.59"
       y2="234.06"
       style="fill:none;stroke:#263238;stroke-linecap:round;stroke-linejoin:round"
       id="line37" />
    <line
       x1="97.660004"
       y1="238.5"
       x2="102.59"
       y2="238.5"
       style="fill:none;stroke:#263238;stroke-linecap:round;stroke-linejoin:round"
       id="line39" />
    <line
       x1="80.669998"
       y1="238.5"
       x2="92.589996"
       y2="238.5"
       style="fill:none;stroke:#263238;stroke-linecap:round;stroke-linejoin:round"
       id="line41" />
    <line
       x1="72.989998"
       y1="238.5"
       x2="77.120003"
       y2="238.5"
       style="fill:none;stroke:#263238;stroke-linecap:round;stroke-linejoin:round"
       id="line43" />
    <line
       x1="86.5"
       y1="242.94"
       x2="102.59"
       y2="242.94"
       style="fill:none;stroke:#263238;stroke-linecap:round;stroke-linejoin:round"
       id="line45" />
    <line
       x1="72.989998"
       y1="242.94"
       x2="83.709999"
       y2="242.94"
       style="fill:none;stroke:#263238;stroke-linecap:round;stroke-linejoin:round"
       id="line47" />
    <line
       x1="94.610001"
       y1="247.38"
       x2="102.59"
       y2="247.38"
       style="fill:none;stroke:#263238;stroke-linecap:round;stroke-linejoin:round"
       id="line49" />
    <line
       x1="86.75"
       y1="247.38"
       x2="92.330002"
       y2="247.38"
       style="fill:none;stroke:#263238;stroke-linecap:round;stroke-linejoin:round"
       id="line51" />
    <line
       x1="72.989998"
       y1="247.38"
       x2="83.709999"
       y2="247.38"
       style="fill:none;stroke:#263238;stroke-linecap:round;stroke-linejoin:round"
       id="line53" />
    <polygon
       points="146.29,237.26 171.72,237.26 178.66,244.03 178.66,280.42 146.29,280.42 "
       style="fill:#0098a1;stroke:#263238;stroke-linecap:round;stroke-linejoin:round"
       id="polygon55" />
    <polygon
       points="172.59,243.33 172.59,245.09 178.66,244.04 "
       style="fill:#263238;stroke:#263238;stroke-linecap:round;stroke-linejoin:round"
       id="polygon57" />
    <polygon
       points="171.72,237.26 171.72,244.04 178.66,244.04 "
       style="fill:#ffffff;stroke:#263238;stroke-linecap:round;stroke-linejoin:round"
       id="polygon59" />
    <line
       x1="150.39999"
       y1="246.63"
       x2="175.32001"
       y2="246.63"
       style="fill:none;stroke:#263238;stroke-linecap:round;stroke-linejoin:round"
       id="line61" />
    <line
       x1="150.39999"
       y1="252.8"
       x2="175.32001"
       y2="252.8"
       style="fill:none;stroke:#263238;stroke-linecap:round;stroke-linejoin:round"
       id="line63" />
    <line
       x1="150.39999"
       y1="258.97"
       x2="175.32001"
       y2="258.97"
       style="fill:none;stroke:#263238;stroke-linecap:round;stroke-linejoin:round"
       id="line65" />
    <line
       x1="150.39999"
       y1="265.13"
       x2="175.32001"
       y2="265.13"
       style="fill:none;stroke:#263238;stroke-linecap:round;stroke-linejoin:round"
       id="line67" />
    <line
       x1="150.39999"
       y1="271.29999"
       x2="175.32001"
       y2="271.29999"
       style="fill:none;stroke:#263238;stroke-linecap:round;stroke-linejoin:round"
       id="line69" />
    <polygon
       points="105.38,110.01 136.22,110.01 144.63,118.22 144.63,162.34 105.38,162.34 "
       style="fill:#0098a1;stroke:#263238;stroke-linecap:round;stroke-linejoin:round"
       id="polygon71" />
    <polygon
       points="137.27,117.37 137.27,119.51 144.63,118.23 "
       style="fill:#263238;stroke:#263238;stroke-linecap:round;stroke-linejoin:round"
       id="polygon73" />
    <polygon
       points="136.22,110.01 136.22,118.23 144.63,118.23 "
       style="fill:#ffffff;stroke:#263238;stroke-linecap:round;stroke-linejoin:round"
       id="polygon75" />
    <line
       x1="110.36"
       y1="121.38"
       x2="140.58"
       y2="121.38"
       style="fill:none;stroke:#263238;stroke-linecap:round;stroke-linejoin:round"
       id="line77" />
    <line
       x1="110.36"
       y1="128.85001"
       x2="140.58"
       y2="128.85001"
       style="fill:none;stroke:#263238;stroke-linecap:round;stroke-linejoin:round"
       id="line79" />
    <line
       x1="110.36"
       y1="136.33"
       x2="140.58"
       y2="136.33"
       style="fill:none;stroke:#263238;stroke-linecap:round;stroke-linejoin:round"
       id="line81" />
    <line
       x1="110.36"
       y1="143.81"
       x2="140.58"
       y2="143.81"
       style="fill:none;stroke:#263238;stroke-linecap:round;stroke-linejoin:round"
       id="line83" />
    <line
       x1="110.36"
       y1="151.28"
       x2="140.58"
       y2="151.28"
       style="fill:none;stroke:#263238;stroke-linecap:round;stroke-linejoin:round"
       id="line85" />
    <polygon
       points="189.44,133.94 220.28,133.94 228.69,142.16 228.69,186.28 189.44,186.28 "
       style="fill:#0098a1;stroke:#263238;stroke-linecap:round;stroke-linejoin:round"
       id="polygon87" />
    <polygon
       points="221.34,141.3 221.34,143.45 228.69,142.17 "
       style="fill:#263238;stroke:#263238;stroke-linecap:round;stroke-linejoin:round"
       id="polygon89" />
    <polygon
       points="220.28,133.94 220.28,142.17 228.69,142.17 "
       style="fill:#ffffff;stroke:#263238;stroke-linecap:round;stroke-linejoin:round"
       id="polygon91" />
    <line
       x1="194.42999"
       y1="145.32001"
       x2="224.64"
       y2="145.32001"
       style="fill:none;stroke:#263238;stroke-linecap:round;stroke-linejoin:round"
       id="line93" />
    <line
       x1="194.42999"
       y1="152.78999"
       x2="224.64"
       y2="152.78999"
       style="fill:none;stroke:#263238;stroke-linecap:round;stroke-linejoin:round"
       id="line95" />
    <line
       x1="194.42999"
       y1="160.27"
       x2="224.64"
       y2="160.27"
       style="fill:none;stroke:#263238;stroke-linecap:round;stroke-linejoin:round"
       id="line97" />
    <line
       x1="194.42999"
       y1="167.74001"
       x2="224.64"
       y2="167.74001"
       style="fill:none;stroke:#263238;stroke-linecap:round;stroke-linejoin:round"
       id="line99" />
    <line
       x1="194.42999"
       y1="175.22"
       x2="224.64"
       y2="175.22"
       style="fill:none;stroke:#263238;stroke-linecap:round;stroke-linejoin:round"
       id="line101" />
    <polygon
       points="242.1,191.94 272.94,191.94 281.35,200.16 281.35,244.28 242.1,244.28 "
       style="fill:#ffffff;stroke:#263238;stroke-linecap:round;stroke-linejoin:round"
       id="polygon103" />
    <polygon
       points="273.99,199.3 273.99,201.45 281.35,200.17 "
       style="fill:#263238;stroke:#263238;stroke-linecap:round;stroke-linejoin:round"
       id="polygon105" />
    <polygon
       points="272.94,191.94 272.94,200.17 281.35,200.17 "
       style="fill:#ffffff;stroke:#263238;stroke-linecap:round;stroke-linejoin:round"
       id="polygon107" />
    <line
       x1="247.08"
       y1="203.32001"
       x2="277.29999"
       y2="203.32001"
       style="fill:none;stroke:#263238;stroke-linecap:round;stroke-linejoin:round"
       id="line109" />
    <line
       x1="247.08"
       y1="210.78999"
       x2="277.29999"
       y2="210.78999"
       style="fill:none;stroke:#263238;stroke-linecap:round;stroke-linejoin:round"
       id="line111" />
    <line
       x1="247.08"
       y1="218.27"
       x2="277.29999"
       y2="218.27"
       style="fill:none;stroke:#263238;stroke-linecap:round;stroke-linejoin:round"
       id="line113" />
    <line
       x1="247.08"
       y1="225.74001"
       x2="277.29999"
       y2="225.74001"
       style="fill:none;stroke:#263238;stroke-linecap:round;stroke-linejoin:round"
       id="line115" />
    <line
       x1="247.08"
       y1="233.22"
       x2="277.29999"
       y2="233.22"
       style="fill:none;stroke:#263238;stroke-linecap:round;stroke-linejoin:round"
       id="line117" />
    <rect
       x="120.02"
       y="148.84"
       width="60.41"
       height="68.559998"
       rx="8.6099997"
       style="fill:#ffffff;stroke:#263238;stroke-linecap:round;stroke-linejoin:round"
       id="rect119"
       ry="8.6099997" />
    <path
       d="m 173.71,148.84 h -47 A 6.71,6.71 0 0 0 120,155.55 V 157 h 60.4 v -1.44 a 6.71,6.71 0 0 0 -6.69,-6.72 z"
       style="fill:#263238;stroke:#263238;stroke-linecap:round;stroke-linejoin:round"
       id="path121" />
    <line
       x1="128.64"
       y1="168.98"
       x2="171.78999"
       y2="168.98"
       style="fill:none;stroke:#263238;stroke-linecap:round;stroke-linejoin:round"
       id="line123" />
    <line
       x1="128.64"
       y1="179.52"
       x2="171.78999"
       y2="179.52"
       style="fill:none;stroke:#263238;stroke-linecap:round;stroke-linejoin:round"
       id="line125" />
    <line
       x1="128.64"
       y1="190.07001"
       x2="171.78999"
       y2="190.07001"
       style="fill:none;stroke:#263238;stroke-linecap:round;stroke-linejoin:round"
       id="line127" />
    <line
       x1="128.64"
       y1="200.62"
       x2="171.78999"
       y2="200.62"
       style="fill:none;stroke:#263238;stroke-linecap:round;stroke-linejoin:round"
       id="line129" />
    <rect
       x="97.139999"
       y="204.98"
       width="41.889999"
       height="47.540001"
       rx="8.6099997"
       style="fill:#ffffff;stroke:#263238;stroke-linecap:round;stroke-linejoin:round"
       id="rect137"
       ry="8.6099997" />
    <path
       d="m 134.37,205 h -32.58 a 4.65,4.65 0 0 0 -4.65,4.65 v 1 H 139 v -1 A 4.65,4.65 0 0 0 134.37,205 Z"
       style="fill:#263238;stroke:#263238;stroke-linecap:round;stroke-linejoin:round"
       id="path139" />
    <line
       x1="103.12"
       y1="218.94"
       x2="133.03999"
       y2="218.94"
       style="fill:none;stroke:#263238;stroke-linecap:round;stroke-linejoin:round"
       id="line141" />
    <line
       x1="103.12"
       y1="226.25"
       x2="133.03999"
       y2="226.25"
       style="fill:none;stroke:#263238;stroke-linecap:round;stroke-linejoin:round"
       id="line143" />
    <line
       x1="103.12"
       y1="233.57001"
       x2="133.03999"
       y2="233.57001"
       style="fill:none;stroke:#263238;stroke-linecap:round;stroke-linejoin:round"
       id="line145" />
    <line
       x1="103.12"
       y1="240.88"
       x2="133.03999"
       y2="240.88"
       style="fill:none;stroke:#263238;stroke-linecap:round;stroke-linejoin:round"
       id="line147" />
    <line
       x1="117.86"
       y1="266.82999"
       x2="131.92"
       y2="266.82999"
       style="fill:none;stroke:#263238;stroke-linecap:round;stroke-linejoin:round"
       id="line155" />
    <line
       x1="102.31"
       y1="266.82999"
       x2="115.32"
       y2="266.82999"
       style="fill:none;stroke:#263238;stroke-linecap:round;stroke-linejoin:round"
       id="line157" />
    <line
       x1="126.48"
       y1="271.26999"
       x2="131.92"
       y2="271.26999"
       style="fill:none;stroke:#263238;stroke-linecap:round;stroke-linejoin:round"
       id="line159" />
    <line
       x1="102.31"
       y1="271.26999"
       x2="123.94"
       y2="271.26999"
       style="fill:none;stroke:#263238;stroke-linecap:round;stroke-linejoin:round"
       id="line161" />
    <line
       x1="129.77"
       y1="275.70999"
       x2="131.92"
       y2="275.70999"
       style="fill:none;stroke:#263238;stroke-linecap:round;stroke-linejoin:round"
       id="line163" />
    <line
       x1="118.11"
       y1="275.70999"
       x2="126.22"
       y2="275.70999"
       style="fill:none;stroke:#263238;stroke-linecap:round;stroke-linejoin:round"
       id="line165" />
    <line
       x1="102.31"
       y1="275.70999"
       x2="115.83"
       y2="275.70999"
       style="fill:none;stroke:#263238;stroke-linecap:round;stroke-linejoin:round"
       id="line167" />
    <line
       x1="102.31"
       y1="280.14999"
       x2="131.92"
       y2="280.14999"
       style="fill:none;stroke:#263238;stroke-linecap:round;stroke-linejoin:round"
       id="line169" />
    <line
       x1="126.99"
       y1="284.59"
       x2="131.92"
       y2="284.59"
       style="fill:none;stroke:#263238;stroke-linecap:round;stroke-linejoin:round"
       id="line171" />
    <line
       x1="110"
       y1="284.59"
       x2="121.91"
       y2="284.59"
       style="fill:none;stroke:#263238;stroke-linecap:round;stroke-linejoin:round"
       id="line173" />
    <line
       x1="102.31"
       y1="284.59"
       x2="106.45"
       y2="284.59"
       style="fill:none;stroke:#263238;stroke-linecap:round;stroke-linejoin:round"
       id="line175" />
    <line
       x1="115.83"
       y1="289.03"
       x2="131.92"
       y2="289.03"
       style="fill:none;stroke:#263238;stroke-linecap:round;stroke-linejoin:round"
       id="line177" />
    <line
       x1="102.31"
       y1="289.03"
       x2="113.04"
       y2="289.03"
       style="fill:none;stroke:#263238;stroke-linecap:round;stroke-linejoin:round"
       id="line179" />
    <line
       x1="123.94"
       y1="293.47"
       x2="131.92"
       y2="293.47"
       style="fill:none;stroke:#263238;stroke-linecap:round;stroke-linejoin:round"
       id="line181" />
    <line
       x1="116.08"
       y1="293.47"
       x2="121.66"
       y2="293.47"
       style="fill:none;stroke:#263238;stroke-linecap:round;stroke-linejoin:round"
       id="line183" />
    <line
       x1="102.31"
       y1="293.47"
       x2="113.04"
       y2="293.47"
       style="fill:none;stroke:#263238;stroke-linecap:round;stroke-linejoin:round"
       id="line185" />
    <line
       x1="217.25"
       y1="260.85999"
       x2="231.32001"
       y2="260.85999"
       style="fill:none;stroke:#263238;stroke-linecap:round;stroke-linejoin:round"
       id="line187" />
    <line
       x1="201.71001"
       y1="260.85999"
       x2="214.72"
       y2="260.85999"
       style="fill:none;stroke:#263238;stroke-linecap:round;stroke-linejoin:round"
       id="line189" />
    <line
       x1="225.87"
       y1="265.31"
       x2="231.32001"
       y2="265.31"
       style="fill:none;stroke:#263238;stroke-linecap:round;stroke-linejoin:round"
       id="line191" />
    <line
       x1="201.71001"
       y1="265.31"
       x2="223.34"
       y2="265.31"
       style="fill:none;stroke:#263238;stroke-linecap:round;stroke-linejoin:round"
       id="line193" />
    <line
       x1="229.17"
       y1="269.75"
       x2="231.32001"
       y2="269.75"
       style="fill:none;stroke:#263238;stroke-linecap:round;stroke-linejoin:round"
       id="line195" />
    <line
       x1="217.50999"
       y1="269.75"
       x2="225.62"
       y2="269.75"
       style="fill:none;stroke:#263238;stroke-linecap:round;stroke-linejoin:round"
       id="line197" />
    <line
       x1="201.71001"
       y1="269.75"
       x2="215.23"
       y2="269.75"
       style="fill:none;stroke:#263238;stroke-linecap:round;stroke-linejoin:round"
       id="line199" />
    <line
       x1="201.71001"
       y1="274.19"
       x2="231.32001"
       y2="274.19"
       style="fill:none;stroke:#263238;stroke-linecap:round;stroke-linejoin:round"
       id="line201" />
    <line
       x1="226.38"
       y1="278.63"
       x2="231.32001"
       y2="278.63"
       style="fill:none;stroke:#263238;stroke-linecap:round;stroke-linejoin:round"
       id="line203" />
    <line
       x1="209.39"
       y1="278.63"
       x2="221.31"
       y2="278.63"
       style="fill:none;stroke:#263238;stroke-linecap:round;stroke-linejoin:round"
       id="line205" />
    <line
       x1="201.71001"
       y1="278.63"
       x2="205.84"
       y2="278.63"
       style="fill:none;stroke:#263238;stroke-linecap:round;stroke-linejoin:round"
       id="line207" />
    <line
       x1="215.23"
       y1="283.07001"
       x2="231.32001"
       y2="283.07001"
       style="fill:none;stroke:#263238;stroke-linecap:round;stroke-linejoin:round"
       id="line209" />
    <line
       x1="201.71001"
       y1="283.07001"
       x2="212.44"
       y2="283.07001"
       style="fill:none;stroke:#263238;stroke-linecap:round;stroke-linejoin:round"
       id="line211" />
    <line
       x1="223.34"
       y1="287.51001"
       x2="231.32001"
       y2="287.51001"
       style="fill:none;stroke:#263238;stroke-linecap:round;stroke-linejoin:round"
       id="line213" />
    <line
       x1="215.48"
       y1="287.51001"
       x2="221.06"
       y2="287.51001"
       style="fill:none;stroke:#263238;stroke-linecap:round;stroke-linejoin:round"
       id="line215" />
    <line
       x1="201.71001"
       y1="287.51001"
       x2="212.44"
       y2="287.51001"
       style="fill:none;stroke:#263238;stroke-linecap:round;stroke-linejoin:round"
       id="line217" />
    <line
       x1="250.14999"
       y1="160.14"
       x2="264.20999"
       y2="160.14"
       style="fill:none;stroke:#263238;stroke-linecap:round;stroke-linejoin:round"
       id="line219" />
    <line
       x1="234.60001"
       y1="160.14"
       x2="247.61"
       y2="160.14"
       style="fill:none;stroke:#263238;stroke-linecap:round;stroke-linejoin:round"
       id="line221" />
    <line
       x1="258.76999"
       y1="164.58"
       x2="264.20999"
       y2="164.58"
       style="fill:none;stroke:#263238;stroke-linecap:round;stroke-linejoin:round"
       id="line223" />
    <line
       x1="234.60001"
       y1="164.58"
       x2="256.23001"
       y2="164.58"
       style="fill:none;stroke:#263238;stroke-linecap:round;stroke-linejoin:round"
       id="line225" />
    <line
       x1="262.06"
       y1="169.02"
       x2="264.20999"
       y2="169.02"
       style="fill:none;stroke:#263238;stroke-linecap:round;stroke-linejoin:round"
       id="line227" />
    <line
       x1="250.39999"
       y1="169.02"
       x2="258.51001"
       y2="169.02"
       style="fill:none;stroke:#263238;stroke-linecap:round;stroke-linejoin:round"
       id="line229" />
    <line
       x1="234.60001"
       y1="169.02"
       x2="248.12"
       y2="169.02"
       style="fill:none;stroke:#263238;stroke-linecap:round;stroke-linejoin:round"
       id="line231" />
    <line
       x1="234.60001"
       y1="173.46001"
       x2="264.20999"
       y2="173.46001"
       style="fill:none;stroke:#263238;stroke-linecap:round;stroke-linejoin:round"
       id="line233" />
    <line
       x1="259.28"
       y1="177.89999"
       x2="264.20999"
       y2="177.89999"
       style="fill:none;stroke:#263238;stroke-linecap:round;stroke-linejoin:round"
       id="line235" />
    <line
       x1="242.28999"
       y1="177.89999"
       x2="254.2"
       y2="177.89999"
       style="fill:none;stroke:#263238;stroke-linecap:round;stroke-linejoin:round"
       id="line237" />
    <line
       x1="234.60001"
       y1="177.89999"
       x2="238.74001"
       y2="177.89999"
       style="fill:none;stroke:#263238;stroke-linecap:round;stroke-linejoin:round"
       id="line239" />
    <line
       x1="248.12"
       y1="182.34"
       x2="264.20999"
       y2="182.34"
       style="fill:none;stroke:#263238;stroke-linecap:round;stroke-linejoin:round"
       id="line241" />
    <line
       x1="234.60001"
       y1="182.34"
       x2="245.33"
       y2="182.34"
       style="fill:none;stroke:#263238;stroke-linecap:round;stroke-linejoin:round"
       id="line243" />
    <line
       x1="256.23001"
       y1="186.78"
       x2="264.20999"
       y2="186.78"
       style="fill:none;stroke:#263238;stroke-linecap:round;stroke-linejoin:round"
       id="line245" />
    <line
       x1="248.37"
       y1="186.78"
       x2="253.95"
       y2="186.78"
       style="fill:none;stroke:#263238;stroke-linecap:round;stroke-linejoin:round"
       id="line247" />
    <line
       x1="234.60001"
       y1="186.78"
       x2="245.33"
       y2="186.78"
       style="fill:none;stroke:#263238;stroke-linecap:round;stroke-linejoin:round"
       id="line249" />
    <line
       x1="95.889999"
       y1="170.17"
       x2="109.95"
       y2="170.17"
       style="fill:none;stroke:#263238;stroke-linecap:round;stroke-linejoin:round"
       id="line251" />
    <line
       x1="80.339996"
       y1="170.17"
       x2="93.349998"
       y2="170.17"
       style="fill:none;stroke:#263238;stroke-linecap:round;stroke-linejoin:round"
       id="line253" />
    <line
       x1="104.51"
       y1="174.61"
       x2="109.95"
       y2="174.61"
       style="fill:none;stroke:#263238;stroke-linecap:round;stroke-linejoin:round"
       id="line255" />
    <line
       x1="80.339996"
       y1="174.61"
       x2="101.97"
       y2="174.61"
       style="fill:none;stroke:#263238;stroke-linecap:round;stroke-linejoin:round"
       id="line257" />
    <line
       x1="107.81"
       y1="179.05"
       x2="109.95"
       y2="179.05"
       style="fill:none;stroke:#263238;stroke-linecap:round;stroke-linejoin:round"
       id="line259" />
    <line
       x1="96.139999"
       y1="179.05"
       x2="104.26"
       y2="179.05"
       style="fill:none;stroke:#263238;stroke-linecap:round;stroke-linejoin:round"
       id="line261" />
    <line
       x1="80.339996"
       y1="179.05"
       x2="93.860001"
       y2="179.05"
       style="fill:none;stroke:#263238;stroke-linecap:round;stroke-linejoin:round"
       id="line263" />
    <line
       x1="80.339996"
       y1="183.49001"
       x2="109.95"
       y2="183.49001"
       style="fill:none;stroke:#263238;stroke-linecap:round;stroke-linejoin:round"
       id="line265" />
    <line
       x1="105.02"
       y1="187.92999"
       x2="109.95"
       y2="187.92999"
       style="fill:none;stroke:#263238;stroke-linecap:round;stroke-linejoin:round"
       id="line267" />
    <line
       x1="88.029999"
       y1="187.92999"
       x2="99.949997"
       y2="187.92999"
       style="fill:none;stroke:#263238;stroke-linecap:round;stroke-linejoin:round"
       id="line269" />
    <line
       x1="80.339996"
       y1="187.92999"
       x2="84.480003"
       y2="187.92999"
       style="fill:none;stroke:#263238;stroke-linecap:round;stroke-linejoin:round"
       id="line271" />
    <line
       x1="93.860001"
       y1="192.37"
       x2="109.95"
       y2="192.37"
       style="fill:none;stroke:#263238;stroke-linecap:round;stroke-linejoin:round"
       id="line273" />
    <line
       x1="80.339996"
       y1="192.37"
       x2="91.07"
       y2="192.37"
       style="fill:none;stroke:#263238;stroke-linecap:round;stroke-linejoin:round"
       id="line275" />
    <line
       x1="101.97"
       y1="196.81"
       x2="109.95"
       y2="196.81"
       style="fill:none;stroke:#263238;stroke-linecap:round;stroke-linejoin:round"
       id="line277" />
    <line
       x1="94.110001"
       y1="196.81"
       x2="99.690002"
       y2="196.81"
       style="fill:none;stroke:#263238;stroke-linecap:round;stroke-linejoin:round"
       id="line279" />
    <line
       x1="80.339996"
       y1="196.81"
       x2="91.07"
       y2="196.81"
       style="fill:none;stroke:#263238;stroke-linecap:round;stroke-linejoin:round"
       id="line281" />
    <polygon
       points="223.07,249.47 223.07,197.14 192.24,197.14 183.82,205.35 183.82,249.47 "
       style="fill:#ffffff;stroke:#263238;stroke-linecap:round;stroke-linejoin:round"
       id="polygon283" />
    <polygon
       points="191.18,204.5 191.18,206.64 183.82,205.37 "
       style="fill:#263238;stroke:#263238;stroke-linecap:round;stroke-linejoin:round"
       id="polygon285" />
    <polygon
       points="192.23,197.14 192.23,205.37 183.82,205.37 "
       style="fill:#ffffff;stroke:#263238;stroke-linecap:round;stroke-linejoin:round"
       id="polygon287" />
    <line
       x1="218.09"
       y1="208.50999"
       x2="187.87"
       y2="208.50999"
       style="fill:none;stroke:#263238;stroke-linecap:round;stroke-linejoin:round"
       id="line289" />
    <line
       x1="218.09"
       y1="215.98"
       x2="187.87"
       y2="215.98"
       style="fill:none;stroke:#263238;stroke-linecap:round;stroke-linejoin:round"
       id="line291" />
    <line
       x1="218.09"
       y1="223.46001"
       x2="187.87"
       y2="223.46001"
       style="fill:none;stroke:#263238;stroke-linecap:round;stroke-linejoin:round"
       id="line293" />
    <line
       x1="218.09"
       y1="230.94"
       x2="187.87"
       y2="230.94"
       style="fill:none;stroke:#263238;stroke-linecap:round;stroke-linejoin:round"
       id="line295" />
    <rect
       x="183.82001"
       y="237.25999"
       width="39.25"
       height="12.22"
       style="fill:#263238;stroke:#263238;stroke-linecap:round;stroke-linejoin:round"
       id="rect297" />
  </g>
  <path
     d="m 334.2627,220.07544 a 1.82,1.82 0 0 0 -1.84,1.81 v 11.44 a 1.85,1.85 0 0 0 3.69,0 v -11.44 a 1.83,1.83 0 0 0 -1.85,-1.81 z"
     style="fill:#263238"
     id="path308" />
  <path
     d="m 338.7227,220.07544 a 1.83,1.83 0 0 0 -1.85,1.81 v 11.44 a 1.85,1.85 0 0 0 3.69,0 v -11.44 a 1.83,1.83 0 0 0 -1.84,-1.81 z"
     style="fill:#263238"
     id="path310" />
  <path
     d="m 343.1127,220.07544 v 0 a 1.82,1.82 0 0 0 -1.84,1.81 v 11.44 a 1.82,1.82 0 0 0 1.84,1.81 v 0 a 1.82,1.82 0 0 0 1.84,-1.81 v -11.44 a 1.82,1.82 0 0 0 -1.84,-1.81 z"
     style="fill:#263238"
     id="path312" />
  <path
     d="m 347.5427,220.07544 a 1.83,1.83 0 0 0 -1.85,1.81 v 11.44 a 1.85,1.85 0 0 0 3.69,0 v -11.44 a 1.83,1.83 0 0 0 -1.84,-1.81 z"
     style="fill:#263238"
     id="path314" />
  <path
     d="m 351.9627,220.07544 a 1.82,1.82 0 0 0 -1.84,1.81 v 11.44 a 1.84,1.84 0 0 0 3.68,0 v -11.44 a 1.82,1.82 0 0 0 -1.84,-1.81 z"
     style="fill:#263238"
     id="path316" />
  <path
     d="m 356.3927,220.07544 v 0 a 1.83,1.83 0 0 0 -1.85,1.81 v 11.44 a 1.83,1.83 0 0 0 1.85,1.81 v 0 a 1.83,1.83 0 0 0 1.84,-1.81 v -11.44 a 1.83,1.83 0 0 0 -1.84,-1.81 z"
     style="fill:#263238"
     id="path318" />
  <path
     d="m 360.8127,220.07544 a 1.82,1.82 0 0 0 -1.84,1.81 v 11.44 a 1.84,1.84 0 0 0 3.68,0 v -11.44 a 1.82,1.82 0 0 0 -1.84,-1.81 z"
     style="fill:#263238"
     id="path320" />
  <path
     d="m 365.2327,220.07544 a 1.83,1.83 0 0 0 -1.84,1.81 v 11.44 a 1.85,1.85 0 0 0 3.69,0 v -11.44 a 1.83,1.83 0 0 0 -1.85,-1.81 z"
     style="fill:#263238"
     id="path322" />
  <path
     d="m 369.6627,220.07544 a 1.82,1.82 0 0 0 -1.84,1.81 v 11.44 a 1.84,1.84 0 0 0 3.68,0 v -11.44 a 1.82,1.82 0 0 0 -1.84,-1.81 z"
     style="fill:#263238"
     id="path324" />
  <path
     d="m 374.0827,220.07544 a 1.83,1.83 0 0 0 -1.84,1.81 v 11.44 a 1.85,1.85 0 0 0 3.69,0 v -11.44 a 1.83,1.83 0 0 0 -1.85,-1.81 z"
     style="fill:#263238"
     id="path326" />
  <path
     d="m 378.5127,220.07544 a 1.82,1.82 0 0 0 -1.84,1.81 v 11.44 a 1.84,1.84 0 0 0 3.68,0 v -11.44 a 1.82,1.82 0 0 0 -1.84,-1.81 z"
     style="fill:#263238"
     id="path328" />
  <path
     d="m 381.6727,220.07544 a 1,1 0 0 1 0,0.53 1.81,1.81 0 0 0 -0.54,1.28 v 11.44 a 1.81,1.81 0 0 0 0.54,1.28 5.54,5.54 0 0 0 2.56,0.53 c 2.08,0 3.4,-0.81 2.95,-1.81 l -4.72,-11.44 a 13.25,13.25 0 0 1 -0.79,-1.81 z"
     style="fill:#263238"
     id="path330" />
  <path
     d="m 381.6727,220.07544 a 13.94,13.94 0 0 1 0.93,1.81 l 5.83,11.44 c 0.47,1 2.53,1.81 4.61,1.81 2.08,0 2.93,-0.81 1.88,-1.81 l -11.44,-11.44 -1.31,-1.28 c -0.33,-0.33 -0.5,-0.53 -0.5,-0.53 z"
     style="fill:#263238"
     id="path332" />
  <path
     d="m 381.6727,220.07544 a 5.36,5.36 0 0 1 0.53,0.49 l 1.28,1.32 11.44,11.44 c 1,1 1.81,0.17 1.81,-2 0,-2.17 -0.81,-4.22 -1.81,-4.67 l -11.44,-5.72 a 13.18,13.18 0 0 1 -1.81,-0.86 z"
     style="fill:#263238"
     id="path334" />
  <path
     d="m 381.6727,220.07544 a 13.57,13.57 0 0 1 1.81,0.72 l 11.44,4.57 c 1,0.44 1.81,-0.92 1.81,-3.05 a 7.56,7.56 0 0 0 -0.14,-1.47 5.41,5.41 0 0 0 -0.17,-0.64 0.5,0.5 0 0 0 -0.1,-0.21 l -0.12,-0.13 a 1.78,1.78 0 0 0 -1.28,-0.55 h -11.44 a 1.78,1.78 0 0 0 -1.28,0.55 l -0.11,0.13 c 0,0.06 -0.07,0.1 -0.11,0.09 h -0.31 z"
     style="fill:#263238"
     id="path336" />
  <path
     d="m 381.6727,216.67544 a 1.84,1.84 0 0 0 1.81,1.88 h 11.44 a 1.89,1.89 0 0 0 0,-3.77 h -11.44 a 1.85,1.85 0 0 0 -1.81,1.89 z"
     style="fill:#263238"
     id="path338" />
  <path
     d="m 381.6727,212.14544 a 1.85,1.85 0 0 0 1.81,1.89 h 11.44 a 1.89,1.89 0 0 0 0,-3.77 h -11.44 a 1.84,1.84 0 0 0 -1.81,1.88 z"
     style="fill:#263238"
     id="path340" />
  <path
     d="m 381.6727,207.62544 a 1.85,1.85 0 0 0 1.81,1.89 h 11.44 a 1.89,1.89 0 0 0 0,-3.77 h -11.44 a 1.84,1.84 0 0 0 -1.81,1.88 z"
     style="fill:#263238"
     id="path342" />
  <path
     d="m 381.6727,203.14544 a 1.84,1.84 0 0 0 1.81,1.88 h 11.44 a 1.89,1.89 0 0 0 0,-3.77 h -11.44 a 1.85,1.85 0 0 0 -1.81,1.89 z"
     style="fill:#263238"
     id="path344" />
  <path
     d="m 381.6727,198.57544 a 1.85,1.85 0 0 0 1.81,1.89 h 11.44 a 1.89,1.89 0 0 0 0,-3.77 h -11.44 a 1.84,1.84 0 0 0 -1.81,1.88 z"
     style="fill:#263238"
     id="path346" />
  <path
     d="m 381.6727,194.05544 a 1.84,1.84 0 0 0 1.81,1.88 h 11.44 a 1.89,1.89 0 0 0 0,-3.77 h -11.44 a 1.85,1.85 0 0 0 -1.81,1.89 z"
     style="fill:#263238"
     id="path348" />
  <path
     d="m 381.6727,188.41544 v 0 a 7.54,7.54 0 0 0 0.15,1.47 5.44,5.44 0 0 0 0.16,0.64 0.43,0.43 0 0 0 0.11,0.2 0.76,0.76 0 0 0 0.11,0.14 1.78,1.78 0 0 0 1.28,0.55 h 11.44 a 1.78,1.78 0 0 0 1.28,-0.55 l 0.12,-0.14 c 0,-0.05 0.07,-0.09 0.1,-0.08 h 0.3 a 10.89,10.89 0 0 1 -1.81,-0.72 l -11.44,-4.56 c -0.99,-0.45 -1.8,0.92 -1.8,3.05 z"
     style="fill:#263238"
     id="path350" />
  <path
     d="m 381.6727,179.36544 v 0 c 0,2.13 0.81,4.22 1.81,4.67 l 11.44,5.71 a 16.54,16.54 0 0 1 1.81,0.9 c 0,0 -0.2,-0.16 -0.53,-0.49 l -1.28,-1.31 -11.44,-11.44 c -1,-1.05 -1.81,-0.17 -1.81,1.96 z"
     style="fill:#263238"
     id="path352" />
  <path
     d="m 385.2427,175.59544 c -2,0 -2.8,0.81 -1.76,1.81 l 11.44,11.44 1.32,1.3 a 6.31,6.31 0 0 1 0.49,0.52 14.94,14.94 0 0 1 -0.95,-1.8 l -6,-11.44 c -0.51,-1.02 -2.54,-1.83 -4.54,-1.83 z"
     style="fill:#263238"
     id="path354" />
  <path
     d="m 393.7827,175.59544 c -2,0 -3.25,0.81 -2.78,1.81 l 5,11.44 a 14.91,14.91 0 0 1 0.78,1.8 3.2,3.2 0 0 1 0,-0.52 v -0.27 a 1.87,1.87 0 0 0 0.17,-0.31 1.78,1.78 0 0 0 0.14,-0.7 v -11.44 a 1.87,1.87 0 0 0 -0.14,-0.71 1.46,1.46 0 0 0 -0.17,-0.3 2.17,2.17 0 0 0 -0.42,-0.27 5.62,5.62 0 0 0 -2.58,-0.53 z"
     style="fill:#263238"
     id="path356" />
  <path
     d="m 399.5327,175.59544 a 1.8,1.8 0 0 0 -1.78,1.81 v 11.44 a 1.78,1.78 0 1 0 3.56,0 v -11.44 a 1.8,1.8 0 0 0 -1.78,-1.81 z"
     style="fill:#263238"
     id="path358" />
  <path
     d="m 403.8027,175.59544 a 1.8,1.8 0 0 0 -1.78,1.81 v 11.44 a 1.78,1.78 0 1 0 3.56,0 v -11.44 a 1.79,1.79 0 0 0 -1.78,-1.81 z"
     style="fill:#263238"
     id="path360" />
  <path
     d="m 408.0727,175.59544 v 0 a 1.8,1.8 0 0 0 -1.78,1.81 v 11.44 a 1.79,1.79 0 0 0 1.78,1.8 v 0 a 1.79,1.79 0 0 0 1.79,-1.8 v -11.44 a 1.8,1.8 0 0 0 -1.79,-1.81 z"
     style="fill:#263238"
     id="path362" />
  <path
     d="m 411.1027,197.61544 v 0 -28.73 0 a 11.17,11.17 0 0 0 -11.17,11.17 v 6.39 a 11.17,11.17 0 0 0 11.17,11.17 z"
     style="fill:#ffffff;stroke:#263238;stroke-linecap:round;stroke-linejoin:round"
     id="path364" />
  <path
     d="m 439.8327,225.32544 -29.88,-14.75 a 8.43,8.43 0 0 1 -4.7,-7.56 v -39 a 8.43,8.43 0 0 1 4.7,-7.56 l 29.88,-14.75 z"
     style="fill:#ffffff;stroke:#263238;stroke-linecap:round;stroke-linejoin:round"
     id="path366" />
  <line
     x1="383.96268"
     y1="241.73544"
     x2="361.88269"
     y2="241.73544"
     style="fill:none;stroke:#263238;stroke-linecap:round;stroke-linejoin:round"
     id="line368" />
  <line
     x1="388.37268"
     y1="245.60544"
     x2="379.54269"
     y2="245.60544"
     style="fill:none;stroke:#263238;stroke-linecap:round;stroke-linejoin:round"
     id="line370" />
  <line
     x1="374.58267"
     y1="184.57544"
     x2="374.58267"
     y2="206.10545"
     style="fill:none;stroke:#263238;stroke-linecap:round;stroke-linejoin:round"
     id="line372" />
  <line
     x1="378.44269"
     y1="192.30545"
     x2="378.44269"
     y2="179.06544"
     style="fill:none;stroke:#263238;stroke-linecap:round;stroke-linejoin:round"
     id="line374" />
  <line
     x1="403.83267"
     y1="219.34546"
     x2="403.83267"
     y2="230.38544"
     style="fill:none;stroke:#263238;stroke-linecap:round;stroke-linejoin:round"
     id="line376" />
  <line
     x1="399.96268"
     y1="215.48544"
     x2="399.96268"
     y2="225.42545"
     style="fill:none;stroke:#263238;stroke-linecap:round;stroke-linejoin:round"
     id="line378" />
  <line
     x1="210.08269"
     y1="141.65544"
     x2="204.3427"
     y2="141.65544"
     style="fill:none;stroke:#263238;stroke-width:9px;stroke-linecap:round;stroke-linejoin:round"
     id="line380" />
  <polyline
     points="463.59 250.46 486.57 250.46 486.57 181.51 507.64 181.51"
     style="fill:none;stroke:#263238;stroke-width:4px;stroke-linecap:round;stroke-linejoin:round"
     id="polyline382"
     transform="matrix(-1,0,0,1,717.7227,-39.85456)" />
  <line
     x1="210.08269"
     y1="280.83545"
     x2="203.06273"
     y2="280.83545"
     style="fill:none;stroke:#263238;stroke-width:9px;stroke-linecap:round;stroke-linejoin:round"
     id="line384" />
  <polyline
     points="459.12 271.53 485.93 271.53 485.93 320.69 507.64 320.69"
     style="fill:none;stroke:#263238;stroke-width:4px;stroke-linecap:round;stroke-linejoin:round"
     id="polyline386"
     transform="matrix(-1,0,0,1,717.7227,-39.85456)" />
  <polyline
     points="376.36 185.19 370.63 185.19 370.63 237.1"
     style="fill:none;stroke:#263238;stroke-width:4px;stroke-linecap:round;stroke-linejoin:round"
     id="polyline388"
     transform="matrix(-1,0,0,1,717.7227,-39.85456)" />
  <line
     x1="336.90268"
     y1="145.33545"
     x2="341.3627"
     y2="145.33545"
     style="fill:none;stroke:#263238;stroke-width:7px;stroke-linecap:round;stroke-linejoin:round"
     id="line390" />
  <rect
     x="-311.8627"
     y="164.81544"
     width="26.190001"
     height="28.059999"
     style="fill:#263238;stroke:#263238;stroke-linecap:round;stroke-linejoin:round"
     id="rect392"
     transform="scale(-1,1)" />
  <rect
     x="-287.25269"
     y="126.00544"
     width="25.719999"
     height="25.26"
     style="fill:#263238;stroke:#263238;stroke-linecap:round;stroke-linejoin:round"
     id="rect394"
     transform="scale(-1,1)" />
  <path
     d="m 271.8127,151.25544 h -11.39 a 40.41,40.41 0 0 0 73,5.61 40,40 0 0 0 5.22,-20.58 c 0,-0.63 0,-1.27 -0.05,-1.9 a 40.45,40.45 0 0 0 -79.77,-6.51 h 13 a 11.69,11.69 0 1 1 0,23.38 z"
     style="fill:#ffffff;stroke:#263238;stroke-linecap:round;stroke-linejoin:round"
     id="path396" />
  <line
     x1="295.2027"
     y1="138.62544"
     x2="283.50269"
     y2="138.62544"
     style="fill:none;stroke:#263238;stroke-linecap:round;stroke-linejoin:round"
     id="line398" />
  <line
     x1="304.55267"
     y1="98.405434"
     x2="304.55267"
     y2="175.57544"
     style="fill:none;stroke:#263238;stroke-linecap:round;stroke-linejoin:round"
     id="line400" />
  <circle
     cx="-305.49268"
     cy="138.62544"
     r="10.29"
     style="fill:#263238;stroke:#263238;stroke-linecap:round;stroke-linejoin:round"
     id="circle402"
     transform="scale(-1,1)" />
  <path
     d="m 300.3427,138.62544 a 5.15,5.15 0 1 1 5.14,5.15 5.14,5.14 0 0 1 -5.14,-5.15 z"
     style="fill:#ffffff;stroke:#263238;stroke-linecap:round;stroke-linejoin:round"
     id="path404" />
  <circle
     cx="-270.88269"
     cy="138.62544"
     r="5.1399999"
     style="fill:#0098a1"
     id="circle406"
     transform="scale(-1,1)" />
  <path
     d="m 325.6027,136.28544 v 20.58 h 7.85 a 40,40 0 0 0 5.22,-20.58 z"
     style="fill:#263238;stroke:#263238;stroke-linecap:round;stroke-linejoin:round"
     id="path408" />
  <line
     x1="298.7627"
     y1="273.64545"
     x2="298.7627"
     y2="334.39545"
     style="fill:#ffffff;stroke:#263238;stroke-width:3px;stroke-linecap:round;stroke-linejoin:round"
     id="line410" />
  <circle
     cx="-298.7627"
     cy="300.03546"
     r="15.62"
     style="fill:#ffffff;stroke:#263238;stroke-linecap:round;stroke-linejoin:round"
     id="circle412"
     transform="scale(-1,1)" />
  <circle
     cx="-298.7627"
     cy="331.27545"
     r="7.5"
     style="fill:#ffffff;stroke:#263238;stroke-linecap:round;stroke-linejoin:round"
     id="circle414"
     transform="scale(-1,1)" />
  <path
     d="m 242.8127,203.42544 17.25,51.41 c 4.81,14.32 19.39,24.1 35.92,24.1 h 5.57 c 16.53,0 31.11,-9.78 35.91,-24.1 l 17.26,-51.41 c 2.62,-7.81 -3.84,-15.69 -12.85,-15.69 h -86.21 c -9.02,0 -15.47,7.88 -12.85,15.69 z"
     style="fill:#ffffff;stroke:#263238;stroke-linecap:round;stroke-linejoin:round"
     id="path416" />
  <g
     id="g1731"
     transform="matrix(-1,0,0,1,717.7227,-37.85456)">
    <path
       style="fill:#ffffff;fill-opacity:1;stroke:#263238;stroke-width:4;stroke-dasharray:none;stroke-opacity:1"
       d="m 462.34503,259.4523 h 150"
       id="path1664" />
    <line
       x1="606.05927"
       y1="259.4523"
       x2="611.79926"
       y2="259.4523"
       style="fill:none;stroke:#263238;stroke-width:9px;stroke-linecap:round;stroke-linejoin:round"
       id="line380-7" />
  </g>
  <path
     d="m 250.0227,208.24544 a 8.52,8.52 0 0 1 10.3,5.46 l 13.94,40.72 a 8.51,8.51 0 0 1 -4.44,10.46 l -3,1.43 a 33,33 0 0 1 -6.73,-11.48 l -15.16,-45.19 z"
     style="fill:#ffffff;stroke:#263238;stroke-linecap:round;stroke-linejoin:round"
     id="path418" />
  <path
     d="m 337.6327,213.70544 a 8.52,8.52 0 0 1 10.3,-5.46 l 4.74,1.29 -15.21,45.3 a 32.79,32.79 0 0 1 -6.6,11.34 l -2.73,-1.29 a 8.52,8.52 0 0 1 -4.41,-10.46 z"
     style="fill:#ffffff;stroke:#263238;stroke-linecap:round;stroke-linejoin:round"
     id="path420" />
  <path
     d="m 271.7227,187.73544 a 7.74,7.74 0 0 0 7.7,6.91 h 40 a 7.74,7.74 0 0 0 7.7,-6.91 z"
     style="fill:#ffffff;stroke:#263238;stroke-linecap:round;stroke-linejoin:round"
     id="path422" />
  <line
     x1="298.72269"
     y1="278.64545"
     x2="298.72269"
     y2="194.64545"
     style="fill:none;stroke:#263238;stroke-linecap:round;stroke-linejoin:round"
     id="line424" />
  <rect
     x="-326.58267"
     y="204.64545"
     width="55.639999"
     height="30.860001"
     rx="5.0599999"
     style="fill:#0098a1;stroke:#263238;stroke-linecap:round;stroke-linejoin:round"
     id="rect426"
     ry="5.0599999"
     transform="scale(-1,1)" />
  <circle
     cx="-298.7627"
     cy="245.14545"
     r="6"
     style="fill:#263238;stroke:#263238;stroke-linecap:round;stroke-linejoin:round"
     id="circle456"
     transform="scale(-1,1)" />
  <circle
     cx="-298.7627"
     cy="245.14545"
     r="2.5"
     style="fill:#0098a1"
     id="circle458"
     transform="scale(-1,1)" />
  <circle
     style="fill:#ffffff;fill-opacity:1;stroke:#263238;stroke-width:5.00986;stroke-dasharray:none;stroke-opacity:1"
     id="path1469"
     cx="-155.6223"
     cy="140.81172"
     r="47.495071"
     transform="scale(-1,1)" />
  <ellipse
     style="fill:#ffffff;fill-opacity:1;stroke:#263238;stroke-width:5;stroke-dasharray:none;stroke-opacity:1"
     id="path1469-3"
     cx="-163.25145"
     cy="280.92545"
     rx="42.74556"
     ry="42.745564"
     transform="scale(-1,1)" />
  <ellipse
     style="fill:#ffffff;fill-opacity:1;stroke:#263238;stroke-width:5;stroke-dasharray:none;stroke-opacity:1"
     id="path1469-3-5"
     cx="-73.090248"
     cy="220.21262"
     rx="33.066109"
     ry="33.066113"
     transform="scale(-1,1)" />
</svg>
