<?xml version="1.0" encoding="UTF-8" standalone="no"?>
<svg
   viewBox="0 0 500 500"
   version="1.1"
   id="svg2736"
   sodipodi:docname="roboticist.svg"
   inkscape:version="1.2.2 (b0a8486541, 2022-12-01)"
   xmlns:inkscape="http://www.inkscape.org/namespaces/inkscape"
   xmlns:sodipodi="http://sodipodi.sourceforge.net/DTD/sodipodi-0.dtd"
   xmlns="http://www.w3.org/2000/svg"
   xmlns:svg="http://www.w3.org/2000/svg">
  <defs
     id="defs2740" />
  <sodipodi:namedview
     id="namedview2738"
     pagecolor="#ffffff"
     bordercolor="#000000"
     borderopacity="0.25"
     inkscape:showpageshadow="2"
     inkscape:pageopacity="0.0"
     inkscape:pagecheckerboard="0"
     inkscape:deskcolor="#d1d1d1"
     showgrid="false"
     inkscape:zoom="2.8426583"
     inkscape:cx="330.6764"
     inkscape:cy="274.74283"
     inkscape:window-width="2822"
     inkscape:window-height="1718"
     inkscape:window-x="58"
     inkscape:window-y="48"
     inkscape:window-maximized="1"
     inkscape:current-layer="freepik--background-simple--inject-31" />
  <g
     id="freepik--background-simple--inject-31">
    <path
       d="M438.09,314.45,437,312.69C428,297.88,411.78,289,394.65,290a45.38,45.38,0,0,0-6.56.9,48.74,48.74,0,0,0-34.75,30.2c-3.3,8.87-4.23,19.09-10.5,26.13-8.16,9.17-22,9.45-34.19,9.07s-26,0-34.17,9.15c-5.08,5.76-6.7,14-6.29,21.68,1.09,20.43,15.33,38.7,33.43,47.78s39.43,9.89,59.25,5.9c27.76-5.6,54.16-21,70-44.7S450.78,340.07,438.09,314.45Z"
       style="fill:#bbbbbf;fill-opacity:1;opacity:0.4"
       id="path2265" />
    <path
       d="M162.72,102.59l.45,1.51a35.58,35.58,0,0,0,27,25.07,34.05,34.05,0,0,0,5,.62,37.36,37.36,0,0,0,31.65-15.57c4.18-5.93,6.87-13.31,12.89-17.3,7.84-5.19,18.16-2.7,27.1,0s19.28,5.14,27.1-.09c4.89-3.27,7.69-9,8.9-14.82C306,66.63,299,50.31,287.38,40s-27.27-15-42.73-16C223,22.79,200.43,29,184,43.48S158.33,81.13,162.72,102.59Z"
       style="fill:#bbbbbf;fill-opacity:1;opacity:0.4"
       id="path2267" />
    <circle
       cx="127.17"
       cy="375.39"
       r="44.71"
       style="fill:#bbbbbf;fill-opacity:1;opacity:0.4"
       id="circle2269" />
  </g>
  <g
     id="freepik--chart-2--inject-31">
    <circle
       cx="348.73"
       cy="172.1"
       r="28.31"
       style="fill:#cc071e;fill-opacity:0.12"
       id="circle2275" />
    <g
       style="opacity:0.8"
       id="g2279" />
    <path
       d="M399.89,165.73a4.09,4.09,0,0,1-.23-.76c-.13-.55-.31-1.27-.54-2.19-.12-.47-.24-1-.38-1.57s-.39-1.18-.6-1.84-.47-1.36-.72-2.1c-.13-.37-.27-.75-.4-1.14s-.35-.77-.54-1.16a41,41,0,0,0-2.56-5.08c-.54-.88-1-1.83-1.64-2.72s-1.3-1.79-2-2.73a48.87,48.87,0,0,0-24.11-17l-3.24-.93c-1-.31-2.11-.42-3.11-.63a39.18,39.18,0,0,0-5.65-.7l-1.27-.11h-1.21l-2.22,0c-.69,0-1.34,0-1.93.06l-1.62.17-2.23.23a4.69,4.69,0,0,1-.79,0,3.81,3.81,0,0,1,.77-.15l2.23-.32,1.62-.22a19.16,19.16,0,0,1,1.94-.1l2.23-.07,1.22,0,1.28.09a39.73,39.73,0,0,1,5.71.64c1,.2,2.08.31,3.14.61l3.27.92a48.61,48.61,0,0,1,24.35,17.14l2,2.77c.64.9,1.1,1.87,1.63,2.75a38.74,38.74,0,0,1,2.53,5.16l.52,1.17c.13.4.26.78.39,1.16.24.75.47,1.46.69,2.12s.45,1.27.56,1.86.23,1.11.34,1.6c.19.92.33,1.66.45,2.21A4.86,4.86,0,0,1,399.89,165.73Z"
       style="fill:#CC071E"
       id="path2281" />
    <path
       d="M377,172.1s0-.15,0-.46l-.09-1.34q0-.45-.06-1c0-.36-.12-.75-.19-1.18a19.6,19.6,0,0,0-.59-2.92,27.06,27.06,0,0,0-3.14-7.49,28.19,28.19,0,0,0-7.17-8,27.87,27.87,0,0,0-11.83-5.24,28.17,28.17,0,0,0-14.74,1.23,28.86,28.86,0,0,0-3.66,1.61c-.6.32-1.16.7-1.75,1.05a13.68,13.68,0,0,0-1.69,1.16,32.54,32.54,0,0,0-3.18,2.71,30.66,30.66,0,0,0-2.75,3.25,27.18,27.18,0,0,0-4,7.73,27.73,27.73,0,0,0,0,17.7,27.18,27.18,0,0,0,4,7.73,30.76,30.76,0,0,0,2.74,3.25,31.13,31.13,0,0,0,3.19,2.71,15,15,0,0,0,1.69,1.17c.59.35,1.15.72,1.75,1a27.5,27.5,0,0,0,3.66,1.61,28.18,28.18,0,0,0,14.74,1.23,28.3,28.3,0,0,0,19-13.21,27.06,27.06,0,0,0,3.14-7.49,21.12,21.12,0,0,0,.6-2.92c.06-.43.14-.82.18-1.18s0-.69.06-1l.09-1.34c0-.3,0-.46,0-.46s0,.16,0,.46,0,.77-.05,1.35q0,.45,0,1c0,.37-.1.76-.16,1.19a20.69,20.69,0,0,1-.55,2.95,27,27,0,0,1-3.09,7.59A28.45,28.45,0,0,1,354,200.12a28.59,28.59,0,0,1-15-1.21,29,29,0,0,1-3.72-1.63c-.61-.32-1.19-.7-1.78-1.06a14.28,14.28,0,0,1-1.73-1.18,32.28,32.28,0,0,1-3.24-2.75,30.87,30.87,0,0,1-2.81-3.31,27.91,27.91,0,0,1-4.09-7.87,28.29,28.29,0,0,1,0-18,27.48,27.48,0,0,1,4.09-7.86,26.06,26.06,0,0,1,6-6.06A15.52,15.52,0,0,1,333.5,148c.59-.35,1.17-.73,1.78-1.06a30.42,30.42,0,0,1,3.72-1.63,28.41,28.41,0,0,1,34.16,12.28,26.92,26.92,0,0,1,3.09,7.6,20.33,20.33,0,0,1,.55,2.94c.06.43.13.83.16,1.19s0,.7,0,1c0,.58,0,1,.05,1.35S377,172.1,377,172.1Z"
       style="fill:#CC071E"
       id="path2283" />
    <path
       d="M381.35,172.1s0-.18-.06-.53-.06-.88-.1-1.54c0-.35,0-.73-.07-1.14s-.13-.87-.21-1.37a23.81,23.81,0,0,0-.68-3.36,31.16,31.16,0,0,0-3.62-8.64,32.6,32.6,0,0,0-21.9-15.25,30.61,30.61,0,0,0-4.1-.47c-.7,0-1.4-.09-2.11-.08l-2.14.11c-.36,0-.73,0-1.09.07l-1.08.17c-.72.12-1.45.2-2.18.35a34.11,34.11,0,0,0-4.31,1.27,31.48,31.48,0,0,0-4.22,1.86c-.69.37-1.34.8-2,1.2a16.13,16.13,0,0,0-1.95,1.35,36,36,0,0,0-3.68,3.12,37.13,37.13,0,0,0-3.17,3.75,31.62,31.62,0,0,0-4.62,8.92,32.14,32.14,0,0,0,0,20.42,31.39,31.39,0,0,0,4.63,8.92,35.87,35.87,0,0,0,3.17,3.75,37,37,0,0,0,3.67,3.12,15.89,15.89,0,0,0,2,1.35c.68.4,1.33.84,2,1.21a33.48,33.48,0,0,0,4.23,1.85,34.25,34.25,0,0,0,4.32,1.27c.72.15,1.45.24,2.17.36l1.08.16c.36,0,.73,0,1.09.07l2.14.11c.71,0,1.41,0,2.11-.08a28.89,28.89,0,0,0,4.1-.47,32.6,32.6,0,0,0,21.9-15.25,31.16,31.16,0,0,0,3.62-8.64,23.81,23.81,0,0,0,.68-3.36c.08-.49.17-1,.21-1.36s.05-.8.07-1.14c0-.67.08-1.18.1-1.55s.06-.53.06-.53,0,.18,0,.53,0,.89-.05,1.55l-.05,1.15c0,.42-.12.87-.19,1.37a23.41,23.41,0,0,1-.63,3.39,30.68,30.68,0,0,1-3.57,8.74,32.75,32.75,0,0,1-22.07,15.53,31.36,31.36,0,0,1-4.15.49c-.71,0-1.42.1-2.14.09l-2.18-.11c-.36,0-.73,0-1.09-.07l-1.1-.16c-.73-.12-1.48-.21-2.21-.36a33.68,33.68,0,0,1-4.39-1.28,35.05,35.05,0,0,1-4.29-1.87c-.69-.38-1.36-.81-2.05-1.22a16.63,16.63,0,0,1-2-1.37,35.84,35.84,0,0,1-3.73-3.16,37.11,37.11,0,0,1-3.23-3.81,31.74,31.74,0,0,1-4.71-9.06,32.6,32.6,0,0,1,0-20.75,31.53,31.53,0,0,1,4.7-9.05,37.11,37.11,0,0,1,3.23-3.81,35.84,35.84,0,0,1,3.73-3.16,16.74,16.74,0,0,1,2-1.37c.68-.4,1.35-.84,2-1.21a33.65,33.65,0,0,1,4.29-1.88,35.31,35.31,0,0,1,4.39-1.28c.73-.15,1.48-.23,2.21-.35l1.09-.17c.37-.05.74,0,1.1-.07l2.18-.1c.71,0,1.43.06,2.14.08a31.37,31.37,0,0,1,4.15.5,32.78,32.78,0,0,1,22.07,15.52,31,31,0,0,1,3.57,8.74,23.41,23.41,0,0,1,.63,3.39c.07.5.15.95.19,1.37s0,.81.05,1.15c0,.67,0,1.18.05,1.55S381.35,172.1,381.35,172.1Z"
       style="fill:#CC071E"
       id="path2285" />
    <path
       d="M399.6,177.39a4.52,4.52,0,0,1,0,1.19c0,.77-.17,1.88-.38,3.24a50.58,50.58,0,0,1-7.73,19.92c-.76,1.15-1.41,2-1.9,2.65a5.53,5.53,0,0,1-.78.9c-.07,0,.94-1.42,2.37-3.74A59.51,59.51,0,0,0,395.9,192a60.59,60.59,0,0,0,2.93-10.24C399.34,179.07,399.51,177.38,399.6,177.39Z"
       style="fill:#CC071E"
       id="path2287" />
    <rect
       x="328.01"
       y="44.78"
       width="4.24"
       height="3.93"
       style="fill:#CC071E"
       id="rect2289" />
    <rect
       x="367.34"
       y="53.47"
       width="4.24"
       height="3.93"
       style="fill:#CC071E"
       id="rect2291" />
    <rect
       x="333.87"
       y="44.78"
       width="3"
       height="12.05"
       style="fill:#CC071E"
       id="rect2293" />
    <rect
       x="338.06"
       y="44.78"
       width="3"
       height="12.05"
       style="fill:#CC071E"
       id="rect2295" />
    <rect
       x="342.25"
       y="44.78"
       width="3"
       height="12.05"
       style="fill:#CC071E"
       id="rect2297" />
    <rect
       x="346.44"
       y="44.78"
       width="3"
       height="12.05"
       style="fill:#CC071E"
       id="rect2299" />
    <rect
       x="351.68"
       y="49.3"
       width="19.13"
       height="2.86"
       style="fill:#CC071E"
       id="rect2301" />
    <path
       d="M348,64.06c.14,0,.26,13.71.26,30.62s-.12,30.61-.26,30.61-.27-13.7-.27-30.61S347.85,64.06,348,64.06Z"
       style="fill:#CC071E"
       id="path2303" />
    <path
       d="M407,229.38c-.1.1-6.53-5.83-14.36-13.26s-14.1-13.53-14-13.64,6.53,5.84,14.36,13.26S407.09,229.27,407,229.38Z"
       style="fill:#CC071E"
       id="path2305" />
    <rect
       x="412.98"
       y="226.59"
       width="17.91"
       height="12.92"
       style="fill:#CC071E"
       id="rect2307" />
    <rect
       x="434.88"
       y="226.59"
       width="17.91"
       height="12.92"
       style="fill:#CC071E"
       id="rect2309" />
    <rect
       x="365.85"
       y="235.17"
       width="39.87"
       height="42.75"
       style="fill:#CC071E"
       id="rect2311" />
    <g
       style="opacity:0.8"
       id="g2315">
      <rect
         x="365.85"
         y="235.17"
         width="39.87"
         height="42.75"
         style="fill:#fff"
         id="rect2313" />
    </g>
    <rect
       x="369.42"
       y="240.48"
       width="11.56"
       height="2.17"
       style="fill:#CC071E"
       id="rect2317" />
    <rect
       x="382.5"
       y="240.48"
       width="3.29"
       height="2.17"
       style="fill:#CC071E"
       id="rect2319" />
    <rect
       x="387.12"
       y="240.39"
       width="11.66"
       height="2.17"
       style="fill:#CC071E"
       id="rect2321" />
    <rect
       x="369.42"
       y="244.24"
       width="8.13"
       height="2.17"
       style="fill:#CC071E"
       id="rect2323" />
    <rect
       x="369.42"
       y="249.04"
       width="11.56"
       height="2.17"
       style="fill:#CC071E"
       id="rect2325" />
    <rect
       x="382.5"
       y="249.04"
       width="3.29"
       height="2.17"
       style="fill:#CC071E"
       id="rect2327" />
    <rect
       x="391.71"
       y="252.73"
       width="3.29"
       height="2.17"
       style="fill:#CC071E"
       id="rect2329" />
    <rect
       x="397.77"
       y="252.73"
       width="3.29"
       height="2.17"
       style="fill:#CC071E"
       id="rect2331" />
    <rect
       x="378.77"
       y="252.8"
       width="11.66"
       height="2.17"
       style="fill:#CC071E"
       id="rect2333" />
    <rect
       x="369.42"
       y="252.8"
       width="8.13"
       height="2.17"
       style="fill:#CC071E"
       id="rect2335" />
    <rect
       x="369.42"
       y="258.11"
       width="11.56"
       height="2.17"
       style="fill:#CC071E"
       id="rect2337" />
    <rect
       x="382.5"
       y="258.11"
       width="3.29"
       height="2.17"
       style="fill:#CC071E"
       id="rect2339" />
    <rect
       x="387.12"
       y="258.02"
       width="11.66"
       height="2.17"
       style="fill:#CC071E"
       id="rect2341" />
    <rect
       x="369.42"
       y="261.87"
       width="8.13"
       height="2.17"
       style="fill:#CC071E"
       id="rect2343" />
    <rect
       x="369.42"
       y="266.67"
       width="11.56"
       height="2.17"
       style="fill:#CC071E"
       id="rect2345" />
    <rect
       x="382.5"
       y="266.67"
       width="3.29"
       height="2.17"
       style="fill:#CC071E"
       id="rect2347" />
    <rect
       x="391.71"
       y="270.36"
       width="3.29"
       height="2.17"
       style="fill:#CC071E"
       id="rect2349" />
    <rect
       x="397.77"
       y="270.36"
       width="3.29"
       height="2.17"
       style="fill:#CC071E"
       id="rect2351" />
    <rect
       x="378.77"
       y="270.43"
       width="11.66"
       height="2.17"
       style="fill:#CC071E"
       id="rect2353" />
    <rect
       x="369.42"
       y="270.43"
       width="8.13"
       height="2.17"
       style="fill:#CC071E"
       id="rect2355" />
    <rect
       x="412.02"
       y="202.48"
       width="30.39"
       height="16.29"
       style="fill:#CC071E"
       id="rect2357" />
    <g
       style="opacity:0.8"
       id="g2361">
      <rect
         x="412.02"
         y="202.48"
         width="30.39"
         height="16.29"
         style="fill:#fff"
         id="rect2359" />
    </g>
    <rect
       x="414.74"
       y="204.86"
       width="8.81"
       height="1.65"
       style="fill:#CC071E"
       id="rect2363" />
    <rect
       x="424.71"
       y="204.86"
       width="2.51"
       height="1.65"
       style="fill:#CC071E"
       id="rect2365" />
    <rect
       x="428.23"
       y="204.79"
       width="8.89"
       height="1.65"
       style="fill:#CC071E"
       id="rect2367" />
    <rect
       x="414.74"
       y="207.73"
       width="6.2"
       height="1.65"
       style="fill:#CC071E"
       id="rect2369" />
    <rect
       x="414.74"
       y="211.38"
       width="8.81"
       height="1.65"
       style="fill:#CC071E"
       id="rect2371" />
    <rect
       x="424.71"
       y="211.38"
       width="2.51"
       height="1.65"
       style="fill:#CC071E"
       id="rect2373" />
    <rect
       x="421.86"
       y="214.25"
       width="8.89"
       height="1.65"
       style="fill:#CC071E"
       id="rect2375" />
    <rect
       x="414.74"
       y="214.25"
       width="6.2"
       height="1.65"
       style="fill:#CC071E"
       id="rect2377" />
    <path
       d="M421.93,140.21a2.14,2.14,0,0,1-.43,0l-1.25,0-4.63.08-15.73.08.25-.19c-.43,1.62-.88,3.3-1.33,5-.82,3-1.6,6-2.32,8.64l0,.12-.11,0-12.24,4.79-3.54,1.34a10.66,10.66,0,0,1-1.29.43,7.84,7.84,0,0,1,1.23-.58l3.49-1.47,12.17-5-.15.17c.71-2.69,1.48-5.61,2.28-8.66.46-1.71.91-3.39,1.34-5l.05-.19h.2l15.73.09,4.63.08,1.25,0A1.49,1.49,0,0,1,421.93,140.21Z"
       style="fill:#CC071E"
       id="path2379" />
    <circle
       cx="422.08"
       cy="140.16"
       r="1.55"
       style="fill:#CC071E"
       id="circle2381" />
    <path
       d="M349.46,271.44a1.55,1.55,0,1,1-1.55-1.55A1.55,1.55,0,0,1,349.46,271.44Z"
       style="fill:#CC071E"
       id="path2383" />
    <path
       d="M348.23,224.06c.15,0,.26,10.57.26,23.61s-.11,23.61-.26,23.61-.26-10.57-.26-23.61S348.09,224.06,348.23,224.06Z"
       style="fill:#CC071E"
       id="path2385" />
    <path
       d="M455.94,137.54c0,.15-5.13.26-11.45.26s-11.44-.11-11.44-.26,5.12-.26,11.44-.26S455.94,137.4,455.94,137.54Z"
       style="fill:#CC071E"
       id="path2387" />
    <path
       d="M454.53,140.66c0,.14-4.81.26-10.74.26s-10.74-.12-10.74-.26,4.8-.26,10.74-.26S454.53,140.51,454.53,140.66Z"
       style="fill:#CC071E"
       id="path2389" />
    <path
       d="M453.32,144a96.66,96.66,0,0,1-10.13.26,96.94,96.94,0,0,1-10.14-.26,100.35,100.35,0,0,1,10.14-.26A100.06,100.06,0,0,1,453.32,144Z"
       style="fill:#CC071E"
       id="path2391" />
    <path
       d="M456.84,147.08c0,.15-5.33.26-11.9.26s-11.89-.11-11.89-.26,5.32-.26,11.89-.26S456.84,146.94,456.84,147.08Z"
       style="fill:#CC071E"
       id="path2393" />
    <path
       d="M455.94,150.08c0,.14-5.13.26-11.45.26s-11.44-.12-11.44-.26,5.12-.26,11.44-.26S455.94,149.94,455.94,150.08Z"
       style="fill:#CC071E"
       id="path2395" />
    <path
       d="M454.53,153.19c0,.15-4.81.26-10.74.26s-10.74-.11-10.74-.26,4.8-.26,10.74-.26S454.53,153.05,454.53,153.19Z"
       style="fill:#CC071E"
       id="path2397" />
    <path
       d="M453.32,156.53a100.06,100.06,0,0,1-10.13.26,100.35,100.35,0,0,1-10.14-.26,100.35,100.35,0,0,1,10.14-.26A100.06,100.06,0,0,1,453.32,156.53Z"
       style="fill:#CC071E"
       id="path2399" />
    <path
       d="M456.84,159.62c0,.15-5.33.26-11.9.26s-11.89-.11-11.89-.26,5.32-.26,11.89-.26S456.84,159.48,456.84,159.62Z"
       style="fill:#CC071E"
       id="path2401" />
    <path
       d="M469.76,140a5.55,5.55,0,0,1-.21-.78,3.23,3.23,0,0,0-1.2-1.68,3.13,3.13,0,0,0-2.91-.4,3.06,3.06,0,1,0,2.91,5.32,3.23,3.23,0,0,0,1.2-1.68,5.55,5.55,0,0,1,.21-.78,1.59,1.59,0,0,1,0,.83,3.24,3.24,0,0,1-1.18,1.93,3.47,3.47,0,0,1-3.3.55,3.51,3.51,0,0,1,0-6.62,3.44,3.44,0,0,1,3.3.56,3.19,3.19,0,0,1,1.18,1.93A1.54,1.54,0,0,1,469.76,140Z"
       style="fill:#CC071E"
       id="path2403" />
    <path
       d="M469.48,158.08a4.53,4.53,0,0,1-.06-.78c0-.58,0-1.26-.06-2.08-.05-1.76-.1-4.2-.12-7.06l.24.24-6,0,.26-.26h0v2.74c0,.9,0,1.77,0,2.61,0,1.65,0,3.19,0,4.55l-.2-.2c1.79,0,3.27.07,4.32.1a15.15,15.15,0,0,1,1.69.1,10.29,10.29,0,0,1-1.56.1c-1,0-2.57.08-4.45.1h-.21v-.21c0-1.36,0-2.9,0-4.55,0-.84,0-1.71,0-2.61v-2.74h0c-.23.23.32-.32.27-.26l6,0h.24v.24c0,3-.07,5.48-.12,7.22,0,.79,0,1.46-.06,2A2.68,2.68,0,0,1,469.48,158.08Z"
       style="fill:#CC071E"
       id="path2405" />
    <path
       d="M302.06,182.59a1.12,1.12,0,0,1,.09.25l.19.75c.17.69.41,1.65.7,2.87a56.32,56.32,0,0,0,3.88,10.11,51.9,51.9,0,0,0,9.63,12.78A49.43,49.43,0,0,0,333,219.84a48.72,48.72,0,0,0,19.25,3.26c.76,0,1.51,0,2.24-.09l2.16-.26,2.1-.25c.69-.11,1.36-.24,2-.37a51.33,51.33,0,0,0,7.19-2.07,50.44,50.44,0,0,0,9.68-4.85c1.08-.69,1.89-1.27,2.44-1.66l.63-.45L381,213a1,1,0,0,1-.2.18l-.59.49c-.53.42-1.33,1-2.4,1.75a48.15,48.15,0,0,1-9.66,5,50.92,50.92,0,0,1-7.23,2.14c-.66.14-1.34.28-2,.39l-2.12.26-2.19.27a20.8,20.8,0,0,1-2.25.11,48.84,48.84,0,0,1-19.46-3.25,49.69,49.69,0,0,1-16.61-10.63,47.32,47.32,0,0,1-13.36-23.19c-.26-1.23-.46-2.2-.61-2.9-.06-.31-.11-.56-.14-.76S302.06,182.59,302.06,182.59Z"
       style="fill:#CC071E"
       id="path2407" />
  </g>
  <g
     id="freepik--chart-1--inject-31">
    <circle
       cx="145.21"
       cy="167.67"
       r="28.31"
       style="fill:#CC071E"
       id="circle2410" />
    <g
       style="opacity:0.8"
       id="g2414">
      <circle
         cx="145.21"
         cy="167.67"
         r="28.31"
         style="fill:#fff"
         id="circle2412" />
    </g>
    <path
       d="M193.51,175.68a.86.86,0,0,1,0,.26l-.14.76c-.15.7-.35,1.67-.61,2.9A52.34,52.34,0,0,1,189,189.83a51.53,51.53,0,0,1-9.61,13,49.64,49.64,0,0,1-16.62,10.63,48.76,48.76,0,0,1-19.45,3.25,21.12,21.12,0,0,1-2.26-.11l-2.18-.27-2.12-.26c-.69-.11-1.37-.25-2-.39a50.92,50.92,0,0,1-7.23-2.14,47.64,47.64,0,0,1-9.66-5c-1.07-.72-1.87-1.33-2.4-1.75l-.6-.49-.19-.17s.08,0,.23.13l.62.45c.55.39,1.37,1,2.45,1.66a49.79,49.79,0,0,0,16.87,6.92c.66.13,1.33.27,2,.37l2.11.25,2.16.26c.73.11,1.48.05,2.24.09a48.72,48.72,0,0,0,19.25-3.26A49.43,49.43,0,0,0,179,202.44a51.59,51.59,0,0,0,9.62-12.78,55.28,55.28,0,0,0,3.88-10.11c.3-1.22.54-2.18.7-2.87.08-.3.15-.55.2-.75Z"
       style="fill:#CC071E"
       id="path2416" />
    <path
       d="M96.45,158.82a6.07,6.07,0,0,1,.13-.78c.11-.55.26-1.29.45-2.21.1-.49.21-1,.34-1.6s.36-1.19.56-1.86.44-1.37.69-2.12l.38-1.16.52-1.17a40,40,0,0,1,2.53-5.16c.53-.88,1-1.85,1.63-2.75l2-2.77A48.61,48.61,0,0,1,130,120.1l3.27-.92c1.06-.3,2.13-.41,3.15-.61a39.45,39.45,0,0,1,5.7-.64l1.28-.09,1.22,0,2.24.07c.69,0,1.34,0,1.93.1l1.62.22,2.24.32a4.31,4.31,0,0,1,.77.15,4.67,4.67,0,0,1-.79,0l-2.24-.23-1.62-.17c-.58-.08-1.23,0-1.93-.06l-2.21,0h-1.22l-1.27.11a39.53,39.53,0,0,0-5.65.7c-1,.21-2.06.32-3.11.63l-3.23.93a49,49,0,0,0-24.12,17l-2,2.73c-.64.89-1.11,1.84-1.65,2.72a41,41,0,0,0-2.56,5.08l-.53,1.16-.4,1.14-.73,2.1c-.21.66-.47,1.25-.6,1.84s-.26,1.1-.38,1.58c-.22.91-.4,1.63-.54,2.18A4.09,4.09,0,0,1,96.45,158.82Z"
       style="fill:#CC071E"
       id="path2418" />
    <path
       d="M116.9,167.67s0-.15,0-.45,0-.78,0-1.35c0-.3,0-.63,0-1s.1-.76.16-1.19a20.58,20.58,0,0,1,.55-2.94,26.75,26.75,0,0,1,3.09-7.59A28.45,28.45,0,0,1,140,139.66a28.65,28.65,0,0,1,15,1.2,30.56,30.56,0,0,1,3.73,1.63c.6.33,1.18.71,1.78,1.06a13.5,13.5,0,0,1,1.72,1.19,31.12,31.12,0,0,1,3.25,2.75,33,33,0,0,1,2.8,3.3,27.66,27.66,0,0,1,4.09,7.87,28.2,28.2,0,0,1,0,18,27.79,27.79,0,0,1-4.09,7.87,33,33,0,0,1-2.8,3.3,31,31,0,0,1-3.24,2.75,14.36,14.36,0,0,1-1.73,1.19c-.6.35-1.18.73-1.78,1.06a30.56,30.56,0,0,1-3.73,1.63,28.69,28.69,0,0,1-15,1.2,28.46,28.46,0,0,1-19.16-13.49,26.75,26.75,0,0,1-3.09-7.59,19.27,19.27,0,0,1-.55-2.94c-.06-.43-.13-.83-.16-1.19s0-.7,0-1c0-.57,0-1,0-1.35s0-.46,0-.46a4.35,4.35,0,0,1,0,.46l.1,1.35c0,.29,0,.62.06,1s.12.76.18,1.18a20.54,20.54,0,0,0,.6,2.92,26.76,26.76,0,0,0,3.14,7.49,28.3,28.3,0,0,0,37.4,10.37c.59-.32,1.16-.69,1.75-1a14.57,14.57,0,0,0,1.69-1.17,31.11,31.11,0,0,0,3.18-2.7,30.77,30.77,0,0,0,2.75-3.26,27,27,0,0,0,4-7.73,27.73,27.73,0,0,0,0-17.7,27.18,27.18,0,0,0-4-7.73,33,33,0,0,0-2.75-3.25,31.11,31.11,0,0,0-3.18-2.7,14.57,14.57,0,0,0-1.69-1.17c-.59-.35-1.16-.72-1.75-1.05a31.07,31.07,0,0,0-3.66-1.61,28.15,28.15,0,0,0-33.74,12,26.93,26.93,0,0,0-3.14,7.5,20.71,20.71,0,0,0-.6,2.91c-.06.43-.14.82-.18,1.19s0,.69-.06,1l-.1,1.35A3.88,3.88,0,0,1,116.9,167.67Z"
       style="fill:#CC071E"
       id="path2420" />
    <path
       d="M112.59,167.67s0-.17,0-.52,0-.89,0-1.56l0-1.14c0-.42.12-.88.18-1.37a23.56,23.56,0,0,1,.64-3.39,31,31,0,0,1,3.56-8.75,32.83,32.83,0,0,1,22.08-15.52,29.78,29.78,0,0,1,4.15-.49c.71,0,1.42-.1,2.14-.09l2.17.11c.37,0,.74,0,1.1.07l1.1.16c.73.12,1.47.2,2.21.36a35.11,35.11,0,0,1,4.38,1.27,33.83,33.83,0,0,1,4.29,1.88c.7.37,1.36.81,2.05,1.22a17.5,17.5,0,0,1,2,1.36,38.16,38.16,0,0,1,3.73,3.17,35.69,35.69,0,0,1,3.22,3.8,32,32,0,0,1,4.71,9.06,32.51,32.51,0,0,1,0,20.75,31.53,31.53,0,0,1-4.7,9,30.34,30.34,0,0,1-7,7,17.5,17.5,0,0,1-2,1.36c-.69.41-1.35.85-2.05,1.22a33.83,33.83,0,0,1-4.29,1.88,35.11,35.11,0,0,1-4.38,1.27c-.74.15-1.48.24-2.21.36l-1.1.16c-.36,0-.73,0-1.1.07l-2.17.11c-.72,0-1.43-.06-2.14-.09a29.6,29.6,0,0,1-4.15-.49,32.83,32.83,0,0,1-22.08-15.52,31.08,31.08,0,0,1-3.56-8.75,23.56,23.56,0,0,1-.64-3.39c-.06-.49-.15-1-.18-1.37l0-1.14c0-.67,0-1.19,0-1.56s0-.53,0-.53,0,.18,0,.53l.11,1.55c0,.34,0,.72.07,1.14s.13.87.2,1.36a24,24,0,0,0,.69,3.36,31,31,0,0,0,3.61,8.65,32.58,32.58,0,0,0,8.26,9.2,32.19,32.19,0,0,0,13.65,6,30.46,30.46,0,0,0,4.09.48c.7,0,1.41.09,2.12.08l2.14-.11c.36,0,.72,0,1.08-.07l1.08-.17c.72-.12,1.46-.2,2.18-.35a34.25,34.25,0,0,0,4.32-1.27,34.93,34.93,0,0,0,4.22-1.86c.69-.37,1.34-.8,2-1.21a16.05,16.05,0,0,0,2-1.34,29.7,29.7,0,0,0,6.85-6.88,31.49,31.49,0,0,0,4.62-8.92,32,32,0,0,0,0-20.42,31.39,31.39,0,0,0-4.63-8.92,38.06,38.06,0,0,0-3.17-3.75,34.8,34.8,0,0,0-3.67-3.12,17.36,17.36,0,0,0-2-1.35c-.68-.4-1.34-.83-2-1.2a34.93,34.93,0,0,0-4.22-1.86,34.25,34.25,0,0,0-4.32-1.27c-.72-.15-1.46-.23-2.18-.35l-1.08-.17c-.36,0-.72,0-1.08-.07l-2.14-.11c-.71,0-1.42.06-2.11.08a32.46,32.46,0,0,0-26,15.72,30.92,30.92,0,0,0-3.61,8.64,22.33,22.33,0,0,0-.68,3.37c-.08.49-.17.94-.21,1.36s0,.8-.07,1.14l-.11,1.55A5,5,0,0,1,112.59,167.67Z"
       style="fill:#CC071E"
       id="path2422" />
    <path
       d="M96.74,170.48c.09,0,.26,1.68.77,4.37a58.37,58.37,0,0,0,7.68,19.79c1.44,2.32,2.45,3.69,2.38,3.74a5.23,5.23,0,0,1-.79-.9c-.48-.6-1.14-1.5-1.9-2.65a49.94,49.94,0,0,1-4.92-9.55,51.07,51.07,0,0,1-2.81-10.37c-.21-1.36-.34-2.47-.38-3.24A6,6,0,0,1,96.74,170.48Z"
       style="fill:#CC071E"
       id="path2424" />
    <rect
       x="164.43"
       y="279.44"
       width="4.24"
       height="3.93"
       transform="translate(333.11 562.82) rotate(180)"
       style="fill:#CC071E"
       id="rect2426" />
    <rect
       x="125.11"
       y="288.13"
       width="4.24"
       height="3.93"
       transform="translate(254.45 580.19) rotate(180)"
       style="fill:#CC071E"
       id="rect2428" />
    <rect
       x="159.81"
       y="279.44"
       width="3"
       height="12.05"
       transform="translate(322.62 570.94) rotate(180)"
       style="fill:#CC071E"
       id="rect2430" />
    <rect
       x="155.62"
       y="279.44"
       width="3"
       height="12.05"
       transform="translate(314.24 570.94) rotate(180)"
       style="fill:#CC071E"
       id="rect2432" />
    <rect
       x="151.43"
       y="279.44"
       width="3"
       height="12.05"
       transform="translate(305.87 570.94) rotate(180)"
       style="fill:#CC071E"
       id="rect2434" />
    <rect
       x="147.25"
       y="279.44"
       width="3"
       height="12.05"
       transform="translate(297.49 570.94) rotate(180)"
       style="fill:#CC071E"
       id="rect2436" />
    <rect
       x="125.88"
       y="283.96"
       width="19.13"
       height="2.86"
       transform="translate(270.88 570.79) rotate(180)"
       style="fill:#CC071E"
       id="rect2438" />
    <path
       d="M148.35,100.88a74.81,74.81,0,0,1,.26,8.75,74.81,74.81,0,0,1-.26,8.75,74.81,74.81,0,0,1-.26-8.75A74.81,74.81,0,0,1,148.35,100.88Z"
       style="fill:#CC071E"
       id="path2440" />
    <path
       d="M89.35,222.47c-.1-.1,6.17-6.21,14-13.64s14.27-13.36,14.37-13.25-6.17,6.2-14,13.63S89.45,222.57,89.35,222.47Z"
       style="fill:#CC071E"
       id="path2442" />
    <rect
       x="65.46"
       y="219.68"
       width="17.91"
       height="12.92"
       transform="translate(148.83 452.29) rotate(180)"
       style="fill:#CC071E"
       id="rect2444" />
    <rect
       x="65.31"
       y="237.93"
       width="17.91"
       height="12.92"
       transform="translate(148.52 488.79) rotate(180)"
       style="fill:#CC071E"
       id="rect2446" />
    <rect
       x="65.31"
       y="256.99"
       width="17.91"
       height="12.92"
       transform="translate(148.52 526.9) rotate(180)"
       style="fill:#CC071E"
       id="rect2448" />
    <rect
       x="128.18"
       y="47.48"
       width="39.87"
       height="42.75"
       style="fill:#CC071E"
       id="rect2450" />
    <g
       style="opacity:0.8"
       id="g2454">
      <rect
         x="128.18"
         y="47.48"
         width="39.87"
         height="42.75"
         style="fill:#fff"
         id="rect2452" />
    </g>
    <rect
       x="131.74"
       y="82.74"
       width="11.56"
       height="2.17"
       style="fill:#CC071E"
       id="rect2456" />
    <rect
       x="144.82"
       y="82.74"
       width="3.29"
       height="2.17"
       style="fill:#CC071E"
       id="rect2458" />
    <rect
       x="149.44"
       y="82.83"
       width="11.66"
       height="2.17"
       style="fill:#CC071E"
       id="rect2460" />
    <rect
       x="131.74"
       y="78.98"
       width="8.13"
       height="2.17"
       style="fill:#CC071E"
       id="rect2462" />
    <rect
       x="131.74"
       y="74.18"
       width="11.56"
       height="2.17"
       style="fill:#CC071E"
       id="rect2464" />
    <rect
       x="144.82"
       y="74.18"
       width="3.29"
       height="2.17"
       style="fill:#CC071E"
       id="rect2466" />
    <rect
       x="154.03"
       y="70.49"
       width="3.29"
       height="2.17"
       style="fill:#CC071E"
       id="rect2468" />
    <rect
       x="160.1"
       y="70.49"
       width="3.29"
       height="2.17"
       style="fill:#CC071E"
       id="rect2470" />
    <rect
       x="141.09"
       y="70.42"
       width="11.66"
       height="2.17"
       style="fill:#CC071E"
       id="rect2472" />
    <rect
       x="131.74"
       y="70.42"
       width="8.13"
       height="2.17"
       style="fill:#CC071E"
       id="rect2474" />
    <rect
       x="131.74"
       y="65.11"
       width="11.56"
       height="2.17"
       style="fill:#CC071E"
       id="rect2476" />
    <rect
       x="144.82"
       y="65.11"
       width="3.29"
       height="2.17"
       style="fill:#CC071E"
       id="rect2478" />
    <rect
       x="149.44"
       y="65.2"
       width="11.66"
       height="2.17"
       style="fill:#CC071E"
       id="rect2480" />
    <rect
       x="131.74"
       y="61.35"
       width="8.13"
       height="2.17"
       style="fill:#CC071E"
       id="rect2482" />
    <rect
       x="131.74"
       y="56.55"
       width="11.56"
       height="2.17"
       style="fill:#CC071E"
       id="rect2484" />
    <rect
       x="144.82"
       y="56.55"
       width="3.29"
       height="2.17"
       style="fill:#CC071E"
       id="rect2486" />
    <rect
       x="154.03"
       y="52.86"
       width="3.29"
       height="2.17"
       style="fill:#CC071E"
       id="rect2488" />
    <rect
       x="160.1"
       y="52.86"
       width="3.29"
       height="2.17"
       style="fill:#CC071E"
       id="rect2490" />
    <rect
       x="141.09"
       y="52.79"
       width="11.66"
       height="2.17"
       style="fill:#CC071E"
       id="rect2492" />
    <rect
       x="131.74"
       y="52.79"
       width="8.13"
       height="2.17"
       style="fill:#CC071E"
       id="rect2494" />
    <path
       d="M74.41,133.3a1.53,1.53,0,0,1,.44-.05l1.24,0,4.64-.08L96.45,133h.2l0,.19,1.34,5c.8,3,1.58,6,2.29,8.65l-.15-.17,12.17,5,3.48,1.47a7.84,7.84,0,0,1,1.23.58,10.66,10.66,0,0,1-1.29-.43L112.23,152,100,147.19l-.12-.05,0-.12c-.72-2.68-1.5-5.6-2.31-8.64-.46-1.72-.9-3.4-1.33-5l.24.19-15.72-.09-4.64-.08-1.24,0A1.53,1.53,0,0,1,74.41,133.3Z"
       style="fill:#CC071E"
       id="path2496" />
    <circle
       cx="74.26"
       cy="133.25"
       r="1.55"
       style="fill:#CC071E"
       id="circle2498" />
    <path
       d="M146.89,264.53a1.55,1.55,0,1,0,1.55-1.55A1.54,1.54,0,0,0,146.89,264.53Z"
       style="fill:#CC071E"
       id="path2500" />
    <path
       d="M148.11,217.15c.14,0,.26,10.58.26,23.61s-.12,23.61-.26,23.61-.26-10.56-.26-23.61S148,217.15,148.11,217.15Z"
       style="fill:#CC071E"
       id="path2502" />
    <rect
       x="50.27"
       y="131.88"
       width="2.11"
       height="38.76"
       style="fill:#CC071E"
       id="rect2504" />
    <rect
       x="54.01"
       y="131.88"
       width="2.49"
       height="10.33"
       style="fill:#CC071E"
       id="rect2506" />
    <rect
       x="57.48"
       y="134.16"
       width="2.49"
       height="2.39"
       style="fill:#CC071E"
       id="rect2508" />
    <path
       d="M83.56,150.39c0,.1-4.9.18-10.93.18s-10.93-.08-10.93-.18,4.89-.18,10.93-.18S83.56,150.29,83.56,150.39Z"
       style="fill:#CC071E"
       id="path2510" />
    <path
       d="M83.56,153c0,.1-4.9.18-10.93.18S61.7,153.13,61.7,153s4.89-.18,10.93-.18S83.56,152.93,83.56,153Z"
       style="fill:#CC071E"
       id="path2512" />
    <path
       d="M83.47,147.86c0,.1-4.9.17-10.93.17s-10.93-.07-10.93-.17,4.89-.18,10.93-.18S83.47,147.76,83.47,147.86Z"
       style="fill:#CC071E"
       id="path2514" />
    <path
       d="M157.41,119.53a1.35,1.35,0,1,1-1.35-1.34A1.34,1.34,0,0,1,157.41,119.53Z"
       style="fill:#CC071E"
       id="path2516" />
  </g>
  <g
     id="freepik--Character--inject-31">
    <path
       d="M150,470l15.68-32.33H338.57L359.18,470c-71.41,8.27-142,8.35-209.18.08"
       style="fill:#263238"
       id="path2519" />
    <ellipse
       cx="252.59"
       cy="437.4"
       rx="86.13"
       ry="5.31"
       style="fill:#455a64"
       id="ellipse2521" />
    <ellipse
       cx="254.05"
       cy="437.4"
       rx="68.62"
       ry="3.76"
       style="fill:#fafafa"
       id="ellipse2523" />
    <path
       d="M257.39,476.81c-.15,0-.26-7.67-.26-17.14s.11-17.13.26-17.13.26,7.67.26,17.13S257.53,476.81,257.39,476.81Z"
       style="fill:#455a64"
       id="path2525" />
    <path
       d="M345.25,450.43a3.44,3.44,0,0,1-.66.11l-1.91.22-7.17.73-24.61,2.35.19-.12L305.94,462l-.07.12h-.14l-2,0L271,462.8l-9.92.12h-3.4a.75.75,0,0,1-.24,0l.24,0,.7,0,2.69-.1,9.93-.29,32.74-.76,2,0-.22.12,5.17-8.3.06-.11h.13l24.62-2.16,7.18-.59,1.92-.13A4.23,4.23,0,0,1,345.25,450.43Z"
       style="fill:#455a64"
       id="path2527" />
    <path
       d="M329.63,451.87A70.13,70.13,0,0,1,327.78,440a34.73,34.73,0,0,1,1.18,5.9A35.36,35.36,0,0,1,329.63,451.87Z"
       style="fill:#455a64"
       id="path2529" />
    <path
       d="M191,473.87a3.89,3.89,0,0,1-.27-.67l-.65-1.92-2.21-6.94.19.15-11.85-1.14c-6-.61-11.48-1.18-15.43-1.63l-4.67-.55a11.55,11.55,0,0,1-1.7-.27,10.12,10.12,0,0,1,1.72.07l4.69.39c4,.35,9.41.86,15.44,1.47l11.84,1.23h.15l0,.14c.83,2.84,1.52,5.22,2,7,.22.79.4,1.44.54,2A2.67,2.67,0,0,1,191,473.87Z"
       style="fill:#455a64"
       id="path2531" />
    <path
       d="M257.39,450.43l-.21,0-.6,0-2.31,0-8.61.08-29.14.09.09,0-7.91,3-4.29,1.61-.06,0h-.07l-31.55-3.91-9.41-1.22-2.55-.35-.65-.11c-.15,0-.23,0-.22-.05h.22l.67.06,2.55.26,9.43,1.06,31.58,3.74-.13,0,4.29-1.62,7.92-3h.09l29.14.08,8.61.08,2.31.05.6,0Z"
       style="fill:#455a64"
       id="path2533" />
    <path
       d="M226.33,141.35a8.82,8.82,0,1,1-8.55-9.1A8.81,8.81,0,0,1,226.33,141.35Z"
       style="fill:#263238"
       id="path2535" />
    <circle
       cx="211.2"
       cy="196.18"
       r="8.83"
       transform="translate(-41.6 334.69) rotate(-71.61)"
       style="fill:#263238"
       id="circle2537" />
    <path
       d="M203.67,247.26a5.42,5.42,0,1,1-5.25-5.59A5.43,5.43,0,0,1,203.67,247.26Z"
       style="fill:#263238"
       id="path2539" />
    <path
       d="M207.9,141.55l-2.62,2.89s-2.64,24.69-2.48,28.23S204.35,190,204.35,190a25.83,25.83,0,0,0,10.09,2l5.43-.1,3.38-40.33Z"
       style="fill:#CC071E"
       id="path2541" />
    <path
       d="M207.9,141.55l.26.15.79.49,3.06,1.95,11.34,7.3.09.06v.11c-.85,10.41-2,24.58-3.3,40.33l0,.23h-.23l-3.3.06c-1.08,0-2.14,0-3.22,0a23.81,23.81,0,0,1-3.17-.33,26.07,26.07,0,0,1-5.94-1.72l-.14-.06V190c-.47-5.32-.92-10.39-1.34-15.12a24.07,24.07,0,0,1-.17-3.49c0-1.15.13-2.26.21-3.35.17-2.17.36-4.25.55-6.21.75-7.84,1.43-13.9,1.85-17.41v0l0,0,2-2.15.5-.52c.11-.11.16-.17.17-.16l-.16.2-.48.57-1.91,2.18,0-.05c-.33,3.59-.9,9.63-1.63,17.43q-.24,2.94-.5,6.2c-.08,1.09-.16,2.2-.2,3.33a24,24,0,0,0,.19,3.46c.43,4.72.89,9.78,1.38,15.09l-.15-.21a25.58,25.58,0,0,0,5.82,1.68,24.29,24.29,0,0,0,3.1.32c1,0,2.11,0,3.19,0l3.3-.06-.26.24c1.35-15.75,2.57-29.92,3.46-40.32l.08.17L212,144.34l-3-2-.79-.55A1.57,1.57,0,0,1,207.9,141.55Z"
       style="fill:#263238"
       id="path2543" />
    <path
       d="M202.63,195.91l3,4.83,13.75-2.87s.92,14.65-1.31,19.09-9.05,15.23-11.14,20.53c-2.26,5.71-3.39,8.46-3.39,8.46l-10.63-1.8a87.76,87.76,0,0,1,3.49-17.43C199.14,218.37,202.63,195.91,202.63,195.91Z"
       style="fill:#CC071E"
       id="path2545" />
    <path
       d="M193,248.6c-.11.27-5.92,14.75-6.46,16.7s.51,14.95.48,15.31,2.47,8.12,2.47,8.12,1.42,1.49,2.39-1.33l.2-2.26,1.16,2.29s2,.35,2.18-2.09-1-7-1-7l-.63-3.24,1.2-2.25,2.65,8.13s1.3-.34,1.48-2.41-1.41-7.76-1.41-7.76l.27-3.06s3.92-9.48,4.41-10.89.62-7.12.62-7.12Z"
       style="fill:#ffbf9d"
       id="path2547" />
    <path
       d="M201.05,251.85s.61.44.73,1.66a8.6,8.6,0,0,1-1.39,4.77,14.06,14.06,0,0,1-2,2.8,9,9,0,0,0-2.3,3c-.88,2.56-.54,5.7-1.28,8.87a10.79,10.79,0,0,1-.62,1.87,5.59,5.59,0,0,1-1,1.66,3,3,0,0,1-3.54.74l-.14-.06V277a60.74,60.74,0,0,1,.59-6.35c.14-1.89.15-3.58.17-5s0-2.43,0-3.27a6.25,6.25,0,0,1,0-1.17,5.41,5.41,0,0,1,.13,1.17c0,.76.11,1.87.14,3.27s.06,3.09-.05,5-.55,4-.51,6.3l-.14-.21a2.47,2.47,0,0,0,2.94-.65,5.17,5.17,0,0,0,.93-1.52,10.3,10.3,0,0,0,.58-1.78c.73-3.06.39-6.19,1.34-8.92a9.26,9.26,0,0,1,2.44-3.15,14.25,14.25,0,0,0,2-2.69,8.8,8.8,0,0,0,1.51-4.57A3.14,3.14,0,0,0,201.05,251.85Z"
       style="fill:#ff9a6c"
       id="path2549" />
    <path
       d="M191.49,277.31a37.88,37.88,0,0,1,.91,4.12,14,14,0,0,1,.58,4.19,23.62,23.62,0,0,1-1.08-4.09A11.51,11.51,0,0,1,191.49,277.31Z"
       style="fill:#ff9a6c"
       id="path2551" />
    <path
       d="M212.08,191.93a11.31,11.31,0,0,1-.16-1.65c-.07-1.16-.15-2.67-.26-4.51-.19-3.8-.43-9.06-.65-14.87-.1-2.78-.2-5.43-.29-7.85l0,.1-4.54-8.34c-.51-1-.93-1.78-1.27-2.41a5.51,5.51,0,0,1-.4-.89,5.14,5.14,0,0,1,.54.81l1.38,2.35,4.71,8.25,0,.05V163c.1,2.42.21,5.07.32,7.85.22,5.81.4,11.07.5,14.88,0,1.84.07,3.36.09,4.51A9.33,9.33,0,0,1,212.08,191.93Z"
       style="fill:#263238"
       id="path2553" />
    <path
       d="M209.87,200.92a4.13,4.13,0,0,1,0,.92c0,.67,0,1.52,0,2.57-.05,2.3-.11,5.42-.19,9.11v.07l-3.46,9.85c-2.12,6-4.07,11.41-5.5,15.33L199,243.39c-.19.5-.36.91-.49,1.25s-.19.43-.21.42a2,2,0,0,1,.11-.46l.4-1.28c.4-1.18.93-2.76,1.57-4.68,1.35-3.94,3.24-9.38,5.36-15.38,1.27-3.55,2.47-6.9,3.51-9.83v.07c.15-3.68.28-6.8.38-9.1.05-1,.1-1.9.14-2.57A4.82,4.82,0,0,1,209.87,200.92Z"
       style="fill:#263238"
       id="path2555" />
    <path
       d="M261.91,108.5l-25.38,6.29s1.17,23.34,1.48,23.8l0-.56,27.36-12.42Z"
       style="fill:#263238"
       id="path2557" />
    <path
       d="M261,122l-.43-1c5-2.23,8.42-5.12,10.12-8.61,1.95-4,2.63-8.4,3.12-12.21a21,21,0,0,0-1.16-10,9.42,9.42,0,0,0-8-5.7l.06-1.08a10.57,10.57,0,0,1,8.95,6.37,22,22,0,0,1,1.23,10.58c-.5,3.89-1.2,8.4-3.22,12.55C269.84,116.58,266.25,119.65,261,122Z"
       style="fill:#263238"
       id="path2559" />
    <path
       d="M268.76,136.16l-2.6-1.92c10.31-14,14.24-27.81,12-42.34-.4-2.65-1.92-7.93-3.37-10.16A7.34,7.34,0,0,0,269,78.15V74.91a10.55,10.55,0,0,1,8.5,5.06c1.78,2.73,3.41,8.5,3.86,11.45C283.74,106.84,279.61,121.47,268.76,136.16Z"
       style="fill:#263238"
       id="path2561" />
    <path
       d="M279.53,84.82c0,.14-.66.43-1.44.87-.56.31-1,.62-1.28.73l-.15.07,0-.09c-.07-.3.19-.27.15-.22s0,.11,0,.1l-.15,0a3.5,3.5,0,0,1,1.18-1C278.69,84.75,279.5,84.68,279.53,84.82Z"
       style="fill:#455a64"
       id="path2563" />
    <path
       d="M277.71,80.58c.05.14-.51.45-1.16.85s-1.18.75-1.29.65.31-.66,1-1.09S277.67,80.45,277.71,80.58Z"
       style="fill:#455a64"
       id="path2565" />
    <path
       d="M274.52,76.87c.09.12-.36.62-.81,1.29s-.75,1.27-.89,1.22-.05-.77.46-1.52S274.44,76.76,274.52,76.87Z"
       style="fill:#455a64"
       id="path2567" />
    <path
       d="M281,90.43c0,.15-.65.12-1.39.21s-1.33.23-1.4.09.51-.52,1.35-.61S281.05,90.3,281,90.43Z"
       style="fill:#455a64"
       id="path2569" />
    <path
       d="M281.58,96.23c0,.14-.6.14-1.27.18s-1.24.11-1.29,0,.5-.44,1.26-.48S281.61,96.09,281.58,96.23Z"
       style="fill:#455a64"
       id="path2571" />
    <path
       d="M281.36,103.49c-.09.12-.58-.13-1.23-.22s-1.19,0-1.24-.14.52-.49,1.32-.37S281.46,103.39,281.36,103.49Z"
       style="fill:#455a64"
       id="path2573" />
    <path
       d="M280.63,111c-.12.1-.6-.33-1.31-.57s-1.34-.21-1.38-.35.68-.45,1.55-.14S280.75,111,280.63,111Z"
       style="fill:#455a64"
       id="path2575" />
    <path
       d="M279.14,117c-.11.1-.63-.32-1.32-.72s-1.3-.65-1.27-.79.77-.11,1.54.35S279.25,116.92,279.14,117Z"
       style="fill:#455a64"
       id="path2577" />
    <path
       d="M276.17,124.36c-.15,0-.26-.81-.93-1.49s-1.45-.86-1.44-1,.23-.13.59-.06a2.43,2.43,0,0,1,1.23.71,2.31,2.31,0,0,1,.63,1.26C276.3,124.14,276.23,124.36,276.17,124.36Z"
       style="fill:#455a64"
       id="path2579" />
    <path
       d="M272.55,130.84c-.13.07-.56-.5-1.15-1.14s-1.1-1.14-1-1.26.78.21,1.41.91S272.68,130.78,272.55,130.84Z"
       style="fill:#455a64"
       id="path2581" />
    <path
       d="M271.16,84.7c-.61-6.55-1.26-11.25-5.55-16.24-6-7-27.24-12.9-34.38,1.37l6.29,44.55c4.71,3.19,10,3.71,15.62,2.78s11.46-5.79,14-11.45C269.69,99.89,271.75,91.05,271.16,84.7Z"
       style="fill:#263238"
       id="path2583" />
    <path
       d="M246.39,63.41h-1a18.86,18.86,0,0,0-18.77,18,143.29,143.29,0,0,0-.21,21.86c1.18,13.27,13.21,14.09,13.21,14.09,8.73-.1,16-6.07,20.15-16.21l.53-1.3-.47-1.11a12.77,12.77,0,0,1,2-13.86C262.67,73.72,257.13,63.94,246.39,63.41Z"
       style="fill:#ffbf9d"
       id="path2585" />
    <path
       d="M270.15,92.94c-.64,4-3.3,6.82-5.95,6.39s-4.28-4-3.64-7.94,3.31-6.82,6-6.39S270.8,89,270.15,92.94Z"
       style="fill:#CC071E"
       id="path2587" />
    <path
       d="M264.73,99.4a3.27,3.27,0,0,1-.54,0,4.25,4.25,0,0,1-3.07-2.67,10,10,0,0,1,1.65-10.16,3.86,3.86,0,0,1,6.82,1.11,9.33,9.33,0,0,1,.59,5.31h0A9.38,9.38,0,0,1,268,97.8,4.5,4.5,0,0,1,264.73,99.4ZM266,85a4.43,4.43,0,0,0-3.18,1.59,9.93,9.93,0,0,0-1.64,10.1,3.82,3.82,0,0,0,6.75,1.1,9.34,9.34,0,0,0,2.22-4.83h0a9.31,9.31,0,0,0-.58-5.28,4.23,4.23,0,0,0-3-2.64A4.55,4.55,0,0,0,266,85Z"
       style="fill:#263238"
       id="path2589" />
    <path
       d="M232.9,67.62l5.75.54.54,2.67,3.54.11,1.89-2.6,10.34,0a4.6,4.6,0,0,1,3.93,2.35l5.49,11.88-.17-12.23-6.86-5.53-8-2.59-11.22,1Z"
       style="fill:#263238"
       id="path2591" />
    <path
       d="M244.85,102.85a2.22,2.22,0,0,0-4.38.63c-.26.52.33,1.16.84,1.43a2.77,2.77,0,0,0,1.71.17,2.53,2.53,0,0,0,1.41-.57A1.78,1.78,0,0,0,244.85,102.85Z"
       style="fill:#ff9a6c"
       id="path2593" />
    <path
       d="M229.4,91.05a1.53,1.53,0,0,0,1.49,1.53,1.47,1.47,0,0,0,1.57-1.4A1.53,1.53,0,0,0,231,89.65,1.47,1.47,0,0,0,229.4,91.05Z"
       style="fill:#263238"
       id="path2595" />
    <path
       d="M228.65,86.18c.19.19,1.35-.68,3-.69s2.86.8,3,.6-.11-.45-.64-.83a4.14,4.14,0,0,0-2.44-.72,4,4,0,0,0-2.38.79C228.72,85.72,228.56,86.09,228.65,86.18Z"
       style="fill:#263238"
       id="path2597" />
    <path
       d="M243.37,91.56a1.54,1.54,0,0,0,1.49,1.54,1.47,1.47,0,0,0,1.57-1.4,1.54,1.54,0,0,0-1.49-1.54A1.47,1.47,0,0,0,243.37,91.56Z"
       style="fill:#263238"
       id="path2599" />
    <path
       d="M244.82,86.39c.2.2,1.35-.67,3-.68s2.87.8,3,.6-.11-.45-.64-.83a4.21,4.21,0,0,0-2.44-.73,4.09,4.09,0,0,0-2.38.8C244.9,85.94,244.73,86.31,244.82,86.39Z"
       style="fill:#263238"
       id="path2601" />
    <path
       d="M239,99.13a11.39,11.39,0,0,0-2.69-.46c-.42,0-.82-.11-.89-.4a2.08,2.08,0,0,1,.27-1.25c.38-1,.79-2.1,1.21-3.22,1.68-4.59,2.9-8.35,2.71-8.42S238,89,236.27,93.56c-.41,1.13-.79,2.21-1.16,3.24a2.34,2.34,0,0,0-.2,1.65,1,1,0,0,0,.69.61,2.88,2.88,0,0,0,.72.09A10.76,10.76,0,0,0,239,99.13Z"
       style="fill:#263238"
       id="path2603" />
    <path
       d="M244.24,81.24c.23.42,1.82,0,3.77-.1s3.58.22,3.77-.21c.08-.21-.25-.59-.94-.92a6.15,6.15,0,0,0-2.9-.54,6.23,6.23,0,0,0-2.84.78C244.44,80.64,244.14,81,244.24,81.24Z"
       style="fill:#263238"
       id="path2605" />
    <path
       d="M235.13,81.19c.13-.19-.08-.57-.67-.93a5.24,5.24,0,0,0-2.69-.62,5,5,0,0,0-2.63.74c-.57.38-.76.76-.61,1"
       style="fill:#263238"
       id="path2607" />
    <path
       d="M244.18,100.31c-.25,0-.32,1.66-1.8,2.81s-3.27.89-3.29,1.13.38.34,1.14.39a4.23,4.23,0,0,0,2.75-.85,3.67,3.67,0,0,0,1.4-2.36C244.47,100.73,244.29,100.31,244.18,100.31Z"
       style="fill:#263238"
       id="path2609" />
    <path
       d="M271.44,88.39c-.09,0-.22-.73-.75-1.77a6.32,6.32,0,0,0-3.21-3,5.12,5.12,0,0,0-2.4-.33,4.89,4.89,0,0,0-1.89.65,10.65,10.65,0,0,0-1.43,1.24c-.05,0,.2-.79,1.23-1.54a4.5,4.5,0,0,1,2-.82,5.08,5.08,0,0,1,2.66.32A6.15,6.15,0,0,1,271,86.46,3.91,3.91,0,0,1,271.44,88.39Z"
       style="fill:#455a64"
       id="path2611" />
    <path
       d="M253.12,62.22a50,50,0,0,0-4.85,2.69,48.36,48.36,0,0,0-4.2,3.63,11.87,11.87,0,0,1,3.9-4.05A11.7,11.7,0,0,1,253.12,62.22Z"
       style="fill:#455a64"
       id="path2613" />
    <path
       d="M238.24,62.63a20.86,20.86,0,0,1,.17,2.87,22,22,0,0,1,.31,2.86,5.13,5.13,0,0,1-.83-2.82A5.19,5.19,0,0,1,238.24,62.63Z"
       style="fill:#455a64"
       id="path2615" />
    <path
       d="M269.39,99.1a3.5,3.5,0,0,1-1,1.24,6.71,6.71,0,0,1-3.53,1.68,5,5,0,0,1-3.77-1.06c-.79-.68-1-1.32-.92-1.34s.37.51,1.15,1a5.1,5.1,0,0,0,3.48.83,7.26,7.26,0,0,0,3.36-1.45C268.9,99.48,269.33,99,269.39,99.1Z"
       style="fill:#455a64"
       id="path2617" />
    <path
       d="M230.93,70.59a2.35,2.35,0,0,1,.46,0h1.31l5,.13,17.14.59H255l0,.19c.71,3.44,1.49,7.18,2.3,11.08.56,2.69,1.1,5.31,1.61,7.81l0,.14-.1.09-5,5.06.06-.11c-1.57,5.71-2.89,10.55-3.84,14-.48,1.66-.85,3-1.13,4-.13.43-.23.77-.32,1a1.52,1.52,0,0,1-.13.35,1.71,1.71,0,0,1,.06-.37c.06-.28.15-.63.24-1.06.25-1,.59-2.33,1-4l3.66-14.07,0-.06,0,0,4.95-5.08-.06.23c-.52-2.51-1.07-5.12-1.63-7.81-.8-3.9-1.57-7.65-2.27-11.09l.23.2L237.64,71l-4.94-.26-1.32-.1A1.33,1.33,0,0,1,230.93,70.59Z"
       style="fill:#ff9a6c"
       id="path2619" />
    <path
       d="M245.3,116.26c-.07,0-.33-.79-1.11-1.91a7.21,7.21,0,0,0-1.56-1.71,5.46,5.46,0,0,0-2.69-.72c-2,0-3.92.72-4.44,2a16.58,16.58,0,0,0-.84,2,3.89,3.89,0,0,1,.51-2.2,3.52,3.52,0,0,1,.66-1A4.08,4.08,0,0,1,237,112a6.61,6.61,0,0,1,3-.59,5.55,5.55,0,0,1,3,.85,6.45,6.45,0,0,1,1.6,1.91A4.16,4.16,0,0,1,245.3,116.26Z"
       style="fill:#ff9a6c"
       id="path2621" />
    <path
       d="M271.08,87.6a20.93,20.93,0,0,1-.24-3.17,41.38,41.38,0,0,0-.94-7.53,18.73,18.73,0,0,0-3.09-6.84c-1.17-1.55-2.16-2.27-2.1-2.34s.28.12.72.46a11,11,0,0,1,1.66,1.65,17.28,17.28,0,0,1,3.32,6.94,34.14,34.14,0,0,1,.8,7.65A17.87,17.87,0,0,1,271.08,87.6Z"
       style="fill:#455a64"
       id="path2623" />
    <path
       d="M264.67,109.64a5.38,5.38,0,0,1-.76,1,24.85,24.85,0,0,1-2.38,2.39,28.65,28.65,0,0,1-9.65,5.52,24.8,24.8,0,0,1-6,1.26,9.28,9.28,0,0,1-1.38.08c-.45,0-.88,0-1.3,0a22.21,22.21,0,0,1-2.34-.22,13.3,13.3,0,0,1-1.89-.39,9.6,9.6,0,0,1-1.39-.44,5.25,5.25,0,0,1-1.13-.5,35.84,35.84,0,0,0,4.46,1c.69.12,1.47.1,2.29.16.42,0,.85,0,1.29,0a10.43,10.43,0,0,0,1.35-.09,25.42,25.42,0,0,0,5.9-1.29,30.34,30.34,0,0,0,9.58-5.3C263.46,110.92,264.59,109.57,264.67,109.64Z"
       style="fill:#455a64"
       id="path2625" />
    <polygon
       points="279.32 232.87 223.18 229.74 225.96 194.64 278.13 196.27 279.32 232.87"
       style="fill:#263238"
       id="polygon2627" />
    <g
       style="opacity:0.30000000000000004"
       id="g2631">
      <path
         d="M225.2,204.18l-.26,3.33,53.6,1.18-.14-4.31s-2.08-7.31-2.47-7.42-31.15-2.33-31.15-2.33Z"
         id="path2629" />
    </g>
    <path
       d="M267.65,204l12.43.39L287,154.71l-1.66-26.56L264.91,124,240.72,135.7l-3.58-9.36-17,5.4s-2.82,15.81-4.38,26.87c-1.38,9.84,4.88,18.36,4.88,18.36l3.29,27.17,6.5.21h0a36,36,0,0,1,36.85-.53Z"
       style="fill:#CC071E"
       id="path2633" />
    <path
       d="M267.65,204l-2.82-1.44a37.74,37.74,0,0,0-8.6-2.8,35.9,35.9,0,0,0-22.63,3,21.42,21.42,0,0,0-2.11,1.12l-.53.31-.27.15-.13.07,0,0-.11,0h-.1l-1.25,0-5.14-.15h-.17l0-.16c-1-8.13-2.11-17.28-3.32-27.17l0,.1a30.87,30.87,0,0,1-4.45-10,23.58,23.58,0,0,1-.48-8.57c.15-.95.31-1.91.46-2.87,1.26-7.7,2.56-15.71,3.9-24l0-.15.15-.05,17-5.41.24-.07.09.23c.53,1.39,1.1,2.9,1.68,4.41q.94,2.49,1.89,5l-.36-.14,24.2-11.68.08,0,.08,0,20.38,4.14.19,0v.18c.58,9.41,1.13,18.31,1.64,26.56v.05c-3.06,21.7-5.5,39-7,49.7v.1h-.1l-9.24-.34-2.38-.1c-.53,0-.8-.05-.8-.05h.82l2.38.05,9.23.23-.11.09c1.46-10.69,3.82-28,6.78-49.73v0c-.53-8.26-1.1-17.15-1.7-26.56l.2.23-20.39-4.13.16,0-24.19,11.69-.26.13-.1-.27q-.93-2.46-1.89-4.95c-.57-1.51-1.15-3-1.68-4.4l.32.15-17,5.4.18-.2-3.92,23.94c-.16,1-.31,1.92-.47,2.87a24.6,24.6,0,0,0-.19,2.83,23.43,23.43,0,0,0,.65,5.56,30.53,30.53,0,0,0,4.35,9.85l0,0v.05c1.18,9.9,2.28,19.05,3.25,27.18l-.18-.17,5.14.17,1.25,0h.1l-.08,0,0,0,.13-.08.27-.15.54-.3a20,20,0,0,1,2.14-1.13,35.78,35.78,0,0,1,31.42,0c.93.46,1.62.86,2.09,1.11A7.34,7.34,0,0,1,267.65,204Z"
       style="fill:#263238"
       id="path2635" />
    <path
       d="M271.35,178.76a5.44,5.44,0,0,1-1.2.54,19.34,19.34,0,0,1-3.46.91,22.1,22.1,0,0,1-21.15-8,19.74,19.74,0,0,1-2-3A5.36,5.36,0,0,1,243,168a43.26,43.26,0,0,0,2.81,4,22.7,22.7,0,0,0,20.81,7.89A44,44,0,0,0,271.35,178.76Z"
       style="fill:#263238"
       id="path2637" />
    <g
       style="opacity:0.30000000000000004"
       id="g2641">
      <path
         d="M272.33,178.62a48.68,48.68,0,0,1-10.16,1.62,16.57,16.57,0,0,1-9.8-2.62c-2.24-1.57-5.17-3.42-6.33-5.2-2-3.12-5.49-.23-10.13,2.73-6.43,4.1-8.47,3.41-10.91,3.29h0c-.5,1.81.85,3.74,2.59,4.45a8.82,8.82,0,0,0,5.54,0,33.47,33.47,0,0,1,5.46-1.34c2.58-.24,5.13.54,7.65,1.16,7,1.72,14.22.47,21.41-.28A7.5,7.5,0,0,0,272,181C273.14,179.91,273.56,179.57,272.33,178.62Z"
         id="path2639" />
    </g>
    <path
       d="M273,125.65a3.49,3.49,0,0,1-.51.67c-.38.46-.88,1.07-1.53,1.84l-5.7,6.71-19,22-2.15,2.48-.08.09H244l-6.58-.21h-.17l-.06-.15c-3.14-8.38-5.88-15.67-7.85-20.92L227.05,132l-.59-1.65a5.13,5.13,0,0,1-.17-.58,2.6,2.6,0,0,1,.26.55q.24.61.66,1.62c.57,1.47,1.38,3.52,2.39,6.07,2,5.24,4.8,12.51,8,20.86l-.23-.17,6.58.2-.21.09,2.15-2.48L265,134.63l5.83-6.6,1.61-1.78A6.76,6.76,0,0,1,273,125.65Z"
       style="fill:#263238"
       id="path2643" />
    <path
       d="M229.8,201.21c.06.13-.71.6-1.79.78s-2,0-2-.15.86-.19,1.87-.37S229.75,201.08,229.8,201.21Z"
       style="fill:#fff"
       id="path2645" />
    <path
       d="M269.12,201.66c-.06.1-1.76-1-4.8-2.33-.76-.31-1.59-.65-2.52-.93s-1.91-.57-3-.85a40.38,40.38,0,0,0-7-1,39.51,39.51,0,0,0-7,.4c-1.07.19-2.09.35-3,.6s-1.81.48-2.59.73c-3.13,1-4.92,2-5,1.93a6.52,6.52,0,0,1,1.24-.73,14.12,14.12,0,0,1,1.53-.72,22,22,0,0,1,2.08-.83,26,26,0,0,1,2.6-.8c.94-.27,2-.45,3.05-.66a37.83,37.83,0,0,1,7.14-.44,38.53,38.53,0,0,1,7.08,1c1.06.3,2.07.56,3,.91a24.67,24.67,0,0,1,2.53,1c.77.31,1.42.69,2,1a12.66,12.66,0,0,1,1.46.85A7.5,7.5,0,0,1,269.12,201.66Z"
       style="fill:#fff"
       id="path2647" />
    <path
       d="M277.77,202.28a6.87,6.87,0,0,1-2.88.63,7.06,7.06,0,0,1-2.95-.14,10.63,10.63,0,0,1,2.91-.38A11.34,11.34,0,0,1,277.77,202.28Z"
       style="fill:#fff"
       id="path2649" />
    <path
       d="M269.37,177.63s-.27.12-.78.24a16.5,16.5,0,0,1-2.19.36,24.6,24.6,0,0,1-14.21-2.84,15.2,15.2,0,0,1-1.89-1.18c-.42-.3-.65-.49-.63-.52s1,.56,2.68,1.37a28.16,28.16,0,0,0,14,2.81C268.22,177.76,269.35,177.55,269.37,177.63Z"
       style="fill:#fff"
       id="path2651" />
    <ellipse
       cx="286.36"
       cy="140.79"
       rx="13.26"
       ry="11.84"
       transform="translate(136.72 422.63) rotate(-88.22)"
       style="fill:#263238"
       id="ellipse2653" />
    <path
       d="M280.05,147.09l23.46,22.68a30.85,30.85,0,0,1,6.22-8.6,12.23,12.23,0,0,1,8-3.18s-20-23-22-25c-3.49-3.51-17.66-1.06-15.74,14.1"
       style="fill:#CC071E"
       id="path2655" />
    <path
       d="M280.05,147.09a.87.87,0,0,1-.05-.28l-.11-.85a17.76,17.76,0,0,1,0-3.27,13.5,13.5,0,0,1,1.35-5,11.18,11.18,0,0,1,4.77-4.89,11.64,11.64,0,0,1,3.82-1.28,9.34,9.34,0,0,1,4.37.28,4.6,4.6,0,0,1,2,1.26c.54.56,1.06,1.14,1.6,1.73q1.58,1.78,3.26,3.66l14.39,16.42,2.58,3,.37.42h-.58a12.23,12.23,0,0,0-8.78,4,31.1,31.1,0,0,0-5.27,7.62l-.14.29-.23-.22L286.48,153.5l-4.77-4.7-1.25-1.26a3.62,3.62,0,0,1-.41-.45,3.83,3.83,0,0,1,.47.4l1.3,1.2,4.86,4.61,17,16.3-.37.07a31.21,31.21,0,0,1,5.33-7.77,12.67,12.67,0,0,1,9.16-4.17l-.21.43-2.58-3-14.35-16.44-3.24-3.67c-1.1-1.15-2-2.5-3.38-2.89a9,9,0,0,0-4.17-.29,11.33,11.33,0,0,0-3.7,1.2,11,11,0,0,0-4.69,4.7,13.68,13.68,0,0,0-1.41,4.89A30.2,30.2,0,0,0,280.05,147.09Z"
       style="fill:#263238"
       id="path2657" />
    <circle
       cx="311.27"
       cy="163.66"
       r="8.83"
       transform="translate(121.28 459.6) rotate(-85.03)"
       style="fill:#263238"
       id="circle2659" />
    <path
       d="M307.58,173s13.2,9.71,19.58,11.56,13.46,4.62,13.46,4.62l1.91-11.28-22.7-18.22S308.65,160.51,307.58,173Z"
       style="fill:#CC071E"
       id="path2661" />
    <path
       d="M307.58,173a1.75,1.75,0,0,1,0-.34c0-.27.07-.61.12-1,0-.23.06-.49.09-.77s.14-.57.21-.9.17-.67.27-1,.28-.74.43-1.14a12.9,12.9,0,0,1,3.62-5,14.38,14.38,0,0,1,7.47-3.25h.08l.07.05,22.59,18.08.14.11.12.1,0,.15c-.67,3.9-1.32,7.69-1.93,11.27l-.05.3-.29-.11c-5-1.92-9.66-3.52-13.94-4.82a36.28,36.28,0,0,1-5.73-2.71c-1.71-1-3.25-1.93-4.65-2.82-2.77-1.79-4.93-3.31-6.39-4.37l-1.67-1.23c-.37-.29-.57-.46-.56-.46a3.16,3.16,0,0,1,.61.38l1.72,1.17c1.49,1,3.67,2.49,6.47,4.24,1.4.86,2.94,1.81,4.66,2.75a36.83,36.83,0,0,0,5.68,2.64c4.28,1.26,9,2.85,14,4.76l-.34.19c.6-3.57,1.24-7.37,1.9-11.27l.1.25-.14-.12L319.7,159.86l.14,0a14.17,14.17,0,0,0-7.28,3.1,12.66,12.66,0,0,0-3.62,4.88c-.16.39-.33.76-.45,1.12l-.29,1c-.08.32-.18.61-.24.88l-.12.74c-.07.42-.13.75-.18,1A2,2,0,0,1,307.58,173Z"
       style="fill:#263238"
       id="path2663" />
    <path
       d="M336.11,187.78a8.09,8.09,0,0,1-2.93-6.73c.15-4.57.76-8.51,1-11.63s1.56-2.56,2.52-1.64,1.42,7.2,1.42,7.2L341,164.35l3.88-7.36a2,2,0,0,1,2.5-1c.68.31,1.17,1,.73,2.63a52.88,52.88,0,0,1-2.26,6.07l-.21,4,5-10.87s.85-3.17,2.95-1.77-4.07,14.24-4.07,14.24,6.3-11.44,8.23-11.42c2.23,0,.9,2.72.9,2.72l-5.58,10.95s5.23-8.18,6.09-7.48c1.77,1.42-.94,5.42-.94,5.42l-3.62,5.9s-3.69,7.47-5.92,10.21-5.08,4.29-8.82,2.69Z"
       style="fill:#ffbf9d"
       id="path2665" />
    <path
       d="M342.58,184.69a14.32,14.32,0,0,1-.48-1.6,9.57,9.57,0,0,0-1.94-3.41c-.49-.58-1.1-1-1.56-1.61a3.38,3.38,0,0,1-.73-1.77,2.17,2.17,0,0,1,.37-1.68,8,8,0,0,0,0,1.63,3.2,3.2,0,0,0,.73,1.51c.42.5,1,1,1.58,1.57a8.48,8.48,0,0,1,1.9,3.66A3.51,3.51,0,0,1,342.58,184.69Z"
       style="fill:#ff9a6c"
       id="path2667" />
    <path
       d="M350,177.32a26.66,26.66,0,0,1-3.41-1.15,26.23,26.23,0,0,1-3.43-1.13,8.58,8.58,0,0,1,3.59.64A8.42,8.42,0,0,1,350,177.32Z"
       style="fill:#ff9a6c"
       id="path2669" />
    <path
       d="M305.12,157.34a4,4,0,0,1-.82-.69c-.5-.47-1.22-1.16-2.09-2-1.75-1.72-4.15-4.12-6.77-6.79l-.82-.84-.1-.1,0-.13c1.28-6.83,2.54-12.14,2.84-12.05,0,0-.3,1.32-.71,3.5s-1,5.31-1.62,8.64l-.07-.22.82.83c2.62,2.67,5,5.11,6.66,6.9.84.89,1.52,1.62,2,2.13A4.1,4.1,0,0,1,305.12,157.34Z"
       style="fill:#263238"
       id="path2671" />
    <polygon
       points="221.54 226.56 214.75 239.07 240.85 260.14 247.42 254.63 254.13 260.56 284.3 240.31 279.2 227.33 221.54 226.56"
       style="fill:#263238"
       id="polygon2673" />
    <path
       d="M278.84,216.07,225,214l-7.19,14s9,7.63,14.44,13a200,200,0,0,1,13.85,15.61l3.66.13s4.05-6,15.55-16a91,91,0,0,1,18.17-12.27Z"
       style="fill:#CC071E"
       id="path2675" />
    <path
       d="M280.26,219.88a1.89,1.89,0,0,1-.49.29l-1.47.74-5.46,2.66-18.45,8.76-.06,0h-.06l-3.68-.11-10-.33h-.08l-.06,0-12.62-9.93-3.61-2.9-.95-.8c-.22-.18-.32-.28-.31-.29a1.88,1.88,0,0,1,.36.23l1,.73,3.7,2.79,12.73,9.78-.14-.05,10,.3,3.67.11-.11,0,18.52-8.61,5.53-2.51,1.51-.66A4,4,0,0,1,280.26,219.88Z"
       style="fill:#263238"
       id="path2677" />
    <path
       d="M232.31,242.8a45.18,45.18,0,0,1,3.95-5.63,44.36,44.36,0,0,1,4.37-5.32,46.52,46.52,0,0,1-3.95,5.63A46.42,46.42,0,0,1,232.31,242.8Z"
       style="fill:#263238"
       id="path2679" />
    <path
       d="M261.92,244.11a45.39,45.39,0,0,1-3.89-5.62,46.06,46.06,0,0,1-3.44-5.89,44.14,44.14,0,0,1,3.88,5.61A45.18,45.18,0,0,1,261.92,244.11Z"
       style="fill:#263238"
       id="path2681" />
    <path
       d="M257.07,243.33c.11.12-2.42,2.4-4.77,5.84s-3.6,6.6-3.76,6.54a7.67,7.67,0,0,1,.71-2.12,28,28,0,0,1,2.62-4.72,28.61,28.61,0,0,1,3.47-4.12A7.21,7.21,0,0,1,257.07,243.33Z"
       style="fill:#fff"
       id="path2683" />
    <path
       d="M280.34,229.23a20.09,20.09,0,0,1-2.71,1.67c-1.69,1-4,2.35-6.6,3.89s-4.86,3-6.52,4a21.21,21.21,0,0,1-2.75,1.61,17.87,17.87,0,0,1,2.54-1.92c1.62-1.11,3.9-2.6,6.47-4.14s4.94-2.86,6.69-3.77A18.06,18.06,0,0,1,280.34,229.23Z"
       style="fill:#fff"
       id="path2685" />
    <path
       d="M274.64,219.68c.06.13-4.24,2.32-9.6,4.89s-9.76,4.55-9.82,4.42,4.23-2.32,9.59-4.89S274.57,219.55,274.64,219.68Z"
       style="fill:#fff"
       id="path2687" />
    <path
       d="M232.35,238.2c-.09-.13,1.08-1,2.23-2.39s1.85-2.67,2-2.61a8.13,8.13,0,0,1-4.22,5Z"
       style="fill:#fff"
       id="path2689" />
    <path
       d="M251.67,262.16s3,46,5.68,64.42l2.37,6,4.74-.42h0a8.35,8.35,0,0,1,12.9-1.42l.28.27,6.73-.59s5.9-42.21,7.36-55.74a139.46,139.46,0,0,0,.78-14.36,62.26,62.26,0,0,0-5.87-27.87h0Z"
       style="fill:#CC071E"
       id="path2691" />
    <path
       d="M272.7,328.59a4.37,4.37,0,0,1-.13-.65c-.07-.48-.16-1.11-.28-1.91-.23-1.7-.56-4.11-1-7.12-.79-6.13-1.89-14.66-3.17-24.52v-.1l.06-.08,5.58-7.19,0,.17c0-1.19,0-2.45-.06-3.72-.12-7.66-.23-14.89-.32-21.2v-.08l0-.07,12.13-14.48,3.46-4.06c.38-.45.69-.8.93-1.07a2,2,0,0,1,.34-.35,2.35,2.35,0,0,1-.28.4c-.23.28-.52.65-.88,1.11l-3.36,4.15-12,14.6.05-.15c.11,6.3.24,13.53.38,21.19,0,1.27,0,2.53.06,3.72v.09l-.06.07-5.59,7.17,0-.18c1.2,9.86,2.24,18.41,3,24.54.35,3,.62,5.43.82,7.14.09.8.15,1.44.2,1.92A4.64,4.64,0,0,1,272.7,328.59Z"
       style="fill:#263238"
       id="path2693" />
    <path
       d="M283.43,422.17a5.89,5.89,0,1,1-6-5.8A5.89,5.89,0,0,1,283.43,422.17Z"
       style="fill:#263238"
       id="path2695" />
    <path
       d="M265.7,439.88l29.68-.41s-5.08-14.26-16.75-14.1S265.7,439.88,265.7,439.88Z"
       style="fill:#CC071E"
       id="path2697" />
    <path
       d="M259.75,341.06c-.08,2.67-.11,14,2.74,35.89,2.65,20.37,6.57,43.17,6.57,43.17l15.57.48s5.71-47,5.11-62.49c-.69-17.62-4.87-21.47-4.87-21.47l-7.05.79-.37.57a7.07,7.07,0,0,1-11.35.75h0l-6.3.71"
       style="fill:#CC071E"
       id="path2699" />
    <circle
       cx="271.75"
       cy="334.17"
       r="9.33"
       transform="translate(-157.11 374.12) rotate(-56.2)"
       style="fill:#263238"
       id="circle2701" />
    <path
       d="M278.4,420.41a6,6,0,0,1,0-.88c0-.62,0-1.45-.06-2.51,0-2.23-.07-5.37-.12-9.23-.05-7.84-.12-18.58-.2-30.45,0-4,0-7.85,0-11.5v-.07l0-.06,7.51-12.15,0,.14c-.78-5.18-1.42-9.45-1.87-12.47-.21-1.45-.37-2.6-.49-3.44l-.11-.9a1.45,1.45,0,0,1,0-.31,1,1,0,0,1,.08.3c0,.23.11.53.17.89.15.83.35,2,.6,3.43.5,3,1.2,7.27,2.05,12.43v.08l0,.06c-2.18,3.59-4.69,7.71-7.43,12.2l0-.13c0,3.64,0,7.51.05,11.49,0,11.88,0,22.62.05,30.46,0,3.86,0,7-.05,9.23,0,1.06,0,1.89,0,2.51A4.59,4.59,0,0,1,278.4,420.41Z"
       style="fill:#263238"
       id="path2703" />
    <path
       d="M264.38,371.33a2.71,2.71,0,0,1,.11.47c.06.37.14.81.22,1.35.19,1.25.43,2.92.73,5,.6,4.19,1.38,10,2.21,16.39s1.56,12.21,2.06,16.42c.23,2,.42,3.72.56,5,.05.54.09,1,.13,1.36a1.76,1.76,0,0,1,0,.48,1.6,1.6,0,0,1-.12-.47c-.06-.36-.13-.81-.22-1.34-.18-1.26-.43-2.93-.73-5-.59-4.2-1.37-10-2.21-16.4s-1.55-12.21-2.05-16.42c-.23-2-.42-3.72-.57-5-.05-.54-.09-1-.12-1.36A1.38,1.38,0,0,1,264.38,371.33Z"
       style="fill:#fff"
       id="path2705" />
    <path
       d="M280.18,428a24.63,24.63,0,0,0-4.74,1.27,25.31,25.31,0,0,0-4.16,2.62,10,10,0,0,1,8.9-3.89Z"
       style="fill:#fff"
       id="path2707" />
    <path
       d="M279,342.45s.07.23-.07.62a2.78,2.78,0,0,1-1.11,1.3,7.38,7.38,0,0,1-2.3,1,14.48,14.48,0,0,1-3,.48,14.7,14.7,0,0,1-5.45-.71,5.72,5.72,0,0,1-2.05-1c0-.07.82.28,2.15.63a17.44,17.44,0,0,0,5.32.54,16.83,16.83,0,0,0,2.91-.42,8.35,8.35,0,0,0,2.23-.81A3,3,0,0,0,279,342.45Z"
       style="fill:#fff"
       id="path2709" />
    <path
       d="M286.79,281c.14,0-.53,9.34-1.49,20.82s-1.87,20.8-2,20.78.52-9.33,1.49-20.82S286.64,281,286.79,281Z"
       style="fill:#fff"
       id="path2711" />
    <path
       d="M233,422.49a5.89,5.89,0,1,0,5.85-5.92A5.89,5.89,0,0,0,233,422.49Z"
       style="fill:#263238"
       id="path2713" />
    <path
       d="M251.06,439.84l-29.68.19s4.8-14.36,16.46-14.44S251.06,439.84,251.06,439.84Z"
       style="fill:#CC071E"
       id="path2715" />
    <path
       d="M244.29,432c-.08,0-.33-.45-.87-1.11a8.12,8.12,0,0,0-5.74-3,9.78,9.78,0,0,1-1.42-.06,2.67,2.67,0,0,1,1.42-.31,7.16,7.16,0,0,1,3.42.79,7.09,7.09,0,0,1,2.62,2.33C244.21,431.46,244.35,432,244.29,432Z"
       style="fill:#fff"
       id="path2717" />
    <path
       d="M215.59,235.12,243,261s1.23,41.87,1.15,52.1c-.08,10.49-1.22,20.66-1.22,20.66l-22.59.76S209.85,308,209,295s-2.09-25-1.74-34.91A45.42,45.42,0,0,1,215.59,235.12Z"
       style="fill:#CC071E"
       id="path2719" />
    <path
       d="M220,340.46s-2.15,16.78,1.24,32.54c3.56,16.53,10.8,48.12,10.8,48.12l12.63-.66s2.75-40.24,2.76-51S243,340.22,243,340.22Z"
       style="fill:#CC071E"
       id="path2721" />
    <path
       d="M241.44,338.66a9.33,9.33,0,1,1-8.59-10A9.33,9.33,0,0,1,241.44,338.66Z"
       style="fill:#263238"
       id="path2723" />
    <path
       d="M236.22,424.48a5.85,5.85,0,0,1-.11-.87c-.06-.61-.14-1.45-.24-2.5-.18-2.22-.44-5.35-.76-9.2-.6-7.81-1.43-18.53-2.33-30.36-.3-4-.58-7.83-.85-11.47l0,.13-8.36-11.58,0-.06v-.08c.45-5.22.82-9.51,1.08-12.56l.33-3.46c0-.36.07-.66.1-.9a1.05,1.05,0,0,1,0-.31.94.94,0,0,1,0,.31c0,.24,0,.54,0,.91-.05.85-.13,2-.22,3.47-.21,3.05-.52,7.35-.89,12.57l0-.13,8.43,11.52,0,.06V370c.27,3.64.56,7.49.86,11.47.84,11.84,1.61,22.56,2.17,30.38.25,3.85.46,7,.6,9.21.06,1,.11,1.89.14,2.51A4.42,4.42,0,0,1,236.22,424.48Z"
       style="fill:#263238"
       id="path2725" />
    <path
       d="M230.49,337.2a3.44,3.44,0,0,1,0-.67c0-.48,0-1.12.05-1.93,0-1.73.13-4.17.23-7.2.25-6.18.59-14.79,1-24.68l.07.18-6.16-6.69-.07-.07v-.09c0-.75-.1-1.55-.16-2.36-.52-8.22-1-15.93-1.43-22.51l.06.15-11.79-12.2L209,255.68l-.85-.92a2.06,2.06,0,0,1-.28-.33,2.06,2.06,0,0,1,.33.28l.9.88,3.37,3.35L224.37,271l.06.06v.08c.44,6.58,1,14.29,1.5,22.51.06.81.11,1.61.16,2.35l-.07-.15,6.15,6.7.07.08v.1c-.46,9.89-.87,18.49-1.16,24.67-.16,3-.29,5.47-.38,7.2-.05.8-.1,1.44-.13,1.92A4.46,4.46,0,0,1,230.49,337.2Z"
       style="fill:#263238"
       id="path2727" />
    <path
       d="M243.59,375.39a9.73,9.73,0,0,1,.21,1.56c.1,1,.22,2.45.33,4.25.22,3.6.37,8.59.24,14.09s-.51,10.48-.9,14.07c-.19,1.79-.37,3.24-.52,4.23a10.7,10.7,0,0,1-.28,1.55,8.05,8.05,0,0,1,.08-1.57c.09-1.1.21-2.53.36-4.25.29-3.59.61-8.55.74-14s0-10.46-.09-14.06c-.07-1.73-.12-3.16-.16-4.26A8.63,8.63,0,0,1,243.59,375.39Z"
       style="fill:#fff"
       id="path2729" />
    <path
       d="M238.7,346.06a3.83,3.83,0,0,1-1.2,1.51,8,8,0,0,1-8.85,1.2,3.76,3.76,0,0,1-1.56-1.14c0-.06.64.37,1.71.8a8.46,8.46,0,0,0,8.46-1.15C238.18,346.58,238.63,346,238.7,346.06Z"
       style="fill:#fff"
       id="path2731" />
    <path
       d="M239.63,274.47c.14,0,.78,12.3,1.42,27.5s1.06,27.52.91,27.52-.78-12.3-1.43-27.5S239.48,274.47,239.63,274.47Z"
       style="fill:#fff"
       id="path2733" />
  </g>
</svg>
