<?xml version="1.0" encoding="UTF-8" standalone="no"?>
<svg
   viewBox="0 0 500 500"
   version="1.1"
   id="svg382"
   sodipodi:docname="robot-arm.svg"
   inkscape:version="1.2.2 (b0a8486541, 2022-12-01)"
   xmlns:inkscape="http://www.inkscape.org/namespaces/inkscape"
   xmlns:sodipodi="http://sodipodi.sourceforge.net/DTD/sodipodi-0.dtd"
   xmlns="http://www.w3.org/2000/svg"
   xmlns:svg="http://www.w3.org/2000/svg">
  <defs
     id="defs386" />
  <sodipodi:namedview
     id="namedview384"
     pagecolor="#ffffff"
     bordercolor="#000000"
     borderopacity="0.25"
     inkscape:showpageshadow="2"
     inkscape:pageopacity="0.0"
     inkscape:pagecheckerboard="0"
     inkscape:deskcolor="#d1d1d1"
     showgrid="false"
     inkscape:zoom="2.3661914"
     inkscape:cx="285.47986"
     inkscape:cy="278.92925"
     inkscape:window-width="2822"
     inkscape:window-height="1718"
     inkscape:window-x="58"
     inkscape:window-y="48"
     inkscape:window-maximized="1"
     inkscape:current-layer="svg382" />
  <g
     id="freepik--background-complete--inject-16">
    <path
       d="M484.55,117.54c0,.15-17.25.26-38.52.26s-38.52-.11-38.52-.26,17.24-.26,38.52-.26S484.55,117.4,484.55,117.54Z"
       style="fill:#e0e0e0"
       id="path2" />
    <path
       d="M335,452.94s-.17-.12-.47-.38l-1.36-1.15L328,446.92l-19-16.56-62.55-54.79-53.25-46.81-.07-.06v-.09c0-14.24.07-25.91.09-34,0-4.05,0-7.21,0-9.38,0-1.06,0-1.88,0-2.45s0-.84,0-.84,0,.29,0,.84,0,1.39,0,2.45c0,2.17,0,5.33,0,9.38,0,8.13.05,19.8.09,34l-.07-.16,53.33,46.73,62.44,54.9,18.89,16.69,5.12,4.56,1.32,1.19Z"
       style="fill:#e0e0e0"
       id="path4" />
    <circle
       cx="250.33"
       cy="228.37"
       r="1.99"
       style="fill:#e0e0e0"
       id="circle6" />
    <circle
       cx="250.33"
       cy="261.67"
       r="1.99"
       style="fill:#e0e0e0"
       id="circle8" />
    <path
       d="M81.19,278.26s.31,0,.91,0l2.67,0,10.35,0,38.59-.07L265.87,278l-.25.25c0-18.47,0-38.11,0-58.32,0-69.29.06-131.8.08-175.7l.18.18-49.36-.08-13.33-.05-3.46,0-1.17,0s.4,0,1.17,0l3.46,0,13.33,0,49.36-.08h.18v.18c0,43.9.05,106.41.08,175.7v58.57h-.26l-132.16-.09-38.59-.07-10.35-.05-2.67,0Z"
       style="fill:#e0e0e0"
       id="path10" />
    <path
       d="M126.69,475.64s0-.39,0-1.15,0-1.9,0-3.38c0-3,0-7.37-.06-13,0-11.29,0-27.6-.08-47.73l.06.14L81,365.05,81,365v-.1c0-20.94,0-43.89,0-67.84,0-50.27,0-96.16.07-130.51l.11.17L37,145.53l-12-5.79-3.12-1.53c-.71-.34-1.06-.53-1.06-.53s.37.15,1.08.48L25,139.63l12.06,5.71,44.21,21,.11.06v.12c0,34.35,0,80.24.06,130.51,0,23.95,0,46.9,0,67.84l-.08-.17,45.47,45.53,0,.06v.08c0,20.13-.06,36.44-.08,47.73,0,5.63,0,10,0,13,0,1.48,0,2.61,0,3.38S126.69,475.64,126.69,475.64Z"
       style="fill:#e0e0e0"
       id="path12" />
    <circle
       cx="113.51"
       cy="428.01"
       r="1.99"
       style="fill:#e0e0e0"
       id="circle14" />
    <circle
       cx="113.51"
       cy="461.31"
       r="1.99"
       style="fill:#e0e0e0"
       id="circle16" />
    <circle
       cx="65.1"
       cy="312.29"
       r="1.99"
       style="fill:#e0e0e0"
       id="circle18" />
    <circle
       cx="65.1"
       cy="345.6"
       r="1.99"
       style="fill:#e0e0e0"
       id="circle20" />
    <path
       d="M67.09,245a2,2,0,1,1-2-2A2,2,0,0,1,67.09,245Z"
       style="fill:#e0e0e0"
       id="path22" />
    <circle
       cx="65.1"
       cy="278.33"
       r="1.99"
       style="fill:#e0e0e0"
       id="circle24" />
    <circle
       cx="65.1"
       cy="177.75"
       r="1.99"
       style="fill:#e0e0e0"
       id="circle26" />
    <circle
       cx="65.1"
       cy="211.06"
       r="1.99"
       style="fill:#e0e0e0"
       id="circle28" />
    <path
       d="M362,6.78s0,.39,0,1.15,0,1.91,0,3.38c0,3,0,7.37.05,13,0,11.29.05,27.61.09,47.73l-.06-.13c12.95,12.92,28.46,28.4,45.54,45.46l.07.07v.1c0,21,0,43.89,0,67.84,0,50.28,0,96.16-.07,130.51l-.11-.17,44.13,21.17,12,5.8,3.12,1.52c.71.34,1.06.53,1.06.53s-.37-.15-1.08-.48l-3.15-1.47-12.06-5.7-44.21-21-.11-.05v-.13c0-34.35,0-80.23-.06-130.51,0-23.95,0-46.89,0-67.84l.07.18L361.87,72.18l-.06-.06V72c0-20.12.07-36.44.09-47.73,0-5.63,0-10,.05-13,0-1.47,0-2.6,0-3.38S362,6.78,362,6.78Z"
       style="fill:#e0e0e0"
       id="path30" />
    <circle
       cx="375.19"
       cy="54.42"
       r="1.99"
       style="fill:#e0e0e0"
       id="circle32" />
    <path
       d="M373.19,21.11a2,2,0,1,1,2,2A2,2,0,0,1,373.19,21.11Z"
       style="fill:#e0e0e0"
       id="path34" />
    <circle
       cx="279.64"
       cy="94"
       r="1.99"
       style="fill:#e0e0e0"
       id="circle36" />
    <path
       d="M277.65,60.69a2,2,0,1,1,2,2A2,2,0,0,1,277.65,60.69Z"
       style="fill:#e0e0e0"
       id="path38" />
    <circle
       cx="279.64"
       cy="153.48"
       r="1.99"
       style="fill:#e0e0e0"
       id="circle40" />
    <path
       d="M277.65,120.18a2,2,0,1,1,2,2A2,2,0,0,1,277.65,120.18Z"
       style="fill:#e0e0e0"
       id="path42" />
    <path
       d="M421.61,170.13a2,2,0,1,1,2,2A2,2,0,0,1,421.61,170.13Z"
       style="fill:#e0e0e0"
       id="path44" />
    <path
       d="M421.61,136.83a2,2,0,1,1,2,2A2,2,0,0,1,421.61,136.83Z"
       style="fill:#e0e0e0"
       id="path46" />
    <path
       d="M421.61,237.4a2,2,0,1,1,2,2A2,2,0,0,1,421.61,237.4Z"
       style="fill:#e0e0e0"
       id="path48" />
    <path
       d="M421.61,204.1a2,2,0,1,1,2,2A2,2,0,0,1,421.61,204.1Z"
       style="fill:#e0e0e0"
       id="path50" />
    <path
       d="M421.61,304.67a2,2,0,1,1,2,2A2,2,0,0,1,421.61,304.67Z"
       style="fill:#e0e0e0"
       id="path52" />
    <path
       d="M421.61,271.37a2,2,0,1,1,2,2A2,2,0,0,1,421.61,271.37Z"
       style="fill:#e0e0e0"
       id="path54" />
    <circle
       cx="182.81"
       cy="25.7"
       r="1.99"
       style="fill:#e0e0e0"
       id="circle56" />
    <path
       d="M184.8,59a2,2,0,1,1-2-2A2,2,0,0,1,184.8,59Z"
       style="fill:#e0e0e0"
       id="path58" />
    <path
       d="M54.25,89.51a2,2,0,1,1-1-2.61A2,2,0,0,1,54.25,89.51Z"
       style="fill:#e0e0e0"
       id="path60" />
    <path
       d="M41,120.08a2,2,0,1,1-1-2.62A2,2,0,0,1,41,120.08Z"
       style="fill:#e0e0e0"
       id="path62" />
    <path
       d="M197.33,7.27s0,.39,0,1.14,0,1.89,0,3.35c0,2.94,0,7.24.06,12.71,0,11,0,26.64.09,45.51v.22h-.22l-71.35,0-48.58,0,.22-.14c-10.64,22.67-19.73,42-26.15,55.7-3.23,6.82-5.78,12.23-7.54,16l-2,4.23c-.22.47-.4.83-.53,1.09s-.19.36-.19.36,0-.13.16-.38.28-.63.49-1.1c.45-1,1.11-2.42,2-4.27l7.42-16c6.38-13.72,15.41-33.08,26-55.78l.06-.14h.16l48.58,0,71.35,0-.22.22c0-18.87.07-34.54.09-45.51,0-5.47.05-9.77.06-12.71,0-1.46,0-2.57,0-3.35S197.33,7.27,197.33,7.27Z"
       style="fill:#e0e0e0"
       id="path64" />
    <path
       d="M195.86,66.75c-.11.11-.39,0-.64-.26s-.37-.54-.26-.64.38,0,.63.27S196,66.65,195.86,66.75Z"
       style="fill:#e0e0e0"
       id="path66" />
    <path
       d="M202.27,317.7a2,2,0,1,1,2,2A2,2,0,0,1,202.27,317.7Z"
       style="fill:#e0e0e0"
       id="path68" />
    <path
       d="M202.27,290.79a2,2,0,1,1,2,2A2,2,0,0,1,202.27,290.79Z"
       style="fill:#e0e0e0"
       id="path70" />
    <path
       d="M437.16,382.93a2,2,0,1,1,2,2A2,2,0,0,1,437.16,382.93Z"
       style="fill:#e0e0e0"
       id="path72" />
    <path
       d="M437.16,356a2,2,0,1,1,2,2A2,2,0,0,1,437.16,356Z"
       style="fill:#e0e0e0"
       id="path74" />
    <path
       d="M355.1,452.86a2,2,0,1,1-1.17,2.56A2,2,0,0,1,355.1,452.86Z"
       style="fill:#e0e0e0"
       id="path76" />
    <path
       d="M380.31,443.45a2,2,0,1,1-1.17,2.56A2,2,0,0,1,380.31,443.45Z"
       style="fill:#e0e0e0"
       id="path78" />
    <path
       d="M403.78,433.27a2,2,0,1,1-1.17,2.57A2,2,0,0,1,403.78,433.27Z"
       style="fill:#e0e0e0"
       id="path80" />
    <path
       d="M429,423.86a2,2,0,1,1-1.17,2.56A2,2,0,0,1,429,423.86Z"
       style="fill:#e0e0e0"
       id="path82" />
    <path
       d="M333.5,471.1s0-.09,0-.28,0-.47,0-.83c0-.75,0-1.84,0-3.24,0-2.87,0-7-.07-12.34v-.09l.09,0,81.22-35.52,33.19-14.45-.15.22c.14-20.2.27-37.48.35-49.73.06-6.1.11-10.95.15-14.3,0-1.64,0-2.92.06-3.8,0-.42,0-.75,0-1a1.39,1.39,0,0,1,0-.33s0,.11,0,.33,0,.57,0,1c0,.88,0,2.16,0,3.8,0,3.35,0,8.2,0,14.3,0,12.25-.09,29.53-.16,49.74v.16l-.15.06-33.18,14.47-81.31,35.31.08-.13c0,5.3-.05,9.47-.06,12.34,0,1.4,0,2.49,0,3.24,0,.36,0,.63,0,.83A.84.84,0,0,1,333.5,471.1Z"
       style="fill:#e0e0e0"
       id="path84" />
    <path
       d="M363.6,44.24c0,.14-22.09.26-49.34.26s-49.33-.12-49.33-.26S287,44,314.26,44,363.6,44.1,363.6,44.24Z"
       style="fill:#e0e0e0"
       id="path86" />
    <path
       d="M406.47,168.14c0,.14-31.48.26-70.3.26s-70.3-.12-70.3-.26,31.47-.26,70.3-.26S406.47,168,406.47,168.14Z"
       style="fill:#e0e0e0"
       id="path88" />
    <path
       d="M265.87,209.06a2.3,2.3,0,0,1-.43,0l-1.27,0-4.9,0-18,.09-59.38.07h-8.37l.24-.15c-8.56,19.45-16.16,36.74-21.64,49.2L145.62,273c-.76,1.7-1.36,3-1.78,4l-.47,1a2.64,2.64,0,0,1-.18.34s0-.13.13-.36l.43-1,1.7-4c1.5-3.48,3.67-8.49,6.35-14.71,5.45-12.48,13-29.79,21.49-49.27l.07-.16h8.54l59.38.08,18,.08,4.9,0,1.27,0Z"
       style="fill:#e0e0e0"
       id="path90" />
  </g>
  <g
     id="freepik--Floor--inject-16">
    <path
       d="M450.89,480c0,.15-89.95.26-200.88.26s-200.9-.11-200.9-.26,89.93-.26,200.9-.26S450.89,479.84,450.89,480Z"
       style="fill:#263238"
       id="path93" />
  </g>
  <rect
     x="137.56"
     y="463.14001"
     width="16.08"
     height="8.1599998"
     style="fill:#e0e0e0"
     id="rect105" />
  <rect
     x="272.22"
     y="463.14001"
     width="16.08"
     height="8.1599998"
     style="fill:#e0e0e0"
     id="rect107" />
  <path
     d="m 166,402.16 a 15.78,15.78 0 0 0 -11.7,5.81 22,22 0 0 0 -4.93,14 c -0.1,5.73 1.4,11.4 3.39,16.72 a 71.81,71.81 0 0 0 19,28 c 0.6,0.54 1.48,-0.34 0.89,-0.88 A 71.1,71.1 0 0 1 155.3,441.63 c -4,-9.2 -7.43,-21.36 -1.72,-30.59 2.68,-4.33 7.21,-7.63 12.43,-7.67 a 0.63,0.63 0 0 0 0,-1.25 z"
     style="fill:#263238"
     id="path109" />
  <polygon
     points="173.82,424.31 177.82,450.7 209.36,465.65 249.31,448.95 253.9,430.08 "
     style="fill:#263238"
     id="polygon111" />
  <polygon
     points="262.14,404.54 277.75,390.5 273.47,363.81 244.54,345.51 230.04,350.78 "
     style="fill:#263238"
     id="polygon113" />
  <circle
     cx="-361.05423"
     cy="270.04059"
     r="53.419998"
     transform="rotate(-81.61)"
     style="fill:#e0e0e0"
     id="circle115" />
  <path
     d="m 194.63,364.61 -0.49,0.37 -1.46,1 -1.08,0.76 c -0.39,0.3 -0.78,0.66 -1.22,1 L 189,369 a 19.23,19.23 0 0 0 -1.49,1.5 36.06,36.06 0 0 0 -6.33,8.83 37.56,37.56 0 0 0 -4,13.74 l -0.18,2 c 0,0.69 0,1.38 0,2.08 0,0.7 0,1.4 0.06,2.11 0.06,0.71 0.15,1.43 0.23,2.15 l 0.12,1.1 c 0.08,0.36 0.15,0.72 0.23,1.08 0.15,0.73 0.3,1.46 0.45,2.21 0.15,0.75 0.45,1.45 0.66,2.19 a 19.89,19.89 0 0 0 0.76,2.21 34.5,34.5 0 0 0 2,4.32 c 0.4,0.71 0.76,1.44 1.21,2.14 l 1.41,2 c 0.25,0.34 0.47,0.7 0.73,1 l 0.82,1 c 0.56,0.64 1.09,1.31 1.68,1.94 a 41.45,41.45 0 0 0 8.29,6.52 c 0.78,0.44 1.6,0.83 2.41,1.25 0.41,0.2 0.81,0.44 1.24,0.6 l 1.28,0.51 a 44.06,44.06 0 0 0 5.32,1.72 42,42 0 0 0 5.63,0.84 l 1.44,0.13 h 2.9 a 8.82,8.82 0 0 0 1.45,-0.08 l 2.93,-0.3 2.9,-0.6 a 37.18,37.18 0 0 0 20.14,-12.44 l 1.83,-2.33 1.59,-2.48 a 9.77,9.77 0 0 0 0.72,-1.26 l 0.66,-1.3 0.65,-1.29 0.53,-1.34 a 41.3,41.3 0 0 0 1.77,-5.42 40.48,40.48 0 0 0 0.84,-5.52 l 0.13,-1.38 c 0,-0.45 0,-0.91 0,-1.37 0,-0.91 0,-1.82 0,-2.72 a 38.42,38.42 0 0 0 -0.74,-5.3 39.65,39.65 0 0 0 -1.38,-5 c -0.29,-0.81 -0.66,-1.58 -1,-2.37 l -0.49,-1.16 c -0.18,-0.39 -0.4,-0.74 -0.59,-1.11 l -1.2,-2.19 c -0.42,-0.7 -0.92,-1.36 -1.37,-2 a 34.4,34.4 0 0 0 -3,-3.75 18.39,18.39 0 0 0 -1.63,-1.67 c -0.57,-0.52 -1.09,-1.08 -1.67,-1.57 l -1.77,-1.39 -0.87,-0.69 -0.92,-0.6 -1.82,-1.17 c -0.59,-0.39 -1.25,-0.66 -1.87,-1 -0.62,-0.34 -1.23,-0.64 -1.85,-0.93 l -1.88,-0.75 a 37.51,37.51 0 0 0 -14.1,-2.53 35.66,35.66 0 0 0 -10.73,1.7 20.62,20.62 0 0 0 -2,0.66 l -1.72,0.72 c -0.53,0.23 -1,0.41 -1.46,0.62 l -1.17,0.63 -1.59,0.84 -0.55,0.28 c 0,0 0.18,-0.12 0.53,-0.32 l 1.56,-0.89 1.16,-0.65 c 0.43,-0.22 0.93,-0.42 1.46,-0.65 l 1.72,-0.75 a 20.51,20.51 0 0 1 2,-0.68 36,36 0 0 1 10.78,-1.81 37.73,37.73 0 0 1 14.24,2.49 l 1.91,0.74 c 0.62,0.29 1.24,0.62 1.87,0.94 0.63,0.32 1.29,0.6 1.89,1 l 1.84,1.18 0.94,0.6 0.88,0.69 1.79,1.4 c 0.59,0.49 1.12,1.06 1.69,1.59 a 18.82,18.82 0 0 1 1.66,1.68 35.15,35.15 0 0 1 3,3.78 c 0.45,0.69 1,1.35 1.39,2.06 l 1.21,2.2 c 0.2,0.38 0.43,0.74 0.6,1.13 l 0.51,1.18 c 0.32,0.79 0.69,1.57 1,2.39 a 40.63,40.63 0 0 1 1.41,5.09 41.08,41.08 0 0 1 0.76,5.37 c 0.05,0.91 0,1.83 0.05,2.76 0,0.46 0,0.92 0,1.39 l -0.12,1.39 a 41.89,41.89 0 0 1 -0.85,5.6 44.43,44.43 0 0 1 -1.78,5.49 l -0.54,1.36 -0.66,1.31 -0.67,1.31 a 9.1,9.1 0 0 1 -0.73,1.29 l -1.6,2.51 -1.86,2.36 a 37.67,37.67 0 0 1 -20.43,12.62 l -2.94,0.6 -3,0.31 a 10.34,10.34 0 0 1 -1.47,0.07 h -3 l -1.45,-0.13 A 34.68,34.68 0 0 1 200.37,432 l -1.3,-0.51 c -0.44,-0.17 -0.84,-0.42 -1.25,-0.62 -0.82,-0.43 -1.66,-0.82 -2.45,-1.27 A 40.48,40.48 0 0 1 190.91,426.52 41.46,41.46 0 0 1 187,423 c -0.59,-0.63 -1.13,-1.31 -1.69,-2 l -0.83,-1 c -0.27,-0.33 -0.49,-0.69 -0.74,-1 l -1.43,-2 c -0.45,-0.71 -0.82,-1.45 -1.22,-2.16 a 35.45,35.45 0 0 1 -2,-4.39 18.32,18.32 0 0 1 -0.76,-2.23 c -0.22,-0.75 -0.48,-1.48 -0.66,-2.22 -0.18,-0.74 -0.3,-1.5 -0.45,-2.23 -0.08,-0.37 -0.15,-0.74 -0.23,-1.1 l -0.12,-1.11 c -0.07,-0.73 -0.15,-1.45 -0.22,-2.17 -0.07,-0.72 0,-1.43 -0.06,-2.14 -0.06,-0.71 0,-1.4 0,-2.09 l 0.18,-2 a 37.54,37.54 0 0 1 4.16,-13.85 35.76,35.76 0 0 1 6.43,-8.83 19.19,19.19 0 0 1 1.52,-1.49 l 1.43,-1.21 c 0.45,-0.36 0.85,-0.72 1.24,-1 l 1.1,-0.75 1.49,-1 c 0.31,-0.32 0.49,-0.42 0.49,-0.42 z"
     style="fill:#263238"
     id="path117" />
  <circle
     cx="166.8571"
     cy="418.8526"
     r="14.75"
     transform="rotate(-6.68)"
     style="fill:#263238"
     id="circle119" />
  <circle
     cx="208.11569"
     cy="399.9595"
     r="10.59"
     transform="rotate(-0.91)"
     style="fill:#cc071e"
     id="circle121" />
  <path
     d="m 176.83,393.65 a 2.71,2.71 0 0 1 -0.62,0.13 l -1.8,0.26 -6.64,0.86 0.16,-0.17 a 43,43 0 0 0 3.76,20.1 62.31,62.31 0 0 0 13.3,19 l 0.11,0.11 -0.1,0.11 -3.09,3.61 -0.84,0.95 c -0.2,0.21 -0.3,0.31 -0.32,0.3 a 2.2,2.2 0 0 1 0.25,-0.36 l 0.77,-1 3,-3.7 v 0.22 a 55.25,55.25 0 0 1 -6.79,-7.59 57.19,57.19 0 0 1 -6.77,-11.48 42.08,42.08 0 0 1 -3.65,-20.33 v -0.16 h 0.15 l 6.65,-0.7 1.82,-0.16 a 2.74,2.74 0 0 1 0.65,0 z"
     style="fill:#263238"
     id="path123" />
  <path
     d="m 183.47,353.39 a 1.92,1.92 0 0 1 0.3,0.41 l 0.81,1.22 3,4.66 h -0.23 a 53.82,53.82 0 0 1 10.35,-5.82 51.11,51.11 0 0 1 7.08,-2.3 45.12,45.12 0 0 1 8.07,-1.1 45.62,45.62 0 0 1 15.76,2.14 43,43 0 0 1 10.87,5.14 l 0.12,0.09 -0.08,0.12 -2.81,4.3 -0.76,1.13 a 2.1,2.1 0 0 1 -0.29,0.37 1.91,1.91 0 0 1 0.22,-0.42 l 0.69,-1.17 c 0.66,-1.06 1.56,-2.53 2.69,-4.37 V 358 a 44.42,44.42 0 0 0 -10.83,-5 45.08,45.08 0 0 0 -23.57,-1 51.64,51.64 0 0 0 -7,2.24 56.47,56.47 0 0 0 -10.35,5.65 l -0.14,0.1 -0.08,-0.15 -2.85,-4.74 -0.73,-1.27 a 2.73,2.73 0 0 1 -0.24,-0.44 z"
     style="fill:#263238"
     id="path125" />
  <path
     d="m 266.34,386.08 a 2,2 0 0 1 -0.43,0.16 l -1.25,0.41 -4.75,1.44 0.1,-0.19 a 38.56,38.56 0 0 1 1.21,11.71 42.39,42.39 0 0 1 -3.73,15.14 58.71,58.71 0 0 1 -15.49,20.32 l -0.13,0.1 -0.1,-0.11 -4.26,-4.49 -1.12,-1.22 a 2.71,2.71 0 0 1 -0.36,-0.44 2.78,2.78 0 0 1 0.43,0.38 l 1.19,1.15 4.36,4.38 h -0.23 a 58.94,58.94 0 0 0 7.76,-8.1 56.93,56.93 0 0 0 7.5,-12.17 42.38,42.38 0 0 0 3.74,-15 39.6,39.6 0 0 0 -1,-11.6 v -0.15 h 0.14 l 4.79,-1.3 1.28,-0.33 a 1.37,1.37 0 0 1 0.35,-0.09 z"
     style="fill:#263238"
     id="path127" />
  <path
     d="m 170.17,386.77 -1,-0.15 c 0,-0.12 1.88,-11.5 9.58,-19.83 l 0.74,0.67 c -7.49,8.12 -9.3,19.2 -9.32,19.31 z"
     style="fill:#cc071e"
     id="path129" />
  <path
     d="m 230.06,435.86 a 2.27,2.27 0 1 1 0.6,3.16 2.28,2.28 0 0 1 -0.6,-3.16 z"
     style="fill:#cc071e"
     id="path131" />
  <path
     d="m 222.42,438.36 a 2.27,2.27 0 1 1 0.6,3.16 2.28,2.28 0 0 1 -0.6,-3.16 z"
     style="fill:#cc071e"
     id="path133" />
  <path
     d="m 214.23,439.53 a 2.27,2.27 0 1 1 0.6,3.15 2.27,2.27 0 0 1 -0.6,-3.15 z"
     style="fill:#cc071e"
     id="path135" />
  <rect
     x="131.92999"
     y="471.31"
     width="158.98"
     height="8.6800003"
     style="fill:#263238"
     id="rect137" />
  <path
     d="m 158.57,475.64 10.31,-37.07 c 0,0 14.49,19.15 43.21,18.54 28.72,-0.61 47.63,-18.54 47.63,-18.54 l 9.2,37.07 z"
     style="fill:#263238"
     id="path139" />
  <path
     d="m 290.9,471.31 c 0,0.14 -35.5,0.26 -79.28,0.26 -43.78,0 -79.28,-0.12 -79.28,-0.26 0,-0.14 35.49,-0.26 79.28,-0.26 43.79,0 79.28,0.11 79.28,0.26 z"
     style="fill:#455a64"
     id="path141" />
  <path
     d="m 259.72,438.57 a 1.24,1.24 0 0 1 -0.16,0.21 l -0.51,0.57 c -0.47,0.49 -1.09,1.28 -2,2.14 a 48.12,48.12 0 0 1 -8.56,6.65 60.23,60.23 0 0 1 -14.7,6.45 78.06,78.06 0 0 1 -9.28,2.06 89.12,89.12 0 0 1 -10.16,0.94 62.53,62.53 0 0 1 -19.52,-2.59 62.1,62.1 0 0 1 -14.7,-6.48 58.86,58.86 0 0 1 -8.74,-6.4 c -1,-0.82 -1.66,-1.56 -2.15,-2 l -0.54,-0.55 a 1,1 0 0 1 -0.17,-0.19 c 0,0 0.07,0 0.2,0.16 l 0.58,0.5 c 0.52,0.43 1.21,1.14 2.21,1.94 a 63.12,63.12 0 0 0 8.8,6.23 66.46,66.46 0 0 0 6.62,3.42 67.5,67.5 0 0 0 8,2.92 62.81,62.81 0 0 0 19.33,2.51 87.88,87.88 0 0 0 10.1,-0.93 79.12,79.12 0 0 0 9.22,-2 60.79,60.79 0 0 0 14.65,-6.31 50.53,50.53 0 0 0 8.61,-6.48 c 1,-0.83 1.6,-1.6 2.09,-2.06 l 0.55,-0.53 a 1.24,1.24 0 0 1 0.23,-0.18 z"
     style="fill:#455a64"
     id="path143" />
  <g
     id="g1127">
    <g
       id="g1020">
      <g
         id="freepik--Lines--inject-16">
        <path
           d="M302.42,107.45c-.11,0-.1-2-.65-5.3a40.37,40.37,0,0,0-1.37-5.61A43.49,43.49,0,0,0,297.64,90a45,45,0,0,0-3.84-5.93,42.15,42.15,0,0,0-3.88-4.29c-2.39-2.27-4.1-3.42-4-3.5a7,7,0,0,1,1.21.77,16.7,16.7,0,0,1,1.36,1c.51.42,1.11.87,1.71,1.45a36.76,36.76,0,0,1,4,4.26,41.27,41.27,0,0,1,3.93,6,41.75,41.75,0,0,1,2.75,6.61,36.83,36.83,0,0,1,1.29,5.7c.14.82.18,1.57.24,2.23a15.66,15.66,0,0,1,.08,1.69A7,7,0,0,1,302.42,107.45Z"
           style="fill:#263238"
           id="path96" />
        <path
           d="M317,114.34a2.43,2.43,0,0,1,0-.62c0-.46.07-1,.12-1.78,0-.39.06-.81.09-1.28s0-1,0-1.52c0-1.1.05-2.35-.1-3.72-.05-.69-.1-1.41-.16-2.15s-.21-1.52-.31-2.33c-.18-1.61-.6-3.29-1-5.07a60.11,60.11,0,0,0-4-11.1,60.35,60.35,0,0,0-6.33-10c-1.18-1.39-2.26-2.74-3.42-3.87-.58-.57-1.09-1.16-1.65-1.67l-1.62-1.43a35.77,35.77,0,0,0-2.88-2.35c-.44-.33-.83-.65-1.22-.92l-1.07-.71-1.47-1a3.45,3.45,0,0,1-.5-.38,2.19,2.19,0,0,1,.55.29l1.53.91,1.1.67c.4.26.8.58,1.25.9a32.62,32.62,0,0,1,2.95,2.3L300.47,69c.57.5,1.1,1.09,1.68,1.66a50.05,50.05,0,0,1,3.49,3.87,58.62,58.62,0,0,1,6.43,10.05,58.23,58.23,0,0,1,4,11.22,52,52,0,0,1,.95,5.12c.09.81.23,1.59.28,2.35s.09,1.48.13,2.17a36.2,36.2,0,0,1,0,3.74c0,.55,0,1.07-.05,1.54s-.1.89-.14,1.28c-.09.73-.16,1.31-.21,1.77A2.13,2.13,0,0,1,317,114.34Z"
           style="fill:#263238"
           id="path98" />
        <path
           d="M177.43,165.09c.1,0,.86,1.87,2.56,4.69a40.49,40.49,0,0,0,3.36,4.71,40,40,0,0,0,10.73,9.11,38.92,38.92,0,0,0,5.19,2.55c3,1.23,5.07,1.66,5,1.77a7.92,7.92,0,0,1-1.42-.27,15.25,15.25,0,0,1-1.63-.44c-.63-.2-1.36-.4-2.13-.72a36.55,36.55,0,0,1-5.29-2.47,42.23,42.23,0,0,1-5.87-4.11,41.14,41.14,0,0,1-5-5.12,36.63,36.63,0,0,1-3.3-4.82c-.44-.71-.75-1.39-1.05-2a15.46,15.46,0,0,1-.7-1.54A8.12,8.12,0,0,1,177.43,165.09Z"
           style="fill:#263238"
           id="path100" />
        <path
           d="M161.36,164.07a4.38,4.38,0,0,1,.22.58c.15.44.33,1,.56,1.69.11.38.24.79.38,1.23s.36.91.56,1.42c.42,1,.82,2.19,1.46,3.42l1,1.94c.33.68.75,1.34,1.15,2,.76,1.43,1.77,2.84,2.78,4.35a54.94,54.94,0,0,0,17.44,15.75,51.24,51.24,0,0,0,4.61,2.33c.75.33,1.45.68,2.15.94l2,.74a34.9,34.9,0,0,0,3.55,1.11c.53.15,1,.3,1.47.41l1.26.26,1.73.38a2.21,2.21,0,0,1,.6.17,3.11,3.11,0,0,1-.61-.06l-1.76-.29-1.28-.22c-.46-.09-1-.23-1.49-.37a34.42,34.42,0,0,1-3.59-1l-2.06-.71c-.71-.26-1.42-.61-2.17-.92a50.33,50.33,0,0,1-4.67-2.31A53.61,53.61,0,0,1,169,181c-1-1.53-2-3-2.77-4.41-.39-.72-.81-1.39-1.13-2.07l-.92-2a32.33,32.33,0,0,1-1.4-3.47c-.19-.52-.38-1-.52-1.44s-.24-.87-.35-1.25c-.19-.7-.34-1.27-.46-1.72A2.25,2.25,0,0,1,161.36,164.07Z"
           style="fill:#263238"
           id="path102" />
      </g>
      <polygon
         points="367.93,271.95 353.38,256.24 325.7,260.55 306.73,289.65 312.19,304.25 "
         style="fill:#263238"
         id="polygon151" />
      <rect
         x="-119.27309"
         y="-330.53525"
         width="3.72"
         height="2.02"
         transform="rotate(148.29)"
         style="fill:#e0e0e0"
         id="rect185" />
      <rect
         x="-143.2666"
         y="-326.06372"
         width="20.309999"
         height="18.280001"
         transform="rotate(148.29)"
         style="fill:#263238"
         id="rect187" />
      <rect
         x="-144.64194"
         y="-330.53796"
         width="23.76"
         height="4.4699998"
         transform="rotate(148.29)"
         style="fill:#263238"
         id="rect189" />
      <rect
         x="-148.41814"
         y="-336.63556"
         width="37.263187"
         height="4.7380342"
         transform="rotate(148.05525)"
         style="fill:#263238;stroke-width:1.0017"
         id="rect191" />
      <rect
         x="-147.47348"
         y="-354.47437"
         width="30.309999"
         height="19.209999"
         transform="rotate(148.29)"
         style="fill:#cc071e"
         id="rect193" />
      <path
         d="m 292.68,189.39 c 1.62,4.92 6,7.81 10,10.71 a 23.42,23.42 0 0 1 6,5.66 13.23,13.23 0 0 1 2.06,8.62 c -0.07,0.8 1.18,0.8 1.25,0 0.53,-5.71 -2.26,-10.35 -6.61,-13.8 -4.35,-3.45 -9.7,-6.09 -11.5,-11.52 -0.25,-0.76 -1.45,-0.44 -1.2,0.33 z"
         style="fill:#263238"
         id="path195" />
      <path
         d="m 276.31,222 a 22.68,22.68 0 0 1 -12.21,-20 0.63,0.63 0 0 0 -1.25,0 23.94,23.94 0 0 0 12.83,21.08 c 0.71,0.37 1.35,-0.71 0.63,-1.08 z"
         style="fill:#263238"
         id="path197" />
      <path
         d="m 305.35,295 -29.49,-64.66 c 9.83,1.69 16.74,-0.58 17.34,-11.35 l 15.8,-10.5 47.6,49.21 A 58.69,58.69 0 0 0 324,270.88 C 308.23,283.7 305.35,295 305.35,295 Z"
         style="fill:#e0e0e0"
         id="path199" />
      <path
         d="m 299.38,214.9 a 1.08,1.08 0 0 1 0.19,0.21 l 0.51,0.63 1.9,2.46 6.94,9.09 10.22,13.53 c 1,1.28 1.95,2.58 2.95,3.92 a 24.39,24.39 0 0 1 2.91,4.26 9.82,9.82 0 0 1 -1.6,10.34 9.47,9.47 0 0 1 -2.13,1.82 9,9 0 0 1 -2.53,1.14 9.8,9.8 0 0 1 -5.37,0 9.68,9.68 0 0 1 -4.43,-2.7 14.78,14.78 0 0 1 -1.51,-2 l -1.36,-2 -9.5,-14.05 -6.37,-9.5 -1.71,-2.6 -0.43,-0.68 a 0.88,0.88 0 0 1 -0.13,-0.24 1.15,1.15 0 0 1 0.17,0.21 c 0.13,0.17 0.28,0.39 0.48,0.65 l 1.79,2.55 6.5,9.4 9.59,14 1.37,2 a 13,13 0 0 0 1.48,1.95 9.22,9.22 0 0 0 9.29,2.53 9.34,9.34 0 0 0 4.4,-2.82 9.33,9.33 0 0 0 1.53,-9.79 25,25 0 0 0 -2.83,-4.18 l -2.93,-3.92 -10.14,-13.6 -6.8,-9.19 -1.83,-2.52 -0.46,-0.66 z"
         style="fill:#ffffff"
         id="path201" />
      <path
         d="m 344.33,245 a 5.06,5.06 0 0 1 -1.08,-0.14 l -3,-0.55 -10.56,-2.07 h -0.09 l -0.05,-0.07 c -2.17,-2.91 -4.65,-6.25 -7.29,-9.78 L 310.93,217 l -3.39,-4.71 -0.9,-1.29 a 2.73,2.73 0 0 1 -0.29,-0.48 c 0,0 0.14,0.13 0.37,0.41 l 1,1.24 3.53,4.61 c 3,4 7,9.38 11.46,15.34 l 7.24,9.81 -0.14,-0.08 10.53,2.25 3,0.67 a 7.74,7.74 0 0 1 0.99,0.23 z"
         style="fill:#263238"
         id="path203" />
      <path
         d="m 314.6,280.18 c 0,0 -0.23,-0.21 -0.59,-0.66 -0.36,-0.45 -0.86,-1.11 -1.48,-1.94 -1.23,-1.66 -2.93,-4 -4.83,-6.65 l 0.17,0.11 -1.74,-0.31 c -3.61,-0.65 -6.88,-1.26 -9.24,-1.73 -1.18,-0.23 -2.14,-0.43 -2.8,-0.58 a 4.24,4.24 0 0 1 -1,-0.28 4.14,4.14 0 0 1 1.05,0.08 c 0.67,0.09 1.63,0.23 2.82,0.42 2.38,0.38 5.66,0.93 9.27,1.58 l 1.74,0.31 h 0.1 l 0.06,0.08 c 1.89,2.66 3.53,5 4.7,6.75 0.58,0.85 1,1.55 1.34,2 a 3.24,3.24 0 0 1 0.43,0.82 z"
         style="fill:#263238"
         id="path205" />
      <path
         d="m 295.76,210.82 c -0.12,0.07 -0.65,-0.56 -1.18,-1.42 -0.53,-0.86 -0.86,-1.61 -0.74,-1.69 0.12,-0.08 0.65,0.56 1.18,1.42 0.53,0.86 0.86,1.61 0.74,1.69 z"
         style="fill:#455a64"
         id="path207" />
      <path
         d="m 288.94,215.11 c -0.12,0.07 -0.71,-0.66 -1.31,-1.64 -0.6,-0.98 -1,-1.82 -0.87,-1.9 0.13,-0.08 0.71,0.65 1.31,1.63 0.6,0.98 0.99,1.8 0.87,1.91 z"
         style="fill:#455a64"
         id="path209" />
      <path
         d="m 281.82,219.28 c -0.12,0.07 -0.7,-0.64 -1.29,-1.6 -0.59,-0.96 -1,-1.81 -0.86,-1.88 0.14,-0.07 0.71,0.64 1.3,1.6 0.59,0.96 1.03,1.8 0.85,1.88 z"
         style="fill:#455a64"
         id="path211" />
      <rect
         x="-149.67581"
         y="-330.54266"
         width="3.72"
         height="2.02"
         transform="rotate(148.29)"
         style="fill:#e0e0e0"
         id="rect213" />
      <path
         d="m 302.1,202.08 a 8.34,8.34 0 0 1 -1.19,0.81 l -3.32,2.05 -11,6.71 -10.94,6.79 -3.32,2.05 a 6.27,6.27 0 0 1 -1.25,0.69 8.11,8.11 0 0 1 1.14,-0.86 c 0.76,-0.53 1.86,-1.28 3.24,-2.19 2.74,-1.82 6.58,-4.28 10.86,-6.92 4.28,-2.64 8.21,-5 11.07,-6.59 1.43,-0.82 2.6,-1.47 3.41,-1.91 a 8,8 0 0 1 1.3,-0.63 z"
         style="fill:#455a64"
         id="path215" />
      <path
         d="m 294.19,201.67 a 22.43,22.43 0 0 1 -2.83,1.85 l -6.95,4.28 -6.93,4.3 a 22.72,22.72 0 0 1 -2.92,1.7 20.7,20.7 0 0 1 2.72,-2 c 1.73,-1.18 4.15,-2.76 6.86,-4.43 2.71,-1.67 5.21,-3.14 7,-4.15 a 20.28,20.28 0 0 1 3.05,-1.55 z"
         style="fill:#455a64"
         id="path217" />
      <path
         d="m 306.15802,238.14886 0.29863,-0.20105 a 2.8,2.8 0 0 1 3.88638,0.75896 l 6.24927,9.28239 a 2.81,2.81 0 0 1 -0.76166,3.90026 l -0.29863,0.20105 a 2.8,2.8 0 0 1 -3.88639,-0.75896 l -6.24927,-9.28238 a 2.8,2.8 0 0 1 0.76167,-3.90027 z"
         style="fill:#cc071e"
         id="path219" />
      <polygon
         points="205.67,144.84 223.79,156.93 218.59,166.53 200.99,153.15 "
         style="fill:#263238"
         id="polygon221" />
      <polygon
         points="247.29,121.73 253.03,136.85 264.22,134.31 261.08,124.82 249.67,104 238.86,88.15 230.67,94.24 238.1,104.83 "
         style="fill:#263238"
         id="polygon223" />
      <path
         d="m 223.79,121.68 c 0,0 15,23.32 15.4,23.09 0.4,-0.23 12.06,-6.83 12.06,-6.83 l -18.42,-22.79 z"
         style="fill:#263238"
         id="path225" />
      <polygon
         points="237.38,145.62 215.5,126.83 200.94,115.15 193.59,123.9 208.36,135.21 227.33,154.57 "
         style="fill:#263238"
         id="polygon227" />
      <path
         d="m 281.72,156.74 c -3.26,-0.22 -6.38,-7.63 -7.9,-10.52 -1.74,-3.31 -3.6,-7.74 -5.59,-10.29 l -14.49,5.21 a 105,105 0 0 0 -30.11,24.19 5.71,5.71 0 0 0 -1.72,3.32 5.46,5.46 0 0 0 1.18,3.09 42.72,42.72 0 0 0 13.22,12.8 8.38,8.38 0 0 0 3.89,1.46 c 2,0.09 3.74,-1.06 5.36,-2.16 L 270.47,167 c 1.69,-1.15 21.37,2.55 22.31,0.73 1.27,-2.47 0.95,-10.19 -11.06,-10.99 z"
         style="fill:#263238"
         id="path229" />
      <path
         d="m 287.61,132.27 c 0,0 3.42,7.39 4.28,10.07 0.86,2.68 -2.87,8.42 -2.87,8.42 l -8,-0.53 -1.89,-6 -2.49,-4.24 z"
         style="fill:#263238"
         id="path231" />
      <path
         d="m 294.74,194 c 0.11,-0.75 0,-6.15 -0.29,-10.23 -0.29,-4.08 1.29,-13.84 1.2,-16.78 0,0 -16.73,-1.73 -17.68,-2.7 -0.95,-0.97 -6.22,-5.39 -8.58,-4.79 -2.36,0.6 -38.34,24.37 -38.71,24.6 -0.37,0.23 20.33,24.63 25.71,28.64 5.38,4.01 6.36,2.56 6.36,2.56 0,0 -2.81,-7.31 -0.41,-10.33 2.4,-3.02 5.63,-5.52 13.48,-4.4 7.85,1.12 9.19,2.17 13.59,-0.38 a 11.18,11.18 0 0 0 5.33,-6.19 z"
         style="fill:#e0e0e0"
         id="path233" />
      <path
         d="m 265.82,133.05 c 0,0 6.12,8.79 5,12.24 -1.12,3.45 -13.39,9.12 -26.31,18.59 -10,7.32 -15.76,14.47 -17.48,14.39 -1.72,-0.08 -8.39,-10.07 -8.76,-10.77 -1.46,-2.72 5.76,-14.07 15.94,-21.68 10.18,-7.61 29.67,-14.49 31.61,-12.77 z"
         style="fill:#e0e0e0"
         id="path235" />
      <path
         d="m 233.57,77.69 c -3.3,-3.12 -7.62,-0.94 -7.62,-0.94 -2.44,1.5 -3.36,4.78 -1.92,7.9 1.44,3.12 5.91,11.62 6.52,11.57 4.93,-1.51 8.88,-3.57 11.4,-6.45 0.05,0 -5.68,-9.54 -8.38,-12.08 z"
         style="fill:#e0e0e0"
         id="path237" />
      <path
         d="m 243.4,93.55 -9.47,6.23 a 1.31,1.31 0 0 0 -0.4,1.84 c 1.81,2.73 6.46,9.73 8.24,12.43 a 1.52,1.52 0 0 0 1.93,0.5 c 1.45,-0.71 3.82,-1.89 5.09,-2.6 2.29,-1.28 5.1,-3.14 5.1,-4.64 0,-1.5 -6,-10 -8.42,-13.4 a 1.54,1.54 0 0 0 -2.07,-0.36 z"
         style="fill:#e0e0e0"
         id="path239" />
      <path
         d="m 256.43,111.64 a 1.45,1.45 0 0 0 -1.78,-0.28 c -3,1.51 -11.23,5.79 -11.28,6.64 -0.07,1 5.43,11.77 7.32,13.34 1.89,1.57 13.65,-3.87 13.32,-5.77 -0.29,-1.71 -5.01,-10.78 -7.58,-13.93 z"
         style="fill:#e0e0e0"
         id="path241" />
      <path
         d="m 200.5,88.67 c 0.42,-0.31 4.3,-2.66 8.06,-0.06 3.76,2.6 9.4,7.8 9.79,9.26 0.39,1.46 0.82,4.22 -1.21,5.58 -2.03,1.36 -7,5.42 -8,4.88 -1,-0.54 -2.7,-1.72 -5.82,-5.78 -3.12,-4.06 -8.43,-9.69 -2.82,-13.88 z"
         style="fill:#e0e0e0"
         id="path243" />
      <path
         d="m 218.66,99.7 c 0,0 2.46,1.54 2.54,2.17 0.08,0.63 0.94,2.35 -0.47,3.66 a 46.14,46.14 0 0 1 -5.68,3.81 2.38,2.38 0 0 1 -2.55,0.36 l -2.1,-1.65 z"
         style="fill:#263238"
         id="path245" />
      <path
         d="m 237.35,118.74 a 1.89,1.89 0 0 1 2,1 c 0.9,1.3 8.64,10.53 8.35,11.78 -0.29,1.25 -12,8.49 -12.72,7.89 -0.72,-0.6 -8.6,-11.75 -8.24,-12.94 0.36,-1.19 10.1,-7.72 10.61,-7.73 z"
         style="fill:#e0e0e0"
         id="path247" />
      <path
         d="m 220.5,130.5 c 0.3,-0.07 0.72,-0.84 2,0.35 1.28,1.19 9.45,8 9.65,9.81 0.2,1.81 -7.09,10.1 -9.13,9.34 -2.04,-0.76 -8.06,-6.76 -10.14,-9.5 0,0 -0.91,-1.2 -0.41,-2 0.39,-0.62 8.03,-8 8.03,-8 z"
         style="fill:#e0e0e0"
         id="path249" />
      <path
         d="m 217.64,127.24 c -0.13,-0.48 -10.13,-8.5 -11.91,-8.79 -0.78,-0.12 -6.31,5.44 -6.63,7.28 a 5.72,5.72 0 0 0 1.49,5.24 c 1.6,1.89 7.52,6.73 9.26,5.75 1.74,-0.98 6.57,-5.78 6.57,-5.78 0,0 1.76,-1.76 1.22,-3.7 z"
         style="fill:#e0e0e0"
         id="path251" />
      <path
         d="m 193,109.7 c -3.36,-1.15 -6.65,-0.23 -8,2.63 -1.35,2.86 0.78,6.49 2.36,8.32 1.58,1.83 5.51,5 7.8,4.88 2.41,-1.29 5.89,-5.47 7.34,-8.81 A 1.45,1.45 0 0 0 202,115 a 50.73,50.73 0 0 0 -9,-5.3 z"
         style="fill:#e0e0e0"
         id="path253" />
      <path
         d="m 195.84,140.06 0.4,-0.24 c 0,0 8.13,2.63 9.73,4.3 1.6,1.67 -0.12,4.22 -0.44,5 -0.32,0.78 -2.85,5.47 -4.37,5.47 a 12.27,12.27 0 0 1 -6.56,-2.59 24.86,24.86 0 0 1 -2.39,-2.11 z"
         style="fill:#e0e0e0"
         id="path255" />
      <path
         d="m 209.51,146.53 a 2.48,2.48 0 0 1 1.34,-0.27 c 0.56,0.13 9.76,6.25 10.4,7.44 0.64,1.19 -0.11,2.91 -0.94,4.55 -0.83,1.64 -4.31,6.36 -5.71,6.18 -1.4,-0.18 -9.26,-6.2 -10.07,-7.3 a 2.9,2.9 0 0 1 -0.54,-2.23 z"
         style="fill:#e0e0e0"
         id="path257" />
      <path
         d="m 275.6,116.17 a 6.94,6.94 0 0 1 3.52,2.09 c 1.51,1.7 10.24,15.53 10.24,15.53 0,0 0,2.37 -4.32,5.16 -1.79,1.16 -7.65,3.22 -7.65,3.22 0,0 -3.19,-4.23 -5.3,-7.82 -2.11,-3.59 -3.8,-9.95 -2.32,-13.47 1.48,-3.52 4.29,-5.01 5.83,-4.71 z"
         style="fill:#e0e0e0"
         id="path259" />
      <path
         d="m 291.1,137.68 c 0,0 -2.68,3.15 -4.39,3.83 -1.71,0.68 -8,2.58 -8,2.58 l 0.59,8.65 c 0,0 -1.7,5.86 -1.52,6.29 0.18,0.43 15.2,5.55 16,4.68 0.8,-0.87 1.88,-9.71 1.75,-12.65 -0.13,-2.94 -4.43,-13.38 -4.43,-13.38 z"
         style="fill:#e0e0e0"
         id="path261" />
      <path
         d="m 221.23,102.52 a 1.7,1.7 0 0 1 2.27,0.14 c 2.59,2.64 9,9.26 9.62,10.19 0.73,1.18 1.4,2.57 -0.53,4.47 -1.93,1.9 -6.54,6.06 -8.51,5.88 -1.97,-0.18 -11.56,-9.65 -11.58,-11.77 0,-2.43 4.94,-5.81 4.94,-5.81 a 36.38,36.38 0 0 1 3.79,-3.1 z"
         style="fill:#e0e0e0"
         id="path263" />
      <g
         style="opacity:0.3"
         id="g267">
        <path
           d="m 193.91,151.88 a 8.08,8.08 0 0 0 6,-3.19 5.08,5.08 0 0 0 1.15,-3.17 5,5 0 0 0 -1.5,-3.2 14.65,14.65 0 0 0 -2.88,-2.18"
           id="path265" />
      </g>
      <path
         d="m 195.78,139.61 c 1.77,0.57 4.58,4.36 3.89,6.3 -0.69,1.94 -5.07,5.88 -7,6.42 -1.93,0.54 -5.12,-1.39 -6.79,-2.72 -1.67,-1.33 -1.48,-3.61 -0.11,-5.23 1.37,-1.62 7.87,-5.47 10.01,-4.77 z"
         style="fill:#e0e0e0"
         id="path269" />
      <g
         style="opacity:0.3"
         id="g273">
        <path
           d="m 189.75,141.47 a 2.45,2.45 0 0 1 1.59,1 4,4 0 0 1 0.89,1.85 4.36,4.36 0 0 1 -0.22,2.5 5.41,5.41 0 0 1 -3.2,3.08 2.93,2.93 0 0 1 -1.83,0.21 c 0,-0.09 0.7,-0.1 1.69,-0.55 a 5.51,5.51 0 0 0 2.85,-2.93 4.11,4.11 0 0 0 -0.47,-3.93 c -0.65,-0.9 -1.34,-1.14 -1.3,-1.23 z"
           id="path271" />
      </g>
      <g
         style="opacity:0.3"
         id="g277">
        <path
           d="m 197.09,149 a 7,7 0 0 1 -6,-1.47 c 0.08,-0.13 1.3,0.53 2.94,0.92 1.64,0.39 3.05,0.43 3.06,0.55 z"
           id="path275" />
      </g>
      <g
         style="opacity:0.3"
         id="g281">
        <path
           d="m 203.84,151.28 a 10.74,10.74 0 0 1 -6,-2.71 20.78,20.78 0 0 1 3,1.36 22.19,22.19 0 0 1 3,1.35 z"
           id="path279" />
      </g>
      <g
         style="opacity:0.3"
         id="g285">
        <path
           d="m 217.85,160.83 a 7.54,7.54 0 0 1 -2,-0.89 37.39,37.39 0 0 1 -4.44,-2.83 36.53,36.53 0 0 1 -4,-3.44 A 7.6,7.6 0 0 1 206,152 c 0.12,-0.11 2.46,2.24 5.74,4.67 3.28,2.43 6.18,4.02 6.11,4.16 z"
           id="path283" />
      </g>
      <g
         style="opacity:0.3"
         id="g289">
        <path
           d="m 194.28,110.57 a 4.34,4.34 0 0 1 -0.36,1.78 11.35,11.35 0 0 1 -2.23,3.77 11.21,11.21 0 0 1 -3.48,2.67 4.45,4.45 0 0 1 -1.72,0.57 18.4,18.4 0 0 0 4.81,-3.58 18.58,18.58 0 0 0 2.98,-5.21 z"
           id="path287" />
      </g>
      <g
         style="opacity:0.3"
         id="g293">
        <path
           d="m 198.21,122.57 a 14.47,14.47 0 0 1 -3.79,-2.68 14.22,14.22 0 0 1 -3.14,-3.42 36.81,36.81 0 0 1 3.48,3 39.3,39.3 0 0 1 3.45,3.1 z"
           id="path291" />
      </g>
      <g
         style="opacity:0.3"
         id="g297">
        <path
           d="m 212.52,133.46 a 8.56,8.56 0 0 1 -2,-1.07 38.29,38.29 0 0 1 -4.4,-3.27 36.39,36.39 0 0 1 -3.89,-3.85 8.46,8.46 0 0 1 -1.36,-1.82 c 0.12,-0.11 2.36,2.52 5.59,5.28 3.23,2.76 6.15,4.59 6.06,4.73 z"
           id="path295" />
      </g>
      <g
         style="opacity:0.3"
         id="g301">
        <path
           d="m 225.9,147 a 8.3,8.3 0 0 1 -1.88,-1.25 35,35 0 0 1 -7.4,-8 8.1,8.1 0 0 1 -1.12,-2 c 0.14,-0.08 2,2.8 4.89,5.88 2.89,3.08 5.61,5.26 5.51,5.37 z"
           id="path299" />
      </g>
      <g
         style="opacity:0.3"
         id="g305">
        <path
           d="m 208.82,89.32 a 4.42,4.42 0 0 1 -0.57,1.77 10.37,10.37 0 0 1 -6.9,5.45 4.2,4.2 0 0 1 -1.86,0.13 c 0,-0.08 0.7,-0.16 1.77,-0.49 a 11.85,11.85 0 0 0 6.67,-5.26 11.82,11.82 0 0 1 0.89,-1.6 z"
           id="path303" />
      </g>
      <g
         style="opacity:0.3"
         id="g309">
        <path
           d="m 214.27,104.67 a 32.35,32.35 0 0 1 -5,-4.51 A 32.52,32.52 0 0 1 205,95 a 63.26,63.26 0 0 1 4.72,4.76 64.1,64.1 0 0 1 4.55,4.91 z"
           id="path307" />
      </g>
      <g
         style="opacity:0.3"
         id="g313">
        <path
           d="m 228.86,120.07 a 11.52,11.52 0 0 1 -2.13,-1.63 48.32,48.32 0 0 1 -8.49,-9.71 12.32,12.32 0 0 1 -1.34,-2.33 16.23,16.23 0 0 1 1.64,2.11 c 1,1.33 2.37,3.12 4,5 1.63,1.88 3.24,3.51 4.42,4.65 a 17.47,17.47 0 0 1 1.9,1.91 z"
           id="path311" />
      </g>
      <g
         style="opacity:0.3"
         id="g317">
        <path
           d="m 241.71,136.58 a 70.36,70.36 0 0 1 -5.41,-6.52 70.19,70.19 0 0 1 -5,-6.85 69.76,69.76 0 0 1 5.41,6.53 69.43,69.43 0 0 1 5,6.84 z"
           id="path315" />
      </g>
      <g
         style="opacity:0.3"
         id="g321">
        <path
           d="m 257.1,130.05 a 10.34,10.34 0 0 1 -1.43,-1.9 c -0.82,-1.22 -1.91,-2.92 -3.06,-4.84 -1.15,-1.92 -2.14,-3.68 -2.82,-5 a 10.31,10.31 0 0 1 -1,-2.16 11.35,11.35 0 0 1 1.33,2 l 2.94,4.89 2.94,4.96 a 11.36,11.36 0 0 1 1.1,2.05 z"
           id="path319" />
      </g>
      <g
         style="opacity:0.3"
         id="g325">
        <path
           d="m 247.05,112 a 10.41,10.41 0 0 1 -1.65,-1.94 56.25,56.25 0 0 1 -3.38,-5.12 54.38,54.38 0 0 1 -2.8,-5.46 11.38,11.38 0 0 1 -0.89,-2.38 13.75,13.75 0 0 1 1.22,2.22 c 0.71,1.39 1.72,3.3 2.92,5.36 1.2,2.06 2.37,3.86 3.23,5.17 a 14.42,14.42 0 0 1 1.35,2.15 z"
           id="path323" />
      </g>
      <g
         style="opacity:0.3"
         id="g329">
        <path
           d="m 233.17,78.9 a 3.34,3.34 0 0 1 -0.55,1.68 7.43,7.43 0 0 1 -7.22,3.89 3.45,3.45 0 0 1 -1.71,-0.46 c 0,-0.08 0.67,0.09 1.73,0.1 a 8.38,8.38 0 0 0 3.93,-1 8.12,8.12 0 0 0 3,-2.77 c 0.53,-0.83 0.74,-1.47 0.82,-1.44 z"
           id="path327" />
      </g>
      <g
         style="opacity:0.3"
         id="g333">
        <path
           d="m 235.61,94.33 a 36.64,36.64 0 0 1 -3.2,-5.34 38.15,38.15 0 0 1 -2.75,-5.59 36.64,36.64 0 0 1 3.2,5.34 39.42,39.42 0 0 1 2.75,5.59 z"
           id="path331" />
      </g>
      <g
         style="opacity:0.3"
         id="g337">
        <path
           d="m 280.39,120 a 7.14,7.14 0 0 1 -1.07,1.74 19,19 0 0 1 -3.34,3.66 10.09,10.09 0 0 1 -4.48,2.15 4.09,4.09 0 0 1 -2.06,0 c 0,-0.09 0.79,0 2,-0.35 a 11.18,11.18 0 0 0 4.23,-2.2 24.73,24.73 0 0 0 3.37,-3.48 8.9,8.9 0 0 1 1.35,-1.52 z"
           id="path335" />
      </g>
      <g
         style="opacity:0.3"
         id="g341">
        <path
           d="m 281.19,140.24 a 59.55,59.55 0 0 1 -4.1,-6.64 58,58 0 0 1 -3.65,-6.9 58.42,58.42 0 0 1 4.1,6.64 58,58 0 0 1 3.65,6.9 z"
           id="path339" />
      </g>
      <g
         style="opacity:0.3"
         id="g345">
        <path
           d="m 283.46,160.31 a 16.54,16.54 0 0 1 0.1,-2.49 53.18,53.18 0 0 0 0,-6 51.44,51.44 0 0 0 -0.73,-5.93 15.39,15.39 0 0 1 -0.4,-2.46 9.32,9.32 0 0 1 0.76,2.38 34.7,34.7 0 0 1 0.73,12 9.17,9.17 0 0 1 -0.46,2.5 z"
           id="path343" />
      </g>
      <g
         style="opacity:0.3"
         id="g349">
        <path
           d="m 236.49,162.7 a 8.61,8.61 0 0 1 0,-2.17 c 0.08,-1.34 0.25,-3.18 0.52,-5.2 0.27,-2.02 0.58,-3.85 0.85,-5.16 a 8.8,8.8 0 0 1 0.54,-2.1 c 0.15,0 -0.34,3.29 -0.87,7.33 -0.53,4.04 -0.9,7.31 -1.04,7.3 z"
           id="path347" />
      </g>
      <g
         style="opacity:0.3"
         id="g353">
        <path
           d="m 240.65,158 a 27.7,27.7 0 0 1 0.39,-5.33 27.52,27.52 0 0 1 0.92,-5.28 28.3,28.3 0 0 1 -0.4,5.34 27.81,27.81 0 0 1 -0.91,5.27 z"
           id="path351" />
      </g>
      <g
         style="opacity:0.3"
         id="g357">
        <path
           d="m 263.59,201.8 a 1.37,1.37 0 0 1 -0.16,-0.37 c -0.09,-0.25 -0.23,-0.61 -0.37,-1.09 a 28.79,28.79 0 0 1 -0.92,-4.16 32.55,32.55 0 0 1 7.68,-26.18 29.56,29.56 0 0 1 3,-3 c 0.37,-0.33 0.69,-0.56 0.9,-0.72 0.21,-0.16 0.32,-0.24 0.34,-0.22 a 13.11,13.11 0 0 1 -1.11,1.09 39.26,39.26 0 0 0 -2.87,3.09 33.72,33.72 0 0 0 -7.59,25.9 35.93,35.93 0 0 0 0.75,4.15 10.33,10.33 0 0 1 0.35,1.51 z"
           id="path355" />
      </g>
      <rect
         x="4.6406369"
         y="258.55817"
         width="1.01"
         height="3.6800001"
         rx="0.47"
         transform="rotate(-53.59)"
         style="fill:#cc071e"
         id="rect359" />
      <rect
         x="49.820038"
         y="254.2274"
         width="1.01"
         height="3.6800001"
         rx="0.47"
         transform="rotate(-47.76)"
         style="fill:#cc071e"
         id="rect361" />
      <rect
         x="105.94684"
         y="245.71803"
         width="1.01"
         height="3.6800001"
         rx="0.47"
         transform="rotate(-39.47)"
         style="fill:#cc071e"
         id="rect363" />
      <rect
         x="79.715065"
         y="218.599"
         width="1.01"
         height="3.6800001"
         rx="0.47"
         transform="rotate(-45.88)"
         style="fill:#cc071e"
         id="rect365" />
      <rect
         x="164.54602"
         y="227.4274"
         width="1.0134785"
         height="3.6926742"
         rx="0.47161871"
         transform="rotate(-29.886527)"
         style="fill:#cc071e;stroke-width:1.00344"
         id="rect367" />
      <path
         d="m 247.05,99.09 a 0.61,0.61 0 0 1 -0.61,0.61 0.61,0.61 0 1 1 0.61,-0.61 z"
         style="fill:#cc071e"
         id="path369" />
      <path
         d="m 248.26,100.66 a 0.61,0.61 0 0 1 -0.61,0.61 0.61,0.61 0 0 1 0,-1.22 0.61,0.61 0 0 1 0.61,0.61 z"
         style="fill:#cc071e"
         id="path371" />
      <path
         d="m 212.33,93.45 a 0.61,0.61 0 1 1 -0.67,-0.53 0.61,0.61 0 0 1 0.67,0.53 z"
         style="fill:#cc071e"
         id="path373" />
      <path
         d="m 197.48,114.71 a 0.62,0.62 0 0 1 -0.61,0.61 0.61,0.61 0 0 1 -0.61,-0.61 0.61,0.61 0 0 1 0.61,-0.61 0.61,0.61 0 0 1 0.61,0.61 z"
         style="fill:#cc071e"
         id="path375" />
      <path
         d="m 274.79,149.55 a 3.11,3.11 0 0 1 -0.45,0.32 l -1.35,0.85 -5,3.08 c -4.17,2.62 -9.88,6.34 -16,10.69 -6.12,4.35 -11.51,8.54 -15.35,11.62 l -4.54,3.68 -1.24,1 a 2.78,2.78 0 0 1 -0.46,0.32 2.4,2.4 0 0 1 0.39,-0.4 l 1.18,-1.07 c 1,-0.92 2.54,-2.22 4.43,-3.8 3.79,-3.16 9.15,-7.39 15.29,-11.76 6.14,-4.37 11.89,-8 16.12,-10.58 2.11,-1.28 3.84,-2.28 5.05,-3 l 1.39,-0.76 a 1.9,1.9 0 0 1 0.54,-0.19 z"
         style="fill:#455a64"
         id="path377" />
    </g>
    <path
       d="m 308.73,293.73 c -3.43,3.38 -8.52,3.39 -13,3.62 -4.13,0.21 -9.23,0.7 -12,4.25 -2.77,3.55 -0.07,7.49 3.74,8.56 4.51,1.27 9,-0.93 12.91,-3 4.5,-2.44 10.43,-5.53 15.21,-1.94 0.64,0.48 1.26,-0.6 0.63,-1.08 -3.06,-2.3 -7.2,-2.12 -10.65,-0.87 -4.27,1.54 -7.91,4.54 -12.35,5.63 a 9.52,9.52 0 0 1 -7.09,-0.61 c -2.24,-1.32 -3,-3.84 -1.36,-6 2.9,-3.67 8.59,-3.59 12.81,-3.79 4.22,-0.2 8.84,-0.76 12,-3.9 a 0.63,0.63 0 0 0 -0.89,-0.88 z"
       style="fill:#263238"
       id="path145" />
  </g>
  <path
     d="m 293.22,381 c 8.42,6.75 19.94,7.9 30.09,4.89 10.65,-3.17 19.12,-11 25,-20.24 a 75.48,75.48 0 0 0 7.95,-17.38 c 0.25,-0.76 -1,-1.09 -1.21,-0.33 -3.28,10.25 -8.48,20.16 -16.41,27.58 -7.66,7.15 -17.84,11.33 -28.4,10.63 a 28.72,28.72 0 0 1 -16.12,-6 c -0.62,-0.5 -1.51,0.38 -0.88,0.88 z"
     style="fill:#263238"
     id="path147" />
  <path
     d="m 303.19,372 a 45.06,45.06 0 0 0 34,6.85 44.42,44.42 0 0 0 34.31,-35.47 c 0.14,-0.78 -1.06,-1.12 -1.2,-0.33 a 43.72,43.72 0 0 1 -16.47,26.9 42.42,42.42 0 0 1 -32,8 43,43 0 0 1 -18.07,-7.07 c -0.67,-0.46 -1.29,0.62 -0.63,1.08 z"
     style="fill:#263238"
     id="path149" />
  <polygon
     points="313.33,297.48 299.22,313.59 306.38,340.67 337.3,356.52 351.25,349.56 "
     style="fill:#263238"
     id="polygon153" />
  <circle
     cx="305.84659"
     cy="355.91183"
     r="42.860001"
     transform="rotate(-8.2)"
     style="fill:#e0e0e0"
     id="circle155" />
  <path
     d="m 381.05,321 c 0,0 0.05,-0.16 0.16,-0.47 l 0.49,-1.35 0.38,-1 c 0.12,-0.37 0.21,-0.79 0.33,-1.23 a 22.3,22.3 0 0 0 0.7,-3.11 29.22,29.22 0 0 0 0.21,-8.71 30.4,30.4 0 0 0 -3.52,-10.93 30,30 0 0 0 -9.28,-10.3 27,27 0 0 0 -3.3,-1.95 c -0.58,-0.29 -1.15,-0.61 -1.76,-0.87 l -1.86,-0.72 c -0.31,-0.12 -0.62,-0.26 -0.94,-0.35 l -1,-0.27 c -0.66,-0.17 -1.31,-0.38 -2,-0.53 a 33,33 0 0 0 -4.14,-0.56 32.15,32.15 0 0 0 -4.28,0 c -0.72,0.05 -1.44,0.17 -2.17,0.26 a 14.41,14.41 0 0 0 -2.16,0.4 33.39,33.39 0 0 0 -4.3,1.25 34.46,34.46 0 0 0 -4.11,2 29.21,29.21 0 0 0 -7.31,5.81 29.83,29.83 0 0 0 -7.74,17.32 29,29 0 0 0 0.54,9.31 34,34 0 0 0 1.27,4.39 33.31,33.31 0 0 0 1.93,4 14.93,14.93 0 0 0 1.14,1.88 c 0.42,0.6 0.82,1.21 1.26,1.79 a 31.08,31.08 0 0 0 2.87,3.17 32.33,32.33 0 0 0 3.18,2.71 c 0.56,0.41 1.15,0.76 1.72,1.13 l 0.85,0.55 c 0.29,0.18 0.59,0.31 0.89,0.47 l 1.78,0.91 c 0.59,0.28 1.22,0.49 1.82,0.73 a 27.56,27.56 0 0 0 3.65,1.16 30.29,30.29 0 0 0 24.36,-4.63 29.09,29.09 0 0 0 6.35,-6 21,21 0 0 0 1.85,-2.6 c 0.25,-0.39 0.5,-0.74 0.7,-1.07 l 0.49,-0.94 c 0.29,-0.55 0.51,-1 0.68,-1.27 0.17,-0.27 0.24,-0.43 0.24,-0.43 0,0 -0.06,0.15 -0.2,0.45 l -0.63,1.3 -0.47,1 c -0.19,0.34 -0.43,0.7 -0.68,1.1 a 21.41,21.41 0 0 1 -1.82,2.63 28.8,28.8 0 0 1 -6.34,6.07 30.52,30.52 0 0 1 -24.63,4.81 28.36,28.36 0 0 1 -3.71,-1.16 c -0.61,-0.25 -1.24,-0.46 -1.85,-0.74 l -1.81,-0.91 c -0.3,-0.16 -0.61,-0.3 -0.9,-0.48 l -0.87,-0.56 c -0.58,-0.37 -1.18,-0.73 -1.74,-1.14 a 32.17,32.17 0 0 1 -3.24,-2.74 31,31 0 0 1 -2.93,-3.22 c -0.45,-0.59 -0.85,-1.21 -1.28,-1.82 a 16,16 0 0 1 -1.17,-1.91 28.34,28.34 0 0 1 -3.26,-8.56 29.71,29.71 0 0 1 -0.56,-9.48 30.28,30.28 0 0 1 7.88,-17.61 29.38,29.38 0 0 1 7.44,-5.9 33.41,33.41 0 0 1 4.18,-2 35,35 0 0 1 4.37,-1.27 15.17,15.17 0 0 1 2.2,-0.4 c 0.74,-0.09 1.47,-0.21 2.2,-0.26 a 30.16,30.16 0 0 1 4.36,0 30.54,30.54 0 0 1 4.2,0.58 c 0.68,0.15 1.35,0.36 2,0.53 l 1,0.28 c 0.33,0.1 0.64,0.24 1,0.36 l 1.88,0.73 c 0.62,0.27 1.19,0.6 1.78,0.89 a 28.3,28.3 0 0 1 3.34,2 30.45,30.45 0 0 1 12.84,21.56 28.65,28.65 0 0 1 -0.29,8.77 21.4,21.4 0 0 1 -0.75,3.12 c -0.13,0.45 -0.23,0.86 -0.36,1.23 l -0.4,1 -0.54,1.34 c -0.13,0.27 -0.21,0.46 -0.21,0.46 z"
     style="fill:#263238"
     id="path157" />
  <circle
     cx="-49.642704"
     cy="466.66144"
     r="11.84"
     transform="rotate(-54.94)"
     style="fill:#263238"
     id="circle159" />
  <path
     d="m 361.22,312.15 a 8.5,8.5 0 1 1 -4.29,-11.23 8.51,8.51 0 0 1 4.29,11.23 z"
     style="fill:#cc071e"
     id="path161" />
  <path
     d="m 379.76,293.65 a 2.17,2.17 0 0 1 0.35,-0.37 l 1.07,-1 4,-3.58 v 0.23 a 34.55,34.55 0 0 0 -11.55,-11.62 50.09,50.09 0 0 0 -17.39,-6.64 h -0.16 v -0.15 c 0.18,-1.57 0.33,-2.84 0.44,-3.8 a 7.39,7.39 0 0 1 0.22,-1.34 8.2,8.2 0 0 1 -0.05,1.36 c -0.07,1 -0.17,2.24 -0.29,3.81 l -0.14,-0.18 a 45,45 0 0 1 7.95,2 46.34,46.34 0 0 1 9.68,4.56 33.71,33.71 0 0 1 11.6,11.88 l 0.07,0.14 -0.11,0.09 -4.12,3.45 -1.14,0.92 c -0.27,0.16 -0.42,0.26 -0.43,0.24 z"
     style="fill:#263238"
     id="path163" />
  <path
     d="m 393.52,323.37 a 1.53,1.53 0 0 1 -0.39,-0.13 l -1.13,-0.44 -4,-1.74 0.22,-0.09 -1.69,4 a 22,22 0 0 1 -1.19,2.22 c -0.44,0.75 -0.86,1.56 -1.36,2.36 a 37.73,37.73 0 0 1 -8.54,9.09 36.27,36.27 0 0 1 -11.44,5.65 34,34 0 0 1 -9.54,1.5 h -0.15 v -0.15 c 0,-1.72 0,-3.1 -0.06,-4.12 0,-0.44 0,-0.8 0,-1.09 a 1.88,1.88 0 0 1 0,-0.38 1.28,1.28 0 0 1 0.06,0.37 c 0,0.3 0,0.66 0.07,1.09 0.05,1 0.12,2.4 0.2,4.12 l -0.15,-0.15 a 35.5,35.5 0 0 0 9.4,-1.63 36.7,36.7 0 0 0 11.26,-5.67 38.17,38.17 0 0 0 8.46,-8.93 c 0.5,-0.78 0.93,-1.58 1.37,-2.32 a 21.63,21.63 0 0 0 1.2,-2.18 c 0.65,-1.43 1.24,-2.74 1.76,-3.9 l 0.07,-0.15 0.14,0.06 4,1.88 1.06,0.52 c 0.26,0.12 0.38,0.19 0.37,0.21 z"
     style="fill:#263238"
     id="path165" />
  <path
     d="m 323.78,339.05 a 12,12 0 0 1 0.85,-1.14 l 2.49,-3.11 v 0.21 a 30.79,30.79 0 0 1 -6.1,-7.22 33.79,33.79 0 0 1 -4.37,-11.74 44.69,44.69 0 0 1 -0.47,-11.58 45.15,45.15 0 0 1 1.62,-8.93 l 0.05,-0.15 H 318 l 4.84,1.08 1.29,0.31 a 1.71,1.71 0 0 1 0.44,0.13 1.53,1.53 0 0 1 -0.45,0 l -1.31,-0.22 -4.88,-0.93 0.2,-0.11 a 47,47 0 0 0 -1.48,8.87 45.5,45.5 0 0 0 0.52,11.44 34.19,34.19 0 0 0 4.25,11.6 32.28,32.28 0 0 0 5.9,7.23 l 0.12,0.11 -0.1,0.11 -2.6,3 a 7.49,7.49 0 0 1 -0.96,1.04 z"
     style="fill:#263238"
     id="path167" />
  <path
     d="m 390.7,312.37 -1,-0.15 c 1.31,-8.73 -2.47,-16.88 -2.51,-17 l 0.9,-0.42 a 33.75,33.75 0 0 1 2.61,17.57 z"
     style="fill:#cc071e"
     id="path169" />
  <path
     d="m 325.4,289.65 a 1.82,1.82 0 1 1 -1.82,-1.82 1.82,1.82 0 0 1 1.82,1.82 z"
     style="fill:#cc071e"
     id="path171" />
  <circle
     cx="327.51999"
     cy="284.54999"
     r="1.8200001"
     style="fill:#cc071e"
     id="circle173" />
  <path
     d="m 334.26,280.08 a 1.83,1.83 0 1 1 -1.83,-1.82 1.82,1.82 0 0 1 1.83,1.82 z"
     style="fill:#cc071e"
     id="path175" />
  <path
     d="m 240.31,344.45 66.08,-40.2 c 0,0 -4.83,17.85 7.53,33.5 12.2,15.45 25,18.84 25,18.84 l -64.07,41 a 58.69,58.69 0 0 0 -11.4,-33.27 c -11.97,-16.39 -23.14,-19.87 -23.14,-19.87 z"
     style="fill:#e0e0e0"
     id="path177" />
  <path
     d="m 318.59,343.09 -0.21,0.16 -0.65,0.45 -2.51,1.68 -9.29,6.08 -13.81,9 -4,2.59 a 11.18,11.18 0 0 1 -4.6,2 9.83,9.83 0 0 1 -9.43,-3.86 10.15,10.15 0 0 1 -1.3,-2.4 10.41,10.41 0 0 1 -0.58,-2.63 9.75,9.75 0 0 1 4.34,-8.89 c 1.38,-0.87 2.75,-1.66 4.08,-2.47 l 14.12,-8.47 9.55,-5.67 2.6,-1.52 0.69,-0.38 a 0.92,0.92 0 0 1 0.24,-0.11 l -0.21,0.16 -0.66,0.43 -2.56,1.6 -9.46,5.81 -14.06,8.56 c -1.32,0.81 -2.69,1.61 -4.05,2.48 a 9.13,9.13 0 0 0 -3.16,3.58 9.28,9.28 0 0 0 9.77,13.28 10.81,10.81 0 0 0 4.42,-1.92 l 4,-2.57 13.87,-8.87 9.38,-5.94 2.56,-1.6 0.68,-0.4 q 0.23,-0.17 0.24,-0.16 z"
     style="fill:#ffffff"
     id="path179" />
  <path
     d="m 293,386 a 3.73,3.73 0 0 1 0.19,-0.91 c 0.18,-0.65 0.41,-1.49 0.69,-2.53 l 2.57,-9 v -0.08 h 0.07 l 11,-7.3 c 6,-4 11.47,-7.54 15.43,-10.11 1.94,-1.24 3.54,-2.25 4.71,-3 l 1.3,-0.79 a 1.78,1.78 0 0 1 0.47,-0.25 2.08,2.08 0 0 1 -0.41,0.33 l -1.25,0.88 -4.62,3.15 c -3.91,2.64 -9.34,6.26 -15.35,10.23 l -11,7.24 0.09,-0.12 c -1.12,3.64 -2.06,6.7 -2.75,8.93 -0.33,1 -0.6,1.86 -0.8,2.5 A 6.56,6.56 0 0 1 293,386 Z"
     style="fill:#263238"
     id="path181" />
  <path
     d="m 250.05,350.19 a 11.72,11.72 0 0 1 1.42,-1 l 4,-2.62 c 3.38,-2.19 8.07,-5.2 13.27,-8.48 l 7.66,-4.82 -0.1,0.14 c 0.91,-3.73 1.7,-6.91 2.27,-9.26 l 0.69,-2.63 a 6.33,6.33 0 0 1 0.29,-0.93 4,4 0 0 1 -0.14,1 c -0.15,0.7 -0.33,1.58 -0.56,2.66 l -2.09,9.31 v 0.09 l -0.08,0.06 -7.68,4.8 c -5.2,3.28 -9.92,6.24 -13.36,8.35 -1.66,1 -3,1.85 -4.08,2.48 a 10.92,10.92 0 0 1 -1.51,0.85 z"
     style="fill:#263238"
     id="path183" />
  <path
     d="m 281.4775,355.71 -0.2016,-0.2988 a 2.8135103,2.8135103 0 0 1 0.7587,-3.9059 l 9.2877,-6.2664 a 2.8135103,2.8135103 0 0 1 3.9059,0.7587 l 0.2016,0.2988 a 2.8034978,2.8034978 0 0 1 -0.756,3.892 l -9.2794,6.2608 a 2.8034978,2.8034978 0 0 1 -3.892,-0.756 z"
     style="fill:#cc071e;stroke-width:1.00125"
     id="path379" />
</svg>
