<svg id="ewraTROWXBH1" xmlns="http://www.w3.org/2000/svg" xmlns:xlink="http://www.w3.org/1999/xlink" viewBox="0 0 500 500" shape-rendering="geometricPrecision" text-rendering="geometricPrecision"><g><path d="M484.55,117.54c0,.15-17.25.26-38.52.26s-38.52-.11-38.52-.26s17.24-.26,38.52-.26s38.52.12,38.52.26Z" fill="#e0e0e0"/><path d="M335,452.94c0,0-.17-.12-.47-.38l-1.36-1.15-5.17-4.49-19-16.56-62.55-54.79-53.25-46.81-.07-.06v-.09c0-14.24.07-25.91.09-34c0-4.05,0-7.21,0-9.38c0-1.06,0-1.88,0-2.45s0-.84,0-.84s0,.29,0,.84s0,1.39,0,2.45c0,2.17,0,5.33,0,9.38c0,8.13.05,19.8.09,34l-.07-.16l53.33,46.73l62.44,54.9l18.89,16.69l5.12,4.56l1.32,1.19Z" fill="#e0e0e0"/><circle r="1.99" transform="translate(250.33 228.37)" fill="#e0e0e0"/><circle r="1.99" transform="translate(250.33 261.67)" fill="#e0e0e0"/><path d="M81.19,278.26c0,0,.31,0,.91,0h2.67h10.35l38.59-.07L265.87,278l-.25.25c0-18.47,0-38.11,0-58.32c0-69.29.06-131.8.08-175.7l.18.18-49.36-.08-13.33-.05h-3.46-1.17c0,0,.4,0,1.17,0h3.46h13.33l49.36-.08h.18v.18c0,43.9.05,106.41.08,175.7v58.57h-.26l-132.16-.09-38.59-.07-10.35-.05h-2.67Z" fill="#e0e0e0"/><path d="M126.69,475.64c0,0,0-.39,0-1.15s0-1.9,0-3.38c0-3,0-7.37-.06-13c0-11.29,0-27.6-.08-47.73l.06.14L81,365.05v-.05-.1c0-20.94,0-43.89,0-67.84c0-50.27,0-96.16.07-130.51l.11.17L37,145.53l-12-5.79-3.12-1.53c-.71-.34-1.06-.53-1.06-.53s.37.15,1.08.48l3.1,1.47l12.06,5.71l44.21,21l.11.06v.12c0,34.35,0,80.24.06,130.51c0,23.95,0,46.9,0,67.84l-.08-.17l45.47,45.53v.06.08c0,20.13-.06,36.44-.08,47.73c0,5.63,0,10,0,13c0,1.48,0,2.61,0,3.38s-.06,1.16-.06,1.16Z" fill="#e0e0e0"/><circle r="1.99" transform="translate(113.51 428.01)" fill="#e0e0e0"/><circle r="1.99" transform="translate(113.51 461.31)" fill="#e0e0e0"/><circle r="1.99" transform="translate(65.1 312.29)" fill="#e0e0e0"/><circle r="1.99" transform="translate(65.1 345.6)" fill="#e0e0e0"/><path d="M67.09,245c0,1.104569-.895431,2-2,2s-2-.895431-2-2s.895431-2,2-2s2,.895431,2,2Z" fill="#e0e0e0"/><circle r="1.99" transform="translate(65.1 278.33)" fill="#e0e0e0"/><circle r="1.99" transform="translate(65.1 177.75)" fill="#e0e0e0"/><circle r="1.99" transform="translate(65.1 211.06)" fill="#e0e0e0"/><path d="M362,6.78c0,0,0,.39,0,1.15s0,1.91,0,3.38c0,3,0,7.37.05,13c0,11.29.05,27.61.09,47.73l-.06-.13c12.95,12.92,28.46,28.4,45.54,45.46l.07.07v.1c0,21,0,43.89,0,67.84c0,50.28,0,96.16-.07,130.51l-.11-.17l44.13,21.17l12,5.8l3.12,1.52c.71.34,1.06.53,1.06.53s-.37-.15-1.08-.48l-3.15-1.47-12.06-5.7-44.21-21-.11-.05v-.13c0-34.35,0-80.23-.06-130.51c0-23.95,0-46.89,0-67.84l.07.18-45.35-45.56-.06-.06v-.12c0-20.12.07-36.44.09-47.73c0-5.63,0-10,.05-13c0-1.47,0-2.6,0-3.38s.05-1.11.05-1.11Z" fill="#e0e0e0"/><circle r="1.99" transform="translate(375.19 54.42)" fill="#e0e0e0"/><path d="M373.19,21.11c0-1.104569.895431-2,2-2s2,.895431,2,2-.895431,2-2,2-2-.895431-2-2Z" fill="#e0e0e0"/><circle r="1.99" transform="translate(279.64 94)" fill="#e0e0e0"/><path d="M277.65,60.69c0-1.104569.895431-2,2-2s2,.895431,2,2-.895431,2-2,2-2-.895431-2-2Z" fill="#e0e0e0"/><circle r="1.99" transform="translate(279.64 153.48)" fill="#e0e0e0"/><path d="M277.65,120.18c0-1.104569.895431-2,2-2s2,.895431,2,2-.895431,2-2,2-2-.895431-2-2Z" fill="#e0e0e0"/><path d="M421.61,170.13c0-1.104569.895431-2,2-2s2,.895431,2,2-.895431,2-2,2-2-.895431-2-2Z" fill="#e0e0e0"/><path d="M421.61,136.83c0-1.104569.895431-2,2-2s2,.895431,2,2-.895431,2-2,2-2-.895431-2-2Z" fill="#e0e0e0"/><path d="M421.61,237.4c0-1.104569.895431-2,2-2s2,.895431,2,2-.895431,2-2,2-2-.895431-2-2Z" fill="#e0e0e0"/><path d="M421.61,204.1c0-1.104569.895431-2,2-2s2,.895431,2,2-.895431,2-2,2-2-.895431-2-2Z" fill="#e0e0e0"/><path d="M421.61,304.67c0-1.104569.895431-2,2-2s2,.895431,2,2-.895431,2-2,2-2-.895431-2-2Z" fill="#e0e0e0"/><path d="M421.61,271.37c0-1.104569.895431-2,2-2s2,.895431,2,2-.895431,2-2,2-2-.895431-2-2Z" fill="#e0e0e0"/><circle r="1.99" transform="translate(182.81 25.7)" fill="#e0e0e0"/><path d="M184.8,59c0,1.104569-.895431,2-2,2s-2-.895431-2-2s.895431-2,2-2s2,.895431,2,2Z" fill="#e0e0e0"/><path d="M54.25,89.51c-.322481.746527-1.064868,1.223472-1.877891,1.206447s-1.534793-.52463-1.825741-1.284002-.093138-1.619306.500365-2.17523s1.46452-.697141,2.203267-.357215c.986811.45407,1.430767,1.612796,1,2.61Z" fill="#e0e0e0"/><path d="M41,120.08c-.325394.743962-1.068307,1.217342-1.880087,1.197979s-1.531279-.527624-1.820832-1.286254-.091682-1.617033.500752-2.172356s1.461827-.697326,2.200167-.359369c.992339.454219,1.437334,1.620104,1,2.62Z" fill="#e0e0e0"/><path d="M197.33,7.27c0,0,0,.39,0,1.14s0,1.89,0,3.35c0,2.94,0,7.24.06,12.71c0,11,0,26.64.09,45.51v.22h-.22-71.35-48.58l.22-.14c-10.64,22.67-19.73,42-26.15,55.7-3.23,6.82-5.78,12.23-7.54,16l-2,4.23c-.22.47-.4.83-.53,1.09s-.19.36-.19.36s0-.13.16-.38.28-.63.49-1.1c.45-1,1.11-2.42,2-4.27l7.42-16c6.38-13.72,15.41-33.08,26-55.78l.06-.14h.16h48.58h71.35l-.22.22c0-18.87.07-34.54.09-45.51c0-5.47.05-9.77.06-12.71c0-1.46,0-2.57,0-3.35s.04-1.15.04-1.15Z" fill="#e0e0e0"/><path d="M195.86,66.75c-.11.11-.39,0-.64-.26s-.37-.54-.26-.64.38,0,.63.27.41.53.27.63Z" fill="#e0e0e0"/><path d="M202.27,317.7c0-1.104569.895431-2,2-2s2,.895431,2,2-.895431,2-2,2-2-.895431-2-2Z" fill="#e0e0e0"/><path d="M202.27,290.79c0-1.104569.895431-2,2-2s2,.895431,2,2-.895431,2-2,2-2-.895431-2-2Z" fill="#e0e0e0"/><path d="M437.16,382.93c0-1.104569.895431-2,2-2s2,.895431,2,2-.895431,2-2,2-2-.895431-2-2Z" fill="#e0e0e0"/><path d="M437.16,356c0-1.104569.895431-2,2-2s2,.895431,2,2-.895431,2-2,2-2-.895431-2-2Z" fill="#e0e0e0"/><path d="M355.1,452.86c.758275-.286765,1.614653-.087421,2.168336.504737s.695134,1.459978.35815,2.197309-1.085733,1.198304-1.895824,1.167174-1.521256-.548203-1.800662-1.30922c-.378087-1.029797.143914-2.171954,1.17-2.56Z" fill="#e0e0e0"/><path d="M380.31,443.45c.758275-.286765,1.614653-.087421,2.168336.504737s.695134,1.459978.35815,2.197309-1.085733,1.198304-1.895824,1.167174-1.521256-.548203-1.800662-1.30922c-.378087-1.029797.143914-2.171954,1.17-2.56Z" fill="#e0e0e0"/><path d="M403.78,433.27c.757678-.285038,1.612462-.085225,2.16527.506152s.694607,1.457676.359193,2.19444-1.081884,1.198676-1.8909,1.170079-1.521008-.542063-1.803563-1.300671c-.384647-1.032704.138561-2.181973,1.17-2.57Z" fill="#e0e0e0"/><path d="M429,423.86c.758275-.286765,1.614653-.087421,2.168336.504737s.695134,1.459978.35815,2.197309-1.085733,1.198304-1.895824,1.167174-1.521256-.548203-1.800662-1.30922c-.378087-1.029797.143914-2.171954,1.17-2.56Z" fill="#e0e0e0"/><path d="M333.5,471.1c0,0,0-.09,0-.28s0-.47,0-.83c0-.75,0-1.84,0-3.24c0-2.87,0-7-.07-12.34v-.09h.09l81.22-35.52l33.19-14.45-.15.22c.14-20.2.27-37.48.35-49.73.06-6.1.11-10.95.15-14.3c0-1.64,0-2.92.06-3.8c0-.42,0-.75,0-1-.013104-.10961-.013104-.22039,0-.33s0,.11,0,.33s0,.57,0,1c0,.88,0,2.16,0,3.8c0,3.35,0,8.2,0,14.3c0,12.25-.09,29.53-.16,49.74v.16l-.15.06-33.18,14.47-81.31,35.31.08-.13c0,5.3-.05,9.47-.06,12.34c0,1.4,0,2.49,0,3.24c0,.36,0,.63,0,.83-.008046.082523-.028265.1634-.06.24Z" fill="#e0e0e0"/><path d="M363.6,44.24c0,.14-22.09.26-49.34.26s-49.33-.12-49.33-.26s22.07-.24,49.33-.24s49.34.1,49.34.24Z" fill="#e0e0e0"/><path d="M406.47,168.14c0,.14-31.48.26-70.3.26s-70.3-.12-70.3-.26s31.47-.26,70.3-.26s70.3.12,70.3.26Z" fill="#e0e0e0"/><path d="M265.87,209.06c-.143019.013428-.286981.013428-.43,0h-1.27-4.9l-18,.09-59.38.07h-8.37l.24-.15c-8.56,19.45-16.16,36.74-21.64,49.2L145.62,273c-.76,1.7-1.36,3-1.78,4l-.47,1c-.051652.11756-.111811.231195-.18.34s0-.13.13-.36l.43-1l1.7-4c1.5-3.48,3.67-8.49,6.35-14.71c5.45-12.48,13-29.79,21.49-49.27l.07-.16h8.54l59.38.08l18,.08h4.9h1.27Z" fill="#e0e0e0"/></g><g><path d="M450.89,480c0,.15-89.95.26-200.88.26s-200.9-.11-200.9-.26s89.93-.26,200.9-.26s200.88.1,200.88.26Z" fill="#263238"/></g><rect width="16.08" height="8.16" rx="0" ry="0" transform="translate(137.56 463.14)" fill="#e0e0e0"/><rect width="16.08" height="8.16" rx="0" ry="0" transform="translate(272.22 463.14)" fill="#e0e0e0"/><path d="M166,402.16c-4.556154.155691-8.822344,2.274201-11.7,5.81-3.215469,3.954681-4.958035,8.903142-4.93,14-.1,5.73,1.4,11.4,3.39,16.72c4.012523,10.713564,10.526695,20.313396,19,28c.6.54,1.48-.34.89-.88-7.42432-6.745824-13.337163-14.986317-17.35-24.18-4-9.2-7.43-21.36-1.72-30.59c2.68-4.33,7.21-7.63,12.43-7.67.314793-.039898.550785-.307688.550785-.625s-.235992-.585102-.550785-.625Z" fill="#263238"/><polygon points="173.82,424.31 177.82,450.7 209.36,465.65 249.31,448.95 253.9,430.08" fill="#263238"/><polygon points="262.14,404.54 277.75,390.5 273.47,363.81 244.54,345.51 230.04,350.78" fill="#263238"/><circle r="53.42" transform="matrix(.14591-.989298 0.989298 0.14591 214.469457 396.591709)" fill="#e0e0e0"/><path d="M194.63,364.61l-.49.37-1.46,1-1.08.76c-.39.3-.78.66-1.22,1L189,369c-.523798.472298-1.021216.973054-1.49,1.5-2.543834,2.606757-4.678052,5.583873-6.33,8.83-2.201567,4.281328-3.559543,8.945976-4,13.74l-.18,2c0,.69,0,1.38,0,2.08s0,1.4.06,2.11.15,1.43.23,2.15l.12,1.1c.08.36.15.72.23,1.08.15.73.3,1.46.45,2.21s.45,1.45.66,2.19c.209799.750926.46357,1.488866.76,2.21.566403,1.484332,1.23466,2.927768,2,4.32.4.71.76,1.44,1.21,2.14l1.41,2c.25.34.47.7.73,1l.82,1c.56.64,1.09,1.31,1.68,1.94c2.474435,2.517461,5.260314,4.708526,8.29,6.52.78.44,1.6.83,2.41,1.25.41.2.81.44,1.24.6l1.28.51c1.735131.685385,3.512041,1.259875,5.32,1.72c1.855511.406998,3.736497.687642,5.63.84l1.44.13h2.9c.484711.013237.969687-.013521,1.45-.08l2.93-.3l2.9-.6c7.889368-1.841679,14.961293-6.20984,20.14-12.44l1.83-2.33l1.59-2.48c.270904-.40157.511568-.822732.72-1.26l.66-1.3.65-1.29.53-1.34c.714155-1.763734,1.305564-3.574716,1.77-5.42.406716-1.818473.687384-3.662859.84-5.52l.13-1.38c0-.45,0-.91,0-1.37c0-.91,0-1.82,0-2.72-.12318-1.781719-.370447-3.55268-.74-5.3-.350375-1.695001-.811361-3.36524-1.38-5-.29-.81-.66-1.58-1-2.37l-.49-1.16c-.18-.39-.4-.74-.59-1.11l-1.2-2.19c-.42-.7-.92-1.36-1.37-2-.911421-1.31836-1.913863-2.571413-3-3.75-.50743-.590614-1.051859-1.148403-1.63-1.67-.57-.52-1.09-1.08-1.67-1.57l-1.77-1.39-.87-.69-.92-.6-1.82-1.17c-.59-.39-1.25-.66-1.87-1s-1.23-.64-1.85-.93l-1.88-.75c-4.493826-1.741308-9.281112-2.600303-14.1-2.53-3.642499.015327-7.261149.588645-10.73,1.7-.677474.185788-1.345011.406075-2,.66l-1.72.72c-.53.23-1,.41-1.46.62l-1.17.63-1.59.84-.55.28c0,0,.18-.12.53-.32l1.56-.89l1.16-.65c.43-.22.93-.42,1.46-.65l1.72-.75c.654543-.260871,1.322095-.487838,2-.68c3.480255-1.148529,7.115483-1.758897,10.78-1.81c4.862789-.095589,9.698193.749928,14.24,2.49l1.91.74c.62.29,1.24.62,1.87.94s1.29.6,1.89,1l1.84,1.18.94.6.88.69l1.79,1.4c.59.49,1.12,1.06,1.69,1.59.58796.524694,1.142385,1.085798,1.66,1.68c1.085415,1.189785,2.087777,2.452761,3,3.78.45.69,1,1.35,1.39,2.06l1.21,2.2c.2.38.43.74.6,1.13l.51,1.18c.32.79.69,1.57,1,2.39.579898,1.66429,1.050893,3.364548,1.41,5.09.371347,1.771305.625233,3.565213.76,5.37.05.91,0,1.83.05,2.76c0,.46,0,.92,0,1.39l-.12,1.39c-.156664,1.883706-.440646,3.754649-.85,5.6-.473724,1.866643-1.068312,3.700511-1.78,5.49l-.54,1.36-.66,1.31-.67,1.31c-.207851.449135-.451994.880566-.73,1.29l-1.6,2.51-1.86,2.36c-5.250937,6.322736-12.425632,10.754681-20.43,12.62l-2.94.6-3,.31c-.487715.058218-.978959.081611-1.47.07h-3l-1.45-.13c-3.79153-.260302-7.514491-1.142056-11.02-2.61l-1.3-.51c-.44-.17-.84-.42-1.25-.62-.82-.43-1.66-.82-2.45-1.27-1.553808-.925872-3.043814-1.954844-4.46-3.08-1.376539-1.089374-2.682501-2.265074-3.91-3.52-.59-.63-1.13-1.31-1.69-2l-.83-1c-.27-.33-.49-.69-.74-1l-1.43-2c-.45-.71-.82-1.45-1.22-2.16-.765576-1.416222-1.433789-2.882951-2-4.39-.300917-.726257-.554775-1.47113-.76-2.23-.22-.75-.48-1.48-.66-2.22s-.3-1.5-.45-2.23c-.08-.37-.15-.74-.23-1.1l-.12-1.11c-.07-.73-.15-1.45-.22-2.17s0-1.43-.06-2.14s0-1.4,0-2.09l.18-2c.475935-4.842647,1.888812-9.546577,4.16-13.85c1.678506-3.255244,3.847132-6.233312,6.43-8.83.478711-.524405.986158-1.021836,1.52-1.49l1.43-1.21c.45-.36.85-.72,1.24-1l1.1-.75l1.49-1c.31-.32.49-.42.49-.42Z" fill="#263238"/><circle r="14.75" transform="matrix(.993211-.116324 0.116324 0.993211 214.446936 396.600057)" fill="#263238"/><circle r="10.59" transform="matrix(.999874-.015882 0.015882 0.999874 214.441848 396.604293)" fill="#cc071e"/><path d="M176.83,393.65c-.200874.067422-.408962.111054-.62.13l-1.8.26-6.64.86.16-.17c-.381171,6.904872.908631,13.799822,3.76,20.1c3.205212,7.109861,7.716679,13.554814,13.3,19l.11.11-.1.11-3.09,3.61-.84.95c-.2.21-.3.31-.32.3.071142-.128023.154891-.248621.25-.36l.77-1l3-3.7v.22c-2.492174-2.315566-4.765161-4.856357-6.79-7.59-2.696361-3.549744-4.968452-7.402566-6.77-11.48-2.886771-6.368187-4.141227-13.355335-3.65-20.33v-.16h.15l6.65-.7l1.82-.16c.215899-.025791.434101-.025791.65,0Z" fill="#263238"/><path d="M183.47,353.39c.117719.122775.218602.260648.3.41l.81,1.22l3,4.66h-.23c3.224777-2.315808,6.695897-4.267684,10.35-5.82c2.300955-.937744,4.66723-1.706449,7.08-2.3c2.651338-.6092,5.352339-.977366,8.07-1.1c5.338113-.214976,10.672497.509363,15.76,2.14c3.846181,1.195785,7.505279,2.92603,10.87,5.14l.12.09-.08.12-2.81,4.3-.76,1.13c-.082514.133799-.17979.257909-.29.37.055605-.148594.129507-.289681.22-.42l.69-1.17c.66-1.06,1.56-2.53,2.69-4.37v.21c-3.368781-2.146003-7.011619-3.827831-10.83-5-7.628612-2.41964-15.763856-2.764792-23.57-1-2.383574.579462-4.72283,1.328024-7,2.24-3.637719,1.516981-7.106626,3.410636-10.35,5.65l-.14.1-.08-.15-2.85-4.74-.73-1.27c-.093322-.138997-.173661-.286285-.24-.44Z" fill="#263238"/><path d="M266.34,386.08c-.136721.069652-.281004.123338-.43.16l-1.25.41-4.75,1.44.1-.19c1.000311,3.818394,1.408399,7.767743,1.21,11.71-.296471,5.233892-1.561197,10.367389-3.73,15.14-3.608959,7.828371-8.897518,14.765978-15.49,20.32l-.13.1-.1-.11-4.26-4.49-1.12-1.22c-.135095-.133639-.255758-.281117-.36-.44.156058.111495.300159.238839.43.38l1.19,1.15l4.36,4.38h-.23c2.838297-2.447157,5.436728-5.159437,7.76-8.1c3.001417-3.725424,5.521279-7.814319,7.5-12.17c2.155777-4.728411,3.423531-9.812988,3.74-15c.240023-3.894817-.096952-7.803723-1-11.6v-.15h.14l4.79-1.3l1.28-.33c.112181-.045323.229871-.075587.35-.09Z" fill="#263238"/><path d="M170.17,386.77l-1-.15c0-.12,1.88-11.5,9.58-19.83l.74.67c-7.49,8.12-9.3,19.2-9.32,19.31Z" fill="#cc071e"/><path d="M230.06,435.86c.706919-1.03399,2.117754-1.299989,3.152653-.594401s1.302714,2.116078.598459,3.151885-2.1144,1.305437-3.151112.602516c-1.035497-.708757-1.303649-2.121026-.6-3.16Z" fill="#cc071e"/><path d="M222.42,438.36c.706919-1.03399,2.117754-1.299989,3.152653-.594401s1.302714,2.116078.598459,3.151885-2.1144,1.305437-3.151112.602516c-1.035497-.708757-1.303649-2.121026-.6-3.16Z" fill="#cc071e"/><path d="M214.23,439.53c.515677-.760195,1.43868-1.134667,2.338245-.948649s1.598348.895853,1.770228,1.798225-.217026,1.819387-.985219,2.323073-1.764227.494745-2.523254-.022649c-1.034253-.705003-1.302663-2.114155-.6-3.15Z" fill="#cc071e"/><rect width="158.98" height="8.68" rx="0" ry="0" transform="translate(131.93 471.31)" fill="#263238"/><path d="M158.57,475.64l10.31-37.07c0,0,14.49,19.15,43.21,18.54s47.63-18.54,47.63-18.54l9.2,37.07Z" fill="#263238"/><path d="M290.9,471.31c0,.14-35.5.26-79.28.26s-79.28-.12-79.28-.26s35.49-.26,79.28-.26s79.28.11,79.28.26Z" fill="#455a64"/><path d="M259.72,438.57c-.045708.075494-.099346.145893-.16.21l-.51.57c-.47.49-1.09,1.28-2,2.14-2.593765,2.53199-5.465312,4.762806-8.56,6.65-4.590252,2.79628-9.534152,4.965543-14.7,6.45-3.048612.874552-6.14769,1.562494-9.28,2.06-3.365936.507106-6.758161.820953-10.16.94-6.602619.173009-13.190956-.701161-19.52-2.59-5.159899-1.514416-10.101236-3.692638-14.7-6.48-3.103868-1.86014-6.029589-4.002544-8.74-6.4-1-.82-1.66-1.56-2.15-2l-.54-.55c-.064541-.055821-.121672-.119673-.17-.19c0,0,.07,0,.2.16l.58.5c.52.43,1.21,1.14,2.21,1.94c2.750273,2.323858,5.694345,4.408127,8.8,6.23c2.140974,1.262902,4.351113,2.404696,6.62,3.42c2.602546,1.140753,5.274529,2.116027,8,2.92c6.273459,1.837464,12.79531,2.684326,19.33,2.51c3.381763-.115296,6.754045-.425814,10.1-.93c3.11038-.482675,6.189185-1.150529,9.22-2c5.139289-1.450736,10.065016-3.572329,14.65-6.31c3.092774-1.846922,5.979184-4.019272,8.61-6.48c1-.83,1.6-1.6,2.09-2.06l.55-.53c.069308-.068851.14651-.12927.23-.18Z" fill="#455a64"/><g id="ewraTROWXBH70" transform="translate(.000014 0.000019)"><g><g><path d="M302.42,107.45c-.11,0-.1-2-.65-5.3-.322159-1.900307-.779997-3.775102-1.37-5.61-.740254-2.251566-1.663328-4.43885-2.76-6.54-1.12262-2.074244-2.406576-4.057019-3.84-5.93-1.193571-1.517161-2.489956-2.950535-3.88-4.29-2.39-2.27-4.1-3.42-4-3.5.428633.214561.834094.472582,1.21.77.469901.310194.923814.643953,1.36,1c.51.42,1.11.87,1.71,1.45c1.444266,1.311605,2.781824,2.736105,4,4.26c1.481642,1.882159,2.796606,3.889739,3.93,6c1.104237,2.12053,2.024285,4.331992,2.75,6.61.580304,1.862831,1.011662,3.76883,1.29,5.7.14.82.18,1.57.24,2.23.0571.56148.083806,1.125637.08,1.69.027681.487776.004219.97711-.07,1.46Z" fill="#263238"/><path d="M317,114.34c-.026473-.205819-.026473-.414181,0-.62c0-.46.07-1,.12-1.78c0-.39.06-.81.09-1.28s0-1,0-1.52c0-1.1.05-2.35-.1-3.72-.05-.69-.1-1.41-.16-2.15s-.21-1.52-.31-2.33c-.18-1.61-.6-3.29-1-5.07-.9661-3.822221-2.305886-7.540126-4-11.1-1.777269-3.532675-3.897461-6.88211-6.33-10-1.18-1.39-2.26-2.74-3.42-3.87-.58-.57-1.09-1.16-1.65-1.67l-1.62-1.43c-.918623-.832718-1.87992-1.61711-2.88-2.35-.44-.33-.83-.65-1.22-.92l-1.07-.71-1.47-1c-.177873-.111202-.345233-.238396-.5-.38.196193.070017.381392.167667.55.29l1.53.91l1.1.67c.4.26.8.58,1.25.9c1.026518.709608,2.011471,1.477537,2.95,2.3L300.47,69c.57.5,1.1,1.09,1.68,1.66c1.229747,1.22852,2.394659,2.520271,3.49,3.87c2.479556,3.122597,4.634045,6.490034,6.43,10.05c1.713366,3.593433,3.05371,7.353099,4,11.22.401976,1.68973.71904,3.398539.95,5.12.09.81.23,1.59.28,2.35s.09,1.48.13,2.17c.064443,1.245834.064443,2.494166,0,3.74c0,.55,0,1.07-.05,1.54s-.1.89-.14,1.28c-.09.73-.16,1.31-.21,1.77.015618.190485.005528.382206-.03.57Z" fill="#263238"/><path d="M177.43,165.09c.1,0,.86,1.87,2.56,4.69c1.006254,1.648113,2.12912,3.22213,3.36,4.71c3.010059,3.647042,6.642961,6.731454,10.73,9.11c1.664374.977521,3.399161,1.829873,5.19,2.55c3,1.23,5.07,1.66,5,1.77-.480574-.046529-.955886-.136905-1.42-.27-.551042-.116455-1.095209-.263346-1.63-.44-.63-.2-1.36-.4-2.13-.72-1.826374-.68096-3.595349-1.506927-5.29-2.47-2.069577-1.201217-4.033312-2.576165-5.87-4.11-1.812224-1.558191-3.485219-3.271337-5-5.12-1.226559-1.516256-2.330067-3.128046-3.3-4.82-.44-.71-.75-1.39-1.05-2-.261264-.500173-.494947-1.014276-.7-1.54-.188667-.432737-.339237-.881102-.45-1.34Z" fill="#263238"/><path d="M161.36,164.07c.086949.187891.160467.38171.22.58.15.44.33,1,.56,1.69.11.38.24.79.38,1.23s.36.91.56,1.42c.42,1,.82,2.19,1.46,3.42l1,1.94c.33.68.75,1.34,1.15,2c.76,1.43,1.77,2.84,2.78,4.35c4.609375,6.446364,10.558782,11.819252,17.44,15.75c1.496518.853676,3.035139,1.63133,4.61,2.33.75.33,1.45.68,2.15.94l2,.74c1.162762.432839,2.347777.803365,3.55,1.11.53.15,1,.3,1.47.41l1.26.26l1.73.38c.20703.028022.409041.085258.6.17-.204813.000135-.409138-.019963-.61-.06l-1.76-.29-1.28-.22c-.46-.09-1-.23-1.49-.37-1.213847-.268259-2.41227-.602082-3.59-1l-2.06-.71c-.71-.26-1.42-.61-2.17-.92-1.595504-.688858-3.154259-1.45989-4.67-2.31-6.999397-3.916267-13.030876-9.353141-17.65-15.91-1-1.53-2-3-2.77-4.41-.39-.72-.81-1.39-1.13-2.07l-.92-2c-.533266-1.128669-1.000715-2.287275-1.4-3.47-.19-.52-.38-1-.52-1.44s-.24-.87-.35-1.25c-.19-.7-.34-1.27-.46-1.72-.054341-.185349-.08459-.376925-.09-.57Z" fill="#263238"/></g><polygon points="367.93,271.95 353.38,256.24 325.7,260.55 306.73,289.65 312.19,304.25" fill="#263238"/><rect width="3.72" height="2.02" rx="0" ry="0" transform="matrix(-.850719 0.52562-.52562-.850719 275.203729 218.500213)" fill="#e0e0e0"/><rect width="20.31" height="18.28" rx="0" ry="0" transform="matrix(-.850719 0.52562-.52562-.850719 293.26584 202.084914)" fill="#263238"/><rect width="23.76" height="4.47" rx="0" ry="0" transform="matrix(-.850719 0.52562-.52562-.850719 296.787204 205.168305)" fill="#263238"/><rect width="37.2632" height="4.73803" rx="0" ry="0" transform="matrix(-.848559 0.529101-.529101-.848559 304.055903 207.127273)" fill="#263238" stroke-width="1.0017"/><rect width="30.31" height="19.21" rx="0" ry="0" transform="matrix(-.850719 0.52562-.52562-.850719 311.776835 224.043092)" fill="#cc071e"/><path d="M292.68,189.39c1.62,4.92,6,7.81,10,10.71c2.319102,1.516842,4.350602,3.433224,6,5.66c1.657286,2.55104,2.384796,5.595284,2.06,8.62-.07.8,1.18.8,1.25,0c.53-5.71-2.26-10.35-6.61-13.8s-9.7-6.09-11.5-11.52c-.25-.76-1.45-.44-1.2.33Z" fill="#263238"/><path d="M276.31,222c-7.465447-3.884959-12.1659-11.584308-12.21-20-.039898-.314793-.307688-.550785-.625-.550785s-.585102.235992-.625.550785c.046668,8.859366,4.982246,16.968639,12.83,21.08.71.37,1.35-.71.63-1.08Z" fill="#263238"/><path d="M305.35,295l-29.49-64.66c9.83,1.69,16.74-.58,17.34-11.35l15.8-10.5l47.6,49.21c-11.958315.958245-23.335769,5.558087-32.6,13.18C308.23,283.7,305.35,295,305.35,295Z" fill="#e0e0e0"/><path d="M299.38,214.9c.072276.061357.136159.131964.19.21l.51.63l1.9,2.46l6.94,9.09l10.22,13.53c1,1.28,1.95,2.58,2.95,3.92c1.117876,1.31313,2.093331,2.741116,2.91,4.26c1.50014,3.467481.877995,7.488091-1.6,10.34-.615837.708917-1.333691,1.322295-2.13,1.82-.779327.50851-1.632803.89308-2.53,1.14-1.755085.499989-3.614915.499989-5.37,0-1.694828-.480158-3.226508-1.413687-4.43-2.7-.559046-.622716-1.064194-1.291787-1.51-2l-1.36-2-9.5-14.05-6.37-9.5-1.71-2.6-.43-.68c-.055552-.072752-.099413-.153726-.13-.24.064721.063077.121782.133563.17.21.13.17.28.39.48.65l1.79,2.55l6.5,9.4l9.59,14l1.37,2c.430898.695106.926428,1.348,1.48,1.95c2.375437,2.521673,5.963941,3.498952,9.29,2.53c1.705128-.502158,3.231557-1.48046,4.4-2.82c2.343939-2.700498,2.938218-6.503107,1.53-9.79-.799889-1.485246-1.748054-2.885716-2.83-4.18l-2.93-3.92-10.14-13.6-6.8-9.19L300,215.8l-.46-.66Z" fill="#fff"/><path d="M344.33,245c-.363988-.007678-.726085-.054616-1.08-.14l-3-.55-10.56-2.07h-.09l-.05-.07c-2.17-2.91-4.65-6.25-7.29-9.78L310.93,217l-3.39-4.71-.9-1.29c-.112888-.149621-.210067-.310469-.29-.48c0,0,.14.13.37.41l1,1.24l3.53,4.61c3,4,7,9.38,11.46,15.34l7.24,9.81-.14-.08l10.53,2.25l3,.67c.334683.054894.665396.131726.99.23Z" fill="#263238"/><path d="M314.6,280.18c0,0-.23-.21-.59-.66s-.86-1.11-1.48-1.94c-1.23-1.66-2.93-4-4.83-6.65l.17.11-1.74-.31c-3.61-.65-6.88-1.26-9.24-1.73-1.18-.23-2.14-.43-2.8-.58-.343547-.052007-.679399-.146045-1-.28.351978-.018136.704832.008748,1.05.08.67.09,1.63.23,2.82.42c2.38.38,5.66.93,9.27,1.58l1.74.31h.1l.06.08c1.89,2.66,3.53,5,4.7,6.75.58.85,1,1.55,1.34,2c.181851.251338.326663.52749.43.82Z" fill="#263238"/><path d="M295.76,210.82c-.12.07-.65-.56-1.18-1.42s-.86-1.61-.74-1.69.65.56,1.18,1.42.86,1.61.74,1.69Z" fill="#455a64"/><path d="M288.94,215.11c-.12.07-.71-.66-1.31-1.64s-1-1.82-.87-1.9.71.65,1.31,1.63.99,1.8.87,1.91Z" fill="#455a64"/><path d="M281.82,219.28c-.12.07-.7-.64-1.29-1.6s-1-1.81-.86-1.88.71.64,1.3,1.6s1.03,1.8.85,1.88Z" fill="#455a64"/><rect width="3.72" height="2.02" rx="0" ry="0" transform="matrix(-.850719 0.52562-.52562-.850719 301.072353 202.526586)" fill="#e0e0e0"/><path d="M302.1,202.08c-.37258.303792-.77073.574802-1.19.81l-3.32,2.05-11,6.71-10.94,6.79-3.32,2.05c-.389034.276846-.80842.508346-1.25.69.353974-.319629.735452-.607411,1.14-.86.76-.53,1.86-1.28,3.24-2.19c2.74-1.82,6.58-4.28,10.86-6.92s8.21-5,11.07-6.59c1.43-.82,2.6-1.47,3.41-1.91.413447-.248775.848554-.459635,1.3-.63Z" fill="#455a64"/><path d="M294.19,201.67c-.895446.686987-1.841467,1.305411-2.83,1.85l-6.95,4.28-6.93,4.3c-.92979.638356-1.905821,1.206594-2.92,1.7.850697-.739616,1.760389-1.408507,2.72-2c1.73-1.18,4.15-2.76,6.86-4.43s5.21-3.14,7-4.15c.971193-.601654,1.991489-1.120165,3.05-1.55Z" fill="#455a64"/><path d="M306.15802,238.14886l.29863-.20105c1.282776-.863612,3.022766-.523814,3.88638.75896l6.24927,9.28239c.866698,1.287354.525692,3.033558-.76166,3.90026l-.29863.20105c-.616011.414724-1.371541.567752-2.100381.425419s-1.371287-.568366-1.786009-1.184379l-6.24927-9.28238c-.418875-.617397-.574027-1.376434-.431029-2.108681s.572319-1.377145,1.192699-1.791589Z" fill="#cc071e"/><polygon points="205.67,144.84 223.79,156.93 218.59,166.53 200.99,153.15" fill="#263238"/><polygon points="247.29,121.73 253.03,136.85 264.22,134.31 261.08,124.82 249.67,104 238.86,88.15 230.67,94.24 238.1,104.83" fill="#263238"/><path d="M223.79,121.68c0,0,15,23.32,15.4,23.09s12.06-6.83,12.06-6.83l-18.42-22.79Z" fill="#263238"/><polygon points="237.38,145.62 215.5,126.83 200.94,115.15 193.59,123.9 208.36,135.21 227.33,154.57" fill="#263238"/><path d="M281.72,156.74c-3.26-.22-6.38-7.63-7.9-10.52-1.74-3.31-3.6-7.74-5.59-10.29l-14.49,5.21c-11.446097,6.132131-21.655452,14.3342-30.11,24.19-.929694.882264-1.535525,2.051659-1.72,3.32.064383,1.12723.476639,2.206781,1.18,3.09c3.424518,5.176345,7.935827,9.54433,13.22,12.8c1.153545.805503,2.491331,1.307603,3.89,1.46c2,.09,3.74-1.06,5.36-2.16L270.47,167c1.69-1.15,21.37,2.55,22.31.73c1.27-2.47.95-10.19-11.06-10.99Z" fill="#263238"/><path d="M287.61,132.27c0,0,3.42,7.39,4.28,10.07s-2.87,8.42-2.87,8.42l-8-.53-1.89-6-2.49-4.24Z" fill="#263238"/><path d="M294.74,194c.11-.75,0-6.15-.29-10.23s1.29-13.84,1.2-16.78c0,0-16.73-1.73-17.68-2.7s-6.22-5.39-8.58-4.79-38.34,24.37-38.71,24.6s20.33,24.63,25.71,28.64s6.36,2.56,6.36,2.56-2.81-7.31-.41-10.33s5.63-5.52,13.48-4.4s9.19,2.17,13.59-.38c2.493827-1.317191,4.397688-3.528242,5.33-6.19Z" fill="#e0e0e0"/><path d="M265.82,133.05c0,0,6.12,8.79,5,12.24s-13.39,9.12-26.31,18.59c-10,7.32-15.76,14.47-17.48,14.39s-8.39-10.07-8.76-10.77c-1.46-2.72,5.76-14.07,15.94-21.68s29.67-14.49,31.61-12.77Z" fill="#e0e0e0"/><path d="M233.57,77.69c-3.3-3.12-7.62-.94-7.62-.94-2.44,1.5-3.36,4.78-1.92,7.9s5.91,11.62,6.52,11.57c4.93-1.51,8.88-3.57,11.4-6.45.05,0-5.68-9.54-8.38-12.08Z" fill="#e0e0e0"/><path d="M243.4,93.55l-9.47,6.23c-.301699.186977-.514612.488375-.590012.835215s-.006832.709429.190012,1.004785c1.81,2.73,6.46,9.73,8.24,12.43.428916.62423,1.251944.83745,1.93.5c1.45-.71,3.82-1.89,5.09-2.6c2.29-1.28,5.1-3.14,5.1-4.64s-6-10-8.42-13.4c-.488294-.645147-1.392566-.802412-2.07-.36Z" fill="#e0e0e0"/><path d="M256.43,111.64c-.456293-.495411-1.193647-.611399-1.78-.28-3,1.51-11.23,5.79-11.28,6.64-.07,1,5.43,11.77,7.32,13.34s13.65-3.87,13.32-5.77c-.29-1.71-5.01-10.78-7.58-13.93Z" fill="#e0e0e0"/><path d="M200.5,88.67c.42-.31,4.3-2.66,8.06-.06s9.4,7.8,9.79,9.26.82,4.22-1.21,5.58-7,5.42-8,4.88-2.7-1.72-5.82-5.78-8.43-9.69-2.82-13.88Z" fill="#e0e0e0"/><path d="M218.66,99.7c0,0,2.46,1.54,2.54,2.17s.94,2.35-.47,3.66c-1.796468,1.408772-3.695016,2.68227-5.68,3.81-.706061.609225-1.702878.749952-2.55.36l-2.1-1.65Z" fill="#263238"/><path d="M237.35,118.74c.813496-.139085,1.623171.265752,2,1c.9,1.3,8.64,10.53,8.35,11.78s-12,8.49-12.72,7.89-8.6-11.75-8.24-12.94s10.1-7.72,10.61-7.73Z" fill="#e0e0e0"/><path d="M220.5,130.5c.3-.07.72-.84,2,.35s9.45,8,9.65,9.81-7.09,10.1-9.13,9.34-8.06-6.76-10.14-9.5c0,0-.91-1.2-.41-2c.39-.62,8.03-8,8.03-8Z" fill="#e0e0e0"/><path d="M217.64,127.24c-.13-.48-10.13-8.5-11.91-8.79-.78-.12-6.31,5.44-6.63,7.28-.420387,1.88622.140056,3.857176,1.49,5.24c1.6,1.89,7.52,6.73,9.26,5.75s6.57-5.78,6.57-5.78s1.76-1.76,1.22-3.7Z" fill="#e0e0e0"/><path d="M193,109.7c-3.36-1.15-6.65-.23-8,2.63s.78,6.49,2.36,8.32s5.51,5,7.8,4.88c2.41-1.29,5.89-5.47,7.34-8.81.249711-.620046.043197-1.330451-.5-1.72-2.809659-2.071613-5.82564-3.847691-9-5.3Z" fill="#e0e0e0"/><path d="M195.84,140.06l.4-.24c0,0,8.13,2.63,9.73,4.3s-.12,4.22-.44,5-2.85,5.47-4.37,5.47c-2.393014-.20274-4.673922-1.103282-6.56-2.59-.840992-.651473-1.639299-1.356255-2.39-2.11Z" fill="#e0e0e0"/><path d="M209.51,146.53c.412554-.213751.87686-.307305,1.34-.27.56.13,9.76,6.25,10.4,7.44s-.11,2.91-.94,4.55-4.31,6.36-5.71,6.18-9.26-6.2-10.07-7.3c-.478909-.637491-.674217-1.44404-.54-2.23Z" fill="#e0e0e0"/><path d="M275.6,116.17c1.356789.326889,2.583503,1.05525,3.52,2.09c1.51,1.7,10.24,15.53,10.24,15.53s0,2.37-4.32,5.16c-1.79,1.16-7.65,3.22-7.65,3.22s-3.19-4.23-5.3-7.82-3.8-9.95-2.32-13.47s4.29-5.01,5.83-4.71Z" fill="#e0e0e0"/><path d="M291.1,137.68c0,0-2.68,3.15-4.39,3.83s-8,2.58-8,2.58l.59,8.65c0,0-1.7,5.86-1.52,6.29s15.2,5.55,16,4.68s1.88-9.71,1.75-12.65-4.43-13.38-4.43-13.38Z" fill="#e0e0e0"/><path d="M221.23,102.52c.681079-.540867,1.660545-.480459,2.27.14c2.59,2.64,9,9.26,9.62,10.19.73,1.18,1.4,2.57-.53,4.47s-6.54,6.06-8.51,5.88-11.56-9.65-11.58-11.77c0-2.43,4.94-5.81,4.94-5.81c1.192283-1.117272,2.458484-2.152951,3.79-3.1Z" fill="#e0e0e0"/><g opacity="0.3"><path d="M193.91,151.88c2.371653-.129767,4.566081-1.296471,6-3.19.733094-.894902,1.138792-2.013215,1.15-3.17-.093787-1.2137-.627129-2.351496-1.5-3.2-.8664-.842684-1.833751-1.574915-2.88-2.18"/></g><path d="M195.78,139.61c1.77.57,4.58,4.36,3.89,6.3s-5.07,5.88-7,6.42-5.12-1.39-6.79-2.72-1.48-3.61-.11-5.23s7.87-5.47,10.01-4.77Z" fill="#e0e0e0"/><g opacity="0.3"><path d="M189.75,141.47c.641804.108863,1.213898.46867,1.59,1c.452558.528739.759328,1.166408.89,1.85.173273.836885.09677,1.706239-.22,2.5-.576638,1.437374-1.741646,2.558694-3.2,3.08-.571562.264911-1.213286.338551-1.83.21c0-.09.7-.1,1.69-.55c1.290521-.575144,2.310794-1.624055,2.85-2.93.525961-1.304144.348663-2.786664-.47-3.93-.65-.9-1.34-1.14-1.3-1.23Z"/></g><g opacity="0.3"><path d="M197.09,149c-2.11974.46672-4.336067-.07628-6-1.47.08-.13,1.3.53,2.94.92s3.05.43,3.06.55Z"/></g><g opacity="0.3"><path d="M203.84,151.28c-2.234383-.252943-4.333015-1.200825-6-2.71c1.034411.373238,2.037561.828,3,1.36c1.032026.375151,2.034781.826391,3,1.35Z"/></g><g opacity="0.3"><path d="M217.85,160.83c-.706412-.197795-1.380178-.497621-2-.89-1.544663-.837826-3.028341-1.783503-4.44-2.83-1.414501-1.04876-2.75132-2.198425-4-3.44-.548007-.485824-1.022917-1.048306-1.41-1.67.12-.11,2.46,2.24,5.74,4.67s6.18,4.02,6.11,4.16Z"/></g><g opacity="0.3"><path d="M194.28,110.57c.00687.612082-.115816,1.218693-.36,1.78-.491498,1.389539-1.248933,2.670047-2.23,3.77-.972864,1.110474-2.155499,2.017841-3.48,2.67-.528173.305952-1.113642.499973-1.72.57c1.788293-.922308,3.413196-2.131696,4.81-3.58c1.269127-1.563687,2.275589-3.323308,2.98-5.21Z"/></g><g opacity="0.3"><path d="M198.21,122.57c-1.399321-.68356-2.679118-1.588535-3.79-2.68-1.226961-.960279-2.287764-2.115676-3.14-3.42c1.221339.926558,2.383602,1.92851,3.48,3c1.210027.964512,2.362033,1.999648,3.45,3.1Z"/></g><g opacity="0.3"><path d="M212.52,133.46c-.711179-.26637-1.383749-.626194-2-1.07-1.542912-.983472-3.013346-2.076272-4.4-3.27-1.391472-1.183866-2.691816-2.470838-3.89-3.85-.533104-.542757-.990562-1.154943-1.36-1.82.12-.11,2.36,2.52,5.59,5.28s6.15,4.59,6.06,4.73Z"/></g><g opacity="0.3"><path d="M225.9,147c-.680674-.329096-1.31319-.749652-1.88-1.25-2.869234-2.26394-5.36616-4.96332-7.4-8-.466254-.610203-.843362-1.283611-1.12-2c.14-.08,2,2.8,4.89,5.88s5.61,5.26,5.51,5.37Z"/></g><g opacity="0.3"><path d="M208.82,89.32c-.062338.623744-.256638,1.227094-.57,1.77-1.377874,2.750104-3.905535,4.74659-6.9,5.45-.602429.182145-1.238091.226573-1.86.13c0-.08.7-.16,1.77-.49c2.796957-.868824,5.173081-2.742649,6.67-5.26.254853-.555542.552412-1.09048.89-1.6Z"/></g><g opacity="0.3"><path d="M214.27,104.67c-1.819011-1.325314-3.494753-2.836833-5-4.51-1.597133-1.568454-3.028053-3.297622-4.27-5.16c1.656353,1.502133,3.231898,3.09103,4.72,4.76c1.60115,1.556301,3.119887,3.195202,4.55,4.91Z"/></g><g opacity="0.3"><path d="M228.86,120.07c-.771044-.458546-1.485888-1.005586-2.13-1.63-3.251212-2.842715-6.106645-6.108469-8.49-9.71-.530306-.725472-.979646-1.506787-1.34-2.33.60374.657054,1.152266,1.36278,1.64,2.11c1,1.33,2.37,3.12,4,5s3.24,3.51,4.42,4.65c.681553.586811,1.316775,1.225376,1.9,1.91Z"/></g><g opacity="0.3"><path d="M241.71,136.58c-1.932663-2.06269-3.739271-4.239969-5.41-6.52-1.803211-2.180467-3.472925-4.467974-5-6.85c1.934083,2.064946,3.740754,4.245641,5.41,6.53c1.804358,2.176086,3.474133,4.460338,5,6.84Z"/></g><g opacity="0.3"><path d="M257.1,130.05c-.54815-.576231-1.027989-1.21378-1.43-1.9-.82-1.22-1.91-2.92-3.06-4.84s-2.14-3.68-2.82-5c-.415607-.678978-.751176-1.403808-1-2.16.512823.61775.958652,1.288169,1.33,2l2.94,4.89L256,128c.435857.643888.804456,1.330823,1.1,2.05Z"/></g><g opacity="0.3"><path d="M247.05,112c-.627328-.576698-1.181474-1.228239-1.65-1.94-1.218968-1.643909-2.347312-3.353117-3.38-5.12-1.035353-1.76585-1.970174-3.588751-2.8-5.46-.384583-.757622-.68311-1.55593-.89-2.38.47411.700884.882509,1.444037,1.22,2.22.71,1.39,1.72,3.3,2.92,5.36s2.37,3.86,3.23,5.17c.512334.675584.964084,1.395038,1.35,2.15Z"/></g><g opacity="0.3"><path d="M233.17,78.9c-.029123.599233-.219111,1.17956-.55,1.68-1.40826,2.627768-4.250852,4.159304-7.22,3.89-.600313-.001948-1.189729-.160504-1.71-.46c0-.08.67.09,1.73.1c1.372113-.00656,2.721625-.349947,3.93-1c1.21962-.652724,2.25227-1.606204,3-2.77.53-.83.74-1.47.82-1.44Z"/></g><g opacity="0.3"><path d="M235.61,94.33c-1.216226-1.685995-2.286756-3.472442-3.2-5.34-1.067527-1.785247-1.98726-3.654813-2.75-5.59c1.216226,1.685995,2.286756,3.472442,3.2,5.34c1.0627,1.787869,1.982237,3.657037,2.75,5.59Z"/></g><g opacity="0.3"><path d="M280.39,120c-.271429.628285-.631782,1.21428-1.07,1.74-.948799,1.360562-2.071679,2.591023-3.34,3.66-1.290748,1.078934-2.830784,1.818013-4.48,2.15-.67542.175758-1.38458.175758-2.06,0c0-.09.79,0,2-.35c1.551788-.420645,2.994593-1.171041,4.23-2.2c1.234515-1.046916,2.363262-2.212507,3.37-3.48.390466-.556567.84342-1.06656,1.35-1.52Z"/></g><g opacity="0.3"><path d="M281.19,140.24c-1.510377-2.121308-2.879984-4.339403-4.1-6.64-1.370234-2.215425-2.589662-4.520644-3.65-6.9c1.513134,2.119477,2.882856,4.337758,4.1,6.64c1.370234,2.215425,2.589662,4.520644,3.65,6.9Z"/></g><g opacity="0.3"><path d="M283.46,160.31c-.029329-.831334.004099-1.663696.1-2.49.112914-1.998406.112914-4.001594,0-6-.128236-1.989141-.37198-3.969146-.73-5.93-.19962-.807838-.333392-1.630535-.4-2.46.359001.755629.614631,1.556153.76,2.38.939679,3.927059,1.186719,7.987994.73,12-.036528.850648-.191348,1.692063-.46,2.5Z"/></g><g opacity="0.3"><path d="M236.49,162.7c-.091517-.720439-.091517-1.449561,0-2.17.08-1.34.25-3.18.52-5.2s.58-3.85.85-5.16c.092742-.719584.274119-1.424937.54-2.1.15,0-.34,3.29-.87,7.33s-.9,7.31-1.04,7.3Z"/></g><g opacity="0.3"><path d="M240.65,158c-.042093-1.785084.088514-3.570056.39-5.33.134147-1.785741.442275-3.554125.92-5.28.035752,1.788642-.098181,3.576644-.4,5.34-.133329,1.781821-.438071,3.546646-.91,5.27Z"/></g><g opacity="0.3"><path d="M263.59,201.8c-.071286-.114769-.125203-.239452-.16-.37-.09-.25-.23-.61-.37-1.09-.40899-1.362041-.716499-2.752514-.92-4.16-1.39731-9.430259,1.409732-18.999053,7.68-26.18.926853-1.070565,1.929435-2.073147,3-3c.37-.33.69-.56.9-.72s.32-.24.34-.22c-.348097.384985-.71875.748959-1.11,1.09-1.011336.977837-1.969384,2.009325-2.87,3.09-6.025364,7.200208-8.776017,16.586495-7.59,25.9.168531,1.396825.418962,2.782544.75,4.15.154318.493858.271314.998612.35,1.51Z"/></g><rect width="1.01" height="3.68" rx="0.47" ry="0.47" transform="matrix(.593559-.80479 0.80479 0.593559 210.839437 149.734787)" fill="#cc071e"/><rect width="1.01" height="3.68" rx="0.47" ry="0.47" transform="matrix(.672238-.740335 0.740335 0.672238 221.70414 134.01744)" fill="#cc071e"/><rect width="1.01" height="3.68" rx="0.47" ry="0.47" transform="matrix(.771958-.635674 0.635674 0.771958 237.983158 122.33609)" fill="#cc071e"/><rect width="1.01" height="3.68" rx="0.47" ry="0.47" transform="matrix(.696163-.717883 0.717883 0.696163 212.423318 94.954483)" fill="#cc071e"/><rect width="1.01348" height="3.69267" rx="0.471619" ry="0.471619" transform="matrix(.867014-.498284 0.498284 0.867014 255.986884 115.191762)" fill="#cc071e" stroke-width="1.00344"/><path d="M247.05,99.09c0,.161782-.064268.316938-.178665.431335s-.269553.178665-.431335.178665c-.336894,0-.61-.273106-.61-.61s.273106-.61.61-.61.61.273106.61.61Z" fill="#cc071e"/><path d="M248.26,100.66c0,.161782-.064268.316938-.178665.431335s-.269553.178665-.431335.178665c-.336894,0-.61-.273106-.61-.61s.273106-.61.61-.61c.161782,0,.316938.064268.431335.178665s.178665.269553.178665.431335Z" fill="#cc071e"/><path d="M212.33,93.45c.031095.245838-.089617.486058-.305434.607821s-.483847.100872-.67819-.052862-.276374-.409757-.207562-.647808.274793-.410819.521186-.437151c.330412-.035311.628302.200333.67.53Z" fill="#cc071e"/><path d="M197.48,114.71c-.005355.33465-.27535.604645-.61.61-.161782,0-.316938-.064268-.431335-.178665s-.178665-.269553-.178665-.431335.064268-.316938.178665-.431335.269553-.178665.431335-.178665.316938.064268.431335.178665.178665.269553.178665.431335Z" fill="#cc071e"/><path d="M274.79,149.55c-.140215.119798-.290809.226887-.45.32l-1.35.85-5,3.08c-4.17,2.62-9.88,6.34-16,10.69s-11.51,8.54-15.35,11.62l-4.54,3.68-1.24,1c-.142164.121887-.29628.229099-.46.32.113986-.148061.244872-.282303.39-.4l1.18-1.07c1-.92,2.54-2.22,4.43-3.8c3.79-3.16,9.15-7.39,15.29-11.76s11.89-8,16.12-10.58c2.11-1.28,3.84-2.28,5.05-3l1.39-.76c.169371-.090242.351437-.154302.54-.19Z" fill="#455a64"/></g><path d="M308.73,293.73c-3.43,3.38-8.52,3.39-13,3.62-4.13.21-9.23.7-12,4.25s-.07,7.49,3.74,8.56c4.51,1.27,9-.93,12.91-3c4.5-2.44,10.43-5.53,15.21-1.94.64.48,1.26-.6.63-1.08-3.06-2.3-7.2-2.12-10.65-.87-4.27,1.54-7.91,4.54-12.35,5.63-2.353331.720816-4.894375.502193-7.09-.61-2.24-1.32-3-3.84-1.36-6c2.9-3.67,8.59-3.59,12.81-3.79s8.84-.76,12-3.9c.197161-.251845.174324-.611461-.053112-.836341s-.587287-.243653-.836888-.043659Z" fill="#263238"/></g><path d="M293.22,381c8.42,6.75,19.94,7.9,30.09,4.89c10.65-3.17,19.12-11,25-20.24c3.37571-5.433079,6.04712-11.273216,7.95-17.38.25-.76-1-1.09-1.21-.33-3.28,10.25-8.48,20.16-16.41,27.58-7.66,7.15-17.84,11.33-28.4,10.63-5.860117-.306204-11.485812-2.400135-16.12-6-.62-.5-1.51.38-.88.88Z" fill="#263238"/><path d="M303.19,372c9.965436,6.728275,22.206662,9.194523,34,6.85c17.556407-3.798615,31.097026-17.797034,34.31-35.47.14-.78-1.06-1.12-1.2-.33-1.951595,10.703658-7.824095,20.295052-16.47,26.9-9.150673,6.874367-20.690881,9.759419-32,8-6.483331-.949112-12.664011-3.367342-18.07-7.07-.67-.46-1.29.62-.63,1.08Z" fill="#263238"/><polygon points="313.33,297.48 299.22,313.59 306.38,340.67 337.3,356.52 351.25,349.56" fill="#263238"/><circle r="42.86" transform="matrix(.989776-.142629 0.142629 0.989776 353.483434 308.650612)" fill="#e0e0e0"/><path d="M381.05,321c0,0,.05-.16.16-.47l.49-1.35.38-1c.12-.37.21-.79.33-1.23.307226-1.01864.541157-2.057962.7-3.11.504883-2.876524.575669-5.812487.21-8.71-.468344-3.833863-1.662984-7.543358-3.52-10.93-2.246697-4.110806-5.42489-7.638326-9.28-10.3-1.052414-.727359-2.155192-1.379001-3.3-1.95-.58-.29-1.15-.61-1.76-.87l-1.86-.72c-.31-.12-.62-.26-.94-.35l-1-.27c-.66-.17-1.31-.38-2-.53-1.366787-.273919-2.749558-.46096-4.14-.56-1.425083-.095069-2.854917-.095069-4.28,0-.72.05-1.44.17-2.17.26-.729129.078179-1.451227.211901-2.16.4-1.45969.319975-2.896253.737581-4.3,1.25-1.412752.574973-2.785772,1.243109-4.11,2-2.732455,1.532147-5.200652,3.493874-7.31,5.81-4.395985,4.777265-7.113463,10.858236-7.74,17.32-.323422,3.112144-.141064,6.256119.54,9.31.324398,1.49016.74869,2.956806,1.27,4.39.55363,1.374785,1.198396,2.711087,1.93,4c.333278.653833.714311,1.282203,1.14,1.88.42.6.82,1.21,1.26,1.79.882754,1.121304,1.84169,2.180477,2.87,3.17c1.00046.970953,2.062678,1.876177,3.18,2.71.56.41,1.15.76,1.72,1.13l.85.55c.29.18.59.31.89.47l1.78.91c.59.28,1.22.49,1.82.73c1.188295.470839,2.407906.858441,3.65,1.16c8.408671,2.003228,17.272613.318497,24.36-4.63c2.40663-1.668948,4.547432-3.691753,6.35-6c.681716-.818493,1.300167-1.687668,1.85-2.6.25-.39.5-.74.7-1.07l.49-.94c.29-.55.51-1,.68-1.27s.24-.43.24-.43-.06.15-.2.45l-.63,1.3-.47,1c-.19.34-.43.7-.68,1.1-.540246.920817-1.14861,1.799936-1.82,2.63-1.790788,2.335377-3.928947,4.382479-6.34,6.07-7.140569,5.060665-16.110098,6.812327-24.63,4.81-1.261741-.301361-2.501319-.688938-3.71-1.16-.61-.25-1.24-.46-1.85-.74l-1.81-.91c-.3-.16-.61-.3-.9-.48l-.87-.56c-.58-.37-1.18-.73-1.74-1.14-1.139123-.841034-2.221477-1.756358-3.24-2.74-1.050921-1.003342-2.030001-2.079328-2.93-3.22-.45-.59-.85-1.21-1.28-1.82-.43414-.608553-.825098-1.246783-1.17-1.91-1.543641-2.657684-2.644685-5.548771-3.26-8.56-.693758-3.109533-.88284-6.310414-.56-9.48.636382-6.572155,3.403561-12.756168,7.88-17.61c2.143684-2.357069,4.656495-4.349755,7.44-5.9c1.345366-.762605,2.742058-1.430878,4.18-2c1.427574-.517685,2.887325-.941915,4.37-1.27.722495-.187272,1.457825-.320969,2.2-.4.74-.09,1.47-.21,2.2-.26c1.45143-.105186,2.90857-.105186,4.36,0c1.411746.095802,2.815127.289602,4.2.58.68.15,1.35.36,2,.53l1,.28c.33.1.64.24,1,.36l1.88.73c.62.27,1.19.6,1.78.89c1.157922.589209,2.273895,1.257456,3.34,2c7.179961,5.007052,11.857865,12.861849,12.84,21.56.354235,2.920882.256422,5.878901-.29,8.77-.171565,1.057304-.42227,2.100235-.75,3.12-.13.45-.23.86-.36,1.23l-.4,1-.54,1.34c-.13.27-.21.46-.21.46Z" fill="#263238"/><circle r="11.84" transform="matrix(.574434-.818551 0.818551 0.574434 353.469342 308.701007)" fill="#263238"/><path d="M361.22,312.15c-1.916514,4.285246-6.943966,6.205569-11.229287,4.289223s-6.205842-6.943723-4.289664-11.229119s6.94348-6.206114,11.228951-4.290104c4.281611,1.920322,6.200763,6.944114,4.29,11.23Z" fill="#cc071e"/><path d="M379.76,293.65c.101738-.136644.219214-.260833.35-.37l1.07-1l4-3.58v.23c-2.862657-4.743355-6.824028-8.728735-11.55-11.62-5.330876-3.280438-11.229375-5.532654-17.39-6.64h-.16v-.15c.18-1.57.33-2.84.44-3.8.032053-.452472.105697-.901032.22-1.34.021046.453936.004322.908835-.05,1.36-.07,1-.17,2.24-.29,3.81l-.14-.18c2.705331.423398,5.36637,1.092842,7.95,2c3.391921,1.141119,6.640237,2.671318,9.68,4.56c4.796701,2.930892,8.784327,7.01477,11.6,11.88l.07.14-.11.09-4.12,3.45-1.14.92c-.27.16-.42.26-.43.24Z" fill="#263238"/><path d="M393.52,323.37c-.135256-.025592-.26644-.06932-.39-.13L392,322.8l-4-1.74.22-.09-1.69,4c-.353944.762119-.751262,1.503334-1.19,2.22-.44.75-.86,1.56-1.36,2.36-2.322675,3.482786-5.208766,6.554749-8.54,9.09-3.44951,2.544539-7.322761,4.457465-11.44,5.65-3.092431.95137-6.304828,1.456464-9.54,1.5h-.15v-.15c0-1.72,0-3.1-.06-4.12c0-.44,0-.8,0-1.09-.012834-.126342-.012834-.253658,0-.38.038048.119721.058265.244391.06.37c0,.3,0,.66.07,1.09.05,1,.12,2.4.2,4.12l-.15-.15c3.192401-.117914,6.354279-.666197,9.4-1.63c4.052288-1.226362,7.861816-3.144659,11.26-5.67c3.284254-2.499699,6.141348-5.51552,8.46-8.93.5-.78.93-1.58,1.37-2.32.441503-.703036.842166-1.430907,1.2-2.18.65-1.43,1.24-2.74,1.76-3.9l.07-.15.14.06l4,1.88l1.06.52c.26.12.38.19.37.21Z" fill="#263238"/><path d="M323.78,339.05c.260549-.396468.544381-.777136.85-1.14l2.49-3.11v.21c-2.392815-2.078366-4.450386-4.513722-6.1-7.22-2.175669-3.606753-3.657801-7.588498-4.37-11.74-.658634-3.823237-.816629-7.715962-.47-11.58.238695-3.023523.781436-6.0153,1.62-8.93l.05-.15h.15l4.84,1.08l1.29.31c.15184.023372.299839.067098.44.13-.14918.022179-.30082.022179-.45,0l-1.31-.22-4.88-.93.2-.11c-.775703,2.902567-1.271304,5.872826-1.48,8.87-.309159,3.820015-.134442,7.663785.52,11.44.700537,4.092657,2.140709,8.023481,4.25,11.6c1.606093,2.683051,3.593522,5.118494,5.9,7.23l.12.11-.1.11-2.6,3c-.286455.376192-.60789.724413-.96,1.04Z" fill="#263238"/><path d="M390.7,312.37l-1-.15c1.31-8.73-2.47-16.88-2.51-17l.9-.42c2.423237,5.518554,3.324451,11.585346,2.61,17.57Z" fill="#cc071e"/><path d="M325.4,289.65c0,.736121-.443429,1.399759-1.123516,1.681461s-1.462902.12599-1.983418-.394527-.676228-1.30333-.394527-1.983418.94534-1.123516,1.681461-1.123516c1.005158,0,1.82.814842,1.82,1.82Z" fill="#cc071e"/><circle r="1.82" transform="translate(327.52 284.55)" fill="#cc071e"/><path d="M334.26,280.08c.00405.741062-.439239,1.41141-1.122732,1.697813s-1.472244.132313-1.997696-.390267-.68386-1.310475-.401207-1.995527.950561-1.132008,1.691635-1.132019c.484424-.002662.949922.187912,1.293404.529517s.536603.806051.536596,1.290483Z" fill="#cc071e"/><path d="M240.31,344.45l66.08-40.2c0,0-4.83,17.85,7.53,33.5c12.2,15.45,25,18.84,25,18.84l-64.07,41c-.309803-11.994581-4.28848-23.606035-11.4-33.27-11.97-16.39-23.14-19.87-23.14-19.87Z" fill="#e0e0e0"/><path d="M318.59,343.09l-.21.16-.65.45-2.51,1.68-9.29,6.08-13.81,9-4,2.59c-1.362059,1.006471-2.934976,1.690348-4.6,2-3.616913.570032-7.250891-.917471-9.43-3.86-.539413-.737821-.976699-1.545119-1.3-2.4-.306398-.847854-.501363-1.731917-.58-2.63-.275757-3.531717,1.385754-6.935134,4.34-8.89c1.38-.87,2.75-1.66,4.08-2.47l14.12-8.47l9.55-5.67l2.6-1.52.69-.38c.074296-.048014.155128-.085062.24-.11l-.21.16-.66.43-2.56,1.6-9.46,5.81-14.06,8.56c-1.32.81-2.69,1.61-4.05,2.48-1.352274.891869-2.442911,2.127464-3.16,3.58-1.538332,3.110151-1.213098,6.818682.8431,9.613596s5.499831,4.209263,8.9269,3.666404c1.599035-.299264,3.109906-.95557,4.42-1.92l4-2.57l13.87-8.87l9.38-5.94l2.56-1.6.68-.4q.23-.17.24-.16Z" fill="#fff"/><path d="M293,386c.025138-.31007.088967-.615777.19-.91.18-.65.41-1.49.69-2.53l2.57-9v-.08h.07l11-7.3c6-4,11.47-7.54,15.43-10.11c1.94-1.24,3.54-2.25,4.71-3l1.3-.79c.143249-.106422.301687-.190698.47-.25-.122142.126917-.259912.237804-.41.33l-1.25.88-4.62,3.15c-3.91,2.64-9.34,6.26-15.35,10.23l-11,7.24.09-.12c-1.12,3.64-2.06,6.7-2.75,8.93-.33,1-.6,1.86-.8,2.5-.094264.2841-.207863.561414-.34.83Z" fill="#263238"/><path d="M250.05,350.19c.44795-.367994.922586-.702245,1.42-1l4-2.62c3.38-2.19,8.07-5.2,13.27-8.48l7.66-4.82-.1.14c.91-3.73,1.7-6.91,2.27-9.26l.69-2.63c.072634-.316989.169587-.62791.29-.93-.004237.337909-.051279.673919-.14,1-.15.7-.33,1.58-.56,2.66l-2.09,9.31v.09l-.08.06-7.68,4.8c-5.2,3.28-9.92,6.24-13.36,8.35-1.66,1-3,1.85-4.08,2.48-.480023.322884-.984946.607112-1.51.85Z" fill="#263238"/><path d="M281.4775,355.71l-.2016-.2988c-.417345-.618564-.571872-1.377584-.429588-2.110082s.569724-1.378473,1.188288-1.795818l9.2877-6.2664c.618564-.417345,1.377584-.571872,2.110082-.429588s1.378473.569724,1.795818,1.188288l.2016.2988c.415859.616363.569837,1.372681.42806,2.102573s-.567697,1.373568-1.18406,1.789427l-9.2794,6.2608c-.616363.415859-1.372681.569837-2.102573.42806s-1.373568-.567697-1.789427-1.18406Z" fill="#cc071e" stroke-width="1.00125"/>
<script><![CDATA[
!function(t,n){"object"==typeof exports&&"undefined"!=typeof module?module.exports=n():"function"==typeof __SVGATOR_DEFINE__&&__SVGATOR_DEFINE__.amd?__SVGATOR_DEFINE__(n):((t="undefined"!=typeof globalThis?globalThis:t||self).__SVGATOR_PLAYER__=t.__SVGATOR_PLAYER__||{},t.__SVGATOR_PLAYER__["5c7f360c"]=n())}(this,(function(){"use strict";function t(t,n){var e=Object.keys(t);if(Object.getOwnPropertySymbols){var r=Object.getOwnPropertySymbols(t);n&&(r=r.filter((function(n){return Object.getOwnPropertyDescriptor(t,n).enumerable}))),e.push.apply(e,r)}return e}function n(n){for(var e=1;e<arguments.length;e++){var r=null!=arguments[e]?arguments[e]:{};e%2?t(Object(r),!0).forEach((function(t){o(n,t,r[t])})):Object.getOwnPropertyDescriptors?Object.defineProperties(n,Object.getOwnPropertyDescriptors(r)):t(Object(r)).forEach((function(t){Object.defineProperty(n,t,Object.getOwnPropertyDescriptor(r,t))}))}return n}function e(t){return(e="function"==typeof Symbol&&"symbol"==typeof Symbol.iterator?function(t){return typeof t}:function(t){return t&&"function"==typeof Symbol&&t.constructor===Symbol&&t!==Symbol.prototype?"symbol":typeof t})(t)}function r(t,n){if(!(t instanceof n))throw new TypeError("Cannot call a class as a function")}function i(t,n){for(var e=0;e<n.length;e++){var r=n[e];r.enumerable=r.enumerable||!1,r.configurable=!0,"value"in r&&(r.writable=!0),Object.defineProperty(t,r.key,r)}}function u(t,n,e){return n&&i(t.prototype,n),e&&i(t,e),t}function o(t,n,e){return n in t?Object.defineProperty(t,n,{value:e,enumerable:!0,configurable:!0,writable:!0}):t[n]=e,t}function a(t){return(a=Object.setPrototypeOf?Object.getPrototypeOf:function(t){return t.__proto__||Object.getPrototypeOf(t)})(t)}function l(t,n){return(l=Object.setPrototypeOf||function(t,n){return t.__proto__=n,t})(t,n)}function s(){if("undefined"==typeof Reflect||!Reflect.construct)return!1;if(Reflect.construct.sham)return!1;if("function"==typeof Proxy)return!0;try{return Boolean.prototype.valueOf.call(Reflect.construct(Boolean,[],(function(){}))),!0}catch(t){return!1}}function f(t,n,e){return(f=s()?Reflect.construct:function(t,n,e){var r=[null];r.push.apply(r,n);var i=new(Function.bind.apply(t,r));return e&&l(i,e.prototype),i}).apply(null,arguments)}function c(t,n){if(n&&("object"==typeof n||"function"==typeof n))return n;if(void 0!==n)throw new TypeError("Derived constructors may only return object or undefined");return function(t){if(void 0===t)throw new ReferenceError("this hasn't been initialised - super() hasn't been called");return t}(t)}function h(t,n,e){return(h="undefined"!=typeof Reflect&&Reflect.get?Reflect.get:function(t,n,e){var r=function(t,n){for(;!Object.prototype.hasOwnProperty.call(t,n)&&null!==(t=a(t)););return t}(t,n);if(r){var i=Object.getOwnPropertyDescriptor(r,n);return i.get?i.get.call(e):i.value}})(t,n,e||t)}function v(t){return function(t){if(Array.isArray(t))return y(t)}(t)||function(t){if("undefined"!=typeof Symbol&&null!=t[Symbol.iterator]||null!=t["@@iterator"])return Array.from(t)}(t)||function(t,n){if(!t)return;if("string"==typeof t)return y(t,n);var e=Object.prototype.toString.call(t).slice(8,-1);"Object"===e&&t.constructor&&(e=t.constructor.name);if("Map"===e||"Set"===e)return Array.from(t);if("Arguments"===e||/^(?:Ui|I)nt(?:8|16|32)(?:Clamped)?Array$/.test(e))return y(t,n)}(t)||function(){throw new TypeError("Invalid attempt to spread non-iterable instance.\nIn order to be iterable, non-array objects must have a [Symbol.iterator]() method.")}()}function y(t,n){(null==n||n>t.length)&&(n=t.length);for(var e=0,r=new Array(n);e<n;e++)r[e]=t[e];return r}Number.isInteger||(Number.isInteger=function(t){return"number"==typeof t&&isFinite(t)&&Math.floor(t)===t}),Number.EPSILON||(Number.EPSILON=2220446049250313e-31);var g=d(Math.pow(10,-6));function d(t){var n=arguments.length>1&&void 0!==arguments[1]?arguments[1]:6;if(Number.isInteger(t))return t;var e=Math.pow(10,n);return Math.round((+t+Number.EPSILON)*e)/e}function p(t,n){var e=arguments.length>2&&void 0!==arguments[2]?arguments[2]:g;return Math.abs(t-n)<e}var m=Math.PI/180;function b(t){return t}function w(t,n,e){var r=1-e;return 3*e*r*(t*r+n*e)+e*e*e}function A(){var t=arguments.length>0&&void 0!==arguments[0]?arguments[0]:0,n=arguments.length>1&&void 0!==arguments[1]?arguments[1]:0,e=arguments.length>2&&void 0!==arguments[2]?arguments[2]:1,r=arguments.length>3&&void 0!==arguments[3]?arguments[3]:1;return t<0||t>1||e<0||e>1?null:p(t,n)&&p(e,r)?b:function(i){if(i<=0)return t>0?i*n/t:0===n&&e>0?i*r/e:0;if(i>=1)return e<1?1+(i-1)*(r-1)/(e-1):1===e&&t<1?1+(i-1)*(n-1)/(t-1):1;for(var u,o=0,a=1;o<a;){var l=w(t,e,u=(o+a)/2);if(p(i,l))break;l<i?o=u:a=u}return w(n,r,u)}}function _(){return 1}function x(t){return 1===t?1:0}function k(){var t=arguments.length>0&&void 0!==arguments[0]?arguments[0]:1,n=arguments.length>1&&void 0!==arguments[1]?arguments[1]:0;if(1===t){if(0===n)return x;if(1===n)return _}var e=1/t;return function(t){return t>=1?1:(t+=n*e)-t%e}}var S=Math.sin,O=Math.cos,j=Math.acos,E=Math.asin,M=Math.tan,P=Math.atan2,I=Math.PI/180,R=180/Math.PI,F=Math.sqrt,N=function(){function t(){var n=arguments.length>0&&void 0!==arguments[0]?arguments[0]:1,e=arguments.length>1&&void 0!==arguments[1]?arguments[1]:0,i=arguments.length>2&&void 0!==arguments[2]?arguments[2]:0,u=arguments.length>3&&void 0!==arguments[3]?arguments[3]:1,o=arguments.length>4&&void 0!==arguments[4]?arguments[4]:0,a=arguments.length>5&&void 0!==arguments[5]?arguments[5]:0;r(this,t),this.m=[n,e,i,u,o,a],this.i=null,this.w=null,this.s=null}return u(t,[{key:"determinant",get:function(){var t=this.m;return t[0]*t[3]-t[1]*t[2]}},{key:"isIdentity",get:function(){if(null===this.i){var t=this.m;this.i=1===t[0]&&0===t[1]&&0===t[2]&&1===t[3]&&0===t[4]&&0===t[5]}return this.i}},{key:"point",value:function(t,n){var e=this.m;return{x:e[0]*t+e[2]*n+e[4],y:e[1]*t+e[3]*n+e[5]}}},{key:"translateSelf",value:function(){var t=arguments.length>0&&void 0!==arguments[0]?arguments[0]:0,n=arguments.length>1&&void 0!==arguments[1]?arguments[1]:0;if(!t&&!n)return this;var e=this.m;return e[4]+=e[0]*t+e[2]*n,e[5]+=e[1]*t+e[3]*n,this.w=this.s=this.i=null,this}},{key:"rotateSelf",value:function(){var t=arguments.length>0&&void 0!==arguments[0]?arguments[0]:0;if(t%=360){var n=S(t*=I),e=O(t),r=this.m,i=r[0],u=r[1];r[0]=i*e+r[2]*n,r[1]=u*e+r[3]*n,r[2]=r[2]*e-i*n,r[3]=r[3]*e-u*n,this.w=this.s=this.i=null}return this}},{key:"scaleSelf",value:function(){var t=arguments.length>0&&void 0!==arguments[0]?arguments[0]:1,n=arguments.length>1&&void 0!==arguments[1]?arguments[1]:1;if(1!==t||1!==n){var e=this.m;e[0]*=t,e[1]*=t,e[2]*=n,e[3]*=n,this.w=this.s=this.i=null}return this}},{key:"skewSelf",value:function(t,n){if(n%=360,(t%=360)||n){var e=this.m,r=e[0],i=e[1],u=e[2],o=e[3];t&&(t=M(t*I),e[2]+=r*t,e[3]+=i*t),n&&(n=M(n*I),e[0]+=u*n,e[1]+=o*n),this.w=this.s=this.i=null}return this}},{key:"resetSelf",value:function(){var t=arguments.length>0&&void 0!==arguments[0]?arguments[0]:1,n=arguments.length>1&&void 0!==arguments[1]?arguments[1]:0,e=arguments.length>2&&void 0!==arguments[2]?arguments[2]:0,r=arguments.length>3&&void 0!==arguments[3]?arguments[3]:1,i=arguments.length>4&&void 0!==arguments[4]?arguments[4]:0,u=arguments.length>5&&void 0!==arguments[5]?arguments[5]:0,o=this.m;return o[0]=t,o[1]=n,o[2]=e,o[3]=r,o[4]=i,o[5]=u,this.w=this.s=this.i=null,this}},{key:"recomposeSelf",value:function(){var t=arguments.length>0&&void 0!==arguments[0]?arguments[0]:null,n=arguments.length>1&&void 0!==arguments[1]?arguments[1]:null,e=arguments.length>2&&void 0!==arguments[2]?arguments[2]:null,r=arguments.length>3&&void 0!==arguments[3]?arguments[3]:null,i=arguments.length>4&&void 0!==arguments[4]?arguments[4]:null;return this.isIdentity||this.resetSelf(),t&&(t.x||t.y)&&this.translateSelf(t.x,t.y),n&&this.rotateSelf(n),e&&(e.x&&this.skewSelf(e.x,0),e.y&&this.skewSelf(0,e.y)),!r||1===r.x&&1===r.y||this.scaleSelf(r.x,r.y),i&&(i.x||i.y)&&this.translateSelf(i.x,i.y),this}},{key:"decompose",value:function(){var t=arguments.length>0&&void 0!==arguments[0]?arguments[0]:0,n=arguments.length>1&&void 0!==arguments[1]?arguments[1]:0,e=this.m,r=e[0]*e[0]+e[1]*e[1],i=[[e[0],e[1]],[e[2],e[3]]],u=F(r);if(0===u)return{origin:{x:d(e[4]),y:d(e[5])},translate:{x:d(t),y:d(n)},scale:{x:0,y:0},skew:{x:0,y:0},rotate:0};i[0][0]/=u,i[0][1]/=u;var o=e[0]*e[3]-e[1]*e[2]<0;o&&(u=-u);var a=i[0][0]*i[1][0]+i[0][1]*i[1][1];i[1][0]-=i[0][0]*a,i[1][1]-=i[0][1]*a;var l=F(i[1][0]*i[1][0]+i[1][1]*i[1][1]);if(0===l)return{origin:{x:d(e[4]),y:d(e[5])},translate:{x:d(t),y:d(n)},scale:{x:d(u),y:0},skew:{x:0,y:0},rotate:0};i[1][0]/=l,i[1][1]/=l,a/=l;var s=0;return i[1][1]<0?(s=j(i[1][1])*R,i[0][1]<0&&(s=360-s)):s=E(i[0][1])*R,o&&(s=-s),a=P(a,F(i[0][0]*i[0][0]+i[0][1]*i[0][1]))*R,o&&(a=-a),{origin:{x:d(e[4]),y:d(e[5])},translate:{x:d(t),y:d(n)},scale:{x:d(u),y:d(l)},skew:{x:d(a),y:0},rotate:d(s)}}},{key:"clone",value:function(){var t=this.m;return new this.constructor(t[0],t[1],t[2],t[3],t[4],t[5])}},{key:"toString",value:function(){var t=arguments.length>0&&void 0!==arguments[0]?arguments[0]:" ";if(null===this.s){var n=this.m.map((function(t){return d(t)}));1===n[0]&&0===n[1]&&0===n[2]&&1===n[3]?this.s="translate("+n[4]+t+n[5]+")":this.s="matrix("+n.join(t)+")"}return this.s}}],[{key:"create",value:function(t){return t?Array.isArray(t)?f(this,v(t)):t instanceof this?t.clone():(new this).recomposeSelf(t.origin,t.rotate,t.skew,t.scale,t.translate):new this}}]),t}();function T(t,n,e){return t>=.5?e:n}function B(t,n,e){return 0===t||n===e?n:t*(e-n)+n}function q(t,n,e){var r=B(t,n,e);return r<=0?0:r}function D(t,n,e){var r=B(t,n,e);return r<=0?0:r>=1?1:r}function L(t,n,e){return 0===t?n:1===t?e:{x:B(t,n.x,e.x),y:B(t,n.y,e.y)}}function C(t,n,e){var r=function(t,n,e){return Math.round(B(t,n,e))}(t,n,e);return r<=0?0:r>=255?255:r}function V(t,n,e){return 0===t?n:1===t?e:{r:C(t,n.r,e.r),g:C(t,n.g,e.g),b:C(t,n.b,e.b),a:B(t,null==n.a?1:n.a,null==e.a?1:e.a)}}function G(t,n){for(var e=[],r=0;r<t;r++)e.push(n);return e}function z(t,n){if(--n<=0)return t;var e=(t=Object.assign([],t)).length;do{for(var r=0;r<e;r++)t.push(t[r])}while(--n>0);return t}var Y,$=function(){function t(n){r(this,t),this.list=n,this.length=n.length}return u(t,[{key:"setAttribute",value:function(t,n){for(var e=this.list,r=0;r<this.length;r++)e[r].setAttribute(t,n)}},{key:"removeAttribute",value:function(t){for(var n=this.list,e=0;e<this.length;e++)n[e].removeAttribute(t)}},{key:"style",value:function(t,n){for(var e=this.list,r=0;r<this.length;r++)e[r].style[t]=n}}]),t}(),U=/-./g,Q=function(t,n){return n.toUpperCase()};function H(t){return"function"==typeof t?t:T}function J(t){return t?"function"==typeof t?t:Array.isArray(t)?function(t){var n=arguments.length>1&&void 0!==arguments[1]?arguments[1]:b;if(!Array.isArray(t))return n;switch(t.length){case 1:return k(t[0])||n;case 2:return k(t[0],t[1])||n;case 4:return A(t[0],t[1],t[2],t[3])||n}return n}(t,null):function(t,n){var e=arguments.length>2&&void 0!==arguments[2]?arguments[2]:b;switch(t){case"linear":return b;case"steps":return k(n.steps||1,n.jump||0)||e;case"bezier":case"cubic-bezier":return A(n.x1||0,n.y1||0,n.x2||0,n.y2||0)||e}return e}(t.type,t.value,null):null}function Z(t,n,e){var r=arguments.length>3&&void 0!==arguments[3]&&arguments[3],i=n.length-1;if(t<=n[0].t)return r?[0,0,n[0].v]:n[0].v;if(t>=n[i].t)return r?[i,1,n[i].v]:n[i].v;var u,o=n[0],a=null;for(u=1;u<=i;u++){if(!(t>n[u].t)){a=n[u];break}o=n[u]}return null==a?r?[i,1,n[i].v]:n[i].v:o.t===a.t?r?[u,1,a.v]:a.v:(t=(t-o.t)/(a.t-o.t),o.e&&(t=o.e(t)),r?[u,t,e(t,o.v,a.v)]:e(t,o.v,a.v))}function K(t,n){var e=arguments.length>2&&void 0!==arguments[2]?arguments[2]:null;return t&&t.length?"function"!=typeof n?null:("function"!=typeof e&&(e=null),function(r){var i=Z(r,t,n);return null!=i&&e&&(i=e(i)),i}):null}function W(t,n){return t.t-n.t}function X(t,n,r,i,u){var o,a="@"===r[0],l="#"===r[0],s=Y[r],f=T;switch(a?(o=r.substr(1),r=o.replace(U,Q)):l&&(r=r.substr(1)),e(s)){case"function":if(f=s(i,u,Z,J,r,a,n,t),l)return f;break;case"string":f=K(i,H(s));break;case"object":if((f=K(i,H(s.i),s.f))&&"function"==typeof s.u)return s.u(n,f,r,a,t)}return f?function(t,n,e){if(arguments.length>3&&void 0!==arguments[3]&&arguments[3])return t instanceof $?function(r){return t.style(n,e(r))}:function(r){return t.style[n]=e(r)};if(Array.isArray(n)){var r=n.length;return function(i){var u=e(i);if(null==u)for(var o=0;o<r;o++)t[o].removeAttribute(n);else for(var a=0;a<r;a++)t[a].setAttribute(n,u)}}return function(r){var i=e(r);null==i?t.removeAttribute(n):t.setAttribute(n,i)}}(n,r,f,a):null}function tt(t,n,r,i){if(!i||"object"!==e(i))return null;var u=null,o=null;return Array.isArray(i)?o=function(t){if(!t||!t.length)return null;for(var n=0;n<t.length;n++)t[n].e&&(t[n].e=J(t[n].e));return t.sort(W)}(i):(o=i.keys,u=i.data||null),o?X(t,n,r,o,u):null}function nt(t,n,e){if(!e)return null;var r=[];for(var i in e)if(e.hasOwnProperty(i)){var u=tt(t,n,i,e[i]);u&&r.push(u)}return r.length?r:null}function et(t,n){if(!n.settings.duration||n.settings.duration<0)return null;var e,r,i,u,o,a=function(t,n){if(!n)return null;var e=[];if(Array.isArray(n))for(var r=n.length,i=0;i<r;i++){var u=n[i];if(2===u.length){var o=null;if("string"==typeof u[0])o=t.getElementById(u[0]);else if(Array.isArray(u[0])){o=[];for(var a=0;a<u[0].length;a++)if("string"==typeof u[0][a]){var l=t.getElementById(u[0][a]);l&&o.push(l)}o=o.length?1===o.length?o[0]:new $(o):null}if(o){var s=nt(t,o,u[1]);s&&(e=e.concat(s))}}}else for(var f in n)if(n.hasOwnProperty(f)){var c=t.getElementById(f);if(c){var h=nt(t,c,n[f]);h&&(e=e.concat(h))}}return e.length?e:null}(t,n.elements);return a?(e=a,r=n.settings,i=r.duration,u=e.length,o=null,function(t,n){var a=r.iterations||1/0,l=(r.alternate&&a%2==0)^r.direction>0?i:0,s=t%i,f=1+(t-s)/i;n*=r.direction,r.alternate&&f%2==0&&(n=-n);var c=!1;if(f>a)s=l,c=!0,-1===r.fill&&(s=r.direction>0?0:i);else if(n<0&&(s=i-s),s===o)return!1;o=s;for(var h=0;h<u;h++)e[h](s);return c}):null}function rt(t,n){if(Y=n,!t||!t.root||!Array.isArray(t.animations))return null;var e=function(t){for(var n=document.getElementsByTagName("svg"),e=0;e<n.length;e++)if(n[e].id===t.root&&!n[e].svgatorAnimation)return n[e].svgatorAnimation=!0,n[e];return null}(t);if(!e)return null;var r=t.animations.map((function(t){return et(e,t)})).filter((function(t){return!!t}));return r.length?{svg:e,animations:r,animationSettings:t.animationSettings,options:t.options||void 0}:null}function it(t){var n=arguments.length>1&&void 0!==arguments[1]?arguments[1]:null,e=arguments.length>2&&void 0!==arguments[2]?arguments[2]:Number,r=arguments.length>3&&void 0!==arguments[3]?arguments[3]:"undefined"!=typeof BigInt&&BigInt,i="0x"+(t.replace(/[^0-9a-fA-F]+/g,"")||27);return n&&r&&e.isSafeInteger&&!e.isSafeInteger(+i)?e(r(i))%n+n:+i}function ut(t,n,e){return!t||!e||n>t.length?t:t.substring(0,n)+ut(t.substring(n+1),e,e)}function ot(t){var n=arguments.length>1&&void 0!==arguments[1]?arguments[1]:27;return!t||t%n?t%n:[0,1].includes(n)?n:ot(t/n,n)}function at(t,n,e){if(t&&t.length){var r=it(e),i=ot(r)+5,u=ut(t,ot(r,5),i);return u=u.replace(/\x7c$/g,"==").replace(/\x2f$/g,"="),u=function(t,n,e){var r=+("0x"+t.substring(0,4));t=t.substring(4);for(var i=it(n,r)%r+e%27,u=[],o=0;o<t.length;o+=2)if("|"!==t[o]){var a=+("0x"+t[o]+t[o+1])-i;u.push(a)}else{var l=+("0x"+t.substring(o+1,o+1+4))-i;o+=3,u.push(l)}return String.fromCharCode.apply(String,u)}(u=(u=atob(u)).replace(/[\x41-\x5A]/g,""),n,r),u=JSON.parse(u)}}var lt=[{key:"alternate",def:!1},{key:"fill",def:1},{key:"iterations",def:0},{key:"direction",def:1},{key:"speed",def:1},{key:"fps",def:100}],st=function(){function t(n,e){var i=this,u=arguments.length>2&&void 0!==arguments[2]?arguments[2]:null;r(this,t),this._id=0,this._running=!1,this._rollingBack=!1,this._animations=n,this._settings=e,(!u||u<"2022-05-02")&&delete this._settings.speed,lt.forEach((function(t){i._settings[t.key]=i._settings[t.key]||t.def})),this.duration=e.duration,this.offset=e.offset||0,this.rollbackStartOffset=0}return u(t,[{key:"alternate",get:function(){return this._settings.alternate}},{key:"fill",get:function(){return this._settings.fill}},{key:"iterations",get:function(){return this._settings.iterations}},{key:"direction",get:function(){return this._settings.direction}},{key:"speed",get:function(){return this._settings.speed}},{key:"fps",get:function(){return this._settings.fps}},{key:"maxFiniteDuration",get:function(){return this.iterations>0?this.iterations*this.duration:this.duration}},{key:"_apply",value:function(t){for(var n=arguments.length>1&&void 0!==arguments[1]?arguments[1]:{},e=this._animations,r=e.length,i=0,u=0;u<r;u++)n[u]?i++:(n[u]=e[u](t,1),n[u]&&i++);return i}},{key:"_rollback",value:function(t){var n=this,e=1/0,r=null;this.rollbackStartOffset=t,this._rollingBack=!0,this._running=!0;this._id=window.requestAnimationFrame((function i(u){if(n._rollingBack){null==r&&(r=u);var o=Math.round(t-(u-r)*n.speed);if(o>n.duration&&e!==1/0){var a=!!n.alternate&&o/n.duration%2>1,l=o%n.duration;o=(l+=a?n.duration:0)||n.duration}var s=(n.fps?1e3/n.fps:0)*n.speed,f=Math.max(0,o);f<=e-s&&(n.offset=f,e=f,n._apply(f));var c=n.iterations>0&&-1===n.fill&&o>=n.maxFiniteDuration;(o<=0||n.offset<o||c)&&n.stop(),n._id=window.requestAnimationFrame(i)}}))}},{key:"_start",value:function(){var t=this,n=arguments.length>0&&void 0!==arguments[0]?arguments[0]:0,e=-1/0,r=null,i={};this._running=!0;var u=function u(o){null==r&&(r=o);var a=Math.round((o-r)*t.speed+n),l=(t.fps?1e3/t.fps:0)*t.speed;if(a>=e+l&&!t._rollingBack&&(t.offset=a,e=a,t._apply(a,i)===t._animations.length))return void t.pause(!0);t._id=window.requestAnimationFrame(u)};this._id=window.requestAnimationFrame(u)}},{key:"_pause",value:function(){this._id&&window.cancelAnimationFrame(this._id),this._running=!1}},{key:"play",value:function(){if(!this._running)return this._rollingBack?this._rollback(this.offset):this._start(this.offset)}},{key:"stop",value:function(){this._pause(),this.offset=0,this.rollbackStartOffset=0,this._rollingBack=!1,this._apply(0)}},{key:"reachedToEnd",value:function(){return this.iterations>0&&this.offset>=this.iterations*this.duration}},{key:"restart",value:function(){var t=arguments.length>0&&void 0!==arguments[0]&&arguments[0];this.stop(t),this.play(t)}},{key:"pause",value:function(){this._pause()}},{key:"reverse",value:function(){this.direction=-this.direction}}],[{key:"build",value:function(t,n){delete t.animationSettings,t.options=at(t.options,t.root,"5c7f360c"),t.animations.map((function(n){n.settings=at(n.s,t.root,"5c7f360c"),delete n.s,t.animationSettings||(t.animationSettings=n.settings)}));var e=t.version;if(!(t=rt(t,n)))return null;var r=t.options||{},i=new this(t.animations,t.animationSettings,e);return{el:t.svg,options:r,player:i}}},{key:"push",value:function(t){return this.build(t)}},{key:"init",value:function(){var t=this,n=window.__SVGATOR_PLAYER__&&window.__SVGATOR_PLAYER__["5c7f360c"];Array.isArray(n)&&n.splice(0).forEach((function(n){return t.build(n)}))}}]),t}();function ft(t){return d(t)+""}function ct(t){var n=arguments.length>1&&void 0!==arguments[1]?arguments[1]:" ";return t&&t.length?t.map(ft).join(n):""}function ht(t){if(!t)return"transparent";if(null==t.a||t.a>=1){var n=function(t){return 1===(t=parseInt(t).toString(16)).length?"0"+t:t},e=function(t){return t.charAt(0)===t.charAt(1)},r=n(t.r),i=n(t.g),u=n(t.b);return e(r)&&e(i)&&e(u)&&(r=r.charAt(0),i=i.charAt(0),u=u.charAt(0)),"#"+r+i+u}return"rgba("+t.r+","+t.g+","+t.b+","+t.a+")"}function vt(t){return t?"url(#"+t+")":"none"}!function(){for(var t=0,n=["ms","moz","webkit","o"],e=0;e<n.length&&!window.requestAnimationFrame;++e)window.requestAnimationFrame=window[n[e]+"RequestAnimationFrame"],window.cancelAnimationFrame=window[n[e]+"CancelAnimationFrame"]||window[n[e]+"CancelRequestAnimationFrame"];window.requestAnimationFrame||(window.requestAnimationFrame=function(n){var e=Date.now(),r=Math.max(0,16-(e-t)),i=window.setTimeout((function(){n(e+r)}),r);return t=e+r,i},window.cancelAnimationFrame=window.clearTimeout)}();var yt={f:null,i:function(t,n,e){return 0===t?n:1===t?e:{x:q(t,n.x,e.x),y:q(t,n.y,e.y)}},u:function(t,n){return function(e){var r=n(e);t.setAttribute("rx",ft(r.x)),t.setAttribute("ry",ft(r.y))}}},gt={f:null,i:function(t,n,e){return 0===t?n:1===t?e:{width:q(t,n.width,e.width),height:q(t,n.height,e.height)}},u:function(t,n){return function(e){var r=n(e);t.setAttribute("width",ft(r.width)),t.setAttribute("height",ft(r.height))}}};Object.freeze({M:2,L:2,Z:0,H:1,V:1,C:6,Q:4,T:2,S:4,A:7});var dt={},pt=null;function mt(t){var n=function(){if(pt)return pt;if("object"!==("undefined"==typeof document?"undefined":e(document))||!document.createElementNS)return{};var t=document.createElementNS("http://www.w3.org/2000/svg","svg");return t&&t.style?(t.style.position="absolute",t.style.opacity="0.01",t.style.zIndex="-9999",t.style.left="-9999px",t.style.width="1px",t.style.height="1px",pt={svg:t}):{}}().svg;if(!n)return function(t){return null};var r=document.createElementNS(n.namespaceURI,"path");r.setAttributeNS(null,"d",t),r.setAttributeNS(null,"fill","none"),r.setAttributeNS(null,"stroke","none"),n.appendChild(r);var i=r.getTotalLength();return function(t){var n=r.getPointAtLength(i*t);return{x:n.x,y:n.y}}}function bt(t){return dt[t]?dt[t]:dt[t]=mt(t)}function wt(t,n,e,r){if(!t||!r)return!1;var i=["M",t.x,t.y];if(n&&e&&(i.push("C"),i.push(n.x),i.push(n.y),i.push(e.x),i.push(e.y)),n?!e:e){var u=n||e;i.push("Q"),i.push(u.x),i.push(u.y)}return n||e||i.push("L"),i.push(r.x),i.push(r.y),i.join(" ")}function At(t,n,e,r){var i=arguments.length>4&&void 0!==arguments[4]?arguments[4]:1,u=wt(t,n,e,r),o=bt(u);try{return o(i)}catch(t){return null}}function _t(t,n,e){return t+(n-t)*e}function xt(t,n,e){var r=arguments.length>3&&void 0!==arguments[3]&&arguments[3],i={x:_t(t.x,n.x,e),y:_t(t.y,n.y,e)};return r&&(i.a=kt(t,n)),i}function kt(t,n){return Math.atan2(n.y-t.y,n.x-t.x)}function St(t,n,e,r){var i=1-r;return i*i*t+2*i*r*n+r*r*e}function Ot(t,n,e,r){return 2*(1-r)*(n-t)+2*r*(e-n)}function jt(t,n,e,r){var i=arguments.length>4&&void 0!==arguments[4]&&arguments[4],u=At(t,n,null,e,r);return u||(u={x:St(t.x,n.x,e.x,r),y:St(t.y,n.y,e.y,r)}),i&&(u.a=Et(t,n,e,r)),u}function Et(t,n,e,r){return Math.atan2(Ot(t.y,n.y,e.y,r),Ot(t.x,n.x,e.x,r))}function Mt(t,n,e,r,i){var u=i*i;return i*u*(r-t+3*(n-e))+3*u*(t+e-2*n)+3*i*(n-t)+t}function Pt(t,n,e,r,i){var u=1-i;return 3*(u*u*(n-t)+2*u*i*(e-n)+i*i*(r-e))}function It(t,n,e,r,i){var u=arguments.length>5&&void 0!==arguments[5]&&arguments[5],o=At(t,n,e,r,i);return o||(o={x:Mt(t.x,n.x,e.x,r.x,i),y:Mt(t.y,n.y,e.y,r.y,i)}),u&&(o.a=Rt(t,n,e,r,i)),o}function Rt(t,n,e,r,i){return Math.atan2(Pt(t.y,n.y,e.y,r.y,i),Pt(t.x,n.x,e.x,r.x,i))}function Ft(t,n,e){var r=arguments.length>3&&void 0!==arguments[3]&&arguments[3];if(Tt(n)){if(Bt(e))return jt(n,e.start,e,t,r)}else if(Tt(e)){if(qt(n))return jt(n,n.end,e,t,r)}else{if(qt(n))return Bt(e)?It(n,n.end,e.start,e,t,r):jt(n,n.end,e,t,r);if(Bt(e))return jt(n,e.start,e,t,r)}return xt(n,e,t,r)}function Nt(t,n,e){var r=Ft(t,n,e,!0);return r.a=function(t){return arguments.length>1&&void 0!==arguments[1]&&arguments[1]?t+Math.PI:t}(r.a)/m,r}function Tt(t){return!t.type||"corner"===t.type}function Bt(t){return null!=t.start&&!Tt(t)}function qt(t){return null!=t.end&&!Tt(t)}var Dt=new N;var Lt={f:ft,i:B},Ct={f:ft,i:D};function Vt(t,n,e){return t.map((function(t){return function(t,n,e){var r=t.v;if(!r||"g"!==r.t||r.s||!r.v||!r.r)return t;var i=e.getElementById(r.r),u=i&&i.querySelectorAll("stop")||[];return r.s=r.v.map((function(t,n){var e=u[n]&&u[n].getAttribute("offset");return{c:t,o:e=d(parseInt(e)/100)}})),delete r.v,t}(t,0,e)}))}var Gt={gt:"gradientTransform",c:{x:"cx",y:"cy"},rd:"r",f:{x:"x1",y:"y1"},to:{x:"x2",y:"y2"}};function zt(t,n,r,i,u,o,a,l){return Vt(t,0,l),n=function(t,n,e){for(var r,i,u,o=t.length-1,a={},l=0;l<=o;l++)(r=t[l]).e&&(r.e=n(r.e)),r.v&&"g"===(i=r.v).t&&i.r&&(u=e.getElementById(i.r))&&(a[i.r]={e:u,s:u.querySelectorAll("stop")});return a}(t,i,l),function(i){var u=r(i,t,Yt);if(!u)return"none";if("c"===u.t)return ht(u.v);if("g"===u.t){if(!n[u.r])return vt(u.r);var o=n[u.r];return function(t,n){for(var e=t.s,r=e.length;r<n.length;r++){var i=e[e.length-1].cloneNode();i.id=Qt(i.id),t.e.appendChild(i),e=t.s=t.e.querySelectorAll("stop")}for(var u=0,o=e.length,a=n.length-1;u<o;u++)e[u].setAttribute("stop-color",ht(n[Math.min(u,a)].c)),e[u].setAttribute("offset",n[Math.min(u,a)].o)}(o,u.s),Object.keys(Gt).forEach((function(t){if(void 0!==u[t])if("object"!==e(Gt[t])){var n,r="gt"===t?(n=u[t],Array.isArray(n)?"matrix("+n.join(" ")+")":""):u[t],i=Gt[t];o.e.setAttribute(i,r)}else Object.keys(Gt[t]).forEach((function(n){if(void 0!==u[t][n]){var e=u[t][n],r=Gt[t][n];o.e.setAttribute(r,e)}}))})),vt(u.r)}return"none"}}function Yt(t,e,r){if(0===t)return e;if(1===t)return r;if(e&&r){var i=e.t;if(i===r.t)switch(e.t){case"c":return{t:i,v:V(t,e.v,r.v)};case"g":if(e.r===r.r){var u={t:i,s:$t(t,e.s,r.s),r:e.r};return e.gt&&r.gt&&(u.gt=function(t,n,e){var r=n.length;if(r!==e.length)return T(t,n,e);for(var i=new Array(r),u=0;u<r;u++)i[u]=B(t,n[u],e[u]);return i}(t,e.gt,r.gt)),e.c?(u.c=L(t,e.c,r.c),u.rd=q(t,e.rd,r.rd)):e.f&&(u.f=L(t,e.f,r.f),u.to=L(t,e.to,r.to)),u}}if("c"===e.t&&"g"===r.t||"c"===r.t&&"g"===e.t){var o="c"===e.t?e:r,a="g"===e.t?n({},e):n({},r),l=a.s.map((function(t){return{c:o.v,o:t.o}}));return a.s="c"===e.t?$t(t,l,a.s):$t(t,a.s,l),a}}return T(t,e,r)}function $t(t,n,e){if(n.length===e.length)return n.map((function(n,r){return Ut(t,n,e[r])}));for(var r=Math.max(n.length,e.length),i=[],u=0;u<r;u++){var o=Ut(t,n[Math.min(u,n.length-1)],e[Math.min(u,e.length-1)]);i.push(o)}return i}function Ut(t,n,e){return{o:D(t,n.o,e.o||0),c:V(t,n.c,e.c||{})}}function Qt(t){return t.replace(/-fill-([0-9]+)$/,(function(t,n){return"-fill-"+(+n+1)}))}var Ht={fill:zt,"fill-opacity":Ct,stroke:zt,"stroke-opacity":Ct,"stroke-width":Lt,"stroke-dashoffset":{f:ft,i:B},"stroke-dasharray":{f:function(t){var n=arguments.length>1&&void 0!==arguments[1]?arguments[1]:" ";return t&&t.length>0&&(t=t.map((function(t){return d(t,4)}))),ct(t,n)},i:function(t,n,e){var r,i,u,o=n.length,a=e.length;if(o!==a)if(0===o)n=G(o=a,0);else if(0===a)a=o,e=G(o,0);else{var l=(u=(r=o)*(i=a)/function(t,n){for(var e;n;)e=n,n=t%n,t=e;return t||1}(r,i))<0?-u:u;n=z(n,Math.floor(l/o)),e=z(e,Math.floor(l/a)),o=a=l}for(var s=[],f=0;f<o;f++)s.push(d(q(t,n[f],e[f])));return s}},opacity:Ct,transform:function(t,n,r,i){if(!(t=function(t,n){if(!t||"object"!==e(t))return null;var r=!1;for(var i in t)t.hasOwnProperty(i)&&(t[i]&&t[i].length?(t[i].forEach((function(t){t.e&&(t.e=n(t.e))})),r=!0):delete t[i]);return r?t:null}(t,i)))return null;var u=function(e,i,u){var o=arguments.length>3&&void 0!==arguments[3]?arguments[3]:null;return t[e]?r(i,t[e],u):n&&n[e]?n[e]:o};return n&&n.a&&t.o?function(n){var e=r(n,t.o,Nt);return Dt.recomposeSelf(e,u("r",n,B,0)+e.a,u("k",n,L),u("s",n,L),u("t",n,L)).toString()}:function(t){return Dt.recomposeSelf(u("o",t,Ft,null),u("r",t,B,0),u("k",t,L),u("s",t,L),u("t",t,L)).toString()}},r:Lt,"#size":gt,"#radius":yt,_:function(t,n){if(Array.isArray(t))for(var e=0;e<t.length;e++)this[t[e]]=n;else this[t]=n}},Jt=function(t){!function(t,n){if("function"!=typeof n&&null!==n)throw new TypeError("Super expression must either be null or a function");t.prototype=Object.create(n&&n.prototype,{constructor:{value:t,writable:!0,configurable:!0}}),n&&l(t,n)}(o,t);var n,e,i=(n=o,e=s(),function(){var t,r=a(n);if(e){var i=a(this).constructor;t=Reflect.construct(r,arguments,i)}else t=r.apply(this,arguments);return c(this,t)});function o(){return r(this,o),i.apply(this,arguments)}return u(o,null,[{key:"build",value:function(t){var n=h(a(o),"build",this).call(this,t,Ht);if(!n)return null;n.el,n.options,function(t,n,e){t.play()}(n.player)}}]),o}(st);return Jt.init(),Jt}));
(function(s,i,o,w,d,a,b){w[o]=w[o]||{};w[o][s]=w[o][s]||[];w[o][s].push(i);})('5c7f360c',{"root":"ewraTROWXBH1","version":"2022-05-04","animations":[{"elements":{"ewraTROWXBH70":{"transform":{"data":{"o":{"x":353.29274,"y":308.595352,"type":"corner"},"t":{"x":-353.292726,"y":-308.595333}},"keys":{"r":[{"t":0,"v":360},{"t":2000,"v":405},{"t":4000,"v":360}]}}}},"s":"MKDA1ZDhhMzE3Mzg0ODNE3MDgzNzg3ZTdkMzEF0OTQzM2YzZjNmM2IzPMTczNzg4MTc0NzI4MLzc4N2VBN2QzMTQ5NDRAzYjMxNzg4M0g3NDgJxNzA4Mzc4N2VVN2Q4RMjMxNDkzZjNiMzFWNJzU3ODdiN2IzMTQ5NDTAzYjMxNzA3YjgzNzQT4MTdkNzBKODM3NDMxGVjQ5NzVLNzA3YjgyNLzQzYjMxODI3Zjc0NzXRGNzMzMTQ5NDAzYlECzMTc1N2Y4MjMxNDk0FMDNmM2Y4Yw|"}],"options":"MADAxMDg4MmY4MDgxNmPU3ZjgxMmY0NzJmNzkR3YzZlNzFRMmY4YU8/F"},'__SVGATOR_PLAYER__',window,document)
]]></script>
</svg>
