<?xml version="1.0" encoding="UTF-8" standalone="no"?>
<svg
   version="1.0"
   width="300pt"
   height="300pt"
   viewBox="0 0 300 300"
   preserveAspectRatio="xMidYMid"
   id="svg665"
   sodipodi:docname="robostack.svg"
   inkscape:version="1.2.2 (b0a8486541, 2022-12-01)"
   inkscape:export-filename="../Repos/Docs/reveal.js/presentations/thesis_src/images/robostack.svg"
   inkscape:export-xdpi="96"
   inkscape:export-ydpi="96"
   xmlns:inkscape="http://www.inkscape.org/namespaces/inkscape"
   xmlns:sodipodi="http://sodipodi.sourceforge.net/DTD/sodipodi-0.dtd"
   xmlns="http://www.w3.org/2000/svg"
   xmlns:svg="http://www.w3.org/2000/svg">
  <defs
     id="defs669" />
  <sodipodi:namedview
     id="namedview667"
     pagecolor="#ffffff"
     bordercolor="#000000"
     borderopacity="0.25"
     inkscape:showpageshadow="2"
     inkscape:pageopacity="0.0"
     inkscape:pagecheckerboard="0"
     inkscape:deskcolor="#d1d1d1"
     inkscape:document-units="pt"
     showgrid="false"
     inkscape:zoom="0.59"
     inkscape:cx="166.10169"
     inkscape:cy="200"
     inkscape:window-width="2822"
     inkscape:window-height="1718"
     inkscape:window-x="58"
     inkscape:window-y="48"
     inkscape:window-maximized="1"
     inkscape:current-layer="g663" />
  <g
     transform="matrix(0.1,0,0,-0.1,0,300)"
     fill="#000000"
     stroke="none"
     id="g663">
    <path
       d="M 185,2931 C 136,2908 96,2867 76,2818 62,2785 60,2634 60,1492 V 204 l 29,-47 c 17,-25 49,-59 72,-74 l 43,-28 h 1311 1312 l 39,30 c 47,35 59,49 81,95 16,32 17,130 18,1315 v 1280 l -23,47 c -29,58 -79,103 -129,117 -26,7 -453,11 -1313,11 -1220,0 -1277,-1 -1315,-19 z m 1008,-460 c 111,-32 189,-105 220,-205 16,-55 16,-317 -1,-373 -26,-88 -109,-167 -209,-198 -29,-9 -53,-19 -53,-21 0,-2 24,-41 53,-87 30,-45 77,-120 106,-167 29,-47 77,-123 107,-170 29,-47 53,-94 51,-104 -3,-27 -50,-60 -75,-52 -16,6 -105,128 -132,181 -3,6 -34,56 -70,113 -36,56 -71,112 -77,124 -7,13 -34,55 -60,93 l -48,70 -192,3 -192,2 -3,-274 c -2,-199 -6,-278 -15,-287 -19,-19 -74,-15 -89,6 -12,15 -14,137 -14,670 0,573 2,653 16,673 15,22 17,22 312,22 264,0 305,-2 365,-19 z m 1111,-598 c 104,-38 169,-126 188,-255 13,-83 -3,-118 -52,-118 -35,0 -51,28 -68,123 -14,75 -41,111 -100,134 -41,16 -79,18 -292,18 -241,0 -246,0 -295,-25 -75,-37 -90,-75 -90,-220 0,-141 16,-181 84,-219 43,-24 52,-25 280,-28 130,-2 263,-9 296,-15 178,-33 259,-150 259,-373 -1,-203 -69,-315 -222,-361 -77,-23 -539,-27 -617,-5 -127,36 -189,97 -220,218 -29,111 -14,183 39,183 43,0 66,-36 66,-102 0,-24 9,-61 19,-83 47,-103 102,-117 423,-113 236,3 244,4 293,28 39,20 54,35 74,75 49,98 38,286 -21,360 -42,53 -70,58 -358,66 -313,8 -351,16 -432,100 -63,64 -83,128 -83,269 0,145 20,206 88,274 83,81 97,84 417,85 238,1 282,-1 324,-16 z"
       id="path659"
       style="fill:#000080;fill-opacity:1" />
    <path
       d="m 620,2085 v -285 l 143,-1 c 327,-2 400,1 443,22 79,37 108,107 109,254 0,119 -16,182 -59,229 -51,58 -100,66 -388,66 H 620 Z"
       id="path661"
       style="fill:#000080;fill-opacity:1" />
  </g>
</svg>
