<svg version="1.1" viewBox="0.0 0.0 768.7139107611548 531.3202099737533" fill="none" stroke="none" stroke-linecap="square" stroke-miterlimit="10" xmlns:xlink="http://www.w3.org/1999/xlink" xmlns="http://www.w3.org/2000/svg"><clipPath id="p.0"><path d="m0 0l768.7139 0l0 531.3202l-768.7139 0l0 -531.3202z" clip-rule="nonzero"/></clipPath><g clip-path="url(#p.0)"><path fill="#000000" fill-opacity="0.0" d="m0 0l768.7139 0l0 531.3202l-768.7139 0z" fill-rule="evenodd"/><path fill="#000000" fill-opacity="0.0" d="m-13.998685 314.39896l603.7795 0l0 290.80313l-603.7795 0z" fill-rule="evenodd"/><path fill="#073763" d="m162.87631 475.14084l26.03125 -137.59375l39.71875 0l-42.90625 193.37503l-40.109375 0l-31.46875 -129.3594l-31.484375 129.3594l-40.10937 0l-42.890625 -193.37503l39.703125 0l26.171871 137.32812l31.875 -137.32812l33.734375 0l31.734375 137.59375zm203.60156 -28.03125l-76.5 0l0 51.796875l89.78125 0l0 32.015656l-129.625 0l0 -193.37503l129.35938 0l0 32.265625l-89.515625 0l0 46.09375l76.5 0l0 31.203125zm36.65625 83.81253l0 -193.37503l67.734375 0q35.203125 0 53.390656 13.484375q18.203125 13.46875 18.203125 39.5q0 14.21875 -7.3125 25.046875q-7.296875 10.8125 -20.3125 15.859375q14.875 3.71875 23.4375 15.015625q8.5625 11.28125 8.5625 27.625q0 27.890625 -17.796875 42.234406q-17.796906 14.34375 -50.734406 14.609375l-75.171875 0zm39.84375 -84.203156l0 52.1875l34.140625 0q14.078125 0 21.96875 -6.703125q7.90625 -6.703125 7.90625 -18.53125q0 -26.5625 -27.484375 -26.953125l-36.53125 0zm0 -28.15625l29.484375 0q30.15625 -0.53125 30.15625 -24.046875q0 -13.140625 -7.640625 -18.921875q-7.640625 -5.78125 -24.109375 -5.78125l-27.890625 0l0 48.75z" fill-rule="nonzero"/><path fill="#073763" d="m0.001312336 22.656168l0 0c0 -11.915435 9.6593685 -21.574802 21.574802 -21.574802l0 0c5.7219944 0 11.209629 2.2730532 15.255692 6.3191137c4.0460587 4.0460606 6.319111 9.533695 6.319111 15.25569l0 0c0 11.915434 -9.659367 21.574804 -21.574802 21.574804l0 0c-11.915434 0 -21.574802 -9.65937 -21.574802 -21.574804z" fill-rule="evenodd"/><path fill="#000000" fill-opacity="0.0" d="m239.52231 -11.0l603.77954 0l0 223.1811l-603.77954 0z" fill-rule="evenodd"/><path fill="#073763" d="m337.38168 127.71367l-31.75 0l0 70.796875l-39.84375 0l0 -193.375l71.859375 0q34.265625 0 52.859375 15.28125q18.59375 15.265625 18.59375 43.15625q0 19.78125 -8.578125 33.0q-8.5625 13.21875 -25.953125 21.046875l41.828125 79.03125l0 1.859375l-42.765625 0l-36.25 -70.796875zm-31.75 -32.265625l32.140625 0q15.015625 0 23.25 -7.640625q8.234375 -7.640625 8.234375 -21.046875q0 -13.6875 -7.78125 -21.515625q-7.765625 -7.84375 -23.828125 -7.84375l-32.015625 0l0 58.046875zm292.58597 10.75q0 28.5625 -10.09375 50.078125q-10.09375 21.515625 -28.890625 33.203125q-18.78125 11.6875 -43.09375 11.6875q-24.03128 0 -42.890656 -11.546875q-18.859375 -11.5625 -29.21875 -33.015625q-10.359375 -21.453125 -10.5 -49.34375l0 -9.5625q0 -28.546875 10.296875 -50.265625q10.296875 -21.71875 29.078125 -33.328125q18.796875 -11.625 42.96878 -11.625q24.171875 0 42.96875 11.625q18.796875 11.609375 29.078125 33.328125q10.296875 21.71875 10.296875 50.140625l0 8.625zm-40.375 -8.765625q0 -30.40625 -10.890625 -46.203125q-10.890625 -15.8125 -31.078125 -15.8125q-20.046906 0 -30.93753 15.609375q-10.890625 15.59375 -11.03125 45.75l0 9.421875q0 29.625 10.890625 45.96875q10.890625 16.328125 31.34378 16.328125q20.0625 0 30.8125 -15.734375q10.765625 -15.75 10.890625 -45.890625l0 -9.4375zm169.60938 50.34375q0 -11.296875 -7.96875 -17.328125q-7.96875 -6.046875 -28.6875 -12.75q-20.71875 -6.71875 -32.8125 -13.21875q-32.9375 -17.796875 -32.9375 -47.953125q0 -15.671875 8.828125 -27.953125q8.84375 -12.28125 25.375 -19.1875q16.53125 -6.90625 37.125 -6.90625q20.71875 0 36.921875 7.5q16.203125 7.5 25.15625 21.1875q8.96875 13.671875 8.96875 31.078125l-39.84375 0q0 -13.28125 -8.375 -20.65625q-8.359375 -7.375 -23.5 -7.375q-14.609375 0 -22.71875 6.1875q-8.09375 6.171875 -8.09375 16.265625q0 9.421875 9.5 15.796875q9.5 6.375 27.953125 11.953125q34.0 10.234375 49.53125 25.375q15.546875 15.140625 15.546875 37.71875q0 25.09375 -19.0 39.375q-18.984375 14.28125 -51.125 14.28125q-22.3125 0 -40.640625 -8.171875q-18.328125 -8.171875 -27.953125 -22.375q-9.625 -14.21875 -9.625 -32.9375l39.96875 0q0 32.0 38.25 32.0q14.21875 0 22.1875 -5.765625q7.96875 -5.78125 7.96875 -16.140625z" fill-rule="nonzero"/><path fill="#073763" d="m74.30446 22.656168l0 0c0 -11.915435 9.65937 -21.574802 21.574806 -21.574802l0 0c5.7219925 0 11.209633 2.2730532 15.255692 6.3191137c4.0460587 4.0460606 6.3191147 9.533695 6.3191147 15.25569l0 0c0 11.915434 -9.65937 21.574804 -21.574806 21.574804l0 0c-11.915436 0 -21.574806 -9.65937 -21.574806 -21.574804z" fill-rule="evenodd"/><path fill="#073763" d="m148.61023 22.656168l0 0c0 -11.915435 9.659378 -21.574802 21.574814 -21.574802l0 0c5.721985 0 11.209625 2.2730532 15.255692 6.3191137c4.046051 4.0460606 6.319107 9.533695 6.319107 15.25569l0 0c0 11.915434 -9.659363 21.574804 -21.574799 21.574804l0 0c-11.915436 0 -21.574814 -9.65937 -21.574814 -21.574804z" fill-rule="evenodd"/><path fill="#073763" d="m0.0012314961 98.383224l0 0c0 -11.915436 9.6593685 -21.574806 21.574802 -21.574806l0 0c5.7219944 0 11.209629 2.273056 15.255692 6.3191147c4.0460587 4.0460587 6.319111 9.533699 6.319111 15.255692l0 0c0 11.915436 -9.659367 21.574799 -21.574802 21.574799l0 0c-11.915435 0 -21.574802 -9.659363 -21.574802 -21.574799z" fill-rule="evenodd"/><path fill="#073763" d="m73.89362 98.383224l0 0c0 -11.915436 9.659363 -21.574806 21.574799 -21.574806l0 0c5.7219925 0 11.209633 2.273056 15.255692 6.3191147c4.0460587 4.0460587 6.3191147 9.533699 6.3191147 15.255692l0 0c0 11.915436 -9.65937 21.574799 -21.574806 21.574799l0 0c-11.915436 0 -21.574799 -9.659363 -21.574799 -21.574799z" fill-rule="evenodd"/><path fill="#073763" d="m148.61015 98.59057l0 0c0 -11.915428 9.659378 -21.574799 21.574799 -21.574799l0 0c5.722 0 11.2096405 2.2730484 15.255692 6.3191147c4.0460663 4.0460587 6.3191223 9.533691 6.3191223 15.255684l0 0c0 11.915436 -9.659378 21.574806 -21.574814 21.574806l0 0c-11.915421 0 -21.574799 -9.65937 -21.574799 -21.574806z" fill-rule="evenodd"/><path fill="#073763" d="m148.61015 174.52495l0 0c0 -11.915436 9.659378 -21.574799 21.574799 -21.574799l0 0c5.722 0 11.2096405 2.273056 15.255692 6.3191223c4.0460663 4.046051 6.3191223 9.533691 6.3191223 15.255676l0 0c0 11.915436 -9.659378 21.574814 -21.574814 21.574814l0 0c-11.915421 0 -21.574799 -9.659378 -21.574799 -21.574814z" fill-rule="evenodd"/><path fill="#073763" d="m73.89362 174.11026l0 0c0 -11.915436 9.659363 -21.574814 21.574799 -21.574814l0 0c5.7219925 0 11.209633 2.273056 15.255692 6.3191223c4.0460587 4.0460663 6.3191147 9.533691 6.3191147 15.255692l0 0c0 11.915436 -9.65937 21.574799 -21.574806 21.574799l0 0c-11.915436 0 -21.574799 -9.659363 -21.574799 -21.574799z" fill-rule="evenodd"/><path fill="#073763" d="m0.0012314961 174.11026l0 0c0 -11.915436 9.6593685 -21.574814 21.574802 -21.574814l0 0c5.7219944 0 11.209629 2.273056 15.255692 6.3191223c4.0460587 4.0460663 6.319111 9.533691 6.319111 15.255692l0 0c0 11.915436 -9.659367 21.574799 -21.574802 21.574799l0 0c-11.915435 0 -21.574802 -9.659363 -21.574802 -21.574799z" fill-rule="evenodd"/><path fill="#073763" d="m576.7546 357.65616l0 0c0 -11.915436 9.659363 -21.574799 21.57483 -21.574799l0 0c5.721985 0 11.209595 2.2730713 15.255676 6.3191223c4.0460815 4.046051 6.319092 9.533691 6.319092 15.255676l0 0c0 11.915436 -9.659363 21.574799 -21.574768 21.574799l0 0c-11.915466 0 -21.57483 -9.659363 -21.57483 -21.574799z" fill-rule="evenodd"/><path fill="#073763" d="m651.05774 357.65616l0 0c0 -11.915436 9.659363 -21.574799 21.57483 -21.574799l0 0c5.721985 0 11.209595 2.2730713 15.255676 6.3191223c4.0460815 4.046051 6.319092 9.533691 6.319092 15.255676l0 0c0 11.915436 -9.659363 21.574799 -21.574768 21.574799l0 0c-11.915466 0 -21.57483 -9.659363 -21.57483 -21.574799z" fill-rule="evenodd"/><path fill="#073763" d="m725.3635 357.65616l0 0c0 -11.915436 9.659363 -21.574799 21.574768 -21.574799l0 0c5.722046 0 11.209656 2.2730713 15.255737 6.3191223c4.0460205 4.046051 6.319092 9.533691 6.319092 15.255676l0 0c0 11.915436 -9.659363 21.574799 -21.57483 21.574799l0 0c-11.915405 0 -21.574768 -9.659363 -21.574768 -21.574799z" fill-rule="evenodd"/><path fill="#073763" d="m576.7545 433.3832l0 0c0 -11.915436 9.659363 -21.574799 21.57483 -21.574799l0 0c5.721985 0 11.209595 2.2730713 15.255676 6.3191223c4.0460205 4.046051 6.319092 9.533691 6.319092 15.255676l0 0c0 11.915436 -9.659363 21.57483 -21.574768 21.57483l0 0c-11.915466 0 -21.57483 -9.659393 -21.57483 -21.57483z" fill-rule="evenodd"/><path fill="#073763" d="m650.6469 433.3832l0 0c0 -11.915436 9.659363 -21.574799 21.574768 -21.574799l0 0c5.722046 0 11.209656 2.2730713 15.255737 6.3191223c4.0460205 4.046051 6.319092 9.533691 6.319092 15.255676l0 0c0 11.915436 -9.659363 21.57483 -21.57483 21.57483l0 0c-11.915405 0 -21.574768 -9.659393 -21.574768 -21.57483z" fill-rule="evenodd"/><path fill="#073763" d="m725.36346 433.59058l0 0c0 -11.915436 9.659363 -21.574799 21.574768 -21.574799l0 0c5.721985 0 11.209656 2.2730408 15.255676 6.319092c4.0460815 4.0460815 6.319153 9.533722 6.319153 15.255707l0 0c0 11.915436 -9.659363 21.574799 -21.57483 21.574799l0 0c-11.915405 0 -21.574768 -9.659363 -21.574768 -21.574799z" fill-rule="evenodd"/><path fill="#073763" d="m725.36346 509.52496l0 0c0 -11.915436 9.659363 -21.574799 21.574768 -21.574799l0 0c5.721985 0 11.209656 2.2730408 15.255676 6.319092c4.0460815 4.0460815 6.319153 9.533691 6.319153 15.255707l0 0c0 11.915405 -9.659363 21.574768 -21.57483 21.574768l0 0c-11.915405 0 -21.574768 -9.659363 -21.574768 -21.574768z" fill-rule="evenodd"/><path fill="#073763" d="m650.6469 509.11026l0 0c0 -11.915436 9.659363 -21.574799 21.574768 -21.574799l0 0c5.722046 0 11.209656 2.2730408 15.255737 6.319092c4.0460205 4.0460815 6.319092 9.533722 6.319092 15.255707l0 0c0 11.915436 -9.659363 21.574799 -21.57483 21.574799l0 0c-11.915405 0 -21.574768 -9.659363 -21.574768 -21.574799z" fill-rule="evenodd"/><path fill="#073763" d="m576.7545 509.11026l0 0c0 -11.915436 9.659363 -21.574799 21.57483 -21.574799l0 0c5.721985 0 11.209595 2.2730408 15.255676 6.319092c4.0460205 4.0460815 6.319092 9.533722 6.319092 15.255707l0 0c0 11.915436 -9.659363 21.574799 -21.574768 21.574799l0 0c-11.915466 0 -21.57483 -9.659363 -21.57483 -21.574799z" fill-rule="evenodd"/><path fill="#000000" fill-opacity="0.0" d="m315.11154 203.23228l138.48819 0l0 124.535446l-138.48819 0z" fill-rule="evenodd"/><path fill="#073763" d="m379.36154 269.3346q0 8.953125 -3.171875 15.703125q-3.171875 6.75 -9.0625 10.421875q-5.890625 3.65625 -13.515625 3.65625q-7.546875 0 -13.46875 -3.625q-5.90625 -3.625 -9.15625 -10.34375q-3.25 -6.734375 -3.296875 -15.484375l0 -3.0q0 -8.953125 3.234375 -15.765625q3.234375 -6.8125 9.125 -10.453125q5.890625 -3.65625 13.46875 -3.65625q7.59375 0 13.484375 3.65625q5.890625 3.640625 9.125 10.453125q3.234375 6.8125 3.234375 15.71875l0 2.71875zm-12.671875 -2.75q0 -9.546875 -3.421875 -14.5q-3.40625 -4.953125 -9.734375 -4.953125q-6.296875 0 -9.71875 4.890625q-3.40625 4.890625 -3.453125 14.34375l0 2.96875q0 9.28125 3.40625 14.40625q3.421875 5.125 9.84375 5.125q6.296875 0 9.671875 -4.9375q3.375 -4.9375 3.40625 -14.390625l0 -2.953125zm71.08496 31.703125l-12.5 0l-24.328125 -39.921875l0 39.921875l-12.5 0l0 -60.65625l12.5 0l24.375 39.984375l0 -39.984375l12.453125 0l0 60.65625z" fill-rule="nonzero"/><path fill="#073763" d="m0.002624672 246.81123l0 0c0 -5.6795197 4.604156 -10.283676 10.28367 -10.283676l294.55078 0c2.7273865 0 5.3430786 1.0834503 7.271637 3.012024c1.9285889 1.9285583 3.012024 4.5442505 3.012024 7.271652l0 41.13344c0 5.6795044 -4.6041565 10.283661 -10.283661 10.283661l-294.55078 0l0 0c-5.6795144 0 -10.28367 -4.6041565 -10.28367 -10.283661z" fill-rule="evenodd"/><path fill="#073763" d="m453.60104 246.81123l0 0c0 -5.6795197 4.6041565 -10.283676 10.283691 -10.283676l294.55075 0c2.727417 0 5.3430786 1.0834503 7.2716675 3.012024c1.9285278 1.9285583 3.012024 4.5442505 3.012024 7.271652l0 41.13344c0 5.6795044 -4.604187 10.283661 -10.283691 10.283661l-294.55075 0l0 0c-5.679535 0 -10.283691 -4.6041565 -10.283691 -10.283661z" fill-rule="evenodd"/></g></svg>