<?xml version="1.0" encoding="UTF-8" standalone="no"?>
<svg
   viewBox="0 0 500 500"
   version="1.1"
   id="svg1578"
   sodipodi:docname="student.svg"
   inkscape:version="1.2.2 (b0a8486541, 2022-12-01)"
   xmlns:inkscape="http://www.inkscape.org/namespaces/inkscape"
   xmlns:sodipodi="http://sodipodi.sourceforge.net/DTD/sodipodi-0.dtd"
   xmlns="http://www.w3.org/2000/svg"
   xmlns:svg="http://www.w3.org/2000/svg">
  <defs
     id="defs1582" />
  <sodipodi:namedview
     id="namedview1580"
     pagecolor="#ffffff"
     bordercolor="#000000"
     borderopacity="0.25"
     inkscape:showpageshadow="2"
     inkscape:pageopacity="0.0"
     inkscape:pagecheckerboard="0"
     inkscape:deskcolor="#d1d1d1"
     showgrid="false"
     inkscape:zoom="1.7399094"
     inkscape:cx="216.39058"
     inkscape:cy="155.46787"
     inkscape:window-width="2822"
     inkscape:window-height="1711"
     inkscape:window-x="58"
     inkscape:window-y="48"
     inkscape:window-maximized="1"
     inkscape:current-layer="freepik--background-simple--inject-6" />
  <g
     id="freepik--background-simple--inject-6">
    <path
       d="m 337.45769,77.553929 -2.00278,0.727644 a 48.107486,49.409823 0 0 0 -31.85367,39.334757 45.913969,47.156926 0 0 0 -0.46322,6.99658 50.478117,51.844632 0 0 0 23.37934,42.70709 c 8.31084,5.34539 18.47458,8.50785 24.31942,16.55391 7.58874,10.48087 4.9865,24.97778 2.04364,37.5856 -2.94285,12.60783 -5.44973,27.13274 2.13902,37.57163 4.78214,6.54879 12.75237,9.99111 20.6681,11.19452 20.96783,3.2604 42.48064,-7.65426 55.49187,-24.57198 13.01123,-16.91773 18.28384,-38.95694 18.37921,-60.47841 0.12262,-30.12725 -9.94575,-60.95417 -30.70923,-82.5596 -20.76346,-21.605435 -52.73975,-32.785962 -81.3917,-25.061741 z"
       style="fill:#f5f5f5;stroke-width:1.38075"
       id="path1347" />
    <path
       d="m 167.37649,393.36687 2.85326,-0.41808 a 64.254051,57.996445 0 0 0 54.34173,-47.17647 68.700699,62.01004 0 0 0 -20.93629,-55.42105 c -9.80115,-8.14425 -22.64085,-14.1312 -28.4956,-24.90101 -7.61488,-14.01414 -0.62994,-30.46988 6.33647,-44.6178 6.96642,-14.14792 13.93283,-30.65383 6.24384,-44.63452 -4.8172,-8.74629 -14.63688,-14.58273 -24.93828,-17.81032 -27.23572,-8.52889 -58.64016,-0.53515 -80.113755,16.42229 -21.4736,16.95744 -33.887157,41.69121 -39.204605,66.89324 -7.411079,35.36981 -1.463688,73.85015 21.06599,103.91866 22.529679,30.06852 62.66066,50.38734 102.84724,47.74506 z"
       style="fill:#f5f5f5;stroke-width:1.76024"
       id="path1349" />
    <circle
       cx="433.86"
       cy="401.5"
       r="27.73"
       style="fill:#f5f5f5"
       id="circle1351" />
    <circle
       cx="204.44096"
       cy="79.965157"
       r="27.73"
       style="fill:#f5f5f5"
       id="circle1353" />
  </g>
  <g
     id="freepik--Book--inject-6"
     transform="translate(-253.75025,-71.445756)">
    <path
       d="m 409.4,353.5 -2.27,5.7 c 0,0 -33.13,-25.2 -58.61,-23.1 v 0 a 5.23,5.23 0 0 1 -4.51,0.83 l -9.5,-2.36 a 5.33,5.33 0 0 1 -4,-3.87 v 0 c 0,0 -19.26,-15.92 -45.37,-13.45 l -9.73,0.41 41.16,-68.19 112.34,18.11 z"
       style="fill:#455a64"
       id="path1386" />
    <path
       d="m 418.08,347.3 -3.79,10.36 c 0,0 -31,-30.42 -74.25,-23.72 L 366,286.77 c 0,0 52.75,48.96 52.08,60.53 z"
       style="fill:#ebebeb"
       id="path1388" />
    <path
       d="m 449.92,273.86 c 0,0 -35.12,-42.79 -81.6,-14.39 L 340,333.94 c 0,0 51.75,-20.76 81.42,17 z"
       style="fill:#ffffff"
       id="path1390" />
    <path
       d="m 449.92,273.86 c 0,0 -0.15,0.48 -0.49,1.41 -0.34,0.93 -0.83,2.32 -1.48,4.11 L 442.24,295 c -5,13.51 -12.05,32.79 -20.57,56 l -0.13,0.37 -0.25,-0.31 a 57.45,57.45 0 0 0 -34.69,-21.16 79,79 0 0 0 -22.76,-1 94.56,94.56 0 0 0 -11.69,1.83 89.36,89.36 0 0 0 -11.61,3.3 l -0.41,0.16 -0.54,0.21 0.2,-0.54 c 10.29,-27.07 20,-52.54 28.31,-74.46 v -0.07 h 0.07 a 67.72,67.72 0 0 1 17.83,-7.82 55.6,55.6 0 0 1 32.64,1.09 67.91,67.91 0 0 1 12,5.45 78.55,78.55 0 0 1 14.78,11 c 1.55,1.47 2.68,2.67 3.42,3.49 0.37,0.41 0.64,0.73 0.82,0.95 a 3.9,3.9 0 0 1 0.26,0.33 l -0.29,-0.31 -0.85,-0.92 c -0.75,-0.8 -1.89,-2 -3.45,-3.43 a 80.73,80.73 0 0 0 -14.83,-10.92 68.14,68.14 0 0 0 -11.95,-5.36 55.3,55.3 0 0 0 -32.43,-1 67.2,67.2 0 0 0 -17.68,7.75 l 0.09,-0.11 c -8.31,21.92 -18,47.4 -28.25,74.47 l -0.34,-0.33 0.42,-0.16 a 89.36,89.36 0 0 1 11.64,-3.29 95.36,95.36 0 0 1 11.76,-1.83 79.31,79.31 0 0 1 22.9,1 57.74,57.74 0 0 1 34.94,21.37 l -0.38,0.06 L 442,295 l 5.83,-15.62 c 0.68,-1.8 1.2,-3.18 1.56,-4.12 0.36,-0.94 0.53,-1.4 0.53,-1.4 z"
       style="fill:#263238"
       id="path1392" />
    <path
       d="m 339.6,333.8 c 0,0 -31.21,-32.6 -65.86,-20.29 l 30.64,-66.41 63,14.94 z"
       style="fill:#f5f5f5"
       id="path1394" />
    <path
       d="m 339.78,334.72 -0.54,-0.57 c -0.31,-0.32 -31.38,-32.23 -65.34,-20.17 l -1.12,0.4 31.31,-67.87 0.4,0.1 63.51,15.08 -0.21,0.53 z m -50,-24.46 c 25.25,0 46.06,19.13 49.67,22.65 l 27.26,-70.52 -62,-14.71 -30,65 a 48.09,48.09 0 0 1 15.03,-2.42 z"
       style="fill:#263238"
       id="path1396" />
    <path
       d="m 368.32,259.47 c 0,0 -6.32,-29.08 -35.13,-35.91 l -18.61,-3.88 -32.37,66.23 c 0,0 46.51,10.09 57.88,47.58 z"
       style="fill:#ffffff"
       id="path1398" />
    <path
       d="m 368.32,259.47 a 3.25,3.25 0 0 1 -0.12,0.35 l -0.37,1 c -0.34,0.92 -0.83,2.25 -1.48,4 l -5.68,15.09 c -4.94,13 -12,31.52 -20.36,53.66 l -0.24,0.62 -0.2,-0.64 a 56.34,56.34 0 0 0 -7.07,-14.8 c -0.76,-1.2 -1.67,-2.31 -2.52,-3.49 -0.85,-1.18 -1.8,-2.27 -2.82,-3.33 a 68.73,68.73 0 0 0 -6.4,-6.24 c -9.2,-7.85 -20.7,-13.9 -33.18,-17.93 -1.91,-0.6 -3.83,-1.16 -5.73,-1.6 l -0.32,-0.07 0.14,-0.3 c 11.92,-24.33 23,-47 32.41,-66.2 l 0.08,-0.16 h 0.17 l 15.16,3.17 a 49.68,49.68 0 0 1 13.29,4.28 46.19,46.19 0 0 1 17,14.75 55.73,55.73 0 0 1 6.77,12.87 c 0.58,1.58 0.94,2.82 1.17,3.65 0.23,0.83 0.3,1.28 0.3,1.28 0,0 0,-0.1 -0.1,-0.31 -0.1,-0.21 -0.15,-0.54 -0.27,-1 -0.24,-0.83 -0.63,-2 -1.23,-3.62 a 56.39,56.39 0 0 0 -6.85,-12.77 46.18,46.18 0 0 0 -16.95,-14.58 49.53,49.53 0 0 0 -13.21,-4.2 l -15.17,-3.14 0.24,-0.12 -32.34,66.31 -0.18,-0.37 c 1.93,0.45 3.85,1 5.78,1.62 a 105.91,105.91 0 0 1 17.9,7.57 87.31,87.31 0 0 1 15.45,10.47 69.7,69.7 0 0 1 6.44,6.29 c 1,1.07 1.9,2.25 2.84,3.36 0.94,1.11 1.76,2.31 2.53,3.52 a 57.13,57.13 0 0 1 7.11,14.94 h -0.43 c 8.47,-22.08 15.55,-40.56 20.52,-53.53 2.5,-6.47 4.46,-11.57 5.81,-15.06 0.67,-1.73 1.19,-3.06 1.55,-4 l 0.41,-1 c 0.09,-0.22 0.15,-0.34 0.15,-0.34 z"
       style="fill:#263238"
       id="path1400" />
    <path
       d="m 321.52,234.65 c 0,0.23 2.94,0.72 7.46,2.28 a 58.77,58.77 0 0 1 16.23,8.69 51.26,51.26 0 0 1 12,12.91 c 2.35,3.71 3.29,6.2 3.56,6.15 0.1,0 -0.06,-0.65 -0.44,-1.79 a 26.6,26.6 0 0 0 -2.16,-4.72 45.77,45.77 0 0 0 -12,-13.5 53.34,53.34 0 0 0 -16.91,-8.62 37.75,37.75 0 0 0 -5.64,-1.26 6.34,6.34 0 0 0 -2.1,-0.14 z"
       style="fill:#e0e0e0"
       id="path1402" />
    <path
       d="m 316.6,241.74 c 0,0.23 2.93,0.72 7.46,2.28 a 58.77,58.77 0 0 1 16.23,8.69 51.26,51.26 0 0 1 12,12.91 c 2.35,3.71 3.29,6.21 3.56,6.15 0.1,0 -0.06,-0.65 -0.44,-1.79 a 26.58,26.58 0 0 0 -2.16,-4.71 45.66,45.66 0 0 0 -12,-13.51 53.08,53.08 0 0 0 -16.91,-8.61 35.36,35.36 0 0 0 -5.64,-1.26 6.22,6.22 0 0 0 -2.1,-0.15 z"
       style="fill:#e0e0e0"
       id="path1404" />
    <path
       d="m 313.22,250.13 c 0,0.24 2.93,0.73 7.46,2.29 a 58.77,58.77 0 0 1 16.23,8.69 51.28,51.28 0 0 1 12,12.91 c 2.35,3.71 3.29,6.2 3.55,6.15 0.26,-0.05 -0.05,-0.65 -0.43,-1.79 a 26.6,26.6 0 0 0 -2.16,-4.72 45.68,45.68 0 0 0 -12,-13.5 53.2,53.2 0 0 0 -16.9,-8.62 38,38 0 0 0 -5.64,-1.26 6.57,6.57 0 0 0 -2.11,-0.15 z"
       style="fill:#e0e0e0"
       id="path1406" />
    <path
       d="m 308.63,257.45 c 0,0.24 2.93,0.73 7.46,2.29 a 58.5,58.5 0 0 1 16.23,8.69 51.28,51.28 0 0 1 12,12.91 c 2.35,3.71 3.29,6.2 3.55,6.15 0.11,0 -0.05,-0.65 -0.43,-1.79 a 26.6,26.6 0 0 0 -2.16,-4.72 45.68,45.68 0 0 0 -12,-13.5 53,53 0 0 0 -16.9,-8.62 38,38 0 0 0 -5.64,-1.26 6.57,6.57 0 0 0 -2.11,-0.15 z"
       style="fill:#e0e0e0"
       id="path1408" />
    <path
       d="m 303.61,265.11 c 0,0.23 2.93,0.72 7.46,2.28 a 58.77,58.77 0 0 1 16.23,8.69 51.45,51.45 0 0 1 12,12.91 c 2.35,3.71 3.29,6.21 3.55,6.15 0.26,-0.06 -0.05,-0.65 -0.43,-1.79 a 26.58,26.58 0 0 0 -2.16,-4.71 45.58,45.58 0 0 0 -12,-13.51 52.94,52.94 0 0 0 -16.9,-8.61 35.6,35.6 0 0 0 -5.64,-1.26 6.22,6.22 0 0 0 -2.11,-0.15 z"
       style="fill:#e0e0e0"
       id="path1410" />
    <path
       d="m 297.57,273.54 c 0,0.24 3.19,0.76 8.1,2.53 a 71.11,71.11 0 0 1 8.35,3.64 85.62,85.62 0 0 1 9.42,5.78 77.59,77.59 0 0 1 8.27,7 52.17,52.17 0 0 1 5.55,6.56 c 2.79,3.94 3.77,6.66 4.05,6.6 0.1,0 -0.09,-0.7 -0.53,-1.94 a 13.72,13.72 0 0 0 -1,-2.21 23,23 0 0 0 -1.62,-2.85 44.29,44.29 0 0 0 -5.44,-6.88 66.82,66.82 0 0 0 -8.4,-7.24 73.71,73.71 0 0 0 -9.71,-5.84 60.74,60.74 0 0 0 -8.61,-3.49 35,35 0 0 0 -3.46,-0.95 21.76,21.76 0 0 0 -2.65,-0.52 7.56,7.56 0 0 0 -2.32,-0.19 z"
       style="fill:#e0e0e0"
       id="path1412" />
    <path
       d="m 294.66,280.93 c 0,0.24 3.21,0.75 8.1,2.6 a 68.4,68.4 0 0 1 8.3,3.83 83.27,83.27 0 0 1 9.26,6.05 78.37,78.37 0 0 1 8.07,7.22 55.93,55.93 0 0 1 5.42,6.68 c 2.74,4 3.74,6.72 4,6.67 0.1,0 -0.09,-0.71 -0.52,-2 a 13.84,13.84 0 0 0 -1,-2.23 21.23,21.23 0 0 0 -1.58,-2.87 47.8,47.8 0 0 0 -5.29,-7 69.77,69.77 0 0 0 -8.19,-7.47 74.77,74.77 0 0 0 -9.56,-6.12 59.55,59.55 0 0 0 -8.63,-3.67 31.4,31.4 0 0 0 -3.47,-1 19,19 0 0 0 -2.66,-0.54 7.48,7.48 0 0 0 -2.25,-0.15 z"
       style="fill:#e0e0e0"
       id="path1414" />
    <path
       d="m 359.32,318.73 c 0.16,0.2 2.78,-1.32 7.6,-2.75 a 49.3,49.3 0 0 1 20,-1.52 54.52,54.52 0 0 1 19.65,6.67 c 4.64,2.66 7.09,4.84 7.27,4.68 0.18,-0.16 -0.48,-0.66 -1.59,-1.64 a 39.44,39.44 0 0 0 -5.12,-3.79 50.89,50.89 0 0 0 -20.13,-7.23 45.43,45.43 0 0 0 -20.57,2 31.51,31.51 0 0 0 -5.41,2.41 c -1.18,0.64 -1.76,1.1 -1.7,1.17 z"
       style="fill:#e0e0e0"
       id="path1416" />
    <path
       d="m 363.23,309.26 c 0.16,0.2 2.78,-1.32 7.6,-2.75 a 49.28,49.28 0 0 1 20,-1.52 54.52,54.52 0 0 1 19.65,6.67 c 4.64,2.65 7.09,4.84 7.26,4.68 0.17,-0.16 -0.47,-0.66 -1.58,-1.65 a 38.63,38.63 0 0 0 -5.12,-3.78 50.73,50.73 0 0 0 -20.15,-7.23 45.59,45.59 0 0 0 -20.57,1.94 32.2,32.2 0 0 0 -5.41,2.42 c -1.16,0.69 -1.74,1.15 -1.68,1.22 z"
       style="fill:#e0e0e0"
       id="path1418" />
    <path
       d="m 367.13,299.79 c 0.16,0.2 2.78,-1.33 7.61,-2.75 a 49.05,49.05 0 0 1 20,-1.52 54.32,54.32 0 0 1 19.66,6.67 c 4.63,2.65 7.08,4.84 7.26,4.67 0.18,-0.17 -0.47,-0.65 -1.58,-1.64 a 38.18,38.18 0 0 0 -5.13,-3.78 50.46,50.46 0 0 0 -20.15,-7.23 45.54,45.54 0 0 0 -20.56,1.94 32.2,32.2 0 0 0 -5.41,2.42 c -1.17,0.69 -1.76,1.15 -1.7,1.22 z"
       style="fill:#e0e0e0"
       id="path1420" />
    <path
       d="m 371,290.31 c 0.16,0.21 2.78,-1.32 7.61,-2.75 a 49.25,49.25 0 0 1 20,-1.51 54.33,54.33 0 0 1 19.66,6.66 c 4.63,2.66 7.08,4.84 7.26,4.68 0.18,-0.16 -0.47,-0.65 -1.58,-1.64 a 40.4,40.4 0 0 0 -5.13,-3.79 50.83,50.83 0 0 0 -20.15,-7.23 45.67,45.67 0 0 0 -20.56,1.95 31.94,31.94 0 0 0 -5.42,2.42 c -1.12,0.69 -1.69,1.14 -1.69,1.21 z"
       style="fill:#e0e0e0"
       id="path1422" />
    <path
       d="m 375,280.84 c 0.16,0.21 2.78,-1.32 7.6,-2.75 a 49.15,49.15 0 0 1 20,-1.51 54.33,54.33 0 0 1 19.66,6.66 c 4.63,2.66 7.08,4.84 7.26,4.68 0.18,-0.16 -0.47,-0.66 -1.58,-1.64 a 40.4,40.4 0 0 0 -5.13,-3.79 50.89,50.89 0 0 0 -20.15,-7.23 45.43,45.43 0 0 0 -20.57,1.95 32.25,32.25 0 0 0 -5.41,2.41 c -1.2,0.69 -1.79,1.15 -1.68,1.22 z"
       style="fill:#e0e0e0"
       id="path1424" />
    <path
       d="m 378.86,271.37 c 0.16,0.2 2.78,-1.32 7.6,-2.75 a 49.3,49.3 0 0 1 20,-1.52 54.45,54.45 0 0 1 19.65,6.67 c 4.64,2.65 7.09,4.84 7.27,4.68 0.18,-0.16 -0.48,-0.66 -1.58,-1.65 a 41.52,41.52 0 0 0 -5.1,-3.8 50.73,50.73 0 0 0 -20.15,-7.23 45.43,45.43 0 0 0 -20.55,1.97 31.51,31.51 0 0 0 -5.41,2.41 c -1.21,0.69 -1.79,1.15 -1.73,1.22 z"
       style="fill:#e0e0e0"
       id="path1426" />
  </g>
  <g
     id="freepik--Character--inject-6">
    <rect
       x="126.65"
       y="418"
       width="15.25"
       height="54.74"
       rx="7.2"
       style="fill:#263238"
       id="rect1429" />
    <path
       d="M187.81,484.12s-19.88,0-28.65,0-18.21,1-22-4.18c-3-4-2.46-9.39-2.23-14.23q1-20.43,1.93-40.86c.17-3.69.37-7.46,1.91-10.91s8.49-51.18,12.67-52h35.42Z"
       style="fill:#263238"
       id="path1431" />
    <path
       d="M180.36,462.29c0,.14-9.49.26-21.2.26s-21.2-.12-21.2-.26,9.49-.27,21.2-.27S180.36,462.14,180.36,462.29Z"
       style="fill:#455a64"
       id="path1433" />
    <path
       d="M163.47,407c.15,0,.26,12.36.26,27.61s-.11,27.62-.26,27.62-.26-12.36-.26-27.62S163.33,407,163.47,407Z"
       style="fill:#455a64"
       id="path1435" />
    <path
       d="M137,469.52a1.69,1.69,0,0,1-.06-.51c0-.39,0-.87-.07-1.45-.06-1.27-.11-3.1-.16-5.36-.1-4.52-.16-10.77-.1-17.67s.22-13.16.4-17.68c.08-2.26.17-4.09.24-5.35l.1-1.46a1.82,1.82,0,0,1,.07-.5,1.81,1.81,0,0,1,0,.51v1.45c0,1.35,0,3.16-.09,5.36-.06,4.59-.14,10.8-.24,17.67s0,13.07-.05,17.67c0,2.2,0,4,0,5.36,0,.58,0,1.06,0,1.45A2,2,0,0,1,137,469.52Z"
       style="fill:#455a64"
       id="path1437" />
    <path
       d="M332.89,292.88s15.55,3,23.47,28.07c9.05,28.71,24.32,87.57,24.2,94.36S363.12,433,363.12,433l-24.81-8.27-13-49Z"
       style="fill:#BDCD00"
       id="path1439" />
    <path
       d="M332.89,292.88l-38.26-14.19L292,275.33l-49.34,1.53L239,279.22s-37.09,8.13-40.93,8.63c-9,1.15-18.43,13.53-18.43,13.53-1,1.15-47.56,68.93-47.56,68.93L142.93,413s5.13,1.81,19.88-7.86c11.68-7.67,20.76-19.81,24-24.53l-.05,103.55H331.32l-7.87-65.68Z"
       style="fill:#BDCD00"
       id="path1441" />
    <path
       d="M325.55,361.1a1.64,1.64,0,0,1,.06-.51c.08-.39.17-.87.28-1.45l1.07-5.32c.89-4.49,2-10.72,3.08-17.62s1.77-13.2,2.24-17.75c.23-2.22.41-4.05.55-5.4.06-.59.11-1.07.16-1.47a1.85,1.85,0,0,1,.09-.51,1.93,1.93,0,0,1,0,.52c0,.4,0,.88-.06,1.48-.06,1.28-.19,3.13-.38,5.41-.38,4.57-1.06,10.87-2.1,17.79s-2.25,13.14-3.23,17.62c-.49,2.24-.91,4.05-1.23,5.29-.15.57-.27,1.05-.38,1.43A2.1,2.1,0,0,1,325.55,361.1Z"
       style="fill:#263238"
       id="path1443" />
    <path
       d="M182.25,333.38a3.14,3.14,0,0,1,.13.63c.07.46.16,1.06.28,1.79.23,1.57.53,3.83.88,6.64.69,5.61,1.5,13.38,2.13,22s1,16.41,1.08,22.05c.06,2.83.09,5.12.09,6.7,0,.74,0,1.34,0,1.82a3.91,3.91,0,0,1,0,.63,2.91,2.91,0,0,1-.07-.63c0-.47-.05-1.08-.08-1.82-.07-1.64-.15-3.91-.26-6.68-.23-5.65-.61-13.44-1.23-22s-1.38-16.35-2-22c-.3-2.76-.54-5-.71-6.65-.08-.74-.14-1.34-.18-1.81A2.6,2.6,0,0,1,182.25,333.38Z"
       style="fill:#263238"
       id="path1445" />
    <path
       d="M294.61,283.82a3.21,3.21,0,0,1-.5.51c-.35.31-.87.77-1.54,1.34-1.36,1.16-3.34,2.79-5.88,4.7a59.78,59.78,0,0,1-9.44,6,36.86,36.86,0,0,1-13.31,3.14,32.78,32.78,0,0,1-13.53-1.85,22.62,22.62,0,0,1-9-6.5,18.27,18.27,0,0,1-3.58-6.62,13.18,13.18,0,0,1-.42-2,2.94,2.94,0,0,1-.07-.71,3.28,3.28,0,0,1,.17.69,20.17,20.17,0,0,0,.51,2,19,19,0,0,0,3.67,6.44,22.55,22.55,0,0,0,8.94,6.29A32.83,32.83,0,0,0,263.92,299a37.17,37.17,0,0,0,13.13-3.05,63.09,63.09,0,0,0,9.42-5.85c2.56-1.87,4.58-3.46,6-4.56l1.6-1.27A5.69,5.69,0,0,1,294.61,283.82Z"
       style="fill:#263238"
       id="path1447" />
    <g
       style="opacity:0.30000000000000004"
       id="g1451">
      <path
         d="M220.8,331.75c-5.76,4-6.46,12.07-6.78,19.07-1.35,28.74-19.69,83.61-27.23,111.37C210.53,425.51,225.09,375.24,220.8,331.75Z"
         id="path1449" />
    </g>
    <path
       d="M222.37,282.82s-1.92,61.85-7.22,99-31,86.51-31,86.51L180,460.2S194.2,419,200.63,384.43c4.55-24.41,0-98,0-98A29.21,29.21,0,0,1,222.37,282.82Z"
       style="fill:#263238"
       id="path1453" />
    <path
       d="M208.72,344.06c-.14,0,.19-12.88.75-28.76s1.13-28.75,1.27-28.74-.19,12.88-.75,28.76S208.86,344.07,208.72,344.06Z"
       style="fill:#455a64"
       id="path1455" />
    <path
       d="M128.6,347.61l-4.93,12.74s-6.54,13.33-6,22.39,11.92,42.16,35,31.43S164.19,386,164.19,386l-10.84-29.68-17-11.19A5.22,5.22,0,0,0,128.6,347.61Z"
       style="fill:#BDCD00"
       id="path1457" />
    <path
       d="M155.84,312.21c1.51,2,10.22-.3,12.2,3.77a7.54,7.54,0,0,1,0,7.14,8.35,8.35,0,0,1,.88,9,11.64,11.64,0,0,1,.93,6,8.93,8.93,0,0,1-2.93,5.29,5.54,5.54,0,0,1-2.28,5.53c-3,2-10.94,3.54-10.94,3.54l-3.26,6s-4.52,5-10.12,2.76-9.38-13.41-9.38-13.41c.25-1.43,6.54-11.84,6.54-11.84s1.25-15.49,4-19.26,4-4.53,4-4.53,2.4-5.17,2.4-7.39-2.06-9.32-.82-10.76,6.31-.44,8.53,5.43S155.84,312.21,155.84,312.21Z"
       style="fill:#ffbf9d"
       id="path1459" />
    <path
       d="M167.75,322.65c0,.16-3-.36-6.68-.38s-6.67.46-6.7.3a6.44,6.44,0,0,1,1.93-.47,30.06,30.06,0,0,1,9.53.06A6.5,6.5,0,0,1,167.75,322.65Z"
       style="fill:#ff9a6c"
       id="path1461" />
    <path
       d="M168.44,332.88c0,.16-2.82-.41-6.3-.41s-6.28.52-6.31.36a22.42,22.42,0,0,1,12.61.05Z"
       style="fill:#ff9a6c"
       id="path1463" />
    <path
       d="M167.74,343.21a15.32,15.32,0,0,1-5.47,1.18,15.6,15.6,0,0,1-5.59-.36c0-.15,2.5.07,5.55-.16S167.7,343.06,167.74,343.21Z"
       style="fill:#ff9a6c"
       id="path1465" />
    <path
       d="M160.1,350.64a7.62,7.62,0,0,1-2.31,1,18,18,0,0,1-12-.45,7.78,7.78,0,0,1-2.22-1.19,26.57,26.57,0,0,0,8.22,1.93A26.34,26.34,0,0,0,160.1,350.64Z"
       style="fill:#ff9a6c"
       id="path1467" />
    <path
       d="M160.19,313.49c0,.17-3.23-.52-7.23-.37s-7.14,1-7.18.83a7,7,0,0,1,2-.67,25.69,25.69,0,0,1,5.14-.69,25.33,25.33,0,0,1,5.16.36A7.3,7.3,0,0,1,160.19,313.49Z"
       style="fill:#ff9a6c"
       id="path1469" />
    <path
       d="M161.93,400.88c-.05,0,.26-.63.7-1.77a22.66,22.66,0,0,0,1.32-5,23.82,23.82,0,0,0-.09-7.61,22.59,22.59,0,0,0-3.41-8.61c-1.82-2.78-3.85-5.32-5-8.06a32.86,32.86,0,0,1-2.1-7.45c-.36-2.17-.53-3.94-.64-5.17,0-.56-.08-1-.11-1.41a1.53,1.53,0,0,1,0-.49,1.9,1.9,0,0,1,.11.48c0,.38.12.84.2,1.4.17,1.22.4,3,.81,5.12a32.84,32.84,0,0,0,2.17,7.33c1.12,2.66,3.12,5.15,5,8a22.37,22.37,0,0,1,3.45,8.81,23.58,23.58,0,0,1,0,7.75,21.2,21.2,0,0,1-1.5,5,11.77,11.77,0,0,1-.63,1.28A2.46,2.46,0,0,1,161.93,400.88Z"
       style="fill:#263238"
       id="path1471" />
    <g
       style="opacity:0.30000000000000004"
       id="g1475">
      <path
         d="M152.94,355c.13.54.29,1.06.46,1.58V355Z"
         id="path1473" />
    </g>
    <g
       style="opacity:0.30000000000000004"
       id="g1479">
      <path
         d="M162.86,372.89c-3.43-5.28-7.52-10.33-9.46-16.27,0,5.05.24,10.19,2.35,14.75,1.39,3,3.51,5.57,5.28,8.35s3.22,5.95,3,9.24a11.39,11.39,0,0,0-.09,3.49c.29,1.14,1.46,2.18,2.56,1.79a2.81,2.81,0,0,0,1.45-2.09C169.67,385.53,166.58,378.63,162.86,372.89Z"
         id="path1477" />
    </g>
    <path
       d="M318.83,224.94c-2.29,1.29-5.36-.37-6.4-2.78s-.55-5.19.24-7.7,1.88-5,2-7.57a11.15,11.15,0,0,0-7.49-11c4.45-3.53,4.82-11.1.72-15-1.91-1.85-4.46-2.85-6.68-4.3a24.2,24.2,0,0,1-3.53-2.87,14.47,14.47,0,0,0,6.07.18,9.81,9.81,0,0,0,7.13-6.24,8.9,8.9,0,0,0-2.15-9.12,8.17,8.17,0,0,0-9.18-1.36c-2.87,1.52-4.45,4.65-5.85,7.58l-1.3,2.73c-4.05-5.36-7.86-10.91-14.1-12.79-5.67-1.71-11.76.2-17.66-.23-4.3-.31-8.42-1.87-12.7-2.33s-9.16.44-11.69,3.93c-1.49,2.05-2,4.7-3.46,6.74-3.1,4.2-9.79,4.77-12.34,9.33-2.07,3.7-.48,8.38-1.37,12.53-1,4.52-4.68,7.82-7.73,11.28s-5.7,8.24-4,12.53c1.5,3.77,5.9,5.8,7.34,9.6,1,2.77.28,5.85.23,8.81s1.13,6.48,4,7.15l32.85,8.68c11.31,4.6,23,9.28,35.2,9.26s25.25-5.88,30.07-17.1a7,7,0,0,1-4.72-2.12A11.69,11.69,0,0,0,318.83,224.94Z"
       style="fill:#263238"
       id="path1481" />
    <path
       d="M291.91,235.25c2.71-8.33,5.38-16.73,6.62-25.4s1-17.72-2.09-25.93c-.46-1.25-4.4-9.6-5.73-9.47-.94.09,1.49,7.89,1,8.71-4.56,7.83-5.8,17.24-5.07,26.27a118.74,118.74,0,0,0,5.26,25.82"
       style="fill:#263238"
       id="path1483" />
    <path
       d="M259.32,161l-2,.11a39.29,39.29,0,0,0-37.17,38.17c-.51,19-1.22,37.31-.55,47.47,1.39,21,23,23.24,23,23.24v10.86c.93,11.08,15.28,13.07,20.72,12.59,18.79,0,28.59-15.38,28.59-15.38l.88-76.27C293.49,179.86,281.3,161.14,259.32,161Z"
       style="fill:#ffbf9d"
       id="path1485" />
    <path
       d="M242.58,270s13.31.07,27-9.57c0,0-5.86,15.67-27,14.9Z"
       style="fill:#ff9a6c"
       id="path1487" />
    <path
       d="M229.81,216.57a3,3,0,0,0,3.06,2.88,2.89,2.89,0,0,0,3-2.88,3,3,0,0,0-3.06-2.88A2.89,2.89,0,0,0,229.81,216.57Z"
       style="fill:#263238"
       id="path1489" />
    <path
       d="M225.09,207.8c.39.38,2.58-1.43,5.81-1.6s5.7,1.33,6,.91c.16-.18-.26-.87-1.33-1.57a8.28,8.28,0,0,0-4.85-1.21,7.94,7.94,0,0,0-4.6,1.76C225.19,206.91,224.89,207.64,225.09,207.8Z"
       style="fill:#263238"
       id="path1491" />
    <path
       d="M259.09,216.64a3,3,0,0,0,3.06,2.88,2.88,2.88,0,0,0,3-2.88,3,3,0,0,0-3.06-2.88A2.88,2.88,0,0,0,259.09,216.64Z"
       style="fill:#263238"
       id="path1493" />
    <path
       d="M256.85,207.41c.4.38,2.59-1.43,5.82-1.6s5.69,1.33,6,.91c.17-.18-.25-.87-1.33-1.57a8.24,8.24,0,0,0-4.84-1.21,8,8,0,0,0-4.61,1.76C257,206.52,256.66,207.25,256.85,207.41Z"
       style="fill:#263238"
       id="path1495" />
    <path
       d="M246.58,232.9c0-.19-2-.43-5.31-.67-.83,0-1.62-.16-1.79-.72a4.19,4.19,0,0,1,.42-2.48q1-3.06,2.11-6.42c2.91-9.14,5-16.64,4.6-16.75s-3,7.2-5.94,16.34q-1,3.38-2,6.46a4.83,4.83,0,0,0-.26,3.26,2.1,2.1,0,0,0,1.43,1.14,6.14,6.14,0,0,0,1.41.12C244.54,233.18,246.57,233.08,246.58,232.9Z"
       style="fill:#263238"
       id="path1497" />
    <path
       d="M256.22,234.63c-.53,0-.35,3.51-3.22,6.16s-6.63,2.47-6.63,3c0,.22.87.64,2.45.6a8.75,8.75,0,0,0,5.55-2.28,7.61,7.61,0,0,0,2.47-5.15C256.9,235.44,256.46,234.59,256.22,234.63Z"
       style="fill:#263238"
       id="path1499" />
    <path
       d="M256.33,194.27c.36.87,3.57.28,7.39.53s6.95,1.12,7.41.31c.2-.39-.37-1.19-1.66-2a12.95,12.95,0,0,0-11.28-.63C256.83,193.13,256.17,193.86,256.33,194.27Z"
       style="fill:#263238"
       id="path1501" />
    <path
       d="M225.85,197c.61.7,2.79-.18,5.47-.36s5,.23,5.46-.57c.21-.39-.19-1.1-1.22-1.74a7.54,7.54,0,0,0-4.51-1,7.68,7.68,0,0,0-4.3,1.71C225.85,195.86,225.58,196.63,225.85,197Z"
       style="fill:#263238"
       id="path1503" />
    <path
       d="M291.89,217.51c.35-.18,14.24-5.06,14.55,9.36s-14.23,11.76-14.26,11.35S291.89,217.51,291.89,217.51Z"
       style="fill:#ffbf9d"
       id="path1505" />
    <path
       d="M296.46,232.66c.06,0,.26.17.69.35a2.48,2.48,0,0,0,1.87,0c1.52-.59,2.75-3,2.76-5.64a8.26,8.26,0,0,0-.78-3.58,2.91,2.91,0,0,0-1.93-1.89,1.28,1.28,0,0,0-1.47.72c-.18.41-.09.7-.16.72s-.32-.23-.21-.83a1.55,1.55,0,0,1,.54-.91,1.88,1.88,0,0,1,1.38-.4,3.52,3.52,0,0,1,2.68,2.18,8.72,8.72,0,0,1,1,4c0,2.9-1.46,5.66-3.53,6.3a2.69,2.69,0,0,1-2.31-.33C296.5,233,296.41,232.68,296.46,232.66Z"
       style="fill:#ff9a6c"
       id="path1507" />
    <path
       d="M229.14,175.3c-2.35-1.26,4.56-8.91,10.26-11.59,8.62-4,21.83-6.63,29.85-4.47,9.66,2.61,17.71,7.29,22.66,16s6.89,18.88,6.73,28.88c0,3-.32,6.24-1.91,8.84-2,3.21-5.82,5.27-5.59,9.66A6.1,6.1,0,0,1,289.7,227c-2.6,2.84-5.87.24-7.39-2.38-3.24-5.61-3.68-12.35-4-18.82-.26-4.6-.5-9.29.74-13.73.67-2.41,1.78-4.69,2.32-7.14s.43-5.22-1.12-7.19a9.28,9.28,0,0,0-1.18-1.17,15.06,15.06,0,0,0-15-2.65c-8.09,3-21.9,7.45-25.56,4.74-5.26-3.9-6.54-6.47-6.54-6.47Z"
       style="fill:#263238"
       id="path1509" />
    <path
       d="M268.47,157.29c-8-2.54-17-2.29-24.35,1.65-3.91,2.09-7.42,5.41-8.57,9.69s.75,9.52,4.88,11.14l.28.17c6.18,2,10.17,1.12,16.28-1.08,5.13-1.86,9.69-5.1,14.83-6.93a29.34,29.34,0,0,1,17.15-.72C283.37,165,276.43,159.84,268.47,157.29Z"
       style="fill:#263238"
       id="path1511" />
    <path
       d="M295.89,171.55c-.12.11-1.28-1.27-3.62-2.89a20.7,20.7,0,0,0-4.38-2.34,13.39,13.39,0,0,0-5.86-1A19.59,19.59,0,0,0,272,169.48c-2.23,1.77-3.26,3.25-3.4,3.15s.16-.44.63-1.11a15.41,15.41,0,0,1,2.34-2.56A18.61,18.61,0,0,1,282,164.37a13.75,13.75,0,0,1,6.27,1.12,18.8,18.8,0,0,1,4.45,2.62C295,169.93,296,171.5,295.89,171.55Z"
       style="fill:#455a64"
       id="path1513" />
    <path
       d="M297.33,176.66c.11,0-.14,1.65-1.09,4.12a30,30,0,0,1-13.47,15.16,12,12,0,0,1-3.95,1.58c-.17-.28,6.05-2.64,11.29-8.63S297,176.53,297.33,176.66Z"
       style="fill:#455a64"
       id="path1515" />
    <path
       d="M303.2,179a5,5,0,0,1,.06,1.64,25.83,25.83,0,0,1-.63,4.43,30.09,30.09,0,0,1-18.74,21.5,26.36,26.36,0,0,1-4.3,1.23A5.08,5.08,0,0,1,278,208c0-.17,2.27-.57,5.68-2a31.74,31.74,0,0,0,18.34-21C303,181.32,303,179,303.2,179Z"
       style="fill:#455a64"
       id="path1517" />
    <path
       d="M252,156c0,.16-1.49.51-3.82,1.44a31.23,31.23,0,0,0-14.79,12.19c-1.36,2.1-2,3.54-2.15,3.47a11.74,11.74,0,0,1,1.56-3.82,27.39,27.39,0,0,1,6.42-7.65,27.07,27.07,0,0,1,8.73-4.83A11.22,11.22,0,0,1,252,156Z"
       style="fill:#455a64"
       id="path1519" />
    <path
       d="M307.72,157.79c.24,0-.39,4.18-3.65,8s-7.24,5.23-7.27,5,3.49-1.93,6.53-5.61S307.44,157.69,307.72,157.79Z"
       style="fill:#455a64"
       id="path1521" />
    <path
       d="M262.1,225.41a.54.54,0,1,1-.54-.54A.54.54,0,0,1,262.1,225.41Z"
       style="fill:#ff9a6c"
       id="path1523" />
    <circle
       cx="265.53"
       cy="225.41"
       r="0.54"
       style="fill:#ff9a6c"
       id="circle1525" />
    <rect
       x="249.89"
       y="315.25"
       width="68.78"
       height="93.43"
       rx="2"
       transform="translate(115.45 -66.2) rotate(16.63)"
       style="fill:#455a64"
       id="rect1527" />
    <path
       d="M241.74,384.8a5.4,5.4,0,0,1-4.38-5.52,5.43,5.43,0,0,1,10.85.38l-1,0a4.43,4.43,0,1,0-5.28,4.19Z"
       style="fill:#263238"
       id="path1529" />
    <path
       d="M244,377.44a5.43,5.43,0,1,1,6.47-5.14l-1,0a4.43,4.43,0,1,0-8.85-.32,4.39,4.39,0,0,0,3.57,4.5Z"
       style="fill:#263238"
       id="path1531" />
    <path
       d="M246.22,370.07a5.43,5.43,0,1,1,6.47-5.13l-1,0a4.42,4.42,0,0,0-7.44-3.4,4.42,4.42,0,0,0,2.16,7.58Z"
       style="fill:#263238"
       id="path1533" />
    <path
       d="M248.46,362.71a5.43,5.43,0,1,1,6.47-5.13l-1,0a4.43,4.43,0,1,0-5.28,4.19Z"
       style="fill:#263238"
       id="path1535" />
    <path
       d="M250.7,355.35a5.43,5.43,0,0,1-2.66-9.3,5.43,5.43,0,0,1,9.13,4.17l-1,0a4.43,4.43,0,0,0-4.27-4.58,4.42,4.42,0,0,0-4.58,4.26,4.4,4.4,0,0,0,3.57,4.51Z"
       style="fill:#263238"
       id="path1537" />
    <path
       d="M252.94,348a5.43,5.43,0,0,1-2.66-9.3,5.48,5.48,0,0,1,3.9-1.45,5.41,5.41,0,0,1,5.23,5.61l-1,0a4.43,4.43,0,0,0-4.27-4.58,4.43,4.43,0,0,0-1,8.77Z"
       style="fill:#263238"
       id="path1539" />
    <path
       d="M255.18,340.63a5.43,5.43,0,0,1,1-10.76h.2a5.44,5.44,0,0,1,5.23,5.62l-1,0a4.43,4.43,0,1,0-8.85-.32,4.39,4.39,0,0,0,3.57,4.5Z"
       style="fill:#263238"
       id="path1541" />
    <path
       d="M257.42,333.27a5.43,5.43,0,1,1,6.47-5.14l-1,0a4.43,4.43,0,1,0-5.28,4.18Z"
       style="fill:#263238"
       id="path1543" />
    <path
       d="M259.66,325.9a5.43,5.43,0,0,1-2.66-9.3,5.43,5.43,0,0,1,9.13,4.17l-1,0a4.43,4.43,0,1,0-5.28,4.19Z"
       style="fill:#263238"
       id="path1545" />
    <path
       d="M261.9,318.54a5.43,5.43,0,0,1-2.66-9.3,5.43,5.43,0,0,1,9.13,4.17l-1,0a4.43,4.43,0,1,0-5.28,4.19Z"
       style="fill:#263238"
       id="path1547" />
    <path
       d="M239.5,392.16A5.43,5.43,0,1,1,246,387l-1,0a4.43,4.43,0,0,0-7.44-3.4,4.43,4.43,0,0,0,2.16,7.59Z"
       style="fill:#263238"
       id="path1549" />
    <path
       d="M247.05,386.44c1.11-2.83,13.08-44.94,18.55-62.23a7.76,7.76,0,0,1,9.54-4.88l61.49,18.28a7.25,7.25,0,0,1,4.72,8.91l-27.18,94.15a7.26,7.26,0,0,1-8.86,5l-62.66-16.93a7.26,7.26,0,0,1-5.08-9l9.34-32.92Z"
       style="fill:#fff"
       id="path1551" />
    <path
       d="M269,317.26a4.77,4.77,0,0,0-5.79,3.21c-4.57,15-19.34,63.31-20.44,66.32l-10.89,35.69a4.75,4.75,0,0,0,3.35,6L302.74,446a4.77,4.77,0,0,0,5.78-3.29l29.41-102a4.76,4.76,0,0,0-3.34-5.92Z"
       style="fill:#e0e0e0"
       id="path1553" />
    <path
       d="M269,317.26l1,.23,2.79.72L283.48,321l39.4,10.47,6.38,1.7,3.3.88,1.67.45a5.58,5.58,0,0,1,1.68.65,5,5,0,0,1,2.21,2.87,4.86,4.86,0,0,1,.18,1.86,10.4,10.4,0,0,1-.43,1.81l-2.06,7.17c-2.8,9.72-5.78,20.11-8.93,31s-6.45,22.41-9.88,34.31q-2.56,8.92-5.23,18.15-1.32,4.61-2.67,9.28l-.34,1.17a5.1,5.1,0,0,1-.52,1.17,5,5,0,0,1-1.82,1.78,5.08,5.08,0,0,1-3.75.49l-1.19-.31-37.11-9.65-17.64-4.59-8.55-2.23-2.11-.55a8.08,8.08,0,0,1-2.1-.73,5,5,0,0,1-2.47-3.59,5.16,5.16,0,0,1,.15-2.21c.21-.67.42-1.35.62-2l1.23-4c.81-2.65,1.61-5.27,2.4-7.84l4.59-15,8.31-26.9c5.1-16.43,9.22-29.72,12.08-38.92.72-2.3,1.35-4.34,1.91-6.11a9.38,9.38,0,0,1,.94-2.39,4.68,4.68,0,0,1,1.54-1.48,4.79,4.79,0,0,1,2.78-.68,4,4,0,0,1,1,.18s-.32-.08-1-.12a4.82,4.82,0,0,0-2.72.71,4.66,4.66,0,0,0-1.48,1.46,9.37,9.37,0,0,0-.91,2.37l-1.86,6.12c-2.82,9.21-6.89,22.52-11.92,39-2.52,8.22-5.29,17.24-8.25,26.91q-2.21,7.26-4.56,15-1.18,3.87-2.39,7.85c-.41,1.32-.81,2.66-1.22,4-.21.67-.41,1.35-.62,2a4.66,4.66,0,0,0-.14,2,4.5,4.5,0,0,0,2.24,3.24,7.71,7.71,0,0,0,2,.68l2.11.55,8.56,2.22,17.64,4.58,37.11,9.64a9.11,9.11,0,0,0,2.34.45,4.48,4.48,0,0,0,3.85-2.18,9.25,9.25,0,0,0,.8-2.22c.9-3.11,1.79-6.21,2.68-9.28q2.66-9.21,5.23-18.14c3.44-11.89,6.75-23.37,9.91-34.3s6.16-21.31,9-31l2.07-7.17a10.35,10.35,0,0,0,.42-1.73,4.7,4.7,0,0,0-.16-1.71,4.62,4.62,0,0,0-2-2.64,5.4,5.4,0,0,0-1.58-.61l-1.67-.45-3.3-.88-6.38-1.72-39.35-10.63-10.7-2.91-2.77-.78C269.33,317.37,269,317.26,269,317.26Z"
       style="fill:#263238"
       id="path1555" />
    <g
       style="opacity:0.30000000000000004"
       id="g1559">
      <path
         d="M273.83,416.28l-40-3.08c.51,3,2.83,5.35,5.5,6.71a29.32,29.32,0,0,0,8.64,2.38l13.59,2.26c1.73.29,3.56.62,4.85,1.81s1.87,3.27,2.95,4.82c1.79,2.54,5,3.59,8,4.47a353.17,353.17,0,0,0,35.81,8.87c3.35.61,6.83,1.15,10.15.34s6.46-3.28,7-6.65Z"
         id="path1557" />
    </g>
    <path
       d="M271.81,319c.13,0-7.44,24.6-16.92,54.86s-17.27,54.75-17.41,54.71,7.44-24.61,16.92-54.87S271.67,318.94,271.81,319Z"
       style="fill:#263238"
       id="path1561" />
    <rect
       x="275.89"
       y="347.17"
       width="40.64"
       height="20.34"
       transform="translate(114.62 -69.81) rotate(16.63)"
       style="fill:#fff"
       id="rect1563" />
    <path
       d="M279.53,387.55s-9.88-13.16-13.45-16.15-18.37-.6-18.37-.6l-6.42,6.76s1.26,5.14,7.26,2.6l1.67-1.26h6.86l4.26,5L248,383.62s-6.57-4.27-8.07-4.27-5.1,2.89-2.49,8c0,0-5,1.61-3.27,8.42,0,0-4.19,1.15-.37,9.22l.48.92s-4.38,2.08-1.5,6.69,10.15,6,12.34,5.88,41.62,5.69,41.62,5.69l10.65-27.7Z"
       style="fill:#ffbf9d"
       id="path1565" />
    <path
       d="M249.65,394.28a5.66,5.66,0,0,1-2.11-.1,15.34,15.34,0,0,1-8.84-4.88,6,6,0,0,1-1.22-1.73,19.79,19.79,0,0,0,12.17,6.71Z"
       style="fill:#ff9a6c"
       id="path1567" />
    <path
       d="M243.33,403.14a4.85,4.85,0,0,1-1.78-.52,16.57,16.57,0,0,1-7-5.47,5.13,5.13,0,0,1-.92-1.6A38.93,38.93,0,0,0,238,400,36.22,36.22,0,0,0,243.33,403.14Z"
       style="fill:#ff9a6c"
       id="path1569" />
    <path
       d="M243.35,411.17a12.65,12.65,0,0,1-5.22-1.79,12.84,12.84,0,0,1-4.31-3.45c.11-.12,1.92,1.56,4.56,3S243.39,411,243.35,411.17Z"
       style="fill:#ff9a6c"
       id="path1571" />
    <path
       d="M378.85,405.13,336,398.46l-50.37-9.52-11.78,39.6s60.2,17.65,76.69,19.82c17.62,2.32,24.45,0,30-11.58C384.12,429.4,381.91,414.59,378.85,405.13Z"
       style="fill:#BDCD00"
       id="path1573" />
    <path
       d="M338.92,446.09a1.31,1.31,0,0,1-.32-.06l-.94-.23-3.63-.94-13.56-3.58-46.71-12.5-.25-.06.08-.25c2.35-7.91,4.89-16.46,7.51-25.3l4.26-14.3.07-.23.23.05,55.17,10.92,16.3,3.29,4.39.9,1.13.25.38.1a2.33,2.33,0,0,1-.39,0l-1.14-.2-4.41-.82L340.76,400l-55.2-10.76.29-.18c-1.36,4.6-2.79,9.41-4.25,14.3-2.63,8.85-5.18,17.4-7.53,25.3l-.18-.31L320.55,441l13.52,3.72,3.61,1,.93.27Z"
       style="fill:#263238"
       id="path1575" />
  </g>
</svg>
