<?xml version="1.0" encoding="UTF-8" standalone="no"?>
<svg
   width="107.62"
   height="107.62"
   version="1.1"
   viewBox="0 0 107.62 107.62"
   id="svg26"
   sodipodi:docname="wasm.svg"
   inkscape:version="1.2.2 (b0a8486541, 2022-12-01)"
   xmlns:inkscape="http://www.inkscape.org/namespaces/inkscape"
   xmlns:sodipodi="http://sodipodi.sourceforge.net/DTD/sodipodi-0.dtd"
   xmlns="http://www.w3.org/2000/svg"
   xmlns:svg="http://www.w3.org/2000/svg"
   xmlns:rdf="http://www.w3.org/1999/02/22-rdf-syntax-ns#"
   xmlns:cc="http://creativecommons.org/ns#"
   xmlns:dc="http://purl.org/dc/elements/1.1/">
  <sodipodi:namedview
     id="namedview28"
     pagecolor="#ffffff"
     bordercolor="#000000"
     borderopacity="0.25"
     inkscape:showpageshadow="2"
     inkscape:pageopacity="0.0"
     inkscape:pagecheckerboard="0"
     inkscape:deskcolor="#d1d1d1"
     showgrid="false"
     inkscape:zoom="2.1929009"
     inkscape:cx="128.59678"
     inkscape:cy="51.985934"
     inkscape:window-width="1382"
     inkscape:window-height="1718"
     inkscape:window-x="58"
     inkscape:window-y="48"
     inkscape:window-maximized="0"
     inkscape:current-layer="svg26" />
  <defs
     id="defs9">
    <style
       id="style2">.cls-1 {
        fill: #393939;
      }

      .cls-2 {
        fill: #654ff0;
      }</style>
    <linearGradient
       id="linearGradient842"
       x1="125.02"
       x2="162.32001"
       y1="63.615002"
       y2="63.615002"
       gradientTransform="translate(-12.722,-12.406)"
       gradientUnits="userSpaceOnUse">
      <stop
         stop-color="#654ff0"
         offset="0"
         id="stop4" />
      <stop
         stop-color="#a8b9cc"
         offset="1"
         id="stop6" />
    </linearGradient>
  </defs>
  <title
     id="title11">web-assembly-logo</title>
  <g
     id="icon"
     transform="translate(-97.43)">
    <path
       class="cls-2"
       transform="translate(-0.21)"
       d="m 163.76,0 v 0.58 a 12.34,12.34 0 0 1 -24.68,0 V 0 H 97.64 V 107.62 H 205.26 V 0 Z M 149,96.1 143.76,70.17 h -0.09 L 138,96.1 h -7.22 L 122.6,58 h 7.13 l 4.88,25.93 h 0.09 L 140.58,58 h 6.67 l 5.28,26.25 h 0.09 L 158.19,58 h 7 l -9.09,38.1 z m 39.26,0 -2.43,-8.48 H 173 l -1.87,8.48 H 164 L 173.22,58 h 11.25 l 11.21,38.1 z"
       id="path13" />
    <polygon
       class="cls-2"
       points="183.87,81.37 180.3,67.39 177.3,67.39 174.19,81.37 "
       id="polygon15" />
  </g>
  <metadata
     id="metadata24">
    <rdf:RDF>
      <cc:Work
         rdf:about="">
        <dc:title>web-assembly-logo</dc:title>
      </cc:Work>
    </rdf:RDF>
  </metadata>
</svg>
